<?xml version="1.0" encoding="UTF-8" standalone="no"?>
<!-- Created with Inkscape (http://www.inkscape.org/) -->
<svg
   xmlns:dc="http://purl.org/dc/elements/1.1/"
   xmlns:cc="http://web.resource.org/cc/"
   xmlns:rdf="http://www.w3.org/1999/02/22-rdf-syntax-ns#"
   xmlns:svg="http://www.w3.org/2000/svg"
   xmlns="http://www.w3.org/2000/svg"
   xmlns:sodipodi="http://inkscape.sourceforge.net/DTD/sodipodi-0.dtd"
   xmlns:inkscape="http://www.inkscape.org/namespaces/inkscape"
   width="64px"
   height="64px"
   id="svg2991"
   sodipodi:version="0.32"
   inkscape:version="0.42"
   sodipodi:docbase="/media/hda1/home/nomed/Desktop/DSS-svn/dss/dss-main/detcskel/trunk/usr/share/pixmaps"
   sodipodi:docname="yuch.svg">
  <defs
     id="defs2993" />
  <sodipodi:namedview
     id="base"
     pagecolor="#ffffff"
     bordercolor="#666666"
     borderopacity="1.0"
     inkscape:pageopacity="0.0"
     inkscape:pageshadow="2"
     inkscape:zoom="5.5000000"
     inkscape:cx="32.000000"
     inkscape:cy="29.099988"
     inkscape:current-layer="g2682"
     showgrid="true"
     inkscape:document-units="px"
     inkscape:grid-bbox="true"
     inkscape:window-width="822"
     inkscape:window-height="548"
     inkscape:window-x="0"
     inkscape:window-y="38" />
  <metadata
     id="metadata2996">
    <rdf:RDF>
      <cc:Work
         rdf:about="">
        <dc:format>image/svg+xml</dc:format>
        <dc:type
           rdf:resource="http://purl.org/dc/dcmitype/StillImage" />
      </cc:Work>
    </rdf:RDF>
  </metadata>
  <g
     id="layer1"
     inkscape:label="Layer 1"
     inkscape:groupmode="layer">
    <g
       id="g2682"
       transform="translate(-153.6727,-213.6554)">
      <g
         id="g1403"
         transform="matrix(1.233193,0.000000,0.000000,1.233382,-39.59965,-61.07401)">
        <path
           transform="matrix(0.190548,0.000000,0.000000,0.190548,152.7065,167.4619)"
           d="M 288.57143 426.64789 A 131.42857 131.42857 0 1 1  25.714279,426.64789 A 131.42857 131.42857 0 1 1  288.57143 426.64789 z"
           sodipodi:ry="131.42857"
           sodipodi:rx="131.42857"
           sodipodi:cy="426.64789"
           sodipodi:cx="157.14285"
           id="path1671"
           style="fill:#f5f5f5;fill-opacity:1.0000000;stroke:#babdb6;stroke-width:5.2480216;stroke-miterlimit:4.0000000;stroke-dasharray:none;stroke-opacity:1.0000000"
           sodipodi:type="arc" />
        <path
           transform="matrix(0.170904,0.000000,0.000000,0.170904,155.7935,175.8430)"
           d="M 288.57143 426.64789 A 131.42857 131.42857 0 1 1  25.714279,426.64789 A 131.42857 131.42857 0 1 1  288.57143 426.64789 z"
           sodipodi:ry="131.42857"
           sodipodi:rx="131.42857"
           sodipodi:cy="426.64789"
           sodipodi:cx="157.14285"
           id="path1673"
           style="fill:#204a87;fill-opacity:1.0000000;stroke:none;stroke-width:5.2873573;stroke-miterlimit:4.0000000;stroke-opacity:1.0000000"
           sodipodi:type="arc" />
        <path
           transform="matrix(0.208769,0.000000,0.000000,0.208769,113.6616,140.1641)"
           d="M 391.42857 479.50504 A 41.428570 41.428570 0 1 1  308.57143,479.50504 A 41.428570 41.428570 0 1 1  391.42857 479.50504 z"
           sodipodi:ry="41.428570"
           sodipodi:rx="41.428570"
           sodipodi:cy="479.50504"
           sodipodi:cx="350.00000"
           id="path1675"
           style="fill:#ffffff;fill-opacity:1.0000000;stroke:none;stroke-width:5.2873573;stroke-miterlimit:4.0000000;stroke-opacity:1.0000000"
           sodipodi:type="arc" />
        <path
           transform="matrix(0.180726,0.000000,0.000000,0.180726,111.8588,152.9657)"
           d="M 447.85715 574.14789 A 30.000000 31.071428 0 1 1  387.85715,574.14789 A 30.000000 31.071428 0 1 1  447.85715 574.14789 z"
           sodipodi:ry="31.071428"
           sodipodi:rx="30.000000"
           sodipodi:cy="574.14789"
           sodipodi:cx="417.85715"
           id="path1677"
           style="fill:#ffffff;fill-opacity:1.0000000;stroke:none;stroke-width:5.2873573;stroke-miterlimit:4.0000000;stroke-opacity:1.0000000"
           sodipodi:type="arc" />
        <path
           transform="matrix(9.681743e-2,0.000000,0.000000,9.681743e-2,137.3034,206.7962)"
           d="M 447.85715 574.14789 A 30.000000 31.071428 0 1 1  387.85715,574.14789 A 30.000000 31.071428 0 1 1  447.85715 574.14789 z"
           sodipodi:ry="31.071428"
           sodipodi:rx="30.000000"
           sodipodi:cy="574.14789"
           sodipodi:cx="417.85715"
           id="path1679"
           style="fill:#ffffff;fill-opacity:1.0000000;stroke:none;stroke-width:5.2873573;stroke-miterlimit:4.0000000;stroke-opacity:1.0000000"
           sodipodi:type="arc" />
        <path
           transform="matrix(8.850828e-2,0.000000,0.000000,8.850828e-2,140.8957,200.5943)"
           d="M 447.85715 574.14789 A 30.000000 31.071428 0 1 1  387.85715,574.14789 A 30.000000 31.071428 0 1 1  447.85715 574.14789 z"
           sodipodi:ry="31.071428"
           sodipodi:rx="30.000000"
           sodipodi:cy="574.14789"
           sodipodi:cx="417.85715"
           id="path1681"
           style="fill:#ffffff;fill-opacity:1.0000000;stroke:none;stroke-width:5.2873573;stroke-miterlimit:4.0000000;stroke-opacity:1.0000000"
           sodipodi:type="arc" />
      </g>
    </g>
  </g>
</svg>
