/* XPM */
static char * linux_xpm[] = {
"48 20 135 2",
"  	c None",
". 	c #587573",
"+ 	c #2A3C42",
"@ 	c #EFEFE7",
"# 	c #A7B7CF",
"$ 	c #ADBCD2",
"% 	c #BBC7DA",
"& 	c #93A8BF",
"* 	c #AABACC",
"= 	c #D8DFE7",
"- 	c #D0D9E3",
"; 	c #C0CDDA",
"> 	c #9AAEC3",
", 	c #9EAEC6",
"' 	c #AAB8CD",
") 	c #D7DDE7",
"! 	c #D0D8E3",
"~ 	c #B1BDD1",
"{ 	c #8BA0B7",
"] 	c #ADBCCC",
"^ 	c #C9D3DD",
"/ 	c #B4BAC1",
"( 	c #8A8A8A",
"_ 	c #000000",
": 	c #2E353D",
"< 	c #0F1214",
"[ 	c #5C6A7A",
"} 	c #96A6BE",
"| 	c #B8C3D3",
"1 	c #C9D2DD",
"2 	c #B0B5BD",
"3 	c #7D7D7D",
"4 	c #A7B4C8",
"5 	c #21252A",
"6 	c #646E7E",
"7 	c #434A54",
"8 	c #758194",
"9 	c #8398AF",
"0 	c #A7B6C6",
"a 	c #B9C5D2",
"b 	c #A0A8B1",
"c 	c #707070",
"d 	c #90959B",
"e 	c #808386",
"f 	c #3E4146",
"g 	c #667688",
"h 	c #2B323A",
"i 	c #576574",
"j 	c #8E9EB6",
"k 	c #ABB7C9",
"l 	c #BAC3D2",
"m 	c #9DA3AD",
"n 	c #646464",
"o 	c #9499A1",
"p 	c #808388",
"q 	c #B0B8C6",
"r 	c #595C5F",
"s 	c #2F343C",
"t 	c #5E6979",
"u 	c #101114",
"v 	c #3F4651",
"w 	c #7B90A7",
"x 	c #99A9BB",
"y 	c #A8B5C5",
"z 	c #8D96A0",
"A 	c #575757",
"B 	c #72777C",
"C 	c #3A3A3A",
"D 	c #52606F",
"E 	c #44505C",
"F 	c #5F7082",
"G 	c #293037",
"H 	c #8696AE",
"I 	c #99A7BB",
"J 	c #A9B5C6",
"K 	c #8A919C",
"L 	c #4B4B4B",
"M 	c #6A6E73",
"N 	c #9FA8B7",
"O 	c #323232",
"P 	c #1D2126",
"Q 	c #596474",
"R 	c #2C323A",
"S 	c #72879E",
"T 	c #798DA3",
"U 	c #94A4B6",
"V 	c #78828E",
"W 	c #3E3E3E",
"X 	c #5B6065",
"Y 	c #494F55",
"Z 	c #262D34",
"` 	c #58697B",
" .	c #4C5A69",
"..	c #323C46",
"+.	c #7D8DA5",
"@.	c #8D9BB0",
"#.	c #747D8A",
"$.	c #313131",
"%.	c #52575D",
"&.	c #96A3B6",
"*.	c #262626",
"=.	c #5A6474",
"-.	c #292F37",
";.	c #616E80",
">.	c #1B1F24",
",.	c #6F7D92",
"'.	c #535E6E",
").	c #6A7F96",
"!.	c #4F5C6B",
"~.	c #252525",
"{.	c #606C7A",
"].	c #43494F",
"^.	c #212121",
"/.	c #76899E",
"(.	c #080808",
"_.	c #465464",
":.	c #232A32",
"<.	c #75859D",
"[.	c #4E5868",
"}.	c #535D6C",
"|.	c #47505C",
"1.	c #020202",
"2.	c #272C34",
"3.	c #0D0F11",
"4.	c #414A57",
"5.	c #1A1D23",
"6.	c #68768B",
"7.	c #62778E",
"8.	c #414F5E",
"9.	c #2B353F",
"0.	c #0B0D10",
"a.	c #20272F",
"b.	c #6D7D95",
"c.	c #596E86",
"d.	c #65758C",
". + + + + + + + + + + + + + + + + + + + + + + + + + + + + + + + + + + + + + + + + + + + + + . @ ",
"+ # # # $ % % % % % % % % % % % % % % % % % % % % % % % % $ # # # # # # # # # # # # # # # # + @ ",
"+ & & * = = = = = = = = = = = = = = = = = = = = - ; * * > & & & & & & & & & & & & & & & & & + @ ",
"+ , ' ) ) ) ) ) ) ) ) ) ) ) ) ) ) ) ) ) ) ) ! ~ , , , , , , , , , , , , , , , , , , , , , , + @ ",
"+ { ] ^ / ( ( / ^ ^ ^ ^ ^ ^ ^ ^ ^ ^ ^ ^ ^ ] _ _ : { < _ : { : _ _ [ _ _ _ [ { _ _ _ [ { { { + @ ",
"+ } | 1 2 3 3 2 1 1 1 1 1 1 1 1 1 1 1 1 4 } 5 _ 5 } _ _ _ } 5 _ 5 6 _ _ _ 7 8 _ _ _ 6 } } } + @ ",
"+ 9 0 a b c c b a d c c e b a a d c c f g 9 h _ _ 9 _ _ _ 9 _ _ h i _ _ _ h i _ _ _ i 9 9 9 + @ ",
"+ j k l m n n m o n n p n n q o n n r _ _ j s _ _ j _ _ _ j _ _ s t _ _ u u v u _ _ t j j j + @ ",
"+ w x y z A A z B A A y A A z B A C D _ _ D D _ _ E _ _ _ F _ _ D D _ _ G _ G G _ _ D w w w + @ ",
"+ H I J K L L K M L L J K K N M O _ P _ _ Q Q _ _ R _ R _ R _ _ Q Q _ _ R _ _ R _ _ Q H H H + @ ",
"+ S T U V W W V X W W U U U U Y _ _ Z Z Z ` ` _ _ Z _ Z _ Z _ _  . ._ _ .._ _ .._ _  .S S S + @ ",
"+ +.+.@.#.$.$.#.%.$.$.&.$.*.=.-._ _ ;.-.-.;.+._ _ >._ ,._ -._ _ +.'._ _ '._ _ '._ _ '.+.+.+.+ @ ",
"+ ).).).!.~.~.{.].~.^./.(._ _.:._ _ _._ _ _.)._ _ _ _ )._ _ _ _ )._._ _ _._ _ _._ _ _.).).).+ @ ",
"+ <.<.<.[._ (.}.|.1._ 2._ 3.<.4._ _ 5._ _ 6.<.5._ _ 5.<.5._ _ 3.<.[._ _ [.3.3.[._ _ [.<.<.<.+ @ ",
"+ 7.7.7.8._ _ 8.7.9._ _ 0.8.7.7.9.0._ 0.8.7.7.a._ _ a.7.a._ _ a.7.8._ _ 8.a.a.8._ _ 8.7.7.7.+ @ ",
"+ b.b.b.b.b.b.b.b.b.b.b.b.b.b.b.b.b.b.b.b.b.b.b.b.b.b.b.b.b.b.b.b.b.b.b.b.b.b.b.b.b.b.b.b.b.+ @ ",
"+ c.c.c.c.c.c.c.c.c.c.c.c.c.c.c.c.c.c.c.c.c.c.c.c.c.c.c.c.c.c.c.c.c.c.c.c.c.c.c.c.c.c.c.c.c.+ @ ",
"+ d.d.d.d.d.d.d.d.d.d.d.d.d.d.d.d.d.d.d.d.d.d.d.d.d.d.d.d.d.d.d.d.d.d.d.d.d.d.d.d.d.d.d.d.d.+ @ ",
". + + + + + + + + + + + + + + + + + + + + + + + + + + + + + + + + + + + + + + + + + + + + + . @ ",
"@ @ @ @ @ @ @ @ @ @ @ @ @ @ @ @ @ @ @ @ @ @ @ @ @ @ @ @ @ @ @ @ @ @ @ @ @ @ @ @ @ @ @ @ @ @ @ @ "};
