/* XPM */
static char * hide_active_xpm[] = {
"26 18 3 1",
" 	c None",
".	c #5296D5 s active_color_2",
"+	c #000000",
"  ......................  ",
" ........................ ",
" ........................ ",
" ........................ ",
" ........................ ",
" ........................ ",
" ........................ ",
" ........................ ",
" ........................ ",
" ........................ ",
" ........................ ",
" ........++++++++........ ",
" ........++++++++........ ",
" ........................ ",
" ........................ ",
" ........................ ",
" ........................ ",
"  ......................  "};
