/* XPM */
static char * closeI_xpm[] = {
"21 38 10 1",
" 	c None",
".	c #E8E8E0",
"+	c #D8D0C8",
"@	c #B0A498",
"#	c #F8FCF8",
"$	c #A8C4D0",
"%	c #ED2323",
"&	c #FFA0A0",
"*	c #FFFFFF",
"=	c #AABCC2",
".....................",
"...+@@@@@@@@@@@@+....",
"..+@############@+...",
"..@##############@...",
"..@##############@...",
"..@###+@####@+###@...",
"..@###@@@##@@@###@...",
"..@####@@@@@@####@...",
"..@#####@@@@#####@...",
"..@#####@@@@#####@...",
"..@####@@@@@@####@...",
"..@###@@@##@@@###@...",
"..@###+@####@+###@...",
"..@##############@...",
"..@##############@...",
"..+@############@+...",
"...+@@@@@@@@@@@@+....",
".....................",
".....................",
".....................",
"....$$$$$$$$$$$$.....",
"...$%%%%%%%%%%%%$....",
"..$%%%%%%%%%%%%%%$...",
"..$%%%%%%%%%%%%%%$...",
"..$%%%&*%%%%*&%%%$...",
"..$%%%***%%***%%%$...",
"..$%%%%******%%%%$...",
"..$%%%%%****%%%%%$...",
"..$%%%%%****%%%%%$...",
"..$%%%%******%%%%$...",
"..$%%%***%%***%%%$...",
"..$%%%&*%%%%*&%%%$...",
"..$%%%%%%%%%%%%%%$...",
"..$%%%%%%%%%%%%%%$...",
"...$%%%%%%%%%%%%$....",
"....$$$$$$$$$$$$.....",
".....................",
"=...................="};
