/* XPM */
static char * closeA_xpm[] = {
"21 38 11 1",
" 	c #7898A8",
".	c #7998A8",
"+	c #A8C4D0",
"@	c #BA1B1B",
"#	c #FFA0A0",
"$	c #FFFFFF",
"%	c #ED2323",
"&	c #8CA6B3",
"*	c #7E9AA6",
"=	c #7C97A2",
"-	c #7B97A2",
"  .                  ",
"  . ++++++++++++     ",
"  .+@@@@@@@@@@@@+    ",
"  +@@@@@@@@@@@@@@+   ",
"  +@@@@@@@@@@@@@@+   ",
"  +@@@#$@@@@$#@@@+   ",
"  +@@@$$$@@$$$@@@+   ",
"  +@@@@$$$$$$@@@@+   ",
"  +@@@@@$$$$@@@@@+   ",
"  +@@@@@$$$$@@@@@+   ",
"  +@@@@$$$$$$@@@@+   ",
"  +@@@$$$@@$$$@@@+   ",
"  +@@@#$@@@@$#@@@+   ",
"  +@@@@@@@@@@@@@@+   ",
"  +@@@@@@@@@@@@@@+   ",
"  .+@@@@@@@@@@@@+    ",
"  . ++++++++++++     ",
"  .                  ",
"  .                  ",
"  .                  ",
"  . ++++++++++++     ",
"  .+%%%%%%%%%%%%+    ",
"  +%%%%%%%%%%%%%%+   ",
"  +%%%%%%%%%%%%%%+   ",
"  +%%%#$%%%%$#%%%+   ",
"  +%%%$$$%%$$$%%%+   ",
"  +%%%%$$$$$$%%%%+   ",
"  +%%%%%$$$$%%%%%+   ",
"  +%%%%%$$$$%%%%%+   ",
"  +%%%%$$$$$$%%%%+   ",
"  +%%%$$$%%$$$%%%+   ",
"  +%%%#$%%%%$#%%%+   ",
"  +%%%%%%%%%%%%%%+   ",
"  +%%%%%%%%%%%%%%+   ",
"  .+%%%%%%%%%%%%+    ",
"  . ++++++++++++     ",
"  .                  ",
"&*=----------------*&"};
