/* XPM */
static char * frameITR_xpm[] = {
"23 23 5 1",
" 	c None",
".	c #B0A498",
"+	c #F8FCF8",
"@	c #D8D0C8",
"#	c #E8E8E0",
"...................    ",
"++++++++++++++++++@..  ",
"##################++@. ",
"####################+. ",
"                  ##+@.",
"                   ##+.",
"                   ##+.",
"                   ##+.",
"                   ##+.",
"                   ##+.",
"                   ##+.",
"                   ##+.",
"                   ##+.",
"                   ##+.",
"                   ##+.",
"                   ##+.",
"                   ##+.",
"                   ##+.",
"                   ##+.",
"                   ##+.",
"                   ##+.",
"                   ##+.",
"                   ##+."};
