/* XPM */
static char * frameITL_xpm[] = {
"23 23 5 1",
" 	c None",
".	c #B0A498",
"+	c #D8D0C8",
"@	c #F8FCF8",
"#	c #E8E8E0",
"    ...................",
"  ..+@@@@@@@@@@@@@@@@@@",
" .+@@##################",
" .@####################",
".+@##                  ",
".@##                   ",
".@##                   ",
".@##                   ",
".@##                   ",
".@##                   ",
".@##                   ",
".@##                   ",
".@##                   ",
".@##                   ",
".@##                   ",
".@##                   ",
".@##                   ",
".@##                   ",
".@##                   ",
".@##                   ",
".@##                   ",
".@##                   ",
".@##                   "};
