/* XPM */
static char * frameABL_xpm[] = {
"23 23 4 1",
" 	c None",
".	c #506878",
"+	c #A8C4D0",
"@	c #7898A8",
".+@@                   ",
".+@@                   ",
".+@@                   ",
".+@@                   ",
".+@@                   ",
".+@@                   ",
".+@@                   ",
".+@@                   ",
".+@@                   ",
".+@@                   ",
".+@@                   ",
".+@@                   ",
".+@@                   ",
".+@@                   ",
".+@@                   ",
".+@@                   ",
".+@@                   ",
".+@@                   ",
".+@@                   ",
".+@@@@@@@@@@@@@@@@@@@@@",
".+@@@@@@@@@@@@@@@@@@@@@",
".++++++++++++++++++++++",
"......................."};
