/* XPM */
static char * frameIBR_xpm[] = {
"23 23 4 1",
" 	c None",
".	c #E8E8E0",
"+	c #F8FCF8",
"@	c #B0A498",
"                   ..+@",
"                   ..+@",
"                   ..+@",
"                   ..+@",
"                   ..+@",
"                   ..+@",
"                   ..+@",
"                   ..+@",
"                   ..+@",
"                   ..+@",
"                   ..+@",
"                   ..+@",
"                   ..+@",
"                   ..+@",
"                   ..+@",
"                   ..+@",
"                   ..+@",
"                   ..+@",
"                   ..+@",
".....................+@",
".....................+@",
"++++++++++++++++++++++@",
"@@@@@@@@@@@@@@@@@@@@@@@"};
