/* XPM */
static char * maximizeI_xpm[] = {
"20 38 11 1",
" 	c None",
".	c #E8E8E0",
"+	c #D8D0C8",
"@	c #B0A498",
"#	c #F8FCF8",
"$	c #A8C4D0",
"%	c #AAC5D1",
"&	c #7A8EA4",
"*	c #AAC6D1",
"=	c #FFFFFF",
"-	c #AABCC2",
"....................",
"...+@@@@@@@@@@@@+...",
"..+@############@+..",
"..@##############@..",
"..@##############@..",
"..@####@@@@@@####@..",
"..@###@@@@@@@@###@..",
"..@###@@####@@###@..",
"..@###@@####@@###@..",
"..@###@@####@@###@..",
"..@###@@####@@###@..",
"..@###@@@@@@@@###@..",
"..@####@@@@@@####@..",
"..@##############@..",
"..@##############@..",
"..+@############@+..",
"...+@@@@@@@@@@@@+...",
"....................",
"....................",
"....................",
"....$$$$$$$$$$$$....",
"...%&&&&&&&&&&&&*...",
"..$&&&&&&&&&&&&&&$..",
"..$&&&&&&&&&&&&&&$..",
"..$&&&&======&&&&$..",
"..$&&&========&&&$..",
"..$&&&==&&&&==&&&$..",
"..$&&&==&&&&==&&&$..",
"..$&&&==&&&&==&&&$..",
"..$&&&==&&&&==&&&$..",
"..$&&&========&&&$..",
"..$&&&&======&&&&$..",
"..$&&&&&&&&&&&&&&$..",
"..$&&&&&&&&&&&&&&$..",
"...%&&&&&&&&&&&&*...",
"....$$$$$$$$$$$$....",
"....................",
"-..................."};
