/* XPM */
static char * maximizeA_xpm[] = {
"20 38 13 1",
" 	c #7898A8",
".	c #7998A8",
"+	c #A8C4D0",
"@	c #AAC5D1",
"#	c #4F667E",
"$	c #4F657F",
"%	c #AAC6D1",
"&	c #FFFFFF",
"*	c #7A8EA4",
"=	c #8CA6B3",
"-	c #7E9AA6",
";	c #7C97A2",
">	c #7B97A2",
"  .                 ",
"  . ++++++++++++    ",
"  .@#$$$$$$$$$$#%   ",
"  +#$$$$$$$$$$$$#+  ",
"  +$$$$$$$$$$$$$$+  ",
"  +$$$$&&&&&&$$$$+  ",
"  +$$$&&&&&&&&$$$+  ",
"  +$$$&&$$$$&&$$$+  ",
"  +$$$&&$$$$&&$$$+  ",
"  +$$$&&$$$$&&$$$+  ",
"  +$$$&&$$$$&&$$$+  ",
"  +$$$&&&&&&&&$$$+  ",
"  +$$$$&&&&&&$$$$+  ",
"  +$$$$$$$$$$$$$$+  ",
"  +#$$$$$$$$$$$$#+  ",
"  .@#$$$$$$$$$$#%   ",
"  . ++++++++++++    ",
"  .                 ",
"  .                 ",
"  .                 ",
"  . ++++++++++++    ",
"  .@************%   ",
"  +**************+  ",
"  +**************+  ",
"  +****&&&&&&****+  ",
"  +***&&&&&&&&***+  ",
"  +***&&****&&***+  ",
"  +***&&****&&***+  ",
"  +***&&****&&***+  ",
"  +***&&****&&***+  ",
"  +***&&&&&&&&***+  ",
"  +****&&&&&&****+  ",
"  +**************+  ",
"  +**************+  ",
"  .@************%   ",
"  . ++++++++++++    ",
"  .                 ",
"=-;>>>>>>>>>>>>>>>>-"};
