/* XPM */
static char * menuButtonI_xpm[] = {
"20 38 11 1",
" 	c None",
".	c #E8E8E0",
"+	c #D8D0C8",
"@	c #B0A498",
"#	c #F8FCF8",
"$	c #A8C4D0",
"%	c #AEC7D3",
"&	c #7A8EA4",
"*	c #AECAD3",
"=	c #FFFFFF",
"-	c #AABCC2",
"....................",
"...+@@@@@@@@@@@@+...",
"..+@############@+..",
"..@##############@..",
"..@##############@..",
"..@##############@..",
"..@####@####@####@..",
"..@###@@@##@@@###@..",
"..@###@@@@@@@@###@..",
"..@####@@@@@@####@..",
"..@#####@@@@#####@..",
"..@######@@######@..",
"..@##############@..",
"..@##############@..",
"..@##############@..",
"..+@############@+..",
"...+@@@@@@@@@@@@+...",
"....................",
"....................",
"....................",
"....$$$$$$$$$$$$....",
"...%&&&&&&&&&&&&*...",
"..$&&&&&&&&&&&&&&$..",
"..$&&&&&&&&&&&&&&$..",
"..$&&&&&&&&&&&&&&$..",
"..$&&&&=&&&&=&&&&$..",
"..$&&&===&&===&&&$..",
"..$&&&========&&&$..",
"..$&&&&======&&&&$..",
"..$&&&&&====&&&&&$..",
"..$&&&&&&==&&&&&&$..",
"..$&&&&&&&&&&&&&&$..",
"..$&&&&&&&&&&&&&&$..",
"..$&&&&&&&&&&&&&&$..",
"...%&&&&&&&&&&&&*...",
"....$$$$$$$$$$$$....",
"....................",
"-..................."};
