/* XPM */
static char * minimizeA_xpm[] = {
"20 38 11 1",
" 	c None",
".	c #7898A8",
"+	c #7998A8",
"@	c #A8C4D0",
"#	c #506878",
"$	c #F8FCF8",
"%	c #8399A4",
"&	c #8CA6B3",
"*	c #7E9AA6",
"=	c #7C97A2",
"-	c #7B97A2",
"..+.................",
"..+.@@@@@@@@@@@@....",
"..+@############@...",
"..@##############@..",
"..@##############@..",
"..@##############@..",
"..@##############@..",
"..@##############@..",
"..@##############@..",
"..@##############@..",
"..@##############@..",
"..@####$$$$$$####@..",
"..@####$$$$$$####@..",
"..@##############@..",
"..@##############@..",
"..+@############@...",
"..+.@@@@@@@@@@@@....",
"..+.................",
"..+.................",
"..+.................",
"..+.@@@@@@@@@@@@....",
"..+@%%%%%%%%%%%%@...",
"..@%%%%%%%%%%%%%%@..",
"..@%%%%%%%%%%%%%%@..",
"..@%%%%%%%%%%%%%%@..",
"..@%%%%%%%%%%%%%%@..",
"..@%%%%%%%%%%%%%%@..",
"..@%%%%%%%%%%%%%%@..",
"..@%%%%%%%%%%%%%%@..",
"..@%%%%%%%%%%%%%%@..",
"..@%%%%$$$$$$%%%%@..",
"..@%%%%$$$$$$%%%%@..",
"..@%%%%%%%%%%%%%%@..",
"..@%%%%%%%%%%%%%%@..",
"..+@%%%%%%%%%%%%@...",
"..+.@@@@@@@@@@@@....",
"..+.................",
"&*=----------------*"};
