/* XPM */
static char * minimizeI_xpm[] = {
"20 38 9 1",
" 	c None",
".	c #E8E8E0",
"+	c #D8D0C8",
"@	c #B0A498",
"#	c #F6FAF6",
"$	c #A8C4D0",
"%	c #8399A4",
"&	c #F8FCF8",
"*	c #AABCC2",
"....................",
"...+@@@@@@@@@@@@+...",
"..+@############@+..",
"..@##############@..",
"..@##############@..",
"..@##############@..",
"..@##############@..",
"..@##############@..",
"..@##############@..",
"..@##############@..",
"..@##############@..",
"..@####@@@@@@####@..",
"..@####@@@@@@####@..",
"..@##############@..",
"..@##############@..",
"..+@############@+..",
"...+@@@@@@@@@@@@+...",
"....................",
"....................",
"....................",
"....$$$$$$$$$$$$....",
"...$%%%%%%%%%%%%$...",
"..$%%%%%%%%%%%%%%$..",
"..$%%%%%%%%%%%%%%$..",
"..$%%%%%%%%%%%%%%$..",
"..$%%%%%%%%%%%%%%$..",
"..$%%%%%%%%%%%%%%$..",
"..$%%%%%%%%%%%%%%$..",
"..$%%%%%%%%%%%%%%$..",
"..$%%%%%%%%%%%%%%$..",
"..$%%%%&&&&&&%%%%$..",
"..$%%%%&&&&&&%%%%$..",
"..$%%%%%%%%%%%%%%$..",
"..$%%%%%%%%%%%%%%$..",
"...$%%%%%%%%%%%%$...",
"....$$$$$$$$$$$$....",
"....................",
"*..................."};
