/* XPM */
static char * restoreA_xpm[] = {
"20 38 15 1",
" 	c #7898A8",
".	c #7998A8",
"+	c #A8C4D0",
"@	c #ACC6D2",
"#	c #4E6483",
"$	c #4E6385",
"%	c #ACC8D2",
"&	c #FEFEFE",
"*	c #FFFFFF",
"=	c #7285A4",
"-	c #FEFFFF",
";	c #8CA6B3",
">	c #7E9AA6",
",	c #7C97A2",
"'	c #7B97A2",
"  .                 ",
"  . ++++++++++++    ",
"  .@#$$$$$$$$$$#%   ",
"  +#$$$$$$$$$$$$#+  ",
"  +$$$$$$&&&&&$$$+  ",
"  +$$$$$*******$$+  ",
"  +$$$$$$$$$$**$$+  ",
"  +$$$*****$$**$$+  ",
"  +$$&******$**$$+  ",
"  +$$&*$$$**$**$$+  ",
"  +$$&*$$$**$*$$$+  ",
"  +$$&*$$$**$$$$$+  ",
"  +$$&******$$$$$+  ",
"  +$$$*****$$$$$$+  ",
"  +#$$$$$$$$$$$$#+  ",
"  .@#$$$$$$$$$$#%   ",
"  . ++++++++++++    ",
"  .                 ",
"  .                 ",
"  .                 ",
"  . ++++++++++++    ",
"  .@============%   ",
"  +==============+  ",
"  +======-----===+  ",
"  +=====*******==+  ",
"  +==========**==+  ",
"  +===*****==**==+  ",
"  +==-******=**==+  ",
"  +==-*===**=**==+  ",
"  +==-*===**=*===+  ",
"  +==-*===**=====+  ",
"  +==-******=====+  ",
"  +===*****======+  ",
"  +==============+  ",
"  .@============%   ",
"  . ++++++++++++    ",
"  .                 ",
";>,''''''''''''''''>"};
