/* XPM */
static char * restoreI_xpm[] = {
"20 38 10 1",
" 	c None",
".	c #E8E8E0",
"+	c #D8D0C8",
"@	c #B0A498",
"#	c #F6FAF6",
"$	c #A8C4D0",
"%	c #ACC6D2",
"&	c #7285A4",
"*	c #ACC8D2",
"=	c #B6C4C8",
"....................",
"...+@@@@@@@@@@@@+...",
"..+@############@+..",
"..@##############@..",
"..@######@@@@@###@..",
"..@#####@@@@@@@##@..",
"..@##########@@##@..",
"..@###@@@@@##@@##@..",
"..@##@@@@@@@#@@##@..",
"..@##@@###@@#@@##@..",
"..@##@@###@@#@###@..",
"..@##@@###@@#####@..",
"..@##@@@@@@@#####@..",
"..@###@@@@@######@..",
"..@##############@..",
"..+@############@+..",
"...+@@@@@@@@@@@@+...",
"....................",
"....................",
"....................",
"....$$$$$$$$$$$$....",
"...%&&&&&&&&&&&&*...",
"..$&&&&&&&&&&&&&&$..",
"..$&&&&&&@@@@@&&&$..",
"..$&&&&&@@@@@@@&&$..",
"..$&&&&&&&&&&@@&&$..",
"..$&&&@@@@@&&@@&&$..",
"..$&&@@@@@@@&@@&&$..",
"..$&&@@&&&@@&@@&&$..",
"..$&&@@&&&@@&@&&&$..",
"..$&&@@&&&@@&&&&&$..",
"..$&&@@@@@@@&&&&&$..",
"..$&&&@@@@@&&&&&&$..",
"..$&&&&&&&&&&&&&&$..",
"...%&&&&&&&&&&&&*...",
"....$$$$$$$$$$$$....",
"....................",
"=..................."};
