<?xml version="1.0" encoding="UTF-8" standalone="no"?>
<!-- Created with Inkscape (http://www.inkscape.org/) -->
<svg
   xmlns:xml="http://www.w3.org/XML/1998/namespace"
   xmlns:dc="http://purl.org/dc/elements/1.1/"
   xmlns:cc="http://web.resource.org/cc/"
   xmlns:rdf="http://www.w3.org/1999/02/22-rdf-syntax-ns#"
   xmlns:svg="http://www.w3.org/2000/svg"
   xmlns="http://www.w3.org/2000/svg"
   xmlns:xlink="http://www.w3.org/1999/xlink"
   xmlns:sodipodi="http://inkscape.sourceforge.net/DTD/sodipodi-0.dtd"
   xmlns:inkscape="http://www.inkscape.org/namespaces/inkscape"
   inkscape:export-ydpi="90.000000"
   inkscape:export-xdpi="90.000000"
   inkscape:export-filename="c:\dss.png"
   width="210mm"
   height="297mm"
   id="svg2"
   sodipodi:version="0.32"
   inkscape:version="0.40+cvs"
   sodipodi:docbase="c:\"
   sodipodi:docname="dss.svg">
  <defs
     id="defs3">
    <linearGradient
       id="linearGradient2071">
      <stop
         style="stop-color:#f6f9ff;stop-opacity:0.70866144;"
         offset="0.00000000"
         id="stop2073" />
      <stop
         style="stop-color:#f6f9ff;stop-opacity:0;"
         offset="1"
         id="stop2075" />
    </linearGradient>
    <radialGradient
       inkscape:collect="always"
       xlink:href="#linearGradient2071"
       id="radialGradient2077"
       cx="227.44186"
       cy="356.82645"
       fx="227.44186"
       fy="356.82645"
       r="277.49329"
       gradientUnits="userSpaceOnUse" />
    <radialGradient
       inkscape:collect="always"
       xlink:href="#linearGradient2071"
       id="radialGradient2082"
       gradientUnits="userSpaceOnUse"
       cx="449.71027"
       cy="373.96582"
       fx="450.86969"
       fy="372.80518"
       r="195.36577" />
  </defs>
  <sodipodi:namedview
     id="base"
     pagecolor="#ffffff"
     bordercolor="#666666"
     borderopacity="1.0"
     inkscape:pageopacity="1.0000000"
     inkscape:pageshadow="2"
     inkscape:zoom="0.70710678"
     inkscape:cx="539.82130"
     inkscape:cy="337.34984"
     inkscape:document-units="px"
     inkscape:current-layer="layer1"
     inkscape:window-width="876"
     inkscape:window-height="826"
     inkscape:window-x="42"
     inkscape:window-y="78" />
  <metadata
     id="metadata4">
    <rdf:RDF
       id="RDF5">
      <cc:Work
         rdf:about=""
         id="Work6">
        <dc:format
           id="format7">image/svg+xml</dc:format>
        <dc:type
           id="type9"
           rdf:resource="http://purl.org/dc/dcmitype/StillImage" />
      </cc:Work>
    </rdf:RDF>
  </metadata>
  <g
     inkscape:label="Layer 1"
     inkscape:groupmode="layer"
     id="layer1">
    <path
       id="rect139_1_"
       d="M -84.468500,92.846960 L -72.291700,92.846960 C -69.315100,92.846960 -66.902100,95.261960 -66.902100,98.239560 L -66.902100,110.41536 C -66.902100,113.39286 -69.315200,115.80596 -72.291700,115.80596 L -84.468500,115.80596 C -87.445100,115.80596 -89.860100,113.39286 -89.860100,110.41536 L -89.860100,98.239560 C -89.860100,95.261960 -87.445100,92.846960 -84.468500,92.846960 z "
       style="fill:#8ae234;fill-opacity:1.0000000" />
    <path
       id="rect145_1_"
       d="M -54.860100,92.846960 L -42.685300,92.846960 C -39.706800,92.846960 -37.293700,95.261960 -37.293700,98.239560 L -37.293700,110.41536 C -37.293700,113.39286 -39.706800,115.80596 -42.685300,115.80596 L -54.860100,115.80596 C -57.838600,115.80596 -60.252700,113.39286 -60.252700,110.41536 L -60.252700,98.239560 C -60.252700,95.261960 -57.838700,92.846960 -54.860100,92.846960 z "
       style="fill:#73d216;fill-opacity:1.0000000" />
    <path
       id="rect157_1_"
       d="M -25.253700,92.846960 L -13.077900,92.846960 C -10.100400,92.846960 -7.6873003,95.261960 -7.6873003,98.239560 L -7.6873003,110.41536 C -7.6873003,113.39286 -10.100400,115.80596 -13.077900,115.80596 L -25.253700,115.80596 C -28.231200,115.80596 -30.645300,113.39286 -30.645300,110.41536 L -30.645300,98.239560 C -30.645300,95.261960 -28.231200,92.846960 -25.253700,92.846960 z "
       style="fill:#4e9a06;fill-opacity:1.0000000" />
    <path
       id="rect140_1_"
       d="M -84.468500,33.632060 L -72.291700,33.632060 C -69.315100,33.632060 -66.902100,36.047060 -66.902100,39.024660 L -66.902100,51.200460 C -66.902100,54.177960 -69.315200,56.591060 -72.291700,56.591060 L -84.468500,56.591060 C -87.445100,56.591060 -89.860100,54.177960 -89.860100,51.200460 L -89.860100,39.024660 C -89.860100,36.047160 -87.445100,33.632060 -84.468500,33.632060 z "
       style="fill:#fcaf3e" />
    <path
       id="rect146_1_"
       d="M -54.860100,33.632060 L -42.685300,33.632060 C -39.706800,33.632060 -37.293700,36.047060 -37.293700,39.024660 L -37.293700,51.200460 C -37.293700,54.177960 -39.706800,56.591060 -42.685300,56.591060 L -54.860100,56.591060 C -57.838600,56.591060 -60.252700,54.177960 -60.252700,51.200460 L -60.252700,39.024660 C -60.252700,36.047160 -57.838700,33.632060 -54.860100,33.632060 z "
       style="fill:#f57900" />
    <path
       id="rect158_1_"
       d="M -25.253700,33.632060 L -13.077900,33.632060 C -10.100400,33.632060 -7.6873003,36.047060 -7.6873003,39.024660 L -7.6873003,51.200460 C -7.6873003,54.177960 -10.100400,56.591060 -13.077900,56.591060 L -25.253700,56.591060 C -28.231200,56.591060 -30.645300,54.177960 -30.645300,51.200460 L -30.645300,39.024660 C -30.645300,36.047160 -28.231200,33.632060 -25.253700,33.632060 z "
       style="fill:#ce5c00" />
    <path
       id="rect141_3_"
       d="M -84.468500,122.45626 L -72.291700,122.45626 C -69.315100,122.45626 -66.902100,124.86936 -66.902100,127.84686 L -66.902100,140.02166 C -66.902100,143.00016 -69.315200,145.41426 -72.291700,145.41426 L -84.468500,145.41426 C -87.445100,145.41426 -89.860100,143.00016 -89.860100,140.02166 L -89.860100,127.84686 C -89.860100,124.86936 -87.445100,122.45626 -84.468500,122.45626 z "
       style="fill:#729fcf" />
    <path
       id="rect147_3_"
       d="M -54.860100,122.45626 L -42.685300,122.45626 C -39.706800,122.45626 -37.293700,124.86936 -37.293700,127.84686 L -37.293700,140.02166 C -37.293700,143.00016 -39.706800,145.41426 -42.685300,145.41426 L -54.860100,145.41426 C -57.838600,145.41426 -60.252700,143.00016 -60.252700,140.02166 L -60.252700,127.84686 C -60.252700,124.86936 -57.838700,122.45626 -54.860100,122.45626 z "
       style="fill:#3465a4" />
    <path
       id="rect159_3_"
       d="M -25.253700,122.45626 L -13.077900,122.45626 C -10.100400,122.45626 -7.6873003,124.86936 -7.6873003,127.84686 L -7.6873003,140.02166 C -7.6873003,143.00016 -10.100400,145.41426 -13.077900,145.41426 L -25.253700,145.41426 C -28.231200,145.41426 -30.645300,143.00016 -30.645300,140.02166 L -30.645300,127.84686 C -30.645300,124.86936 -28.231200,122.45626 -25.253700,122.45626 z "
       style="fill:#204a87" />
    <path
       id="rect168_1_"
       d="M -84.468500,226.47386 L -72.291700,226.47386 C -69.315100,226.47386 -66.902100,228.88696 -66.902100,231.86546 L -66.902100,244.04226 C -66.902100,247.01886 -69.315200,249.43386 -72.291700,249.43386 L -84.468500,249.43386 C -87.445100,249.43386 -89.860100,247.01886 -89.860100,244.04226 L -89.860100,231.86546 C -89.860100,228.88696 -87.445100,226.47386 -84.468500,226.47386 z "
       style="fill:#eeeeec" />
    <path
       id="rect169_1_"
       d="M -54.860100,226.47386 L -42.685300,226.47386 C -39.706800,226.47386 -37.293700,228.88696 -37.293700,231.86546 L -37.293700,244.04226 C -37.293700,247.01886 -39.706800,249.43386 -42.685300,249.43386 L -54.860100,249.43386 C -57.838600,249.43386 -60.252700,247.01886 -60.252700,244.04226 L -60.252700,231.86546 C -60.252700,228.88696 -57.838700,226.47386 -54.860100,226.47386 z "
       style="fill:#d3d7cf" />
    <path
       id="rect181_1_"
       d="M -25.253700,226.47386 L -13.077900,226.47386 C -10.100400,226.47386 -7.6873003,228.88696 -7.6873003,231.86546 L -7.6873003,244.04226 C -7.6873003,247.01886 -10.100400,249.43386 -13.077900,249.43386 L -25.253700,249.43386 C -28.231200,249.43386 -30.645300,247.01886 -30.645300,244.04226 L -30.645300,231.86546 C -30.645300,228.88696 -28.231200,226.47386 -25.253700,226.47386 z "
       style="fill:#babdb6" />
    <path
       id="rect171_1_"
       d="M -54.860100,256.08126 L -42.685300,256.08126 C -39.706800,256.08126 -37.293700,258.49726 -37.293700,261.47286 L -37.293700,273.64866 C -37.293700,276.62716 -39.706800,279.03926 -42.685300,279.03926 L -54.860100,279.03926 C -57.838600,279.03926 -60.252700,276.62716 -60.252700,273.64866 L -60.252700,261.47286 C -60.252700,258.49726 -57.838700,256.08126 -54.860100,256.08126 z "
       style="fill:#555753" />
    <path
       id="rect183_1_"
       d="M -25.253700,256.08126 L -13.077900,256.08126 C -10.100400,256.08126 -7.6873003,258.49726 -7.6873003,261.47286 L -7.6873003,273.64866 C -7.6873003,276.62716 -10.100400,279.03926 -13.077900,279.03926 L -25.253700,279.03926 C -28.231200,279.03926 -30.645300,276.62716 -30.645300,273.64866 L -30.645300,261.47286 C -30.645300,258.49726 -28.231200,256.08126 -25.253700,256.08126 z "
       style="fill:#2e3436" />
    <path
       id="rect193_1_"
       d="M -84.468500,256.08126 L -72.291700,256.08126 C -69.315100,256.08126 -66.902100,258.49726 -66.902100,261.47286 L -66.902100,273.64866 C -66.902100,276.62716 -69.315200,279.03926 -72.291700,279.03926 L -84.468500,279.03926 C -87.445100,279.03926 -89.860100,276.62716 -89.860100,273.64866 L -89.860100,261.47286 C -89.860100,258.49726 -87.445100,256.08126 -84.468500,256.08126 z "
       style="fill:#888a85" />
    <path
       id="rect301_1_"
       d="M -84.468500,4.0256599 L -72.291700,4.0256599 C -69.315100,4.0256599 -66.902100,6.4387599 -66.902100,9.4162599 L -66.902100,21.592060 C -66.902100,24.569560 -69.315200,26.983660 -72.291700,26.983660 L -84.468500,26.983660 C -87.445100,26.983660 -89.860100,24.569560 -89.860100,21.592060 L -89.860100,9.4162599 C -89.860100,6.4387599 -87.445100,4.0256599 -84.468500,4.0256599 z "
       style="fill:#fce94f" />
    <path
       id="rect302_1_"
       d="M -54.860100,4.0256599 L -42.685300,4.0256599 C -39.706800,4.0256599 -37.293700,6.4387599 -37.293700,9.4162599 L -37.293700,21.592060 C -37.293700,24.569560 -39.706800,26.983660 -42.685300,26.983660 L -54.860100,26.983660 C -57.838600,26.983660 -60.252700,24.569560 -60.252700,21.592060 L -60.252700,9.4162599 C -60.252700,6.4387599 -57.838700,4.0256599 -54.860100,4.0256599 z "
       style="fill:#edd400" />
    <path
       id="rect303_1_"
       d="M -25.253700,4.0256599 L -13.077900,4.0256599 C -10.100400,4.0256599 -7.6873003,6.4387599 -7.6873003,9.4162599 L -7.6873003,21.592060 C -7.6873003,24.569560 -10.100400,26.983660 -13.077900,26.983660 L -25.253700,26.983660 C -28.231200,26.983660 -30.645300,24.569560 -30.645300,21.592060 L -30.645300,9.4162599 C -30.645300,6.4387599 -28.231200,4.0256599 -25.253700,4.0256599 z "
       style="fill:#c4a000" />
    <path
       id="rect305_1_"
       d="M -84.468500,63.240460 L -72.291700,63.240460 C -69.315100,63.240460 -66.902100,65.653560 -66.902100,68.632060 L -66.902100,80.806860 C -66.902100,83.784360 -69.315200,86.198460 -72.291700,86.198460 L -84.468500,86.198460 C -87.445100,86.198460 -89.860100,83.784360 -89.860100,80.806860 L -89.860100,68.632060 C -89.860100,65.653560 -87.445100,63.240460 -84.468500,63.240460 z "
       style="fill:#e9b96e" />
    <path
       id="rect306_1_"
       d="M -54.860100,63.240460 L -42.685300,63.240460 C -39.706800,63.240460 -37.293700,65.653560 -37.293700,68.632060 L -37.293700,80.806860 C -37.293700,83.784360 -39.706800,86.198460 -42.685300,86.198460 L -54.860100,86.198460 C -57.838600,86.198460 -60.252700,83.784360 -60.252700,80.806860 L -60.252700,68.632060 C -60.252700,65.653560 -57.838700,63.240460 -54.860100,63.240460 z "
       style="fill:#c17d11" />
    <path
       id="rect307_1_"
       d="M -25.253700,63.240460 L -13.077900,63.240460 C -10.100400,63.240460 -7.6873003,65.653560 -7.6873003,68.632060 L -7.6873003,80.806860 C -7.6873003,83.784360 -10.100400,86.198460 -13.077900,86.198460 L -25.253700,86.198460 C -28.231200,86.198460 -30.645300,83.784360 -30.645300,80.806860 L -30.645300,68.632060 C -30.645300,65.653560 -28.231200,63.240460 -25.253700,63.240460 z "
       style="fill:#8f5902" />
    <path
       id="rect141_2_"
       d="M -84.468500,152.45626 L -72.291700,152.45626 C -69.315100,152.45626 -66.902100,154.86936 -66.902100,157.84686 L -66.902100,170.02166 C -66.902100,173.00016 -69.315200,175.41426 -72.291700,175.41426 L -84.468500,175.41426 C -87.445100,175.41426 -89.860100,173.00016 -89.860100,170.02166 L -89.860100,157.84686 C -89.860100,154.86936 -87.445100,152.45626 -84.468500,152.45626 z "
       style="fill:#ad7fa8" />
    <path
       id="rect147_2_"
       d="M -54.860100,152.45626 L -42.685300,152.45626 C -39.706800,152.45626 -37.293700,154.86936 -37.293700,157.84686 L -37.293700,170.02166 C -37.293700,173.00016 -39.706800,175.41426 -42.685300,175.41426 L -54.860100,175.41426 C -57.838600,175.41426 -60.252700,173.00016 -60.252700,170.02166 L -60.252700,157.84686 C -60.252700,154.86936 -57.838700,152.45626 -54.860100,152.45626 z "
       style="fill:#75507b" />
    <path
       id="rect159_2_"
       d="M -25.253700,152.45626 L -13.077900,152.45626 C -10.100400,152.45626 -7.6873003,154.86936 -7.6873003,157.84686 L -7.6873003,170.02166 C -7.6873003,173.00016 -10.100400,175.41426 -13.077900,175.41426 L -25.253700,175.41426 C -28.231200,175.41426 -30.645300,173.00016 -30.645300,170.02166 L -30.645300,157.84686 C -30.645300,154.86936 -28.231200,152.45626 -25.253700,152.45626 z "
       style="fill:#5c3566" />
    <text
       id="text1529"
       x="856.03632"
       y="509.84283"
       style="fill:#a7a7a7;fill-opacity:1.0000000"><tspan
         x="856.03632"
         y="509.84283"
         font-size="8"
         id="tspan1531"
         style="font-size:8.0000000"></tspan></text>
    <text
       id="text1533"
       x="-142.70728"
       y="18.394287"
       style="font-size:12.000000;font-style:normal;font-variant:normal;font-weight:bold;font-stretch:normal;fill:#a7a7a7;fill-opacity:1.0000000;font-family:Trebuchet MS;text-anchor:start;writing-mode:lr-tb"
       sodipodi:linespacing="100%"><tspan
         x="-142.70728"
         y="18.394287"
         font-size="11"
         id="tspan1535"
         style="font-size:11.000000;font-family:Trebuchet MS">Butter</tspan></text>
    <text
       id="text1537"
       x="-142.62134"
       y="48.001282"
       style="font-size:12.000000;font-style:normal;font-variant:normal;font-weight:bold;font-stretch:normal;fill:#a7a7a7;fill-opacity:1.0000000;font-family:Trebuchet MS;text-anchor:start;writing-mode:lr-tb"
       sodipodi:linespacing="100%"><tspan
         x="-142.62134"
         y="48.001282"
         font-size="11"
         id="tspan1539"
         style="font-size:11.000000;font-family:Trebuchet MS">Orange</tspan></text>
    <text
       id="text1541"
       x="-157.46704"
       y="77.609192"
       style="font-size:12.000000;font-style:normal;font-variant:normal;font-weight:bold;font-stretch:normal;fill:#a7a7a7;fill-opacity:1.0000000;font-family:Trebuchet MS;text-anchor:start;writing-mode:lr-tb"
       sodipodi:linespacing="100%"><tspan
         x="-157.46704"
         y="77.609192"
         font-size="11"
         id="tspan1543"
         style="font-size:11.000000;font-family:Trebuchet MS">Chocolate</tspan></text>
    <text
       id="text1545"
       x="-163.12817"
       y="107.21606"
       style="font-size:12.000000;font-style:normal;font-variant:normal;font-weight:bold;font-stretch:normal;fill:#a7a7a7;fill-opacity:1.0000000;font-family:Trebuchet MS;text-anchor:start;writing-mode:lr-tb"
       sodipodi:linespacing="100%"><tspan
         x="-163.12817"
         y="107.21606"
         font-size="11"
         id="tspan1547"
         style="font-size:11.000000;font-family:Trebuchet MS">Chameleon</tspan></text>
    <text
       id="text1549"
       x="-149.79712"
       y="136.82446"
       style="font-size:12.000000;font-style:normal;font-variant:normal;font-weight:bold;font-stretch:normal;fill:#a7a7a7;fill-opacity:1.0000000;font-family:Trebuchet MS;text-anchor:start;writing-mode:lr-tb"
       sodipodi:linespacing="100%"><tspan
         x="-149.79712"
         y="136.82446"
         font-size="11"
         id="tspan1551"
         style="font-size:11.000000;font-family:Trebuchet MS">Sky Blue</tspan></text>
    <text
       id="text1553"
       x="856.03632"
       y="539.84283"
       style="fill:#a7a7a7;fill-opacity:1.0000000"><tspan
         x="856.03632"
         y="539.84283"
         font-size="8"
         id="tspan1555"
         style="font-size:8.0000000"></tspan></text>
    <text
       id="text1557"
       x="-131.62671"
       y="166.82443"
       style="font-size:12.000000;font-style:normal;font-variant:normal;font-weight:bold;font-stretch:normal;fill:#a7a7a7;fill-opacity:1.0000000;font-family:Trebuchet MS;text-anchor:start;writing-mode:lr-tb"
       sodipodi:linespacing="100%"><tspan
         x="-131.62671"
         y="166.82443"
         font-size="11"
         id="tspan1559"
         style="font-size:11.000000;font-family:Trebuchet MS">Plum</tspan></text>
    <text
       id="text1561"
       x="-164.54614"
       y="196.43085"
       style="font-size:12.000000;font-style:normal;font-variant:normal;font-weight:bold;font-stretch:normal;fill:#a7a7a7;fill-opacity:1.0000000;font-family:Trebuchet MS;text-anchor:start;writing-mode:lr-tb"
       sodipodi:linespacing="100%"><tspan
         x="-164.54614"
         y="196.43085"
         font-size="11"
         id="tspan1563"
         style="font-size:11.000000;font-family:Trebuchet MS">Scarlet Red</tspan></text>
    <text
       id="text1565"
       x="-161.14624"
       y="240.84204"
       style="font-size:12.000000;font-style:normal;font-variant:normal;font-weight:bold;font-stretch:normal;fill:#a7a7a7;fill-opacity:1.0000000;font-family:Trebuchet MS;text-anchor:start;writing-mode:lr-tb"
       sodipodi:linespacing="100%"><tspan
         x="-161.14624"
         y="240.84204"
         font-size="11"
         id="tspan1567"
         style="font-size:11.000000;font-family:Trebuchet MS">Aluminium</tspan></text>
    <path
       id="rect170_1_"
       d="M -84.468500,182.06176 L -72.291700,182.06176 C -69.315100,182.06176 -66.902100,184.47676 -66.902100,187.45436 L -66.902100,199.63016 C -66.902100,202.60676 -69.315200,205.02276 -72.291700,205.02276 L -84.468500,205.02276 C -87.445100,205.02276 -89.860100,202.60676 -89.860100,199.63016 L -89.860100,187.45436 C -89.860100,184.47676 -87.445100,182.06176 -84.468500,182.06176 z "
       style="fill:#ef2929" />
    <path
       id="rect182_1_"
       d="M -54.860100,182.06176 L -42.685300,182.06176 C -39.706800,182.06176 -37.293700,184.47676 -37.293700,187.45436 L -37.293700,199.63016 C -37.293700,202.60676 -39.706800,205.02276 -42.685300,205.02276 L -54.860100,205.02276 C -57.838600,205.02276 -60.252700,202.60676 -60.252700,199.63016 L -60.252700,187.45436 C -60.252700,184.47676 -57.838700,182.06176 -54.860100,182.06176 z "
       style="fill:#cc0000" />
    <path
       id="rect344_1_"
       d="M -25.659000,182.06176 L -13.484200,182.06176 C -10.506700,182.06176 -8.0906003,184.47676 -8.0906003,187.45436 L -8.0906003,199.63016 C -8.0906003,202.60676 -10.506600,205.02276 -13.484200,205.02276 L -25.659000,205.02276 C -28.636500,205.02276 -31.050600,202.60676 -31.050600,199.63016 L -31.050600,187.45436 C -31.050600,184.47676 -28.636500,182.06176 -25.659000,182.06176 z "
       style="fill:#a40000" />
    <g
       transform="matrix(0.981262,0.000000,0.000000,0.981262,16.48006,24.76645)"
       id="g1742">
      <path
         sodipodi:type="arc"
         style="fill:#f5f5f5;fill-opacity:1.0000000;stroke:#b0b0b0;stroke-width:2.8453605;stroke-miterlimit:4.0000000;stroke-opacity:1.0000000"
         id="path1291"
         sodipodi:cx="157.14285"
         sodipodi:cy="426.64789"
         sodipodi:rx="131.42857"
         sodipodi:ry="131.42857"
         d="M 288.57143 426.64789 A 131.42857 131.42857 0 1 1  25.714279,426.64789 A 131.42857 131.42857 0 1 1  288.57143 426.64789 z"
         transform="matrix(1.054348,0.000000,0.000000,1.054348,190.3875,-158.1444)" />
      <path
         sodipodi:type="arc"
         style="fill:#00315a;fill-opacity:1.0000000;stroke:none;stroke-width:5.2873573;stroke-miterlimit:4.0000000;stroke-opacity:1.0000000"
         id="path1293"
         sodipodi:cx="157.14285"
         sodipodi:cy="426.64789"
         sodipodi:rx="131.42857"
         sodipodi:ry="131.42857"
         d="M 288.57143 426.64789 A 131.42857 131.42857 0 1 1  25.714279,426.64789 A 131.42857 131.42857 0 1 1  288.57143 426.64789 z"
         transform="matrix(0.945652,0.000000,0.000000,0.945652,207.4683,-111.7695)" />
      <path
         sodipodi:type="arc"
         style="fill:#ffffff;fill-opacity:1.0000000;stroke:none;stroke-width:5.2873573;stroke-miterlimit:4.0000000;stroke-opacity:1.0000000"
         id="path2084"
         sodipodi:cx="350.00000"
         sodipodi:cy="479.50504"
         sodipodi:rx="41.428570"
         sodipodi:ry="41.428570"
         d="M 391.42857 479.50504 A 41.428570 41.428570 0 1 1  308.57143,479.50504 A 41.428570 41.428570 0 1 1  391.42857 479.50504 z"
         transform="matrix(1.155172,0.000000,0.000000,1.155172,-25.65724,-309.1896)" />
      <path
         sodipodi:type="arc"
         style="fill:#ffffff;fill-opacity:1.0000000;stroke:none;stroke-width:5.2873573;stroke-miterlimit:4.0000000;stroke-opacity:1.0000000"
         id="path2086"
         sodipodi:cx="417.85715"
         sodipodi:cy="574.14789"
         sodipodi:rx="30.000000"
         sodipodi:ry="31.071428"
         d="M 447.85715 574.14789 A 30.000000 31.071428 0 1 1  387.85715,574.14789 A 30.000000 31.071428 0 1 1  447.85715 574.14789 z"
         transform="translate(-35.63260,-238.3551)" />
      <path
         sodipodi:type="arc"
         style="fill:#ffffff;fill-opacity:1.0000000;stroke:none;stroke-width:5.2873573;stroke-miterlimit:4.0000000;stroke-opacity:1.0000000"
         id="path2088"
         sodipodi:cx="417.85715"
         sodipodi:cy="574.14789"
         sodipodi:rx="30.000000"
         sodipodi:ry="31.071428"
         d="M 447.85715 574.14789 A 30.000000 31.071428 0 1 1  387.85715,574.14789 A 30.000000 31.071428 0 1 1  447.85715 574.14789 z"
         transform="matrix(0.535714,0.000000,0.000000,0.535714,105.1584,59.50180)" />
      <path
         sodipodi:type="arc"
         style="fill:#ffffff;fill-opacity:1.0000000;stroke:none;stroke-width:5.2873573;stroke-miterlimit:4.0000000;stroke-opacity:1.0000000"
         id="path2090"
         sodipodi:cx="417.85715"
         sodipodi:cy="574.14789"
         sodipodi:rx="30.000000"
         sodipodi:ry="31.071428"
         d="M 447.85715 574.14789 A 30.000000 31.071428 0 1 1  387.85715,574.14789 A 30.000000 31.071428 0 1 1  447.85715 574.14789 z"
         transform="matrix(0.489737,0.000000,0.000000,0.489737,125.0352,25.18510)" />
      <path
         sodipodi:type="arc"
         style="fill:#00315a;fill-opacity:1.0000000;stroke:none;stroke-width:5.2873573;stroke-miterlimit:4.0000000;stroke-opacity:1.0000000"
         id="path2118"
         sodipodi:cx="417.85715"
         sodipodi:cy="574.14789"
         sodipodi:rx="30.000000"
         sodipodi:ry="31.071428"
         d="M 447.85715 574.14789 A 30.000000 31.071428 0 1 1  387.85715,574.14789 A 30.000000 31.071428 0 1 1  447.85715 574.14789 z"
         transform="matrix(0.473050,-0.126753,0.126753,0.473050,242.9220,125.9683)" />
      <path
         sodipodi:type="arc"
         style="fill:#00315a;fill-opacity:1.0000000;stroke:none;stroke-width:5.2873573;stroke-miterlimit:4.0000000;stroke-opacity:1.0000000"
         id="path2120"
         sodipodi:cx="417.85715"
         sodipodi:cy="574.14789"
         sodipodi:rx="30.000000"
         sodipodi:ry="31.071428"
         d="M 447.85715 574.14789 A 30.000000 31.071428 0 1 1  387.85715,574.14789 A 30.000000 31.071428 0 1 1  447.85715 574.14789 z"
         transform="matrix(0.473050,-0.126753,0.126753,0.473050,-31.25890,199.4348)" />
      <path
         sodipodi:type="arc"
         style="fill:#00315a;fill-opacity:1.0000000;stroke:none;stroke-width:5.2873573;stroke-miterlimit:4.0000000;stroke-opacity:1.0000000"
         id="path2122"
         sodipodi:cx="417.85715"
         sodipodi:cy="574.14789"
         sodipodi:rx="30.000000"
         sodipodi:ry="31.071428"
         d="M 447.85715 574.14789 A 30.000000 31.071428 0 1 1  387.85715,574.14789 A 30.000000 31.071428 0 1 1  447.85715 574.14789 z"
         transform="matrix(0.473050,-0.126753,0.126753,0.473050,37.17610,-87.66957)" />
    </g>
    <text
       sodipodi:linespacing="100%"
       id="text1646"
       y="59.98391"
       x="291.79257"
       style="font-size:29.705996;font-style:normal;font-variant:normal;font-weight:bold;font-stretch:normal;fill:#babdb6;fill-opacity:1.0000000;stroke:none;stroke-width:1.0000000px;stroke-linecap:butt;stroke-linejoin:miter;stroke-opacity:1.0000000;font-family:Bitstream Vera Sans;text-anchor:start;writing-mode:lr-tb"
       xml:space="preserve"><tspan
         y="59.983910"
         x="291.79257"
         id="tspan1648"
         sodipodi:role="line">Initial idea</tspan></text>
    <text
       sodipodi:linespacing="100%"
       id="text1663"
       y="589.86554"
       x="201.23871"
       style="font-size:29.705996;font-style:normal;font-variant:normal;font-weight:bold;font-stretch:normal;fill:#babdb6;fill-opacity:1.0000000;stroke:none;stroke-width:1.0000000px;stroke-linecap:butt;stroke-linejoin:miter;stroke-opacity:1.0000000;font-family:Bitstream Vera Sans;text-anchor:start;writing-mode:lr-tb"
       xml:space="preserve"><tspan
         y="589.86554"
         x="201.23871"
         id="tspan1665"
         sodipodi:role="line">Tangoified initial idea</tspan></text>
    <g
       id="g2248">
      <path
         sodipodi:type="arc"
         style="fill:#f5f5f5;fill-opacity:1.0000000;stroke:#babdb6;stroke-width:2.8453605;stroke-miterlimit:4.0000000;stroke-opacity:1.0000000"
         id="path1671"
         sodipodi:cx="157.14285"
         sodipodi:cy="426.64789"
         sodipodi:rx="131.42857"
         sodipodi:ry="131.42857"
         d="M 288.57143 426.64789 A 131.42857 131.42857 0 1 1  25.714279,426.64789 A 131.42857 131.42857 0 1 1  288.57143 426.64789 z"
         transform="matrix(1.034592,0.000000,0.000000,1.034592,203.3002,394.3268)" />
      <path
         sodipodi:type="arc"
         style="fill:#204a87;fill-opacity:1.0000000;stroke:none;stroke-width:5.2873573;stroke-miterlimit:4.0000000;stroke-opacity:1.0000000"
         id="path1673"
         sodipodi:cx="157.14285"
         sodipodi:cy="426.64789"
         sodipodi:rx="131.42857"
         sodipodi:ry="131.42857"
         d="M 288.57143 426.64789 A 131.42857 131.42857 0 1 1  25.714279,426.64789 A 131.42857 131.42857 0 1 1  288.57143 426.64789 z"
         transform="matrix(0.927933,0.000000,0.000000,0.927933,220.0610,439.8327)" />
      <path
         sodipodi:type="arc"
         style="fill:#ffffff;fill-opacity:1.0000000;stroke:none;stroke-width:5.2873573;stroke-miterlimit:4.0000000;stroke-opacity:1.0000000"
         id="path1675"
         sodipodi:cx="350.00000"
         sodipodi:cy="479.50504"
         sodipodi:rx="41.428570"
         sodipodi:ry="41.428570"
         d="M 391.42857 479.50504 A 41.428570 41.428570 0 1 1  308.57143,479.50504 A 41.428570 41.428570 0 1 1  391.42857 479.50504 z"
         transform="matrix(1.133526,0.000000,0.000000,1.133526,-8.696401,246.1118)" />
      <path
         sodipodi:type="arc"
         style="fill:#ffffff;fill-opacity:1.0000000;stroke:none;stroke-width:5.2873573;stroke-miterlimit:4.0000000;stroke-opacity:1.0000000"
         id="path1677"
         sodipodi:cx="417.85715"
         sodipodi:cy="574.14789"
         sodipodi:rx="30.000000"
         sodipodi:ry="31.071428"
         d="M 447.85715 574.14789 A 30.000000 31.071428 0 1 1  387.85715,574.14789 A 30.000000 31.071428 0 1 1  447.85715 574.14789 z"
         transform="matrix(0.981262,0.000000,0.000000,0.981262,-18.48490,315.6190)" />
      <path
         sodipodi:type="arc"
         style="fill:#ffffff;fill-opacity:1.0000000;stroke:none;stroke-width:5.2873573;stroke-miterlimit:4.0000000;stroke-opacity:1.0000000"
         id="path1679"
         sodipodi:cx="417.85715"
         sodipodi:cy="574.14789"
         sodipodi:rx="30.000000"
         sodipodi:ry="31.071428"
         d="M 447.85715 574.14789 A 30.000000 31.071428 0 1 1  387.85715,574.14789 A 30.000000 31.071428 0 1 1  447.85715 574.14789 z"
         transform="matrix(0.525676,0.000000,0.000000,0.525676,119.6681,607.8949)" />
      <path
         sodipodi:type="arc"
         style="fill:#ffffff;fill-opacity:1.0000000;stroke:none;stroke-width:5.2873573;stroke-miterlimit:4.0000000;stroke-opacity:1.0000000"
         id="path1681"
         sodipodi:cx="417.85715"
         sodipodi:cy="574.14789"
         sodipodi:rx="30.000000"
         sodipodi:ry="31.071428"
         d="M 447.85715 574.14789 A 30.000000 31.071428 0 1 1  387.85715,574.14789 A 30.000000 31.071428 0 1 1  447.85715 574.14789 z"
         transform="matrix(0.480561,0.000000,0.000000,0.480561,139.1724,574.2213)" />
      <path
         sodipodi:type="arc"
         style="fill:#204a87;fill-opacity:1.0000000;stroke:none;stroke-width:5.2873573;stroke-miterlimit:4.0000000;stroke-opacity:1.0000000"
         id="path1685"
         sodipodi:cx="417.85715"
         sodipodi:cy="574.14789"
         sodipodi:rx="30.000000"
         sodipodi:ry="31.071428"
         d="M 447.85715 574.14789 A 30.000000 31.071428 0 1 1  387.85715,574.14789 A 30.000000 31.071428 0 1 1  447.85715 574.14789 z"
         transform="matrix(0.464187,-0.124378,0.124378,0.464187,254.8503,673.1160)" />
      <path
         sodipodi:type="arc"
         style="fill:#204a87;fill-opacity:1.0000000;stroke:none;stroke-width:5.2873573;stroke-miterlimit:4.0000000;stroke-opacity:1.0000000"
         id="path1687"
         sodipodi:cx="417.85715"
         sodipodi:cy="574.14789"
         sodipodi:rx="30.000000"
         sodipodi:ry="31.071428"
         d="M 447.85715 574.14789 A 30.000000 31.071428 0 1 1  387.85715,574.14789 A 30.000000 31.071428 0 1 1  447.85715 574.14789 z"
         transform="matrix(0.464187,-0.124378,0.124378,0.464187,-14.19310,745.2060)" />
      <path
         sodipodi:type="arc"
         style="fill:#204a87;fill-opacity:1.0000000;stroke:none;stroke-width:5.2873573;stroke-miterlimit:4.0000000;stroke-opacity:1.0000000"
         id="path1689"
         sodipodi:cx="417.85715"
         sodipodi:cy="574.14789"
         sodipodi:rx="30.000000"
         sodipodi:ry="31.071428"
         d="M 447.85715 574.14789 A 30.000000 31.071428 0 1 1  387.85715,574.14789 A 30.000000 31.071428 0 1 1  447.85715 574.14789 z"
         transform="matrix(0.464187,-0.124378,0.124378,0.464187,52.95957,463.4812)" />
    </g>
  </g>
</svg>
