<?xml version="1.0" encoding="UTF-8" standalone="no"?>
<!-- Created with Inkscape (http://www.inkscape.org/) -->
<svg
   xmlns:dc="http://purl.org/dc/elements/1.1/"
   xmlns:cc="http://web.resource.org/cc/"
   xmlns:rdf="http://www.w3.org/1999/02/22-rdf-syntax-ns#"
   xmlns:svg="http://www.w3.org/2000/svg"
   xmlns="http://www.w3.org/2000/svg"
   xmlns:xlink="http://www.w3.org/1999/xlink"
   xmlns:sodipodi="http://inkscape.sourceforge.net/DTD/sodipodi-0.dtd"
   xmlns:inkscape="http://www.inkscape.org/namespaces/inkscape"
   inkscape:export-ydpi="61.930000"
   inkscape:export-xdpi="61.930000"
   inkscape:export-filename="c:\GFX\SVG_Render\dss.png"
   width="1190.5512pt"
   height="841.88976pt"
   id="svg2"
   sodipodi:version="0.32"
   inkscape:version="0.42.2"
   sodipodi:docbase="C:\GFX\SVG"
   sodipodi:docname="dss.svg">
  <defs
     id="defs3">
    <linearGradient
       id="linearGradient2071">
      <stop
         style="stop-color:#f6f9ff;stop-opacity:0.70866144;"
         offset="0.00000000"
         id="stop2073" />
      <stop
         style="stop-color:#f6f9ff;stop-opacity:0;"
         offset="1"
         id="stop2075" />
    </linearGradient>
    <radialGradient
       inkscape:collect="always"
       xlink:href="#linearGradient2071"
       id="radialGradient2077"
       cx="227.44186"
       cy="356.82645"
       fx="227.44186"
       fy="356.82645"
       r="277.49329"
       gradientUnits="userSpaceOnUse" />
    <radialGradient
       inkscape:collect="always"
       xlink:href="#linearGradient2071"
       id="radialGradient2082"
       gradientUnits="userSpaceOnUse"
       cx="449.71027"
       cy="373.96582"
       fx="450.86969"
       fy="372.80518"
       r="195.36577" />
  </defs>
  <sodipodi:namedview
     id="base"
     pagecolor="#ffffff"
     bordercolor="#666666"
     borderopacity="1.0"
     inkscape:pageopacity="1.0000000"
     inkscape:pageshadow="2"
     inkscape:zoom="0.35355339"
     inkscape:cx="728.70373"
     inkscape:cy="498.68309"
     inkscape:document-units="px"
     inkscape:current-layer="layer1"
     inkscape:window-width="876"
     inkscape:window-height="631"
     inkscape:window-x="84"
     inkscape:window-y="53"
     inkscape:showpageshadow="false" />
  <metadata
     id="metadata4">
    <rdf:RDF>
      <cc:Work
         rdf:about="">
        <dc:format>image/svg+xml</dc:format>
        <dc:type
           rdf:resource="http://purl.org/dc/dcmitype/StillImage" />
      </cc:Work>
    </rdf:RDF>
  </metadata>
  <g
     inkscape:label="CD layer"
     inkscape:groupmode="layer"
     id="layer1">
    <text
       id="text1529"
       x="856.03632"
       y="509.84283"
       style="fill:#a7a7a7;fill-opacity:1.0000000">
      <tspan
         x="856.03632"
         y="509.84283"
         font-size="8"
         id="tspan1531"
         style="font-size:8.0000000" />
    </text>
    <text
       id="text1553"
       x="856.03632"
       y="539.84283"
       style="fill:#a7a7a7;fill-opacity:1.0000000">
      <tspan
         x="856.03632"
         y="539.84283"
         font-size="8"
         id="tspan1555"
         style="font-size:8.0000000" />
    </text>
    <g
       transform="matrix(0.961521,0.000000,0.000000,0.961521,-140.0011,53.30515)"
       id="g1742">
      <path
         sodipodi:type="arc"
         style="fill:#f5f5f5;fill-opacity:1.0000000;stroke:#b0b0b0;stroke-width:2.8453605;stroke-miterlimit:4.0000000;stroke-opacity:1.0000000"
         id="path1291"
         sodipodi:cx="157.14285"
         sodipodi:cy="426.64789"
         sodipodi:rx="131.42857"
         sodipodi:ry="131.42857"
         d="M 288.57143 426.64789 A 131.42857 131.42857 0 1 1  25.714279,426.64789 A 131.42857 131.42857 0 1 1  288.57143 426.64789 z"
         transform="matrix(1.054348,0.000000,0.000000,1.054348,190.3875,-158.1444)" />
      <path
         sodipodi:type="arc"
         style="fill:#00315a;fill-opacity:1.0000000;stroke:none;stroke-width:5.2873573;stroke-miterlimit:4.0000000;stroke-opacity:1.0000000"
         id="path1293"
         sodipodi:cx="157.14285"
         sodipodi:cy="426.64789"
         sodipodi:rx="131.42857"
         sodipodi:ry="131.42857"
         d="M 288.57143 426.64789 A 131.42857 131.42857 0 1 1  25.714279,426.64789 A 131.42857 131.42857 0 1 1  288.57143 426.64789 z"
         transform="matrix(0.945652,0.000000,0.000000,0.945652,207.4683,-111.7695)" />
      <path
         sodipodi:type="arc"
         style="fill:#ffffff;fill-opacity:1.0000000;stroke:none;stroke-width:5.2873573;stroke-miterlimit:4.0000000;stroke-opacity:1.0000000"
         id="path2084"
         sodipodi:cx="350.00000"
         sodipodi:cy="479.50504"
         sodipodi:rx="41.428570"
         sodipodi:ry="41.428570"
         d="M 391.42857 479.50504 A 41.428570 41.428570 0 1 1  308.57143,479.50504 A 41.428570 41.428570 0 1 1  391.42857 479.50504 z"
         transform="matrix(1.155172,0.000000,0.000000,1.155172,-25.65724,-309.1896)" />
      <path
         sodipodi:type="arc"
         style="fill:#ffffff;fill-opacity:1.0000000;stroke:none;stroke-width:5.2873573;stroke-miterlimit:4.0000000;stroke-opacity:1.0000000"
         id="path2086"
         sodipodi:cx="417.85715"
         sodipodi:cy="574.14789"
         sodipodi:rx="30.000000"
         sodipodi:ry="31.071428"
         d="M 447.85715 574.14789 A 30.000000 31.071428 0 1 1  387.85715,574.14789 A 30.000000 31.071428 0 1 1  447.85715 574.14789 z"
         transform="translate(-35.63260,-238.3551)" />
      <path
         sodipodi:type="arc"
         style="fill:#ffffff;fill-opacity:1.0000000;stroke:none;stroke-width:5.2873573;stroke-miterlimit:4.0000000;stroke-opacity:1.0000000"
         id="path2088"
         sodipodi:cx="417.85715"
         sodipodi:cy="574.14789"
         sodipodi:rx="30.000000"
         sodipodi:ry="31.071428"
         d="M 447.85715 574.14789 A 30.000000 31.071428 0 1 1  387.85715,574.14789 A 30.000000 31.071428 0 1 1  447.85715 574.14789 z"
         transform="matrix(0.535714,0.000000,0.000000,0.535714,105.1584,59.50180)" />
      <path
         sodipodi:type="arc"
         style="fill:#ffffff;fill-opacity:1.0000000;stroke:none;stroke-width:5.2873573;stroke-miterlimit:4.0000000;stroke-opacity:1.0000000"
         id="path2090"
         sodipodi:cx="417.85715"
         sodipodi:cy="574.14789"
         sodipodi:rx="30.000000"
         sodipodi:ry="31.071428"
         d="M 447.85715 574.14789 A 30.000000 31.071428 0 1 1  387.85715,574.14789 A 30.000000 31.071428 0 1 1  447.85715 574.14789 z"
         transform="matrix(0.489737,0.000000,0.000000,0.489737,125.0352,25.18510)" />
      <path
         sodipodi:type="arc"
         style="fill:#00315a;fill-opacity:1.0000000;stroke:none;stroke-width:5.2873573;stroke-miterlimit:4.0000000;stroke-opacity:1.0000000"
         id="path2118"
         sodipodi:cx="417.85715"
         sodipodi:cy="574.14789"
         sodipodi:rx="30.000000"
         sodipodi:ry="31.071428"
         d="M 447.85715 574.14789 A 30.000000 31.071428 0 1 1  387.85715,574.14789 A 30.000000 31.071428 0 1 1  447.85715 574.14789 z"
         transform="matrix(0.473050,-0.126753,0.126753,0.473050,242.9220,125.9683)" />
      <path
         sodipodi:type="arc"
         style="fill:#00315a;fill-opacity:1.0000000;stroke:none;stroke-width:5.2873573;stroke-miterlimit:4.0000000;stroke-opacity:1.0000000"
         id="path2120"
         sodipodi:cx="417.85715"
         sodipodi:cy="574.14789"
         sodipodi:rx="30.000000"
         sodipodi:ry="31.071428"
         d="M 447.85715 574.14789 A 30.000000 31.071428 0 1 1  387.85715,574.14789 A 30.000000 31.071428 0 1 1  447.85715 574.14789 z"
         transform="matrix(0.473050,-0.126753,0.126753,0.473050,-31.25890,199.4348)" />
      <path
         sodipodi:type="arc"
         style="fill:#00315a;fill-opacity:1.0000000;stroke:none;stroke-width:5.2873573;stroke-miterlimit:4.0000000;stroke-opacity:1.0000000"
         id="path2122"
         sodipodi:cx="417.85715"
         sodipodi:cy="574.14789"
         sodipodi:rx="30.000000"
         sodipodi:ry="31.071428"
         d="M 447.85715 574.14789 A 30.000000 31.071428 0 1 1  387.85715,574.14789 A 30.000000 31.071428 0 1 1  447.85715 574.14789 z"
         transform="matrix(0.473050,-0.126753,0.126753,0.473050,37.17610,-87.66957)" />
    </g>
    <text
       sodipodi:linespacing="100.00000%"
       id="text1646"
       y="67.814102"
       x="129.77269"
       style="font-size:29.108370px;font-style:normal;font-variant:normal;font-weight:bold;font-stretch:normal;line-height:100.00000%;writing-mode:lr-tb;text-anchor:start;fill:#babdb6;fill-opacity:1.0000000;stroke:none;stroke-width:1.0000000px;stroke-linecap:butt;stroke-linejoin:miter;stroke-opacity:1.0000000;font-family:Bitstream Vera Sans"
       xml:space="preserve"><tspan
         y="67.814102"
         x="129.77269"
         id="tspan1648"
         sodipodi:role="line">Initial idea</tspan></text>
    <text
       sodipodi:linespacing="100.00000%"
       id="text1663"
       y="601.03558"
       x="41.040588"
       style="font-size:29.108370px;font-style:normal;font-variant:normal;font-weight:bold;font-stretch:normal;line-height:100.00000%;writing-mode:lr-tb;text-anchor:start;fill:#babdb6;fill-opacity:1.0000000;stroke:none;stroke-width:1.0000000px;stroke-linecap:butt;stroke-linejoin:miter;stroke-opacity:1.0000000;font-family:Bitstream Vera Sans"
       xml:space="preserve"><tspan
         y="601.03558"
         x="41.040588"
         id="tspan1665"
         sodipodi:role="line">Tangoified initial idea</tspan></text>
    <g
       id="g2248"
       transform="matrix(0.979882,0.000000,0.000000,0.979882,-156.1496,29.03695)">
      <path
         sodipodi:type="arc"
         style="fill:#f5f5f5;fill-opacity:1.0000000;stroke:#babdb6;stroke-width:2.8453605;stroke-miterlimit:4.0000000;stroke-opacity:1.0000000"
         id="path1671"
         sodipodi:cx="157.14285"
         sodipodi:cy="426.64789"
         sodipodi:rx="131.42857"
         sodipodi:ry="131.42857"
         d="M 288.57143 426.64789 A 131.42857 131.42857 0 1 1  25.714279,426.64789 A 131.42857 131.42857 0 1 1  288.57143 426.64789 z"
         transform="matrix(1.034592,0.000000,0.000000,1.034592,203.3002,394.3268)" />
      <path
         sodipodi:type="arc"
         style="fill:#204a87;fill-opacity:1.0000000;stroke:none;stroke-width:5.2873573;stroke-miterlimit:4.0000000;stroke-opacity:1.0000000"
         id="path1673"
         sodipodi:cx="157.14285"
         sodipodi:cy="426.64789"
         sodipodi:rx="131.42857"
         sodipodi:ry="131.42857"
         d="M 288.57143 426.64789 A 131.42857 131.42857 0 1 1  25.714279,426.64789 A 131.42857 131.42857 0 1 1  288.57143 426.64789 z"
         transform="matrix(0.927933,0.000000,0.000000,0.927933,220.0610,439.8327)" />
      <path
         sodipodi:type="arc"
         style="fill:#ffffff;fill-opacity:1.0000000;stroke:none;stroke-width:5.2873573;stroke-miterlimit:4.0000000;stroke-opacity:1.0000000"
         id="path1675"
         sodipodi:cx="350.00000"
         sodipodi:cy="479.50504"
         sodipodi:rx="41.428570"
         sodipodi:ry="41.428570"
         d="M 391.42857 479.50504 A 41.428570 41.428570 0 1 1  308.57143,479.50504 A 41.428570 41.428570 0 1 1  391.42857 479.50504 z"
         transform="matrix(1.133526,0.000000,0.000000,1.133526,-8.696401,246.1118)" />
      <path
         sodipodi:type="arc"
         style="fill:#ffffff;fill-opacity:1.0000000;stroke:none;stroke-width:5.2873573;stroke-miterlimit:4.0000000;stroke-opacity:1.0000000"
         id="path1677"
         sodipodi:cx="417.85715"
         sodipodi:cy="574.14789"
         sodipodi:rx="30.000000"
         sodipodi:ry="31.071428"
         d="M 447.85715 574.14789 A 30.000000 31.071428 0 1 1  387.85715,574.14789 A 30.000000 31.071428 0 1 1  447.85715 574.14789 z"
         transform="matrix(0.981262,0.000000,0.000000,0.981262,-18.48490,315.6190)" />
      <path
         sodipodi:type="arc"
         style="fill:#ffffff;fill-opacity:1.0000000;stroke:none;stroke-width:5.2873573;stroke-miterlimit:4.0000000;stroke-opacity:1.0000000"
         id="path1679"
         sodipodi:cx="417.85715"
         sodipodi:cy="574.14789"
         sodipodi:rx="30.000000"
         sodipodi:ry="31.071428"
         d="M 447.85715 574.14789 A 30.000000 31.071428 0 1 1  387.85715,574.14789 A 30.000000 31.071428 0 1 1  447.85715 574.14789 z"
         transform="matrix(0.525676,0.000000,0.000000,0.525676,119.6681,607.8949)" />
      <path
         sodipodi:type="arc"
         style="fill:#ffffff;fill-opacity:1.0000000;stroke:none;stroke-width:5.2873573;stroke-miterlimit:4.0000000;stroke-opacity:1.0000000"
         id="path1681"
         sodipodi:cx="417.85715"
         sodipodi:cy="574.14789"
         sodipodi:rx="30.000000"
         sodipodi:ry="31.071428"
         d="M 447.85715 574.14789 A 30.000000 31.071428 0 1 1  387.85715,574.14789 A 30.000000 31.071428 0 1 1  447.85715 574.14789 z"
         transform="matrix(0.480561,0.000000,0.000000,0.480561,139.1724,574.2213)" />
      <path
         sodipodi:type="arc"
         style="fill:#204a87;fill-opacity:1.0000000;stroke:none;stroke-width:5.2873573;stroke-miterlimit:4.0000000;stroke-opacity:1.0000000"
         id="path1685"
         sodipodi:cx="417.85715"
         sodipodi:cy="574.14789"
         sodipodi:rx="30.000000"
         sodipodi:ry="31.071428"
         d="M 447.85715 574.14789 A 30.000000 31.071428 0 1 1  387.85715,574.14789 A 30.000000 31.071428 0 1 1  447.85715 574.14789 z"
         transform="matrix(0.464187,-0.124378,0.124378,0.464187,254.8503,673.1160)" />
      <path
         sodipodi:type="arc"
         style="fill:#204a87;fill-opacity:1.0000000;stroke:none;stroke-width:5.2873573;stroke-miterlimit:4.0000000;stroke-opacity:1.0000000"
         id="path1687"
         sodipodi:cx="417.85715"
         sodipodi:cy="574.14789"
         sodipodi:rx="30.000000"
         sodipodi:ry="31.071428"
         d="M 447.85715 574.14789 A 30.000000 31.071428 0 1 1  387.85715,574.14789 A 30.000000 31.071428 0 1 1  447.85715 574.14789 z"
         transform="matrix(0.464187,-0.124378,0.124378,0.464187,-14.19310,745.2060)" />
      <path
         sodipodi:type="arc"
         style="fill:#204a87;fill-opacity:1.0000000;stroke:none;stroke-width:5.2873573;stroke-miterlimit:4.0000000;stroke-opacity:1.0000000"
         id="path1689"
         sodipodi:cx="417.85715"
         sodipodi:cy="574.14789"
         sodipodi:rx="30.000000"
         sodipodi:ry="31.071428"
         d="M 447.85715 574.14789 A 30.000000 31.071428 0 1 1  387.85715,574.14789 A 30.000000 31.071428 0 1 1  447.85715 574.14789 z"
         transform="matrix(0.464187,-0.124378,0.124378,0.464187,52.95957,463.4812)" />
    </g>
    <text
       xml:space="preserve"
       style="font-size:29.108370px;font-style:normal;font-variant:normal;font-weight:bold;font-stretch:normal;line-height:100.00000%;writing-mode:lr-tb;text-anchor:start;fill:#babdb6;fill-opacity:1.0000000;stroke:none;stroke-width:1.0000000px;stroke-linecap:butt;stroke-linejoin:miter;stroke-opacity:1.0000000;font-family:Bitstream Vera Sans"
       x="489.77271"
       y="67.814102"
       id="text4002"
       sodipodi:linespacing="100.00000%"><tspan
         sodipodi:role="line"
         id="tspan4004"
         x="489.77271"
         y="67.814102">CD layout ideas</tspan></text>
  </g>
  <g
     inkscape:groupmode="layer"
     id="layer3"
     inkscape:label="Logo"
     style="display:inline">
    <g
       transform="matrix(1.353523,0.000000,0.000000,1.353523,1603.545,-59.96352)"
       id="g3519" />
  </g>
  <g
     inkscape:groupmode="layer"
     id="layer2"
     inkscape:label="CD hole"
     style="display:inline">
    <g
       id="g3944"
       transform="matrix(0.873639,0.000000,0.000000,0.873639,-277.8868,79.74899)">
      <path
         transform="matrix(0.776550,0.000000,0.000000,0.776550,53.86340,0.448145)"
         d="M 1682.9142 331.11325 A 302.64169 302.64169 0 1 1  1077.6308,331.11325 A 302.64169 302.64169 0 1 1  1682.9142 331.11325 z"
         sodipodi:ry="302.64169"
         sodipodi:rx="302.64169"
         sodipodi:cy="331.11325"
         sodipodi:cx="1380.2725"
         id="path1473"
         style="opacity:1.0000000;color:#000000;fill:#ffffff;fill-opacity:1.0000000;fill-rule:nonzero;stroke:#000000;stroke-width:2.3000000;stroke-linecap:round;stroke-linejoin:miter;marker:none;marker-start:none;marker-mid:none;marker-end:none;stroke-miterlimit:4.0000000;stroke-dasharray:none;stroke-dashoffset:0.00000000;stroke-opacity:1.0000000;visibility:visible;display:inline;overflow:visible"
         sodipodi:type="arc" />
      <path
         transform="matrix(1.714378,0.000000,0.000000,1.714378,856.1327,-474.0448)"
         d="M 288.57143 426.64789 A 131.42857 131.42857 0 1 1  25.714279,426.64789 A 131.42857 131.42857 0 1 1  288.57143 426.64789 z"
         sodipodi:ry="131.42857"
         sodipodi:rx="131.42857"
         sodipodi:cy="426.64789"
         sodipodi:cx="157.14285"
         id="path1405"
         style="fill:#00315a;fill-opacity:1.0000000;stroke:none;stroke-width:5.2873573;stroke-miterlimit:4.0000000;stroke-opacity:1.0000000;display:inline"
         sodipodi:type="arc" />
      <g
         transform="matrix(0.776550,0.000000,0.000000,0.776550,53.86340,-7.239303)"
         id="g3554"
         style="display:inline">
        <path
           sodipodi:type="arc"
           style="fill:#ffffff;fill-opacity:1.0000000;stroke:none;stroke-width:5.2873573;stroke-miterlimit:4.0000000;stroke-opacity:1.0000000"
           id="path1407"
           sodipodi:cx="350.00000"
           sodipodi:cy="479.50504"
           sodipodi:rx="41.428570"
           sodipodi:ry="41.428570"
           d="M 391.42857 479.50504 A 41.428570 41.428570 0 1 1  308.57143,479.50504 A 41.428570 41.428570 0 1 1  391.42857 479.50504 z"
           transform="matrix(1.232773,0.000000,0.000000,1.232773,1132.076,-296.2714)" />
        <path
           sodipodi:type="arc"
           style="fill:#ffffff;fill-opacity:1.0000000;stroke:none;stroke-width:5.2873573;stroke-miterlimit:4.0000000;stroke-opacity:1.0000000"
           id="path1409"
           sodipodi:cx="417.85715"
           sodipodi:cy="574.14789"
           sodipodi:rx="30.000000"
           sodipodi:ry="31.071428"
           d="M 447.85715 574.14789 A 30.000000 31.071428 0 1 1  387.85715,574.14789 A 30.000000 31.071428 0 1 1  447.85715 574.14789 z"
           transform="matrix(1.067177,0.000000,0.000000,1.067177,1121.430,-220.6784)" />
        <path
           sodipodi:type="arc"
           style="fill:#ffffff;fill-opacity:1.0000000;stroke:none;stroke-width:5.2873573;stroke-miterlimit:4.0000000;stroke-opacity:1.0000000"
           id="path1411"
           sodipodi:cx="417.85715"
           sodipodi:cy="574.14789"
           sodipodi:rx="30.000000"
           sodipodi:ry="31.071428"
           d="M 447.85715 574.14789 A 30.000000 31.071428 0 1 1  387.85715,574.14789 A 30.000000 31.071428 0 1 1  447.85715 574.14789 z"
           transform="matrix(0.571701,0.000000,0.000000,0.571701,1271.679,97.18749)" />
        <path
           sodipodi:type="arc"
           style="fill:#ffffff;fill-opacity:1.0000000;stroke:none;stroke-width:5.2873573;stroke-miterlimit:4.0000000;stroke-opacity:1.0000000"
           id="path1413"
           sodipodi:cx="417.85715"
           sodipodi:cy="574.14789"
           sodipodi:rx="30.000000"
           sodipodi:ry="31.071428"
           d="M 447.85715 574.14789 A 30.000000 31.071428 0 1 1  387.85715,574.14789 A 30.000000 31.071428 0 1 1  447.85715 574.14789 z"
           transform="matrix(0.522636,0.000000,0.000000,0.522636,1292.892,60.56552)" />
      </g>
      <path
         transform="matrix(0.198150,0.000000,0.000000,0.198150,852.2135,191.9642)"
         sodipodi:type="arc"
         style="opacity:1.0000000;color:#000000;fill:#ffffff;fill-opacity:1.0000000;fill-rule:nonzero;stroke:none;stroke-width:9.0137157;stroke-linecap:round;stroke-linejoin:miter;marker:none;marker-start:none;marker-mid:none;marker-end:none;stroke-miterlimit:4.0000000;stroke-dasharray:none;stroke-dashoffset:0.00000000;stroke-opacity:1.0000000;visibility:visible;display:inline;overflow:visible"
         id="path3502"
         sodipodi:cx="1380.2725"
         sodipodi:cy="331.11325"
         sodipodi:rx="302.64169"
         sodipodi:ry="302.64169"
         d="M 1682.9142 331.11325 A 302.64169 302.64169 0 1 1  1077.6308,331.11325 A 302.64169 302.64169 0 1 1  1682.9142 331.11325 z" />
      <text
         sodipodi:linespacing="125.00000%"
         id="text3550"
         y="235.97194"
         x="930.99548"
         style="font-size:23.296499px;font-style:normal;font-variant:normal;font-weight:bold;font-stretch:normal;text-align:start;line-height:125.00000%;writing-mode:lr-tb;text-anchor:start;fill:#ffffff;fill-opacity:1.0000000;stroke:none;stroke-width:1.0000000px;stroke-linecap:butt;stroke-linejoin:miter;stroke-opacity:1.0000000;font-family:Bitstream Vera Sans"
         xml:space="preserve"><tspan
           y="235.97194"
           x="930.99548"
           id="tspan3552"
           sodipodi:role="line">DSS LIVE</tspan></text>
      <text
         id="text3560"
         y="260.03705"
         x="933.33917"
         style="font-size:9.3185997px;font-style:normal;font-weight:normal;fill:#000000;fill-opacity:1.0000000;stroke:none;stroke-width:1.0000000px;stroke-linecap:butt;stroke-linejoin:miter;stroke-opacity:1.0000000;font-family:Bitstream Vera Sans"
         xml:space="preserve"><tspan
           style="fill:#ffffff;fill-opacity:1.0000000"
           id="tspan3564"
           y="260.03705"
           x="933.33917"
           sodipodi:role="line">This is a description of</tspan><tspan
           id="tspan3566"
           style="fill:#ffffff;fill-opacity:1.0000000"
           y="271.68530"
           x="933.33917"
           sodipodi:role="line">the content on the CD</tspan></text>
    </g>
    <g
       id="g3959"
       transform="matrix(0.873639,0.000000,0.000000,0.873639,-277.8868,79.74899)">
      <path
         transform="matrix(0.776550,0.000000,0.000000,0.776550,656.4662,0.448145)"
         sodipodi:type="arc"
         style="opacity:1.0000000;color:#000000;fill:#ffffff;fill-opacity:1.0000000;fill-rule:nonzero;stroke:#000000;stroke-width:2.3000000;stroke-linecap:round;stroke-linejoin:miter;marker:none;marker-start:none;marker-mid:none;marker-end:none;stroke-miterlimit:4.0000000;stroke-dasharray:none;stroke-dashoffset:0.00000000;stroke-opacity:1.0000000;visibility:visible;display:inline;overflow:visible"
         id="path3579"
         sodipodi:cx="1380.2725"
         sodipodi:cy="331.11325"
         sodipodi:rx="302.64169"
         sodipodi:ry="302.64169"
         d="M 1682.9142 331.11325 A 302.64169 302.64169 0 1 1  1077.6308,331.11325 A 302.64169 302.64169 0 1 1  1682.9142 331.11325 z" />
      <path
         sodipodi:type="arc"
         style="opacity:1.0000000;color:#000000;fill:#00315a;fill-opacity:1.0000000;fill-rule:nonzero;stroke:none;stroke-width:2.3028219;stroke-linecap:butt;stroke-linejoin:miter;marker:none;marker-start:none;marker-mid:none;marker-end:none;stroke-miterlimit:4.0000000;stroke-dasharray:none;stroke-dashoffset:0.00000000;stroke-opacity:1.0000000;visibility:visible;display:inline;overflow:visible"
         id="path3581"
         sodipodi:cx="157.14285"
         sodipodi:cy="426.64789"
         sodipodi:rx="131.42857"
         sodipodi:ry="131.42857"
         d="M 288.57143 426.64789 A 131.42857 131.42857 0 1 1  25.714279,426.64789 A 131.42857 131.42857 0 1 1  288.57143 426.64789 z"
         transform="matrix(1.714378,0.000000,0.000000,1.714378,1458.736,-474.0448)" />
      <path
         transform="matrix(0.417394,0.000000,0.000000,0.417394,1798.694,81.04953)"
         d="M 288.57143 426.64789 A 131.42857 131.42857 0 1 1  25.714279,426.64789 A 131.42857 131.42857 0 1 1  288.57143 426.64789 z"
         sodipodi:ry="131.42857"
         sodipodi:rx="131.42857"
         sodipodi:cy="426.64789"
         sodipodi:cx="157.14285"
         id="path3609"
         style="fill:#f5f5f5;fill-opacity:1.0000000;stroke:#b0b0b0;stroke-width:2.8453605;stroke-miterlimit:4.0000000;stroke-opacity:1.0000000;display:inline"
         sodipodi:type="arc" />
      <path
         transform="matrix(0.374363,0.000000,0.000000,0.374363,1805.455,99.40834)"
         d="M 288.57143 426.64789 A 131.42857 131.42857 0 1 1  25.714279,426.64789 A 131.42857 131.42857 0 1 1  288.57143 426.64789 z"
         sodipodi:ry="131.42857"
         sodipodi:rx="131.42857"
         sodipodi:cy="426.64789"
         sodipodi:cx="157.14285"
         id="path3611"
         style="fill:#00315a;fill-opacity:1.0000000;stroke:none;stroke-width:5.2873573;stroke-miterlimit:4.0000000;stroke-opacity:1.0000000;display:inline"
         sodipodi:type="arc" />
      <path
         transform="matrix(0.457308,0.000000,0.000000,0.457308,1713.166,21.25393)"
         d="M 391.42857 479.50504 A 41.428570 41.428570 0 1 1  308.57143,479.50504 A 41.428570 41.428570 0 1 1  391.42857 479.50504 z"
         sodipodi:ry="41.428570"
         sodipodi:rx="41.428570"
         sodipodi:cy="479.50504"
         sodipodi:cx="350.00000"
         id="path3613"
         style="fill:#ffffff;fill-opacity:1.0000000;stroke:none;stroke-width:5.2873573;stroke-miterlimit:4.0000000;stroke-opacity:1.0000000;display:inline"
         sodipodi:type="arc" />
      <path
         transform="matrix(0.395879,0.000000,0.000000,0.395879,1709.217,49.29577)"
         d="M 447.85715 574.14789 A 30.000000 31.071428 0 1 1  387.85715,574.14789 A 30.000000 31.071428 0 1 1  447.85715 574.14789 z"
         sodipodi:ry="31.071428"
         sodipodi:rx="30.000000"
         sodipodi:cy="574.14789"
         sodipodi:cx="417.85715"
         id="path3615"
         style="fill:#ffffff;fill-opacity:1.0000000;stroke:none;stroke-width:5.2873573;stroke-miterlimit:4.0000000;stroke-opacity:1.0000000;display:inline"
         sodipodi:type="arc" />
      <path
         transform="matrix(0.212077,0.000000,0.000000,0.212077,1764.953,167.2110)"
         d="M 447.85715 574.14789 A 30.000000 31.071428 0 1 1  387.85715,574.14789 A 30.000000 31.071428 0 1 1  447.85715 574.14789 z"
         sodipodi:ry="31.071428"
         sodipodi:rx="30.000000"
         sodipodi:cy="574.14789"
         sodipodi:cx="417.85715"
         id="path3617"
         style="fill:#ffffff;fill-opacity:1.0000000;stroke:none;stroke-width:5.2873573;stroke-miterlimit:4.0000000;stroke-opacity:1.0000000;display:inline"
         sodipodi:type="arc" />
      <path
         transform="matrix(0.193877,0.000000,0.000000,0.193877,1772.822,153.6258)"
         d="M 447.85715 574.14789 A 30.000000 31.071428 0 1 1  387.85715,574.14789 A 30.000000 31.071428 0 1 1  447.85715 574.14789 z"
         sodipodi:ry="31.071428"
         sodipodi:rx="30.000000"
         sodipodi:cy="574.14789"
         sodipodi:cx="417.85715"
         id="path3619"
         style="fill:#ffffff;fill-opacity:1.0000000;stroke:none;stroke-width:5.2873573;stroke-miterlimit:4.0000000;stroke-opacity:1.0000000;display:inline"
         sodipodi:type="arc" />
      <path
         transform="matrix(0.187270,-5.017895e-2,5.017895e-2,0.187270,1821.044,194.3002)"
         d="M 447.85715 574.14789 A 30.000000 31.071428 0 1 1  387.85715,574.14789 A 30.000000 31.071428 0 1 1  447.85715 574.14789 z"
         sodipodi:ry="31.071428"
         sodipodi:rx="30.000000"
         sodipodi:cy="574.14789"
         sodipodi:cx="417.85715"
         id="path3621"
         style="fill:#00315a;fill-opacity:1.0000000;stroke:#ffffff;stroke-width:8.0107632;stroke-miterlimit:4.0000000;stroke-dasharray:none;stroke-opacity:1.0000000;display:inline"
         sodipodi:type="arc" />
      <path
         transform="matrix(0.187270,-5.017895e-2,5.017895e-2,0.187270,1710.948,222.6076)"
         d="M 447.85715 574.14789 A 30.000000 31.071428 0 1 1  387.85715,574.14789 A 30.000000 31.071428 0 1 1  447.85715 574.14789 z"
         sodipodi:ry="31.071428"
         sodipodi:rx="30.000000"
         sodipodi:cy="574.14789"
         sodipodi:cx="417.85715"
         id="path3623"
         style="fill:#00315a;fill-opacity:1.0000000;stroke:#ffffff;stroke-width:8.0107632;stroke-miterlimit:4.0000000;stroke-dasharray:none;stroke-opacity:1.0000000;display:inline"
         sodipodi:type="arc" />
      <path
         transform="matrix(0.187270,-5.017895e-2,5.017895e-2,0.187270,1737.264,108.1724)"
         d="M 447.85715 574.14789 A 30.000000 31.071428 0 1 1  387.85715,574.14789 A 30.000000 31.071428 0 1 1  447.85715 574.14789 z"
         sodipodi:ry="31.071428"
         sodipodi:rx="30.000000"
         sodipodi:cy="574.14789"
         sodipodi:cx="417.85715"
         id="path3625"
         style="fill:#00315a;fill-opacity:1.0000000;stroke:#ffffff;stroke-width:8.0107632;stroke-miterlimit:4.0000000;stroke-dasharray:none;stroke-opacity:1.0000000;display:inline"
         sodipodi:type="arc" />
      <path
         d="M 1682.9142 331.11325 A 302.64169 302.64169 0 1 1  1077.6308,331.11325 A 302.64169 302.64169 0 1 1  1682.9142 331.11325 z"
         sodipodi:ry="302.64169"
         sodipodi:rx="302.64169"
         sodipodi:cy="331.11325"
         sodipodi:cx="1380.2725"
         id="path3593"
         style="opacity:1.0000000;color:#000000;fill:#ffffff;fill-opacity:1.0000000;fill-rule:nonzero;stroke:none;stroke-width:9.0137157;stroke-linecap:round;stroke-linejoin:miter;marker:none;marker-start:none;marker-mid:none;marker-end:none;stroke-miterlimit:4.0000000;stroke-dasharray:none;stroke-dashoffset:0.00000000;stroke-opacity:1.0000000;visibility:visible;display:inline;overflow:visible"
         sodipodi:type="arc"
         transform="matrix(0.198150,0.000000,0.000000,0.198150,1454.816,191.9642)" />
      <text
         xml:space="preserve"
         style="font-size:23.296499px;font-style:normal;font-variant:normal;font-weight:bold;font-stretch:normal;text-align:start;line-height:125.00000%;writing-mode:lr-tb;text-anchor:start;fill:#ffffff;fill-opacity:1.0000000;stroke:none;stroke-width:1.0000000px;stroke-linecap:butt;stroke-linejoin:miter;stroke-opacity:1.0000000;font-family:Bitstream Vera Sans"
         x="1533.5983"
         y="235.97194"
         id="text3595"
         sodipodi:linespacing="125.00000%"><tspan
           sodipodi:role="line"
           id="tspan3597"
           x="1533.5983"
           y="235.97194">DSS LIVE</tspan></text>
      <text
         xml:space="preserve"
         style="font-size:9.3185997px;font-style:normal;font-weight:normal;fill:#000000;fill-opacity:1.0000000;stroke:none;stroke-width:1.0000000px;stroke-linecap:butt;stroke-linejoin:miter;stroke-opacity:1.0000000;font-family:Bitstream Vera Sans"
         x="1535.942"
         y="260.03705"
         id="text3599"><tspan
           sodipodi:role="line"
           x="1535.9420"
           y="260.03705"
           id="tspan3601"
           style="fill:#ffffff;fill-opacity:1.0000000">This is a description of</tspan><tspan
           sodipodi:role="line"
           x="1535.9420"
           y="271.68530"
           style="fill:#ffffff;fill-opacity:1.0000000"
           id="tspan3603">the content on the CD</tspan></text>
    </g>
    <g
       id="g3880"
       transform="matrix(0.873639,0.000000,0.000000,0.873639,-277.8868,79.74899)">
      <path
         sodipodi:type="arc"
         style="opacity:1.0000000;color:#000000;fill:#ffffff;fill-opacity:1.0000000;fill-rule:nonzero;stroke:#000000;stroke-width:2.3000000;stroke-linecap:round;stroke-linejoin:miter;marker:none;marker-start:none;marker-mid:none;marker-end:none;stroke-miterlimit:4.0000000;stroke-dasharray:none;stroke-dashoffset:0.00000000;stroke-opacity:1.0000000;visibility:visible;display:inline;overflow:visible"
         id="path3790"
         sodipodi:cx="1380.2725"
         sodipodi:cy="331.11325"
         sodipodi:rx="302.64169"
         sodipodi:ry="302.64169"
         d="M 1682.9142 331.11325 A 302.64169 302.64169 0 1 1  1077.6308,331.11325 A 302.64169 302.64169 0 1 1  1682.9142 331.11325 z"
         transform="matrix(0.776550,0.000000,0.000000,0.776550,53.86340,523.7072)" />
      <path
         sodipodi:type="arc"
         style="fill:#204a87;fill-opacity:1.0000000;stroke:none;stroke-width:5.2873573;stroke-miterlimit:4.0000000;stroke-opacity:1.0000000;display:inline"
         id="path3794"
         sodipodi:cx="157.14285"
         sodipodi:cy="426.64789"
         sodipodi:rx="131.42857"
         sodipodi:ry="131.42857"
         d="M 288.57143 426.64789 A 131.42857 131.42857 0 1 1  25.714279,426.64789 A 131.42857 131.42857 0 1 1  288.57143 426.64789 z"
         transform="matrix(1.714378,0.000000,0.000000,1.714378,856.1327,49.21418)" />
      <g
         style="display:inline"
         id="g3796"
         transform="matrix(0.776550,0.000000,0.000000,0.776550,53.86340,516.0198)">
        <path
           transform="matrix(1.232773,0.000000,0.000000,1.232773,1132.076,-296.2714)"
           d="M 391.42857 479.50504 A 41.428570 41.428570 0 1 1  308.57143,479.50504 A 41.428570 41.428570 0 1 1  391.42857 479.50504 z"
           sodipodi:ry="41.428570"
           sodipodi:rx="41.428570"
           sodipodi:cy="479.50504"
           sodipodi:cx="350.00000"
           id="path3798"
           style="fill:#ffffff;fill-opacity:1.0000000;stroke:none;stroke-width:5.2873573;stroke-miterlimit:4.0000000;stroke-opacity:1.0000000"
           sodipodi:type="arc" />
        <path
           transform="matrix(1.067177,0.000000,0.000000,1.067177,1121.430,-220.6784)"
           d="M 447.85715 574.14789 A 30.000000 31.071428 0 1 1  387.85715,574.14789 A 30.000000 31.071428 0 1 1  447.85715 574.14789 z"
           sodipodi:ry="31.071428"
           sodipodi:rx="30.000000"
           sodipodi:cy="574.14789"
           sodipodi:cx="417.85715"
           id="path3800"
           style="fill:#ffffff;fill-opacity:1.0000000;stroke:none;stroke-width:5.2873573;stroke-miterlimit:4.0000000;stroke-opacity:1.0000000"
           sodipodi:type="arc" />
        <path
           transform="matrix(0.571701,0.000000,0.000000,0.571701,1271.679,97.18749)"
           d="M 447.85715 574.14789 A 30.000000 31.071428 0 1 1  387.85715,574.14789 A 30.000000 31.071428 0 1 1  447.85715 574.14789 z"
           sodipodi:ry="31.071428"
           sodipodi:rx="30.000000"
           sodipodi:cy="574.14789"
           sodipodi:cx="417.85715"
           id="path3802"
           style="fill:#ffffff;fill-opacity:1.0000000;stroke:none;stroke-width:5.2873573;stroke-miterlimit:4.0000000;stroke-opacity:1.0000000"
           sodipodi:type="arc" />
        <path
           transform="matrix(0.522636,0.000000,0.000000,0.522636,1292.892,60.56552)"
           d="M 447.85715 574.14789 A 30.000000 31.071428 0 1 1  387.85715,574.14789 A 30.000000 31.071428 0 1 1  447.85715 574.14789 z"
           sodipodi:ry="31.071428"
           sodipodi:rx="30.000000"
           sodipodi:cy="574.14789"
           sodipodi:cx="417.85715"
           id="path3804"
           style="fill:#ffffff;fill-opacity:1.0000000;stroke:none;stroke-width:5.2873573;stroke-miterlimit:4.0000000;stroke-opacity:1.0000000"
           sodipodi:type="arc" />
      </g>
      <path
         d="M 1682.9142 331.11325 A 302.64169 302.64169 0 1 1  1077.6308,331.11325 A 302.64169 302.64169 0 1 1  1682.9142 331.11325 z"
         sodipodi:ry="302.64169"
         sodipodi:rx="302.64169"
         sodipodi:cy="331.11325"
         sodipodi:cx="1380.2725"
         id="path3826"
         style="opacity:1.0000000;color:#000000;fill:#ffffff;fill-opacity:1.0000000;fill-rule:nonzero;stroke:none;stroke-width:9.0137157;stroke-linecap:round;stroke-linejoin:miter;marker:none;marker-start:none;marker-mid:none;marker-end:none;stroke-miterlimit:4.0000000;stroke-dasharray:none;stroke-dashoffset:0.00000000;stroke-opacity:1.0000000;visibility:visible;display:inline;overflow:visible"
         sodipodi:type="arc"
         transform="matrix(0.198150,0.000000,0.000000,0.198150,852.2135,715.2233)" />
      <text
         xml:space="preserve"
         style="font-size:23.296499px;font-style:normal;font-variant:normal;font-weight:bold;font-stretch:normal;text-align:start;line-height:125.00000%;writing-mode:lr-tb;text-anchor:start;fill:#ffffff;fill-opacity:1.0000000;stroke:none;stroke-width:1.0000000px;stroke-linecap:butt;stroke-linejoin:miter;stroke-opacity:1.0000000;font-family:Bitstream Vera Sans"
         x="930.99548"
         y="759.23096"
         id="text3828"
         sodipodi:linespacing="125.00000%"><tspan
           sodipodi:role="line"
           id="tspan3830"
           x="930.99548"
           y="759.23096">DSS LIVE</tspan></text>
      <text
         xml:space="preserve"
         style="font-size:9.3185997px;font-style:normal;font-weight:normal;fill:#000000;fill-opacity:1.0000000;stroke:none;stroke-width:1.0000000px;stroke-linecap:butt;stroke-linejoin:miter;stroke-opacity:1.0000000;font-family:Bitstream Vera Sans"
         x="933.33917"
         y="783.29608"
         id="text3832"><tspan
           sodipodi:role="line"
           x="933.33917"
           y="783.29608"
           id="tspan3834"
           style="fill:#ffffff;fill-opacity:1.0000000">This is a description of</tspan><tspan
           sodipodi:role="line"
           x="933.33917"
           y="794.94433"
           style="fill:#ffffff;fill-opacity:1.0000000"
           id="tspan3836">the content on the CD</tspan></text>
    </g>
    <g
       id="g3895"
       transform="matrix(0.873639,0.000000,0.000000,0.873639,-277.8868,79.74899)">
      <path
         d="M 1682.9142 331.11325 A 302.64169 302.64169 0 1 1  1077.6308,331.11325 A 302.64169 302.64169 0 1 1  1682.9142 331.11325 z"
         sodipodi:ry="302.64169"
         sodipodi:rx="302.64169"
         sodipodi:cy="331.11325"
         sodipodi:cx="1380.2725"
         id="path3792"
         style="opacity:1.0000000;color:#000000;fill:#ffffff;fill-opacity:1.0000000;fill-rule:nonzero;stroke:#000000;stroke-width:2.3000000;stroke-linecap:round;stroke-linejoin:miter;marker:none;marker-start:none;marker-mid:none;marker-end:none;stroke-miterlimit:4.0000000;stroke-dasharray:none;stroke-dashoffset:0.00000000;stroke-opacity:1.0000000;visibility:visible;display:inline;overflow:visible"
         sodipodi:type="arc"
         transform="matrix(0.776550,0.000000,0.000000,0.776550,656.4662,523.7072)" />
      <path
         transform="matrix(1.714378,0.000000,0.000000,1.714378,1458.736,49.21418)"
         d="M 288.57143 426.64789 A 131.42857 131.42857 0 1 1  25.714279,426.64789 A 131.42857 131.42857 0 1 1  288.57143 426.64789 z"
         sodipodi:ry="131.42857"
         sodipodi:rx="131.42857"
         sodipodi:cy="426.64789"
         sodipodi:cx="157.14285"
         id="path3806"
         style="opacity:1.0000000;color:#000000;fill:#204a87;fill-opacity:1.0000000;fill-rule:nonzero;stroke:none;stroke-width:2.3028219;stroke-linecap:butt;stroke-linejoin:miter;marker:none;marker-start:none;marker-mid:none;marker-end:none;stroke-miterlimit:4.0000000;stroke-dasharray:none;stroke-dashoffset:0.00000000;stroke-opacity:1.0000000;visibility:visible;display:inline;overflow:visible"
         sodipodi:type="arc" />
      <path
         sodipodi:type="arc"
         style="fill:#f5f5f5;fill-opacity:1.0000000;stroke:#b0b0b0;stroke-width:2.8453605;stroke-miterlimit:4.0000000;stroke-opacity:1.0000000;display:inline"
         id="path3808"
         sodipodi:cx="157.14285"
         sodipodi:cy="426.64789"
         sodipodi:rx="131.42857"
         sodipodi:ry="131.42857"
         d="M 288.57143 426.64789 A 131.42857 131.42857 0 1 1  25.714279,426.64789 A 131.42857 131.42857 0 1 1  288.57143 426.64789 z"
         transform="matrix(0.417394,0.000000,0.000000,0.417394,1798.694,604.3086)" />
      <path
         sodipodi:type="arc"
         style="fill:#204a87;fill-opacity:1.0000000;stroke:none;stroke-width:5.2873573;stroke-miterlimit:4.0000000;stroke-opacity:1.0000000;display:inline"
         id="path3810"
         sodipodi:cx="157.14285"
         sodipodi:cy="426.64789"
         sodipodi:rx="131.42857"
         sodipodi:ry="131.42857"
         d="M 288.57143 426.64789 A 131.42857 131.42857 0 1 1  25.714279,426.64789 A 131.42857 131.42857 0 1 1  288.57143 426.64789 z"
         transform="matrix(0.374363,0.000000,0.000000,0.374363,1805.455,622.6674)" />
      <path
         sodipodi:type="arc"
         style="fill:#ffffff;fill-opacity:1.0000000;stroke:none;stroke-width:5.2873573;stroke-miterlimit:4.0000000;stroke-opacity:1.0000000;display:inline"
         id="path3812"
         sodipodi:cx="350.00000"
         sodipodi:cy="479.50504"
         sodipodi:rx="41.428570"
         sodipodi:ry="41.428570"
         d="M 391.42857 479.50504 A 41.428570 41.428570 0 1 1  308.57143,479.50504 A 41.428570 41.428570 0 1 1  391.42857 479.50504 z"
         transform="matrix(0.457308,0.000000,0.000000,0.457308,1713.166,544.5130)" />
      <path
         sodipodi:type="arc"
         style="fill:#ffffff;fill-opacity:1.0000000;stroke:none;stroke-width:5.2873573;stroke-miterlimit:4.0000000;stroke-opacity:1.0000000;display:inline"
         id="path3814"
         sodipodi:cx="417.85715"
         sodipodi:cy="574.14789"
         sodipodi:rx="30.000000"
         sodipodi:ry="31.071428"
         d="M 447.85715 574.14789 A 30.000000 31.071428 0 1 1  387.85715,574.14789 A 30.000000 31.071428 0 1 1  447.85715 574.14789 z"
         transform="matrix(0.395879,0.000000,0.000000,0.395879,1709.217,572.5548)" />
      <path
         sodipodi:type="arc"
         style="fill:#ffffff;fill-opacity:1.0000000;stroke:none;stroke-width:5.2873573;stroke-miterlimit:4.0000000;stroke-opacity:1.0000000;display:inline"
         id="path3816"
         sodipodi:cx="417.85715"
         sodipodi:cy="574.14789"
         sodipodi:rx="30.000000"
         sodipodi:ry="31.071428"
         d="M 447.85715 574.14789 A 30.000000 31.071428 0 1 1  387.85715,574.14789 A 30.000000 31.071428 0 1 1  447.85715 574.14789 z"
         transform="matrix(0.212077,0.000000,0.000000,0.212077,1764.953,690.4701)" />
      <path
         sodipodi:type="arc"
         style="fill:#ffffff;fill-opacity:1.0000000;stroke:none;stroke-width:5.2873573;stroke-miterlimit:4.0000000;stroke-opacity:1.0000000;display:inline"
         id="path3818"
         sodipodi:cx="417.85715"
         sodipodi:cy="574.14789"
         sodipodi:rx="30.000000"
         sodipodi:ry="31.071428"
         d="M 447.85715 574.14789 A 30.000000 31.071428 0 1 1  387.85715,574.14789 A 30.000000 31.071428 0 1 1  447.85715 574.14789 z"
         transform="matrix(0.193877,0.000000,0.000000,0.193877,1772.822,676.8848)" />
      <path
         sodipodi:type="arc"
         style="fill:#204a87;fill-opacity:1.0000000;stroke:#ffffff;stroke-width:8.0107632;stroke-miterlimit:4.0000000;stroke-dasharray:none;stroke-opacity:1.0000000;display:inline"
         id="path3820"
         sodipodi:cx="417.85715"
         sodipodi:cy="574.14789"
         sodipodi:rx="30.000000"
         sodipodi:ry="31.071428"
         d="M 447.85715 574.14789 A 30.000000 31.071428 0 1 1  387.85715,574.14789 A 30.000000 31.071428 0 1 1  447.85715 574.14789 z"
         transform="matrix(0.187270,-5.017895e-2,5.017895e-2,0.187270,1821.044,717.5593)" />
      <path
         sodipodi:type="arc"
         style="fill:#204a87;fill-opacity:1.0000000;stroke:#ffffff;stroke-width:8.0107632;stroke-miterlimit:4.0000000;stroke-dasharray:none;stroke-opacity:1.0000000;display:inline"
         id="path3822"
         sodipodi:cx="417.85715"
         sodipodi:cy="574.14789"
         sodipodi:rx="30.000000"
         sodipodi:ry="31.071428"
         d="M 447.85715 574.14789 A 30.000000 31.071428 0 1 1  387.85715,574.14789 A 30.000000 31.071428 0 1 1  447.85715 574.14789 z"
         transform="matrix(0.187270,-5.017895e-2,5.017895e-2,0.187270,1710.948,745.8666)" />
      <path
         sodipodi:type="arc"
         style="fill:#204a87;fill-opacity:1.0000000;stroke:#ffffff;stroke-width:8.0107632;stroke-miterlimit:4.0000000;stroke-dasharray:none;stroke-opacity:1.0000000;display:inline"
         id="path3824"
         sodipodi:cx="417.85715"
         sodipodi:cy="574.14789"
         sodipodi:rx="30.000000"
         sodipodi:ry="31.071428"
         d="M 447.85715 574.14789 A 30.000000 31.071428 0 1 1  387.85715,574.14789 A 30.000000 31.071428 0 1 1  447.85715 574.14789 z"
         transform="matrix(0.187270,-5.017895e-2,5.017895e-2,0.187270,1737.264,631.4315)" />
      <path
         transform="matrix(0.198150,0.000000,0.000000,0.198150,1454.816,715.2233)"
         sodipodi:type="arc"
         style="opacity:1.0000000;color:#000000;fill:#ffffff;fill-opacity:1.0000000;fill-rule:nonzero;stroke:none;stroke-width:9.0137157;stroke-linecap:round;stroke-linejoin:miter;marker:none;marker-start:none;marker-mid:none;marker-end:none;stroke-miterlimit:4.0000000;stroke-dasharray:none;stroke-dashoffset:0.00000000;stroke-opacity:1.0000000;visibility:visible;display:inline;overflow:visible"
         id="path3838"
         sodipodi:cx="1380.2725"
         sodipodi:cy="331.11325"
         sodipodi:rx="302.64169"
         sodipodi:ry="302.64169"
         d="M 1682.9142 331.11325 A 302.64169 302.64169 0 1 1  1077.6308,331.11325 A 302.64169 302.64169 0 1 1  1682.9142 331.11325 z" />
      <text
         sodipodi:linespacing="125.00000%"
         id="text3840"
         y="759.23096"
         x="1533.5983"
         style="font-size:23.296499px;font-style:normal;font-variant:normal;font-weight:bold;font-stretch:normal;text-align:start;line-height:125.00000%;writing-mode:lr-tb;text-anchor:start;fill:#ffffff;fill-opacity:1.0000000;stroke:none;stroke-width:1.0000000px;stroke-linecap:butt;stroke-linejoin:miter;stroke-opacity:1.0000000;font-family:Bitstream Vera Sans"
         xml:space="preserve"><tspan
           y="759.23096"
           x="1533.5983"
           id="tspan3842"
           sodipodi:role="line">DSS LIVE</tspan></text>
      <text
         id="text3844"
         y="783.29608"
         x="1535.942"
         style="font-size:9.3185997px;font-style:normal;font-weight:normal;fill:#000000;fill-opacity:1.0000000;stroke:none;stroke-width:1.0000000px;stroke-linecap:butt;stroke-linejoin:miter;stroke-opacity:1.0000000;font-family:Bitstream Vera Sans"
         xml:space="preserve"><tspan
           style="fill:#ffffff;fill-opacity:1.0000000"
           id="tspan3846"
           y="783.29608"
           x="1535.9420"
           sodipodi:role="line">This is a description of</tspan><tspan
           id="tspan3848"
           style="fill:#ffffff;fill-opacity:1.0000000"
           y="794.94433"
           x="1535.9420"
           sodipodi:role="line">the content on the CD</tspan></text>
    </g>
  </g>
</svg>

