/* XPM */
static char *xfce-internet[] = {
/* columns rows colors chars-per-pixel */
"48 48 149 2",
"   c #000000",
".  c #060708",
"X  c #070808",
"o  c #090600",
"O  c #0C0A00",
"+  c #0A0A0B",
"@  c #0E0F10",
"#  c #0F1214",
"$  c #120E00",
"%  c #161100",
"&  c #1D1700",
"*  c #1E1800",
"=  c #121213",
"-  c #1A1B1C",
";  c #1B1E20",
":  c #231C00",
">  c #2B2200",
",  c #302600",
"<  c #332900",
"1  c #382D00",
"2  c #222325",
"3  c #242628",
"4  c #26292C",
"5  c #282A2D",
"6  c #222A32",
"7  c #2C353E",
"8  c #303336",
"9  c #333639",
"0  c #363A3D",
"q  c #2C3A47",
"w  c #2E3C48",
"e  c #3A3D40",
"r  c #384049",
"t  c #334454",
"y  c #324658",
"u  c #3B4955",
"i  c #3F5365",
"p  c #444649",
"a  c #44494F",
"s  c #4B4B4C",
"d  c #444B52",
"f  c #494E53",
"g  c #4F5152",
"h  c #4F555A",
"j  c #475562",
"k  c #4C5763",
"l  c #4C5965",
"z  c #515A63",
"x  c #5E6871",
"c  c #636363",
"v  c #66696C",
"b  c #656F78",
"n  c #6C6E70",
"m  c #6D7277",
"M  c #6F7378",
"N  c #737475",
"B  c gray47",
"V  c #4B6983",
"C  c #53718B",
"Z  c #5B7790",
"A  c #5D7A94",
"S  c #6D7985",
"D  c #6C7B89",
"F  c #658097",
"G  c #66839D",
"H  c #6B8094",
"J  c #68849D",
"K  c #75808B",
"L  c #71899F",
"P  c #7E8791",
"I  c #7E8C9A",
"U  c #6F88A0",
"Y  c #708CA6",
"T  c #718EA8",
"R  c #7792AB",
"E  c #7F98AF",
"W  c #7A96B0",
"Q  c #84878B",
"!  c gray56",
"~  c #8A8D90",
"^  c #86919C",
"/  c #93979A",
"(  c #9D9D9D",
")  c #8394A5",
"_  c #849AAE",
"`  c #8C9BAA",
"'  c #839FB9",
"]  c #989CA0",
"[  c #84A0BA",
"{  c #8BA4BC",
"}  c #90A0AF",
"|  c #96A3B1",
" . c #90A6BA",
".. c #9BA6B0",
"X. c #9EA9B4",
"o. c #A0A7AE",
"O. c #A9AAAB",
"+. c #A6ADB5",
"@. c #A2AFBC",
"#. c #A5B2BF",
"$. c #AAB4BE",
"%. c #B1B4B8",
"&. c #B5B9BD",
"*. c #8DA9C3",
"=. c #90ABC4",
"-. c #99AFC3",
";. c #97B2CC",
":. c #98B3CC",
">. c #9FB9D2",
",. c #A1B5CA",
"<. c #A6B8C8",
"1. c #A9B5C1",
"2. c #AABBCC",
"3. c #A4BDD4",
"4. c #B2BFCE",
"5. c #A9C0D6",
"6. c #AEC4D9",
"7. c #B3C0CD",
"8. c #B4C5D5",
"9. c #B3C7DB",
"0. c #B4C8DC",
"q. c #B9C7D6",
"w. c #BCC9D6",
"e. c #B9CCDD",
"r. c #BDCFE0",
"t. c #BED0E1",
"y. c #C0C4C8",
"u. c #C1CCD5",
"i. c #C0CDDA",
"p. c #C3D0DA",
"a. c #CBD4DC",
"s. c #D9DCDF",
"d. c #C4D3E3",
"f. c #C8D6E4",
"g. c #CBD9E6",
"h. c #D0DCE9",
"j. c #D5E1EB",
"k. c #DBE1E6",
"l. c #D9E3EC",
"z. c #E3E6E8",
"x. c #E1E8EF",
"c. c #E6EDF3",
"v. c #E9EFF5",
"b. c #EEF1F4",
"n. c #F1F3F5",
"m. c #F0F4F8",
"M. c #F7F9FB",
"N. c #FEFEFE",
"B. c None",
/* pixels */
"B.B.B.B.B.B.B.B.B.B.B.B.B.B.B.B.B.B.B.B.B.B.B.B.B.B.B.B.B.B.B.B.B.                B.B.B.B.B.B.B.",
"B.B.B.B.B.B.B.B.B.B.B.B.B.B.B.B.B.B.B.B.B.B.B.B.B.B.B.B.B.B.                          B.B.B.B.B.",
"B.B.B.B.B.B.B.B.B.B.B.B.B.B.B.B.B.B.B.B.B.B.B.B.B.B.B.                                    B.B.B.",
"B.B.B.B.B.B.B.B.B.B.B.B.B.B.B.B.B.B.B.                                                      B.B.",
"B.B.B.B.B.B.B.B.B.B.B.B.B.B.B.B.                                  B.B.B.B.B.B.B.B.          B.B.",
"B.B.B.B.B.B.B.B.B.B.B.B.B.B.          + n / O.O.O.( ! v -           B.B.B.B.B.B.B.B.          B.",
"B.B.B.B.B.B.B.B.B.B.B.B.        = ~ s.N.N.N.N.N.N.N.N.N.n.I d +         B.B.B.B.B.B.B.        B.",
"B.B.B.B.B.B.B.B.B.B.B.      X ( M.N.N.N.N.N.N.N.N.N.N.N.v.6.5.:.l .       B.B.B.B.B.B.B.        ",
"B.B.B.B.B.B.B.B.B.B.      v m.N.N.N.N.N.N.N.N.N.N.N.N.N.f.5.3.>.;.W 7       B.B.B.B.B.B.        ",
"B.B.B.B.B.B.B.B.B.      ( N.N.N.N.N.N.N.N.N.N.N.N.N.N.m.5.3.>.:.*.*.W t         B.B.B.B.        ",
"B.B.B.B.B.B.B.B.    . 7.N.N.N.N.N.N.N.N.N.N.N.N.N.N.N.d.3.>.:.*.E W T J j .       B.B.B.        ",
"B.B.B.B.B.B.B.      &.N.N.N.N.N.N.N.N.N.N.N.N.N.N.N.m.3.>.:.*.[ W T U A C y       B.B.B.        ",
"B.B.B.B.B.B.      Q N.N.N.N.N.N.N.N.N.N.N.N.N.N.N.N.f.>.:.*.[ W T G A C V C q       B.B.        ",
"B.B.B.B.B.B.    s N.N.N.N.N.N.N.N.N.N.N.N.N.N.N.N.N.3.;.*.[ W R G A C V C A G 4   o   B.        ",
"B.B.B.B.B.      z.N.N.N.N.N.N.N.N.N.N.N.N.N.N.N.N.c.;.*.E W T U A C V C Z G T J       B.        ",
"B.B.B.B.B.    M N.N.N.N.N.N.N.N.N.N.N.N.N.N.N.N.N.g.*.*.W T G A C V C A G T W [ u   o         B.",
"B.B.B.B.B.    v.N.N.N.N.N.N.N.N.N.N.N.N.N.N.N.N.N.e.[ W T J A C V C Z G Y W [ *.*.X           B.",
"B.B.B.B.    g N.N.N.N.N.N.N.N.N.N.N.N.N.N.N.N.N.N.2.W T J A C V C A G Y W W =.;.>.w           B.",
"B.B.B.B.    %.N.N.N.N.N.N.N.N.N.N.N.N.N.N.N.N.N.N.-.T J A C V C A G T R [ *.;.>.5.D           B.",
"B.B.B.B.    n.N.N.N.N.N.N.N.N.N.N.N.N.N.N.N.N.N.N.p.G A C V C A U T R *.=.;.>.>.5.,.        B.B.",
"B.B.B.B.  3 N.N.N.N.N.N.N.N.N.N.N.N.N.N.N.N.N.N.N.M.Y C V C A J T W E *.;.>.3.5.6.6..       B.B.",
"B.B.B.    s N.N.N.N.N.N.N.N.N.N.N.N.N.N.N.N.N.N.N.N.u.V C A G T W ' =.;.>.3.5.6.0.b         B.B.",
"B.B.B.    n N.N.N.N.N.N.N.N.N.N.N.N.N.N.N.N.N.N.N.N.N.L A G T W ' *.;.>.3.5.6.0.<.+     %   B.B.",
"B.B.B.    B N.N.N.N.N.N.N.N.N.N.N.m.x.g.i.M.N.N.N.N.N.a.G T W ' *.;.>.3.5.6.0.e.f       *   B.B.",
"B.B.B.    N N.N.N.N.N.N.N.N.m.g.3.*.[ W T _ v.N.N.N.N.N. .W [ *.;.>.3.5.6.6.e.|     +   :   B.B.",
"B.B.B.    c N.N.N.N.N.N.m.e.>.;.*.[ W T J A A k.N.N.N.N.l.[ *.:.>.>.6.6.6.r.8.;     s   :   B.B.",
"B.B.B.    s N.N.N.N.M.g.3.>.;.*.[ W T J A C V Z a.N.N.N.N.2.;.>.3.6.6.r.e.e.f     p f   :   B.B.",
"B.B.      = M.N.N.l.5.3.>.;.*.' W T J A C V C A J u.N.N.N.c.>.3.3.6.6.e.r.I     = a.8   *   B.B.",
"B.B.        $.h.0.5.3.>.;.*.[ W T J A C V C A G T W 8.N.N.N.9.5.6.9.r.r.1.+     o.i..   O   B.B.",
"B.B.        z 9.5.3.>.;.*.[ W T J A C V C A G T W ' *.9.M.N.j.6.9.r.e.4.;     v g.^   :   B.B.B.",
"B.          - 5.3.>.;.*.E W T G A C V C A G T W [ *.;.>.5.l.g.0.e.d.e.5     9 d.d.g   ,   B.B.B.",
"B.            _ >.;.*.[ W R G A C V C A G T W ' *.;.>.3.5.6.0.e.e.i.0     3 w.d.8.@   *   B.B.B.",
"B.            7 :.*.' W T G A C V C A G Y R [ *.;.>.5.5.6.9.e.d.d.d     - 4.d.d.x   :   B.B.B.B.",
"        B.      H [ W T J A C V C A U Y W W =.:.>.>.5.6.9.e.r.e.r     @ 1.f.e.2.+   ,   B.B.B.B.",
"        B.B.    ; T T J A C V C A G T W [ =.;.>.>.5.6.0.e.d.w.9     X ..d.r.e.f   >     B.B.B.B.",
"        B.B.      q J A C V C A U T W [ =.;.>.>.5.6.0.r.e.4.4     = X.f.r.e.S   o >   B.B.B.B.B.",
"        B.B.B.      t C V C A G T W [ *.;.>.3.5.6.0.e.r.@.-     - 1.f.r.r.` .   1   B.B.B.B.B.B.",
"        B.B.B.B.      t C A G T W [ *.;.>.3.5.6.0.r.r.K X     5 8.d.r.e.` =   <     B.B.B.B.B.B.",
"        B.B.B.B.B.      w J T W [ *.;.>.3.5.6.9.r.9.a       e e.d.r.e.K X   > O   B.B.B.B.B.B.B.",
"        B.B.B.B.B.B.      6 L ' *.;.>.3.5.6.9.r.{ ;       M g.d.p.8.z     > X   B.B.B.B.B.B.B.B.",
"        B.B.B.B.B.B.B.      . j *.>.3.5.9.9.<.f       - +.d.d.e.K =     <     B.B.B.B.B.B.B.B.B.",
"B.        B.B.B.B.B.B.B.        # k ) 6.4.x +       g a.g.1.m 2     * *     B.B.B.B.B.B.B.B.B.B.",
"B.          B.B.B.B.B.B.B.B.          . .       = c m h ;       % >     B.B.B.B.B.B.B.B.B.B.B.B.",
"B.B.          B.B.B.B.B.B.B.B.                            O * $       B.B.B.B.B.B.B.B.B.B.B.B.B.",
"B.B.                                        o O $ % $ O         B.B.B.B.B.B.B.B.B.B.B.B.B.B.B.B.",
"B.B.B.                                    B.            B.B.B.B.B.B.B.B.B.B.B.B.B.B.B.B.B.B.B.B.",
"B.B.B.B.                              B.B.B.B.B.B.B.B.B.B.B.B.B.B.B.B.B.B.B.B.B.B.B.B.B.B.B.B.B.",
"B.B.B.B.B.B.B.                B.B.B.B.B.B.B.B.B.B.B.B.B.B.B.B.B.B.B.B.B.B.B.B.B.B.B.B.B.B.B.B.B."
};
