/* XPM */
static char *xfce-edit[] = {
/* columns rows colors chars-per-pixel */
"48 48 106 2",
"   c #000000",
".  c #0C0101",
"X  c #0C0C0C",
"o  c #130000",
"O  c #190606",
"+  c #1C1A1A",
"@  c #250202",
"#  c #261818",
"$  c #2A1212",
"%  c #341B1B",
"&  c #3B1010",
"*  c #3B1C1B",
"=  c gray13",
"-  c gray17",
";  c #312121",
":  c #342C2C",
">  c #382525",
",  c #3D2C2C",
"<  c #3F3131",
"1  c #3C3C3C",
"2  c #480A09",
"3  c #451616",
"4  c #441919",
"5  c #5A0A0A",
"6  c #551514",
"7  c #412727",
"8  c #402828",
"9  c #403232",
"0  c #512F2F",
"q  c #543030",
"w  c #5F3030",
"e  c #6E0F0F",
"r  c #641313",
"t  c #750000",
"y  c #711110",
"u  c #7C1211",
"i  c #6E3C3C",
"p  c #434343",
"a  c #4C4C4C",
"s  c #554848",
"d  c #5B4F4F",
"f  c #545454",
"g  c #5C5B5B",
"h  c #615B5B",
"j  c #636363",
"k  c #696464",
"l  c #6E6E6E",
"z  c #756B6B",
"x  c #727272",
"c  c #7A7171",
"v  c #7B7B7B",
"b  c #8F0000",
"n  c #841615",
"m  c #871817",
"M  c #8A1413",
"N  c #881817",
"B  c #930C0C",
"V  c #9C0303",
"C  c #990807",
"Z  c #980908",
"A  c #A10101",
"S  c #A70F0F",
"D  c #A71010",
"F  c #AB1B1B",
"G  c #AD2020",
"H  c #B32F2F",
"J  c #B33030",
"K  c #894C4C",
"L  c #9E5B5B",
"P  c #A35D5D",
"I  c #B14C4C",
"U  c #BB4545",
"Y  c #B96E6E",
"T  c #B77272",
"R  c #B87070",
"E  c #C35C5C",
"W  c #CB7171",
"Q  c gray53",
"!  c #8C8C8C",
"~  c #958F8F",
"^  c #959595",
"/  c #989191",
"(  c #9B9B9B",
")  c #A3A3A3",
"_  c #ACACAC",
"`  c #B3B3B3",
"'  c #B8B6B6",
"]  c #BBBBBB",
"[  c #C98585",
"{  c #D28686",
"}  c #D38888",
"|  c #D59696",
" . c #D59898",
".. c #D99898",
"X. c #DDA4A4",
"o. c #E1ADAD",
"O. c #E2B1B1",
"+. c #C3C3C3",
"@. c #CACACA",
"#. c #D2D2D2",
"$. c #DBDBDB",
"%. c #E3E3E3",
"&. c #EBEBEB",
"*. c #F5F5F5",
"=. c #FEFEFE",
"-. c None",
/* pixels */
"-.-.-.-.-.-.-.-.-.    -.-.-.-.-.-.    -.-.-.-.-.-.    -.-.-.-.-.-.    -.-.-.-.-.-.-.-.-.-.-.-.-.",
"-.-.-.-.-.-.-.            -.-.            -.-.            -.-.            -.-.-.-.-.-.-.-.-.-.-.",
"-.-.-.-.-.-.                                                -.              -.-.-.-.-.-.-.-.-.-.",
"-.-.-.-.-.-.                                                        -.      -.-.-.-.-.-.-.-.-.-.",
"-.-.-.-.                                                                        -.-.-.-.-.-.-.-.",
"-.-.-.-.X p =   g l l l g x +   g l l l g l +   j l l l g l -   a x l x g l         -.-.-.-.-.-.",
"-.-.-.-.X ^ j   ! =.=.=.=.=.g   / =.=.=.=.=.f   ^ =.=.=.=.=.v   x =.=.=.=.=.        -.-.-.-.-.-.",
"-.-.-.-.X ^ ` .   _ =.=.=.=._     ' =.=.=.=.)   . ] =.=.=.=.+.X   ^ =.=.=.=.        -.-.-.-.-.-.",
"-.-.-.-.X ( =.` p *.=.=.=.=.=._ a *.=.=.=.=.=.) a =.=.=.=.=.=.+.1 &.=.=.=.=.        -.-.-.-.-.-.",
"-.-.-.-.X ^ =.=.=.=.=.=.=.=.=.=.=.=.=.=.=.=.=.=.=.=.=.=.=.=.=.=.=.=.=.=.=.=.        -.-.-.-.-.-.",
"-.-.-.-.X ^ =.=.=.=.=.=.=.=.=.=.=.=.=.=.=.=.=.=.=.=.=.=.=.=.=.=.=.=.=.=.=.=.        -.-.-.-.-.-.",
"-.-.-.-.X ^ =.^ x ( v $.^ ^ ! v ) ^ g ( / #.=.p j _ v l ) #.=.j g ! x / =.=.        -.-.-.-.-.-.",
"-.-.-.-.X ^ =.%.+.$.` =.` ) ( ] +.] ] +.#.$.=.@.+.] ) +.+.$.=.+._ ) +.( =.=.        -.-.-.-.-.-.",
"-.-.-.-.X ^ =.=.=.=.=.=.=.=.=.=.=.=.=.=.=.=.=.=.=.=.=.=.=.=.=.=.=.=.=.=.=.=.        -.-.-.-.-.-.",
"-.-.-.-.X ^ =.=.=.=.=.=.=.=.=.=.=.=.=.=.=.=.=.=.=.=.=.=.=.=.=.=.=.=.=.=.=.=.        -.-.-.-.-.-.",
"-.-.-.-.X ( =.x a ! / l ^ ^ =.@.g ! Q ` ^ ! ^ v Q ) g / ! _ =.=.=.=.=.=.=.=.        -.-.-.-.-.-.",
"-.-.-.-.X ^ =.$.@.+.) ] #.+.=.=.@.#.] &.+.( ( #.+.+.+.+.+.$.=.=.=.=.=.=.=.=.        -.-.-.-.-.-.",
"-.-.-.-.X ^ =.=.=.=.=.=.=.=.=.Q v $.=.=.=.=.=.=.=.=.=.=.=.=.=.=.=.=.=.=.=.=.        -.-.-.-.-.-.",
"-.-.-.-.X ^ =.=.=.=.=.=.=.=.=.#..   . + h ' &.=.=.=.=.=.=.=.=.=.=.=.=.=.=.=.        -.-.-.-.-.-.",
"-.-.-.-.X ^ =.=.=.=.=.=.=.=.=.=.!         @ 4 , ` =.=.=.=.=.=.=.=.=.=.=.=.=.        -.-.-.-.-.-.",
"-.-.-.-.X ( =.=.=.=.=.=.=.=.=.=.#.g     o V F | i s &.=.=.=.=.=.=.=.=.=.=.=.        -.-.-.-.-.-.",
"-.-.-.-.X ^ =.=.=.=.=.=.=.=.=.=.*.) :   t A F { o.Y 7 ~ =.=.=.=.=.=.=.=.=.=.        -.-.-.-.-.-.",
"-.-.-.-.X ^ =.=.=.=.=.=.=.=.=.=.=.+.( # b Z V A U X.X.K 9 #.=.=.=.=.=.=.=.=.        -.-.-.-.-.-.",
"-.-.-.-.X ^ =.=.=.=.=.=.=.=.=.=.=.&.) / $ u m B A S W O.[ 0 z *.=.=.=.=.=.=.        -.-.-.-.-.-.",
"-.-.-.-.X ^ =.=.=.=.=.=.=.=.=.=.=.=.] ) ! ; 6 m M C A H ..o.P > ' =.=.=.=.=.        -.-.-.-.-.-.",
"-.-.-.-.X ^ =.=.=.=.=.=.=.=.=.=.=.=.*.` ) ) j $ y m M C A E o...i s &.=.=.=.        -.-.-.-.-.-.",
"-.-.-.-.X ^ =.=.=.=.=.=.=.=.=.=.=.=.=.&._ ) ) ^ 9 3 n m B A F { o.Y , / =.=.        -.-.-.-.-.-.",
"-.-.-.-.X ^ =.=.=.=.=.=.=.=.=.=.=.=.=.=.$.) ) ) ) v % r N M V A U X.X.K , #.        -.-.-.-.-.-.",
"-.-.-.-.X ^ =.=.=.=.=.=.=.=.=.=.=.=.=.=.=.#.) ) ) ) ) z * u N B A S W O.[ 0 .       -.-.-.-.-.-.",
"-.-.-.-.X ( =.=.=.=.=.=.=.=.=.=.=.=.=.=.=.=.] ) ) ) ) _ #.9 6 m N C A H ..o.L O     -.-.-.-.-.-.",
"-.-.-.-.X ^ =.=.=.=.=.=.=.=.=.=.=.=.=.=.=.=.=._ ) ) ) ) ` =.( % y m M V A E o. .w o   -.-.-.-.-.",
"-.-.-.-.X ^ =.=.=.=.=.=.=.=.=.=.=.=.=.=.=.=.=.*._ ) ) ) ) @.=.&.d 4 m m B A F { O.T $ o   -.-.-.",
"-.-.-.-.X ( =.=.=.=.=.=.=.=.=.=.=.=.=.=.=.=.=.=.%.) ) ) ) ( $.=.=.] ; r N M C A U X.X.&   -.-.-.",
"-.-.-.-.X ^ =.=.=.=.=.=.=.=.=.=.=.=.=.=.=.=.=.=.=.$.) ) ) ) ) %.=.=.*.c % u N B V D I o   -.-.-.",
"-.-.-.-.X ^ =.=.=.=.=.=.=.=.=.=.=.=.=.=.=.=.=.=.=.=.+.) ) ) ) _ *.=.=.=.$., 2 m N C @   -.-.-.-.",
"-.-.-.-.X ^ =.=.=.=.=.=.=.=.=.=.=.=.=.=.=.=.=.=.=.=.=.] ) ) ) ) ` =.=.=.=.=.  o e 5 o -.-.-.-.-.",
"-.-.-.-.X ^ =.=.=.=.=.=.=.=.=.=.=.=.=.=.=.=.=.=.=.=.=.*._ ) ) ) ) ] =.=.=.=.    . .   -.-.-.-.-.",
"-.-.-.-.X ^ =.=.=.=.=.=.=.=.=.=.=.=.=.=.=.=.=.=.=.=.=.=.&.) ) ) ) ) @.=.=.=.        -.-.-.-.-.-.",
"-.-.-.-.X ^ =.=.=.=.=.=.=.=.=.=.=.=.=.=.=.=.=.=.=.=.=.=.=.%.) ) ) ) ) %.=.=.        -.-.-.-.-.-.",
"-.-.-.-.X ( =.=.=.=.=.=.=.=.=.=.=.=.=.=.=.=.=.=.=.=.=.=.=.=.@.) ) ) ) ) &.=.        -.-.-.-.-.-.",
"-.-.-.-.X ^ =.=.=.=.=.=.=.=.=.=.=.=.=.=.=.=.=.=.=.=.=.=.=.=.=.+.) ) ) ) _ *.        -.-.-.-.-.-.",
"-.-.-.-.X ^ =.=.=.=.=.=.=.=.=.=.=.=.=.=.=.=.=.=.=.=.=.=.=.=.=.*.` ) ) ) ) ]         -.-.-.-.-.-.",
"-.-.-.-.X ^ =.=.=.=.=.=.=.=.=.=.=.=.=.=.=.=.=.=.=.=.=.=.=.=.=.=.*.) ) ) ) )         -.-.-.-.-.-.",
"-.-.-.-.X ^ =.=.=.=.=.=.=.=.=.=.=.=.=.=.=.=.=.=.=.=.=.=.=.=.=.=.=.%.) ) ) )         -.-.-.-.-.-.",
"-.-.-.-.X f Q Q Q Q Q Q Q Q Q Q Q Q Q Q Q Q Q Q Q Q Q Q Q Q Q Q Q Q l f g f         -.-.-.-.-.-.",
"-.-.-.-.. X X X X . X X X X X . X X X . . X X X X X X   X X . X X X X .   . X       -.-.-.-.-.-.",
"-.-.-.-.-.                                                                          -.-.-.-.-.-.",
"-.-.-.-.-.                                                                          -.-.-.-.-.-."
};
