/* XPM */
static char *emelfm2_16x16[] = {
/* columns rows colors chars-per-pixel */
"48 48 257 2",
"   c #000000",
".  c #00000B",
"X  c #030B04",
"o  c #0A0707",
"O  c #000013",
"+  c #00001B",
"@  c #000916",
"#  c #000C18",
"$  c #0B001E",
"%  c #0C0C1A",
"&  c #071200",
"*  c #0A1006",
"=  c #071415",
"-  c #160A00",
";  c #180200",
":  c #170200",
">  c #1D001D",
",  c #140014",
"<  c #1E1A00",
"1  c #131414",
"2  c #000023",
"3  c #00002B",
"4  c #0C0021",
"5  c #0B0B23",
"6  c #000033",
"7  c #00003B",
"8  c #0C0C32",
"9  c #190023",
"0  c #141428",
"q  c #181835",
"w  c #171736",
"e  c #00250D",
"r  c #033D05",
"t  c #003A17",
"y  c #112B00",
"u  c #002919",
"i  c #002924",
"p  c #221D00",
"a  c #26002B",
"s  c gray16",
"d  c #2B2B3B",
"f  c #222238",
"g  c #333333",
"h  c #30303E",
"j  c #3B3B3B",
"k  c #000043",
"l  c #00004A",
"z  c #0B0B47",
"x  c #000053",
"c  c #00005B",
"v  c #0C0C58",
"b  c #161643",
"n  c #000063",
"m  c #00006B",
"M  c #0B0B6B",
"N  c #000072",
"B  c #000079",
"V  c #0C0C70",
"C  c #10007C",
"Z  c #191967",
"A  c #161672",
"S  c #043852",
"D  c #220C40",
"F  c #3A1D40",
"G  c #390540",
"H  c #222241",
"J  c #2C2B43",
"K  c #262649",
"L  c #2F2F59",
"P  c #33334C",
"I  c #3A3A44",
"U  c #383748",
"Y  c #393957",
"T  c #25256A",
"R  c #29297A",
"E  c #3A3A65",
"W  c #3B3B70",
"Q  c #343479",
"!  c #094505",
"~  c #00433A",
"^  c #007417",
"/  c #345400",
"(  c #014946",
")  c #006851",
"_  c #30756D",
"`  c #503139",
"'  c #521631",
"]  c #5D1D40",
"[  c #4D1664",
"{  c #403F42",
"}  c #4E2673",
"|  c #434C30",
" . c #40781D",
".. c #566900",
"X. c #5B7800",
"o. c #41782F",
"O. c #41414E",
"+. c #474746",
"@. c #404053",
"#. c #40405B",
"$. c #4A4A52",
"%. c #575649",
"&. c #555457",
"*. c #414362",
"=. c #444468",
"-. c #41417D",
";. c #494873",
":. c #415F64",
">. c #405F74",
",. c #504F64",
"<. c #575667",
"1. c #56567A",
"2. c #4D7440",
"3. c #5D7640",
"4. c #41796C",
"5. c #634A40",
"6. c #615E41",
"7. c #754C40",
"8. c #696744",
"9. c #7A7640",
"0. c #777549",
"q. c #787753",
"w. c #697440",
"e. c #686868",
"r. c #6F6E75",
"t. c #706E72",
"y. c #757575",
"u. c #7E7E7E",
"i. c #7D7B72",
"p. c #0B109C",
"a. c #0C289D",
"s. c #210083",
"d. c #2511A4",
"f. c #323283",
"g. c #3C3C84",
"h. c #3A3A8A",
"j. c #2B2B81",
"k. c #2529A4",
"l. c #38459E",
"z. c #2947A1",
"x. c #3172B4",
"c. c #404083",
"v. c #40408A",
"b. c #484788",
"n. c #525283",
"m. c #7D7D82",
"M. c #09E531",
"N. c #409D23",
"B. c #419D39",
"V. c #659E00",
"C. c #419976",
"Z. c #01AEBF",
"A. c #817F4D",
"S. c #8B8C29",
"D. c #95B615",
"F. c #848142",
"G. c #8D8846",
"H. c #928F40",
"J. c #99964B",
"K. c #9C9944",
"L. c #9A9857",
"P. c #8A876A",
"I. c #969361",
"U. c #A59D42",
"Y. c #A8A444",
"T. c #B3AF41",
"R. c #BCB84B",
"E. c #B9B547",
"W. c #ACA953",
"Q. c #A7A462",
"!. c #AAC816",
"~. c #BBC936",
"^. c #FEF83F",
"/. c #FAF43F",
"(. c #C9C442",
"). c #C9C65A",
"_. c #D4CF4C",
"`. c #D8D448",
"'. c #D9D645",
"]. c #E4DF49",
"[. c #E7D941",
"{. c #E5E044",
"}. c #EBE645",
"|. c #EDE844",
" X c #EBFE4B",
".X c #EDFE45",
"XX c #EBFE53",
"oX c #ECFF5B",
"OX c #F2EC42",
"+X c #F4F242",
"@X c #F5F34C",
"#X c #F4FB4C",
"$X c #FAF541",
"%X c #FEF840",
"&X c #F9F94B",
"*X c #F6F847",
"=X c #F5F353",
"-X c #F6F559",
";X c #F4FC52",
":X c #F9F552",
">X c #F8F953",
",X c #F7F75C",
"<X c #F0EC58",
"1X c #EDFF63",
"2X c #EEFF6A",
"3X c #EFFF72",
"4X c #F1ED75",
"5X c #F1FE6B",
"6X c #FAF668",
"7X c #F8FA61",
"8X c #F9FA6D",
"9X c #F7F864",
"0X c #F3FE75",
"qX c #F1FE7B",
"wX c #F9FA75",
"eX c #8B8B8B",
"rX c #8F8F9F",
"tX c #959595",
"yX c #9090A3",
"uX c #9A9ABC",
"iX c #A3A3A3",
"pX c #ACACAC",
"aX c #A9A9BC",
"sX c #B1B1B0",
"dX c gray75",
"fX c #B5B4AF",
"gX c #B0B0C9",
"hX c #F0FF83",
"jX c #F2FE8A",
"kX c #FAFB83",
"lX c #F8FD8C",
"zX c #F2FE92",
"xX c #F3FF9B",
"cX c #FAFD99",
"vX c #F4FFA3",
"bX c #F5FFAA",
"nX c #F6FFB3",
"mX c #F7FFBA",
"MX c #FCFDB1",
"NX c #FAFEBC",
"BX c #C2C2C2",
"VX c #CCCCCC",
"CX c #D9D9D9",
"ZX c #D5D5D5",
"AX c #F8FEC2",
"SX c #F9FFCB",
"DX c #FAFFD3",
"FX c #FBFFDB",
"GX c #E4E4E4",
"HX c #EAEAEA",
"JX c #E7E7EC",
"KX c #FCFFE3",
"LX c #FCFFEB",
"PX c #F2F2F3",
"IX c #FDFFF3",
"UX c #FEFEFE",
"YX c None",
/* pixels */
"YXYXYXYXYXYXYXYXYXYXYXYXYXYXYXYXYXYXYXYXYXYXYXYXYXYXYXYXYXYXYXYXUXUXUXUXUXUXUXUXUXUXUXUXUXYXYXYX",
"YXYXYXYXYXYXYXYXYXYXYXYXYXYXYXYXYXYXYXYXYXYXYXYXYXYXYXYXYXYXYXYXUXGXpXpXpXpXpXsXpXsXsXZXUXYXYXYX",
"YXYXYXYXYXYXYXYXYXYXYXYXYXYXYXYXYXYXYXYXYXYXYXYXYXYXYXYXYXYXYXYXUXiX, > > a > > > > , y.UXYXYXYX",
"YXYXYXYXYXYXYXYXYXYXYXYXYXYXYXYXYXYXYXYXYXYXYXYXYXYXYXYXYXUXUXUXUXiX> 7.9.o._ 4.x.l.a y.UXUXUXUX",
"YXYXYXYXYXYXYXYXYXYXYXYXYXYXYXYXYXYXYXYXYXYXYXYXYXYXYXYXYXUXPXtXtXe.4 5.w.2._ _ x.z.9 $.iXiXJXUX",
"YXYXYXYXYXYXYXYXYXYXYXYXYXYXYXYXYXYXYXYXYXYXYXYXYXYXYXYXYXUXHX. 4 4 $ $ $ $ + $ $ $ $ $ $ . dXUX",
"YXYXYXYXYXYXYXYXYXYXYX                      .     .   .   m.HX. G ] 2 r.pXpXpXpXpXeXO C s.$ dXUX",
"YXYXYXYXYXYXYXYXYXYXYX            . . . . . O O O O + + + #.HX. D F # iXUXUXUXUXUXVXO p.d.+ BXUX",
"YXYXYXYXYXYXYXYXYXYX        .     . . . . O O O O + + + + #.HX  @ @ . iXUXUXUXUXUXVXO a.d.@ BXUX",
"YXYXYXYXYXYXYXYXYXYX          . . . . O O O O O + + + 2 2 #.UXVXVXVXVXPXUXUXUXUXUXVX# a.k.# BXUX",
"YXYXYXYXYXYXYXYXYX        .   . . . . . O O O + + + 2 2 2 H rXrXyXyXyXBXUXUXUXj s s # S S = BXUX",
"YXYXYXYXYXYXYXYXYX        . . . . O @ f d U Y Y U J f 5 2 2 3 3 3 3 7 P CXUXUX1 ~ ( i * 1 1 VXUX",
"YXYXYXYXYXYXYXYX      . . . . . % J { #.&.0.G.G.q.&.#.Y P 8 6 3 3 3 6 HXUXUXUX= ) Z.u u.UXUXUXUX",
"YXYXYXYXYXYXYX    .   . . . % d { &.U.{.^.^.=X=X$X^.OXL.&.*.K 6 6 6 6 HX+.X X X t t e u.UXUXUXUX",
"YXYXYXYXYXYXYX    . . . . % I +.J.$X,XcXAXSXAXNXnXvXwX:X^.L.=.Y E 1.1.PXj r ^ r o j j iXUXYXYXYX",
"YXYXYXYXYXYX    . . . . % I $.'.@XMXKXKXFXDXSXNXmXnXvXvXwX&X`.,.aXHXCXCXj r M.! g UXUXUXUXYXYXYX",
"YXYXYXYXYXYX  . . . . % U %.}.9XKXIXLXKXFXDXAXmXmXnXbXvXxXjX@XOXfXsX* & & y y y g UXUXUXUXYXYXYX",
"YXYXYXYXYX    . . O . J { '.6XIXUXIXIXMX6X%X^.^.:XlXvXvXxXjXhX>X7XfX| X./ * e.e.eXUXUXUXUXUXUXUX",
"YXYXYXYXYX  . . . O 0 { W.:XKXIXUXIXwX/.S.P q J S.OX7XxXxXzXjXqX%X).| !...* pXpXpXpXpXpXpXpXHXUX",
"YXYXYXYX  . . . . O U %.^.NXLXLXIXkX}.f k k k k l b ].-XzXjXjXqX8X^.A.~...p < < < < < < < o VXUX",
"YXYXYXYX  . O . O 0 U R.6XFXKXLXNX/.w k k 7 k 7 7 k z /.qXjXjXqXqX&X[.'.D.V.N.B.C.4.>.} ` - VXUX",
"YXYXYX  . O O O O d $.^.bXFXFXKXwXU.k k k k k 7 k k 7 G.=XjXhXqX5X1X^.U.S.X. .o.4.:.=.[ ' ; VXUX",
"YXYXYX. . O O O + U F.:XSXDXDXDX$XI k k k 7 k z I 9.T.OX*XjXhXqX0X2X@XS.` - ; ; ; ; ; ; ; o VXUX",
"YXYX  . O O O + 5 Y R.8XAXSXDXSX^.H k d 6.K.'.^.$X=X6XqXjXhXhX3X5X5X:X4XCXVXBXBXBXBXBXBXBXdXPXUX",
"YXYX. O O O O + 0 { `.lXNXAXSXNX^.E./.^.@X8XlXcXbXvXxXzXjXhXqXqX2X1X;X<XgXuXuXuXuXuXaXUXUXUXUXUX",
"YX. O O O + + + q #.<XlXmXAXAXNX8XkXcXmXmXmXbXbXvXxXxXjXjXqXqX3X2X1X;X|.-.Z x c c c c 2 YXYXYXYX",
"YX. O O + + + + q *.+XzXbXmXmXmXNXmXNXmXnXbXbXvXvXxXzXjXhXqX2XoX>XOX^.].-.Z x c n c n k   YXYXYX",
"  . + + + 2 + 2 b { }.kXbXbXbXmXnXnXnXbXbXbXvXxXxXjXqX7X>X$X^.[.Y.8.&.-.l.Z x c n n n l . YXYXYX",
"YX. + + + + 2 2 8 #.`.wXvXvXbXvXbXbXbXvXvXzXwX7X@X^.+X(.F.+.z k l l T c.g.Z c n n n n 6 YXYXYXYX",
"YXYXO + 2 2 2 2 8 *.R.9XxXxXvXvXvXjX8X-X$X$X'.U.8.J k k k l k k l l Q c.g.M n n n n l . YXYXYXYX",
"YXYX. + 2 2 2 2 3 Y q.$XzXxXxXxXxX$X(.9.+.z l k l k k l l k l k l z c.c.g.c n n n m 3 YXYXYXYXYX",
"YXYXYXO 2 2 3 3 3 K ,.^.qXzXzXjXxX-XY.l l l l l l l l l k l k l k Z c.v.R n n n m k   YXYXYXYXYX",
"YXYXYX. 2 3 3 3 3 b *.R.:XjXjXjXhXqX/.K l l l l l l l l l k l k l g.g.v.A n n m n 3 YXYXYXYXYXYX",
"YXYXYXYXO 3 3 3 6 6 E &.^.0XhXqXhXhX,XOXP l l l l l U (.A.b l l Z c.v.f.m n m m k   YXYXYXYXYXYX",
"YXYXYXYX. 2 3 3 6 6 b W W.*X3XqXqXqXqX>X$XE.%.%.%.(.^.#X^.$XS.L c.v.v.A m m m n 2 YXYXYXYXYXYXYX",
"YXYXYXYXYX+ 6 6 6 7 7 L =.`.@X3X3X3X3X3X5X>X+X+X+X&XoXXXXX#X&X^.i.v.f.m m m m k YXYXYXYXYXYXYXYX",
"YXYXYXYXYX. 2 7 7 7 7 k E 1.OX@X5X5X5X2X2X1X1XoXoXoXXXXX X.XOX].n.h.m m N m n 2 YXYXYXYXYXYXYXYX",
"YXYXYXYXYXYX+ 7 7 7 7 7 z W ;._.+X;X1X1XoXoXoXoXXX X X X.X/.).b.h.V m m m N k YXYXYXYXYXYXYXYXYX",
"YXYXYXYXYXYX  3 7 7 7 k k z W ;.I.$X+X;XXXXXXX X X X*X+X^.Q.v.h.V m m m N n + YXYXYXYXYXYXYXYXYX",
"YXYXYXYXYXYXYX+ 7 7 k k l k l T W 1.I.].^.^.+X/.$X^.`.P.b.v.f.m m m N N B 7 YXYXYXYXYXYXYXYXYXYX",
"YXYXYXYXYXYXYX  3 k k k l l l x v Q W v.1.r.P.P.r.n.v.v.f.M m m m m m N c + YXYXYXYXYXYXYXYXYXYX",
"YXYXYXYXYXYXYXYX+ k k l l l l x x x v Z R Q g.c.f.R R m m m m m N N B B 7 YXYXYXYXYXYXYXYXYXYXYX",
"YXYXYXYXYXYXYXYX  3 l l x l x x x x x c c c n n n n n m m m N N N B B c O YXYXYXYXYXYXYXYXYXYXYX",
"YXYXYXYXYXYXYXYXYX+ l l l l x x x c c c c n n n n n m m N m m N N B B 7 YXYXYXYXYXYXYXYXYXYXYXYX",
"YXYXYXYXYXYXYXYXYX  6 l x x x c c c c c c n n n m m m m m N N N B B x . YXYXYXYXYXYXYXYXYXYXYXYX",
"YXYXYXYXYXYXYXYXYXYX+ l x x x c c c n n n n m m m m m N N N B B B B 6 YXYXYXYXYXYXYXYXYXYXYXYXYX",
"YXYXYXYXYXYXYXYXYXYXYX7 x c c c c c n n n m n m m m N N N B B B B x   YXYXYXYXYXYXYXYXYXYXYXYXYX",
"YXYXYXYXYXYXYXYXYXYXYX+ 2 2 3 3 3 3 3 6 3 3 6 6 6 6 6 6 6 6 7 7 7 3 YXYXYXYXYXYXYXYXYXYXYXYXYXYX"
};
