/* XPM */
static char *gnome-fs-directory[] = {
/* columns rows colors chars-per-pixel */
"48 48 176 2",
"   c black",
".  c #010101",
"X  c #030200",
"o  c gray1",
"O  c #040302",
"+  c #050401",
"@  c #040402",
"#  c #040403",
"$  c #060503",
"%  c #040404",
"&  c #060605",
"*  c #070604",
"=  c #060606",
"-  c #070707",
";  c #090705",
":  c #090806",
">  c #090808",
",  c #090908",
"<  c #0A0909",
"1  c #0A0A09",
"2  c #0B0A09",
"3  c #0B0A0A",
"4  c #0B0B0A",
"5  c #0C0B0A",
"6  c #0C0C0B",
"7  c #0D0C0B",
"8  c #0F0D08",
"9  c #0C0C0C",
"0  c #0D0D0C",
"q  c gray5",
"w  c #0E0D0C",
"e  c #0E0D0D",
"r  c #0E0E0D",
"t  c #0F0F0E",
"y  c #161108",
"u  c #171309",
"i  c #121211",
"p  c #131210",
"a  c #131312",
"s  c #171614",
"d  c #181816",
"f  c #191918",
"g  c #1A1A19",
"h  c #21201F",
"j  c #232322",
"k  c #252421",
"l  c #292926",
"z  c #292927",
"x  c #2B2A27",
"c  c #2C2B28",
"v  c #2C2B29",
"b  c #2D2C29",
"n  c #2D2D2C",
"m  c #32312D",
"M  c #333230",
"N  c #353533",
"B  c #363430",
"V  c #393834",
"C  c gray22",
"Z  c #3A3A3A",
"A  c #3C3B3A",
"S  c #3D3D3A",
"D  c #41403B",
"F  c #6F5312",
"G  c #745613",
"H  c gray27",
"J  c #484745",
"K  c #494842",
"L  c #4A4943",
"P  c #4F4D47",
"I  c #4F4E48",
"U  c #4F4F4E",
"Y  c #504E48",
"T  c #54534C",
"R  c #55534D",
"E  c #57554E",
"W  c #545351",
"Q  c #595851",
"!  c #5A5952",
"~  c #5F5D56",
"^  c #5B5A59",
"/  c #605E57",
"(  c #605F5C",
")  c #64625A",
"_  c #65645C",
"`  c #69675F",
"'  c #606060",
"]  c #666664",
"[  c #6E6C64",
"{  c #6F6D64",
"}  c #737168",
"|  c #78766D",
" . c #78766E",
".. c #747474",
"X. c gray46",
"o. c #797977",
"O. c #7D7B71",
"+. c #7D7B77",
"@. c #7F7D73",
"#. c #7F7D78",
"$. c #7E7D7C",
"%. c #836115",
"&. c #846215",
"*. c #856315",
"=. c #866316",
"-. c #876416",
";. c #886416",
":. c #886516",
">. c #896616",
",. c #8A6616",
"<. c #AC7D14",
"1. c #AF7F14",
"2. c #A47F2D",
"3. c #85734C",
"4. c #977C40",
"5. c #807E7A",
"6. c #817F7B",
"7. c #817F7C",
"8. c #B38B31",
"9. c #838177",
"0. c #828179",
"q. c #82807D",
"w. c #83817E",
"e. c #83827F",
"r. c #88867D",
"t. c #BA994F",
"y. c #D39918",
"u. c #DAA93C",
"i. c #C1A76E",
"p. c #E1B960",
"a. c #848380",
"s. c #858481",
"d. c #868582",
"f. c #868583",
"g. c #878684",
"h. c #878786",
"j. c gray53",
"k. c #888785",
"l. c #888786",
"z. c #8D8C83",
"x. c #8E8C83",
"c. c #8B8B8B",
"v. c gray55",
"b. c #8D8D8D",
"n. c #8E8E8E",
"m. c gray56",
"M. c #939188",
"N. c #98968E",
"B. c #909090",
"V. c gray57",
"C. c #929292",
"Z. c #939393",
"A. c gray58",
"S. c #959595",
"D. c gray59",
"F. c #979797",
"G. c #9D9C94",
"H. c #989898",
"J. c gray60",
"K. c #9A9A9A",
"L. c #9B9B9B",
"P. c #A2A19A",
"I. c #A7A7A7",
"U. c #A8A6A0",
"Y. c #ADACA5",
"T. c gray66",
"R. c #B2B1AB",
"E. c #B8B6B1",
"W. c #BDBCB7",
"Q. c #E7C884",
"!. c gray78",
"~. c #CFCECA",
"^. c #E7E6E4",
"/. c #FBFBFB",
"(. c gray100",
"). c None",
/* pixels */
").).).).).).).).).).).).).).).).).).).).).).).).).).).).).).).).).).).).).).).).).).).).).).).).",
").).).).).).).).).).).).).).).).).).).).).).).).).).).).).).).).).).).).).).).).).).).).).).).).",
").).).).).).).).).).).).).).).).).).).).).).).).).).).).).).).).).).).).).).).).).).).).).).).).",
").).).).).).).).).).).).).).).).).).).).).).).).).).).).).).).).).).).).).).).).).).).).).).).).",
").).).).).).).).).).).).).).).).).).).).).).).).).).).).).).).  ; ; @ ; * * * ; = @ ; * * ; ).).",
").).).).).).).).).).).).).).).).).).).).).).).).).).).).).).  = X.!.!.!.!.!.!.!.!.!.!.!.T.O ).).",
").).                                                        @ 3.Q.Q.Q.Q.Q.Q.Q.Q.Q.Q.Q.Q.i.O ).).",
").).7 Z ^ ^ ^ ^ ^ ^ ^ ^ ^ ^ ^ ^ ^ ^ ^ ^ ^ ^ ^ ^ ^ ^ ^ ^ N @ 4.p.p.p.p.p.p.p.p.p.p.p.p.p.t.@ ).).",
").).w I.(.(.(.(.(.(.(.(.(.(.(.(.(.(.(.(.(.(.(.(.(.(.(.o.7 2.u.u.u.u.u.u.u.u.u.u.u.u.u.u.8.@ ).).",
").).w I.(.(.(.(.(.(.(.(.(.(.(.(.(.(.(.(.(.(.(.(.(./.( y 1.y.y.y.y.y.y.y.y.y.y.y.y.y.y.y.<.@ ).).",
"  = 3 ' m.C.C.C.C.C.D.D.D.D.D.D.F.F.F.K.K.K.K.K.D.v y G &.&.*.*.&.&.=.&.>.=.>.>.>.>.>.>.G       ",
"  Z D.D.D.D.D.D.D.C.C.C.C.m.C.C.C.m.m.m.c.m.m.c.h.h.h.h.d.f.d.d.d.a.a.e.e.7.7.7.5.5.5.#.+...H O ",
"  U ^.^.^.^.^.^.^.^.^.^.^.^.^.^.^.^.^.^.^.^.^.^.^.^.^.^.^.^.^.^.^.^.^.^.^.^.^.^.^.^.^.^.^.^.$.  ",
"  A ~.~.~.~.~.~.~.~.~.~.~.~.~.~.~.~.~.~.~.~.~.~.~.~.~.~.~.~.~.~.~.~.~.~.~.~.~.~.~.~.~.~.~.~.]   ",
"  n W.W.W.W.W.W.W.W.W.W.W.W.W.W.W.W.W.W.W.W.W.W.W.W.W.W.W.W.W.W.W.W.W.W.W.W.W.W.W.W.W.W.W.W.W   ",
"  j E.E.E.E.E.E.E.E.E.E.E.E.E.E.E.E.E.E.E.E.E.E.E.E.E.E.E.E.E.E.E.E.E.E.E.E.E.E.E.E.E.E.E.E.J   ",
"  g R.R.R.R.R.R.R.R.R.R.R.R.R.R.R.R.R.R.R.R.R.R.R.R.R.R.R.R.R.R.R.R.R.R.R.R.R.R.R.R.R.R.R.R.D   ",
"  s Y.Y.Y.Y.Y.Y.Y.Y.Y.Y.Y.Y.Y.Y.Y.Y.Y.Y.Y.Y.Y.Y.Y.Y.Y.Y.Y.Y.Y.Y.Y.Y.Y.Y.Y.Y.Y.Y.Y.Y.Y.Y.Y.R.m   ",
").w U.U.U.U.P.U.U.U.U.U.U.U.P.U.P.Y.P.P.U.U.T.P.U.U.U.U.U.U.U.U.U.U.U.P.U.U.U.U.U.U.U.U.T.P.x   ",
").w P.P.P.P.P.P.P.P.P.P.P.P.P.P.P.P.P.P.P.P.P.P.P.P.P.P.P.P.P.P.P.P.P.P.P.P.P.P.P.P.P.P.P.P.g   ",
").w G.G.G.G.G.G.G.G.G.G.G.G.G.G.P.G.G.G.G.G.G.G.G.G.G.G.G.G.G.G.G.G.G.G.G.G.G.G.G.G.G.G.G.G.g   ",
").3 N.N.N.N.N.N.G.N.N.N.N.N.N.N.N.N.N.N.N.N.N.N.N.N.N.N.G.N.N.N.N.N.N.N.N.N.N.N.N.G.N.N.N.N.p   ",
").6 z.M.M.M.M.M.M.M.M.M.M.M.M.M.M.M.M.M.M.M.M.M.M.M.M.M.M.M.M.M.M.M.M.M.M.M.M.M.M.M.M.M.M.M.w   ",
").w 0.z.z.z.z.z.z.z.z.z.z.z.z.z.x.x.x.x.x.x.x.x.z.z.z.z.z.z.z.z.z.z.z.z.z.z.z.z.z.z.z.z.z.z.3 ).",
").w  .r.r.r.r.r.r.r.r.r.r.r.r.r.r.r.r.r.r.r.r.r.r.r.r.r.r.r.r.r.r.r.r.r.r.r.r.r.r.r.r.r.r.r.3 ).",
").w [ 9.9.9.9.9.9.9.9.9.9.9.9.9.9.9.9.9.9.9.9.9.9.9.9.9.9.9.9.9.9.9.9.9.9.9.9.9.9.9.9.9.9.9., ).",
").w _ @.@.@.@.@.@.@.@.@.@.@.@.@.@.@.@.@.@.@.@.@.@.@.@.@.@.@.@.@.@.@.@.@.@.@.@.@.@.@.@.@.@.O., ).",
").6 ~ @.@.@.@.@.@.@.@.@.@.@.@.@.@.@.@.@.@.@.@.@.@.@.@.@.@.@.@.@.@.@.@.@.@.@.@.@.@.@.@.@.@. .3 ).",
").3 ! @.@.@.@.@.@.@.@.@.@.@.@.@.@.@.@.@.@.@.@.@.@.@.@.@.@.@.@.@.@.@.@.@.@.@.@.@.@.@.@.@.@.} 6 ).",
").3 R @.@.@.@.@.@.@.@.@.@.@.@.@.@.@.@.@.@.@.@.@.@.@.@.@.@.@.@.@.@.@.@.@.@.@.@.@.@.@.@.@.@.[ w ).",
").o I @.@.@.@.@.@.@.@.@.@.@.@.@.@.@.@.@.@.@.@.@.@.@.@.@.@.@.@.@.@.@.@.@.@.@.@.@.@.@.@.@.@.` 6 ).",
").  K @.@.@.@.@.@.@.@.@.@.@.@.@.@.@.@.@.@.@.@.@.@.@.@.@.@.@.@.@.@.@.@.@.@.@.@.@.@.@.@.@.@.) 6 ).",
").  D @.@.@.@.@.@.@.@.@.@.@.@.@.@.@.@.@.@.@.@.@.@.@.@.@.@.@.@.@.@.@.@.@.@.@.@.@.@.@.@.@.@.~ 7 ).",
").  V @.@.@.@.@.@.@.@.@.@.@.@.@.@.@.@.@.@.@.@.@.@.@.@.@.@.@.@.@.@.@.@.@.@.@.@.@.@.@.@.@.@.! 3 ).",
").  m @.@.@.@.@.@.@.@.@.@.@.@.@.@.@.@.@.@.@.@.@.@.@.@.@.@.@.@.@.@.@.@.@.@.@.@.@.@.@.@.@.@.T 3 ).",
").  x @.@.@.@.@.@.@.@.@.@.@.@.@.@.@.@.@.@.@.@.@.@.@.@.@.@.@.@.@.@.@.@.@.@.@.@.@.@.@.@.@.@.P = ).",
").  k @.@.@.@.@.@.@.@.@.@.@.@.@.@.@.@.@.@.@.@.@.@.@.@.@.@.@.@.@.@.@.@.@.@.@.@.@.@.@.@.@.@.L   ).",
").  d P P P P P P P P P P P P P P P P P P P P P P P P P P P P P P P P P P P P P P P P P P m   ).",
").  s P P P P P P P P P P P P P P P P P P P P P P P P P P P P P P P P P P P P P P P P P P c   ).",
").  p E E E E E E E E E E E E E E E E E E E E E E E E E E E E E E E E E E E E E E E E E E b   ).",
").  w { { { { [ [ [ [ [ { [ { { [ [ [ { { { [ [ [ [ { { [ [ { { { { { { [ [ { { [ { [ [ { x   ).",
").).3 : 3 3 5 : 3 3 3 : 6 : 3 6 3 : 6 : 3 6 3 : 6 3 : 3 6 : 3 3 3 3 : 3 6 : 3 3 3 3 : 3 6 3   ).",
").).).).).).).).).).).).).).).).).).).).).).).).).).).).).).).).).).).).).).).).).).).).).).).).",
").).).).).).).).).).).).).).).).).).).).).).).).).).).).).).).).).).).).).).).).).).).).).).).).",
").).).).).).).).).).).).).).).).).).).).).).).).).).).).).).).).).).).).).).).).).).).).).).).).",
").).).).).).).).).).).).).).).).).).).).).).).).).).).).).).).).).).).).).).).).).).).).).).).).",
").).).).).).).).).).).).).).).).).).).).).).).).).).).).).).).).).).).).).).).).).).).).).).).).",
").).).).).).).).).).).).).).).).).).).).).).).).).).).).).).).).).).).).).).).).).).).).).).).)."
};
