/* XPM */
static char * frozen_bubble_xpm[] = {
"32 32 257 2",
"  	c None",
". 	c #020202",
"+ 	c #966252",
"@ 	c #DA9A52",
"# 	c #B6BADE",
"$ 	c #CAD6FE",
"% 	c #5A125E",
"& 	c #E2DAE2",
"* 	c #6E3622",
"= 	c #BE762E",
"- 	c #E2EAFE",
"; 	c #AA9EAA",
"> 	c #966E72",
", 	c #9A4E1E",
"' 	c #BA6EAA",
") 	c #E2AA62",
"! 	c #EAEEFE",
"~ 	c #F2BE76",
"{ 	c #EED6D6",
"] 	c #EABE9A",
"^ 	c #563A4E",
"/ 	c #CEA28E",
"( 	c #120A16",
"_ 	c #963282",
": 	c #AE6626",
"< 	c #A68A9E",
"[ 	c #DAAA86",
"} 	c #DAB6D4",
"| 	c #4A2E46",
"1 	c #8E5A3A",
"2 	c #CA9266",
"3 	c #EEC69E",
"4 	c #AE66A2",
"5 	c #F6FAFE",
"6 	c #1E121A",
"7 	c #8E5A46",
"8 	c #EAD2E6",
"9 	c #8A461A",
"0 	c #7A4A3E",
"a 	c #F8DABA",
"b 	c #C286B8",
"c 	c #9A668E",
"d 	c #D29AC2",
"e 	c #AE6EA2",
"f 	c #B2529E",
"g 	c #762064",
"h 	c #2E0616",
"i 	c #DAC2D6",
"j 	c #EECEC2",
"k 	c #DAB2AA",
"l 	c #562E42",
"m 	c #BC8AB0",
"n 	c #C0B2BC",
"o 	c #5A364E",
"p 	c #4A2A42",
"q 	c #F0B6E8",
"r 	c #6E4E62",
"s 	c #D88CC8",
"t 	c #E3D2DE",
"u 	c #924686",
"v 	c #BA9EAE",
"w 	c #EA9AE2",
"x 	c #C9CAED",
"y 	c #AA7662",
"z 	c #6E325E",
"A 	c #7A5E66",
"B 	c #3E0C34",
"C 	c #B672AE",
"D 	c #EEDAEA",
"E 	c #EADEE5",
"F 	c #D3A2CC",
"G 	c #501C48",
"H 	c #7A4E4E",
"I 	c #CAAA9A",
"J 	c #9E7672",
"K 	c #8E6666",
"L 	c #5E5A5E",
"M 	c #461E2E",
"N 	c #DAB0D4",
"O 	c #EAC2E6",
"P 	c #C6823A",
"Q 	c #AE4E9A",
"R 	c #B276A6",
"S 	c #7A565A",
"T 	c #E6EAFE",
"U 	c #F7CAF2",
"V 	c #C68ABE",
"W 	c #EAB6E6",
"X 	c #A68286",
"Y 	c #BAA2B2",
"Z 	c #E4A8DC",
"` 	c #522646",
" .	c #824676",
"..	c #86666A",
"+.	c #905884",
"@.	c #8E367A",
"#.	c #9E8294",
"$.	c #BE9EB2",
"%.	c #A6A2CA",
"&.	c #C2B6BE",
"*.	c #D6A6CE",
"=.	c #B490A8",
"-.	c #BEAAB6",
";.	c #E2DAE6",
">.	c #CE7ABE",
",.	c #AE8686",
"'.	c #D2925E",
").	c #F2F6FE",
"!.	c #925E86",
"~.	c #F2B2EE",
"{.	c #E2CEDE",
"].	c #A0408E",
"^.	c #E6A24E",
"/.	c #7C346A",
"(.	c #EED2E6",
"_.	c #C68EBE",
":.	c #AE7EA6",
"<.	c #361212",
"[.	c #3E163A",
"}.	c #A06E94",
"|.	c #D6BECE",
"1.	c #E69EDE",
"2.	c #BEBEDE",
"3.	c #BA62AA",
"4.	c #92728A",
"5.	c #DAD6EA",
"6.	c #F2CE9A",
"7.	c #86563A",
"8.	c #8A5A42",
"9.	c #BA8EAA",
"0.	c #EAAADE",
"a.	c #EEE2EA",
"b.	c #621E5E",
"c.	c #E0C2DA",
"d.	c #CE9ABE",
"e.	c #923A8E",
"f.	c #5E284A",
"g.	c #805872",
"h.	c #B69EAE",
"i.	c #46122E",
"j.	c #C65AB2",
"k.	c #8C627E",
"l.	c #CAA2C2",
"m.	c #F4CA92",
"n.	c #D2DAFE",
"o.	c #946A8A",
"p.	c #8A4A82",
"q.	c #F2E6EE",
"r.	c #E6C6E2",
"s.	c #96768E",
"t.	c #CA76BA",
"u.	c #F6DECE",
"v.	c #34102C",
"w.	c #AE96A2",
"x.	c #F0BEEA",
"y.	c #856A83",
"z.	c #D686CA",
"A.	c #A25A26",
"B.	c #5E4656",
"C.	c #423A42",
"D.	c #A65A9A",
"E.	c #A46898",
"F.	c #7C3676",
"G.	c #DEA2D2",
"H.	c #D68A32",
"I.	c #FEFEFE",
"J.	c #E8AA5A",
"K.	c #9E7A8E",
"L.	c #DFBED9",
"M.	c #F8D2F2",
"N.	c #F2CAEE",
"O.	c #AA7E9E",
"P.	c #F6EEF6",
"Q.	c #822672",
"R.	c #FADAF6",
"S.	c #CEBEC8",
"T.	c #F9F2F6",
"U.	c #D5AACD",
"V.	c #FAF6FA",
"W.	c #E0B6D8",
"X.	c #C792BE",
"Y.	c #B282A6",
"Z.	c #B6A2AE",
"`.	c #CEA6C4",
" +	c #D4C8D2",
".+	c #D692CA",
"++	c #66565E",
"@+	c #EABEE4",
"#+	c #7A4E70",
"$+	c #904288",
"%+	c #450E3B",
"&+	c #86367E",
"*+	c #E6AE76",
"=+	c #765E7A",
"-+	c #661652",
";+	c #2A0A26",
">+	c #D28AC2",
",+	c #4A1632",
"'+	c #CABEDA",
")+	c #DA9CCE",
"!+	c #4A103E",
"~+	c #AAA6AA",
"{+	c #BA76AE",
"]+	c #AA92A2",
"^+	c #3E1236",
"/+	c #AAAACA",
"(+	c #B696AA",
"_+	c #C296B6",
":+	c #EACEE6",
"<+	c #361626",
"[+	c #F2EAF1",
"}+	c #CE96C2",
"|+	c #BEB2CA",
"1+	c #662A56",
"2+	c #CECEEE",
"3+	c #F6D6F3",
"4+	c #FDFAFE",
"5+	c #CA82BA",
"6+	c #C25EB2",
"7+	c #BF92B6",
"8+	c #F8CEF4",
"9+	c #44123C",
"0+	c #CE9AC9",
"a+	c #AA8EA6",
"b+	c #F6B6EE",
"c+	c #561E4A",
"d+	c #5A263A",
"e+	c #965A8A",
"f+	c #D67ECA",
"g+	c #82326E",
"h+	c #865A7A",
"i+	c #8A6682",
"j+	c #AA66A2",
"k+	c #DACAD6",
"l+	c #6E565E",
"m+	c #D6DEFE",
"n+	c #DEBADA",
"o+	c #B286A4",
"p+	c #B6A6B2",
"q+	c #CCAAC4",
"r+	c #C6CEF6",
"s+	c #DA8AD2",
"t+	c #461E3A",
"u+	c #EAD6E6",
"v+	c #E7CAE1",
"w+	c #C696BE",
"x+	c #CE9EC6",
"y+	c #A48EA0",
"z+	c #D6BACE",
"A+	c #D49ECA",
"B+	c #F2BAEE",
"C+	c #E2C6DA",
"D+	c #947A90",
"E+	c #9A7E8E",
"F+	c #FAD6F6",
"G+	c #CED6FA",
"H+	c #FFFFFF",
"                        I.I.I.I.I.I.I.I.I.                      ",
"                  I.I.I.I.I.I.I.I.I.I.I.I.I.I.I.                ",
"              I.I.I.I.I.I.I.-.;.;.T T I.I.I.I.I.I.I.            ",
"            I.I.I.I.I.E i } =.s.s.y.5.m+m+).).I.I.I.I.          ",
"            I.I.I.I.I.E i } =.s.s.y.5.m+m+).).I.I.I.I.          ",
"          I.I.I.I.k.k.E.7+l.`.`.`.O.p a+$ $ $ $ I.I.I.I.        ",
"        I.I.I.[+o+:.:.q+v+D C+q+q+7+Y.#+y.x x $ m+4+I.I.I.I.    ",
"    I.I.I.I.[+m _.L.L.D {.y+v h.h.=.o.}.!.y.y.r+r+m+5 I.I.I.I.  ",
"    I.I.I.4+7+7+L.8 8 i K.n a.T.T.q. +k.c !.!.=+$ $ m+I.I.I.I.  ",
"  I.I.I.I.m X.W.r.v+v+=.p+V.V.V.V.T.T.& g.e e ;+r '+$ $ I.I.I.I.",
"  I.I.I.q.m U.n+c.z+z+4.[+T.V.V.V.V.{.|.< o o t ;.E+2.$ 5 5 I.I.",
"I.I.I.I.F d *.N W.} } E+T.V.T.V.V.~+p [.B.h.h.t y+p+|+$ m+m+I.I.",
"I.I.I.I.F d *.N W.} } E+T.V.T.V.V.~+p [.B.h.h.t y+p+|+$ m+m+I.I.",
"I.I.I.I.} F F U.N U.U.E+V.V.V.V.V.L . . 6 n n C.( ++|.$ m+m+I.I.",
"I.I.:+:+*.*.F A+F x+x+i+P.).T.V.V.T.F.% #+]+]+[+m Z./+r+$ $ T I.",
"I.I.8 8 *.*.F 0+0+d.d.E.h.T.T.).).T.V.k+l M M n S.E+# $ $ $ - I.",
"I.I.u+u+U.F X.V V V V R h+w.[+T.T.P.p+..8.1 1 7.> D+G+$ $ $ T I.",
"I.I.(.(.F X.+.+.C j+j+p.G v.^ l+l+A ,.I ] *+*+@ 2 X x r+$ $ - I.",
"I.I.I.I.*.j+G D.u %+%+^+/.%+H y y k (.u.a 3 3 ) P J x $ m+m+I.I.",
"I.I.I.I.o.%+$+F.B G G _ j.6+,+7 7 / j u.a m.m.J.= K 2+$ m+m+I.I.",
"I.I.I.I.o.%+$+F.B G G _ j.6+,+7 7 / j u.a m.m.J.= K 2+$ m+m+I.I.",
"  I.I.I.; $+&+%+!+Q.Q.6+w q 4 d+d++ [ 3 m.~ ~ ^.: S x $ ! ! I.I.",
"  I.I.I.I.e.b.B -+].].f+~.U x.R R d+0 '.) ^.^.H.9 v.%.$ I.I.I.I.",
"    I.I.I.V.B %+g Q Q s+q U M.8+8+0.1+h * A.A., <.p s.I.I.I.I.  ",
"    I.I.I.I.k+1+g Q Q s+q U F+R.R.R.N.s  .f.f.B ,+m a.I.I.I.I.  ",
"        I.I.I.S./.].].t.Z @+N.(.(.3+M.8+B+1.1.g+A E I.I.I.I.    ",
"          I.I.I.t @.@.3.>+G.W @+@+O @+W Z z.z.v.E I.I.I.        ",
"            I.I.I.I.I.r.' b }+A+A+A+A+s t.v+v+I.I.I.I.          ",
"            I.I.I.I.I.r.' b }+A+A+A+A+s t.v+v+I.I.I.I.          ",
"              I.I.I.I.I.I.I.9.Y.Y.}+d.I.I.I.I.I.I.I.            ",
"                I.I.I.I.I.I.I.I.I.I.I.I.I.I.I.I.I.              ",
"                        I.I.I.I.I.I.I.I.I.                      "};
