/* XPM */
static char *gftp[] = {
/* columns rows colors chars-per-pixel */
"32 30 145 2",
"   c #000000",
".  c #0C0C0C",
"X  c #060A16",
"o  c #090C17",
"O  c #171717",
"+  c #12141A",
"@  c #1C1C1C",
"#  c #141A31",
"$  c #202020",
"%  c #292929",
"&  c #363636",
"*  c #3C3C3C",
"=  c #242D4C",
"-  c #27304D",
";  c #29314E",
":  c #313A5C",
">  c #374268",
",  c #3F4867",
"<  c #384677",
"1  c #424242",
"2  c #4C4C4C",
"3  c #55575D",
"4  c #5D5D5D",
"5  c #454C64",
"6  c #4C5265",
"7  c #4D546C",
"8  c #495273",
"9  c #4F597A",
"0  c #50566A",
"q  c #525C7C",
"w  c #5C606F",
"e  c #626262",
"r  c #666A7B",
"t  c #737373",
"y  c #72757D",
"u  c #263A83",
"i  c #2E438C",
"p  c #3850A6",
"a  c #44548B",
"s  c #4D5B8B",
"d  c #4B5C9A",
"f  c #4057AB",
"g  c #4159AB",
"h  c #5C6890",
"j  c #4E60A0",
"k  c #4D62AD",
"l  c #4C66BF",
"z  c #566AAF",
"x  c #556AB3",
"c  c #6C7080",
"v  c #6271A3",
"b  c #6476B5",
"n  c #4F68C0",
"m  c #5069C1",
"M  c #516CCB",
"N  c #506ED6",
"B  c #5A71C2",
"V  c #5F77CE",
"C  c #5C77D5",
"Z  c #5976DE",
"A  c #5D7AE0",
"S  c #627ACF",
"D  c #677ED0",
"F  c #637EDC",
"G  c #627EE1",
"H  c #6E86DB",
"J  c #7088DA",
"K  c #7E93DD",
"L  c #6681E1",
"P  c #6B85E2",
"I  c #6E88E4",
"U  c #748DE4",
"Y  c #7790E4",
"T  c #7C93E5",
"R  c #A37876",
"E  c #AC7E7B",
"W  c #878787",
"Q  c #8A8A8A",
"!  c #8B8D95",
"~  c #8F9197",
"^  c #909195",
"/  c #A9908C",
"(  c #B38E86",
")  c #B89B8E",
"_  c #BB9995",
"`  c #B2A19F",
"'  c #BEAD9B",
"]  c #A5A5A5",
"[  c #AEAEAE",
"{  c #ADAEB1",
"}  c #BCABAB",
"|  c #B3B3B3",
" . c #B5B6B8",
".. c #BEBEBE",
"X. c #8196DD",
"o. c #8599DC",
"O. c #889BDE",
"+. c #8197E6",
"@. c #859AE7",
"#. c #849AE9",
"$. c #889DE6",
"%. c #8A9FE8",
"&. c #8DA1E8",
"*. c #93A4E1",
"=. c #93A6EA",
"-. c #97A9EB",
";. c #9BADEB",
":. c #9FB0EB",
">. c #A4B4ED",
",. c #A8B7ED",
"<. c #ABBAEE",
"1. c #A8B8F0",
"2. c #B1BEEF",
"3. c #B5C2F0",
"4. c #C8AF9C",
"5. c #C2A4A4",
"6. c #CFBDA9",
"7. c #CFB9B4",
"8. c #D0BAAF",
"9. c #CAC6BD",
"0. c #D2C2B6",
"q. c #D8C6B8",
"w. c #C0C0C0",
"e. c #CFC7C3",
"r. c #CECECE",
"t. c #D0CCC1",
"y. c #D4CFCF",
"u. c #D7D3CE",
"i. c #DFD6CB",
"p. c #D4D4D4",
"a. c #DDD9D4",
"s. c #DCDCDC",
"d. c #E0DCCE",
"f. c #E5DEDC",
"g. c #E3E1D6",
"h. c #E2E1DD",
"j. c #E8E5D9",
"k. c #E5E5E5",
"l. c #EAEAEA",
"z. c #F0EEEC",
"x. c #F2F1EC",
"c. c #F5F4F4",
"v. c #F8F7F6",
"b. c #FEFEFE",
"n. c None",
/* pixels */
"n.n.n.n.n.n.n.n.n.n.n.n.n.n.n.n.n.n.n.n.n.n.n.n.n.n.n.n.n.n.n.n.",
"n.n.n.n.n.n.n.n.n.n.n.n.n.n.n.n.n.n.n.n.n.n.n.n.n.n.n.n.n.n.n.n.",
"n.n.n.n.n.n.n.n.n.n.n.                              n.n.n.n.n.n.",
"o o o o o o o o X X X + 2 4 4 4 4 4 4 4 4 4 4 4 2 . n.n.n.n.n.n.",
"x x k k k k g p g p u 8 k.b.b.b.b.b.b.b.b.b.b.b.p.t . n.n.n.n.n.",
"#.1.U I -.-.L U =.N i c v.b.b.b.b.b.b.b.b.b.b.v.p.k.e   n.n.n.n.",
"T 1.U %.&.=.T L =.M < ^ b.b.b.b.b.b.b.b.b.b.b.c.p.b.s.1   n.n.n.",
"U ;.U &.#.T T A $.l >  .b.b.b.b.b.b.b.b.b.b.b.c...k.k.] O n.n.n.",
"T 3.@.+.-.;.U P ;.x : p.b.b.b.b.b.b.b.b.b.b.b.v.p.s.s.p.1   n.n.",
"@.;.@.P $.@.A I $.h 5 k.b.b.b.b.b.v.v.b.b.b.b.b.b.b.b.k.* n.n.n.",
"&.>.%.P %.$.A T O.a h c.b.b.b.b.c.9.g.h.v.b.b.b.b.b.b.r.$ n.n.n.",
"<.%.>.Y @.-.G -.D 9 ! b.b.b.b.b.v.i.j.t.x.b.b.b.b.b.b.| . n.n.n.",
"<.T >.Y Y =.P =.l 7 { b.b.b.b.b.l.t.a.h.a.v.b.b.b.b.b.Q   n.n.n.",
"<.;.;.U %.,.F -.b 0 r.b.b.b.b.b.u.' 0.i.f.c.b.b.b.b.v.4 n.n.n.n.",
"$.;.$.U =.=.F H v 0 l.b.b.b.b.b.x.0.4.0.a.c.b.b.b.b.c.& n.n.n.n.",
"$.<.Y U ;.;.P H h r v.b.b.b.b.b.v.9.) 8.c.b.b.b.b.b.p.@ n.n.n.n.",
"@.<.T &.=.=.+.S 9 ~ b.b.b.b.b.p.` / ( 7.v.b.b.b.b.b.[ o n.n.n.n.",
"Y >.T =.%.$.$.l ,  .b.b.b.b.b.} R E _ f.b.b.b.b.b.b.Q   n.n.n.n.",
"@.3.$.$.;.>.T x 6 p.b.b.b.b.b.f.5.5.j.b.b.b.b.b.b.v.e   n.n.n.n.",
"%.,.=.U =.%.F j 0 k.b.b.b.b.b.b.v.v.b.b.b.b.b.b.b.k.* n.n.n.n.n.",
";.2.;.U ;.-.C s y v.b.b.b.b.b.b.b.b.b.b.b.b.b.b.b.p.@ n.n.n.n.n.",
"3.%.,.T @.;.V q ! b.b.b.b.b.b.b.b.b.b.b.b.b.b.b.b.| . n.n.n.n.n.",
"3.$.,.T T ;.B 8 [ b.b.b.b.b.b.b.b.b.b.b.b.b.b.b.b.W   n.n.n.n.n.",
">.,.>.T -.<.x 5 p.b.b.b.b.b.b.b.b.b.b.b.b.b.b.b.b.4   n.n.n.n.n.",
"X.*.K J O.o.d 5 l.b.b.b.b.b.b.b.b.b.b.b.b.b.b.b.l.* n.n.n.n.n.n.",
"- - - - = = # 3 k.k.k.l.l.k.l.k.k.l.k.l.k.l.k.l.9.$ n.n.n.n.n.n.",
"n.n.n.n.n.    O & & & & & & & & & & & & & & & & %   n.n.n.n.n.n.",
"n.n.n.n.n.                                        n.n.n.n.n.n.n.",
"n.n.n.n.n.                                        n.n.n.n.n.n.n.",
"n.n.n.n.n.n.n.n.n.n.n.n.n.n.n.n.n.n.n.n.n.n.n.n.n.n.n.n.n.n.n.n."
};
