/* XPM */
static char * gnome_planner_xpm[] = {
"47 45 5 1",
" 	c None",
".	c #000000",
"+	c #9CCBE5",
"@	c #8CB6CE",
"#	c #7497AA",
"                                               ",
"                                               ",
"                                               ",
"   .....................................       ",
"   .....................................       ",
"   ..                                 ..       ",
"   .                                   .       ",
"   .                                   .       ",
"                                               ",
"                                               ",
"                                               ",
"   ..........................                  ",
"   .+++++++++++++++++++++++@.                  ",
"   .+@@@@@@@@@@@@@@@@@@@@@@#.                  ",
"   .+@@@@@@@@@@@@@@@@@@@@@@#.                  ",
"   .+@@@@@@@@@@@@@@@@@@@@@@#..                 ",
"   .@#######################..                 ",
"   ...........................                 ",
"       ......................                  ",
"                        ...                    ",
"                                               ",
"                     ...................       ",
"                     .++++++++++++++++@.       ",
"                     .+@@@@@@@@@@@@@@@#.       ",
"                     .+@@@@@@@@@@@@@@@#.       ",
"                     .+@@@@@@@@@@@@@@@#..      ",
"                     .@################..      ",
"                     ....................      ",
"                         ...............       ",
"                                               ",
"                                               ",
"          ...............                      ",
"          .++++++++++++@.                      ",
"          .+@@@@@@@@@@@#.                      ",
"          .+@@@@@@@@@@@#.                      ",
"          .+@@@@@@@@@@@#..                     ",
"          .@############..                     ",
"          ................                     ",
"              ...........                      ",
"                                               ",
"                                               ",
"                                               ",
"                                               ",
"                                               ",
"                                               "};
