/* XPM */
static char * gnome_pdf_xpm[] = {
"32 32 329 2",
"  	c None",
". 	c #AAAAAA",
"+ 	c #FFFFFF",
"@ 	c #FEFEFE",
"# 	c #FBFBFB",
"$ 	c #EEEEEE",
"% 	c #DCDCDC",
"& 	c #F9F9F9",
"* 	c #E2E2E2",
"= 	c #FCFCFC",
"- 	c #B9B9B9",
"; 	c #F6EBEB",
"> 	c #E0B3B3",
", 	c #E1B6B6",
"' 	c #F5E8E8",
") 	c #FDFDFD",
"! 	c #F8F8F8",
"~ 	c #CFCFCF",
"{ 	c #F7F7F7",
"] 	c #C3C3C3",
"^ 	c #D69A9A",
"/ 	c #9D0909",
"( 	c #9E0D0D",
"_ 	c #B23F3F",
": 	c #EACCCC",
"< 	c #FDFDFC",
"[ 	c #C5C5C5",
"} 	c #DFDFDF",
"| 	c #D7D7D7",
"1 	c #C9C9C9",
"2 	c #A3A3A3",
"3 	c #AE3535",
"4 	c #D39393",
"5 	c #F3E4E4",
"6 	c #C36C6C",
"7 	c #D19292",
"8 	c #F8F4F4",
"9 	c #FAFAFA",
"0 	c #FCFCFB",
"a 	c #F6F6F5",
"b 	c #A9A9A9",
"c 	c #6D6D6D",
"d 	c #626261",
"e 	c #595959",
"f 	c #6F6F6E",
"g 	c #2D2D2D",
"h 	c #B34141",
"i 	c #F5EAEA",
"j 	c #E0E0E0",
"k 	c #8E8383",
"l 	c #593030",
"m 	c #6D6868",
"n 	c #898989",
"o 	c #CDCDCD",
"p 	c #F0F0F0",
"q 	c #F9F9F8",
"r 	c #F2F2F2",
"s 	c #C6C6C5",
"t 	c #B0B0AF",
"u 	c #8D8D8D",
"v 	c #232323",
"w 	c #ECD2D1",
"x 	c #C67373",
"y 	c #EDEDED",
"z 	c #AEAEAE",
"A 	c #B7B7B7",
"B 	c #B2B2B2",
"C 	c #A4A4A4",
"D 	c #5C5C5C",
"E 	c #6C6C6C",
"F 	c #CFCFCE",
"G 	c #EFEFEF",
"H 	c #F6F6F6",
"I 	c #F4F4F4",
"J 	c #D8D8D7",
"K 	c #393939",
"L 	c #E8C6C6",
"M 	c #C78383",
"N 	c #858585",
"O 	c #868686",
"P 	c #F1F1F1",
"Q 	c #F3F1F1",
"R 	c #D3D0D0",
"S 	c #808080",
"T 	c #5B5B5B",
"U 	c #C7C7C7",
"V 	c #F4F4F3",
"W 	c #F3F3F2",
"X 	c #F2F2F1",
"Y 	c #DDDDDC",
"Z 	c #3C3C3C",
"` 	c #EFD8D8",
" .	c #7F3535",
"..	c #7D7D7D",
"+.	c #DEDEDD",
"@.	c #FEFDFD",
"#.	c #FAF4F4",
"$.	c #EFEDEC",
"%.	c #737373",
"&.	c #747473",
"*.	c #F1F1F0",
"=.	c #FEFEFD",
"-.	c #603333",
";.	c #A8A8A8",
">.	c #EED6D6",
",.	c #F5E9E9",
"'.	c #BEBEBD",
").	c #585858",
"!.	c #C1C1C0",
"~.	c #E9E9E9",
"{.	c #F0F0EF",
"].	c #DCDCDB",
"^.	c #484242",
"/.	c #CBCBCB",
"(.	c #F8F6F6",
"_.	c #FAF8F8",
":.	c #DBA7A7",
"<.	c #EED8D8",
"[.	c #EAEAEA",
"}.	c #535353",
"|.	c #A5A5A5",
"1.	c #DFDFDE",
"2.	c #EFEFEE",
"3.	c #DBDBDA",
"4.	c #3B3B3B",
"5.	c #F2E8E8",
"6.	c #ECD6D6",
"7.	c #DBAAAA",
"8.	c #F5F0EF",
"9.	c #505050",
"0.	c #9A9A9A",
"a.	c #D9D9D8",
"b.	c #EFEFED",
"c.	c #EEEEED",
"d.	c #F5F5F4",
"e.	c #4E4E4E",
"f.	c #B3B3B3",
"g.	c #E7D4D3",
"h.	c #F5EEEE",
"i.	c #F8F7F7",
"j.	c #EDDDDD",
"k.	c #DDB2B1",
"l.	c #F2ECEC",
"m.	c #E2E2E1",
"n.	c #5A5A5A",
"o.	c #999999",
"p.	c #EDEDEC",
"q.	c #D9D9D9",
"r.	c #F5F5F5",
"s.	c #6A6A69",
"t.	c #878787",
"u.	c #D7C2C2",
"v.	c #EAD8D8",
"w.	c #EBDCDB",
"x.	c #E5CCCC",
"y.	c #E4CBCA",
"z.	c #EFE8E7",
"A.	c #BABABA",
"B.	c #A3A3A2",
"C.	c #ECECEB",
"D.	c #FAFAF9",
"E.	c #BBBABA",
"F.	c #E4DDDD",
"G.	c #EFE9E8",
"H.	c #F2F0EF",
"I.	c #747474",
"J.	c #BBBBBA",
"K.	c #E4E4E3",
"L.	c #EBEBEA",
"M.	c #EBEBE9",
"N.	c #DADAD9",
"O.	c #717170",
"P.	c #BDBDBC",
"Q.	c #666666",
"R.	c #101010",
"S.	c #494949",
"T.	c #C2C2C1",
"U.	c #EAEAE9",
"V.	c #EAEAE8",
"W.	c #F8F8F7",
"X.	c #7B7B7B",
"Y.	c #3E3E3D",
"Z.	c #767676",
"`.	c #919190",
" +	c #969696",
".+	c #848483",
"++	c #414141",
"@+	c #616160",
"#+	c #1D1D1D",
"$+	c #0D0D0D",
"%+	c #222222",
"&+	c #8F8F8E",
"*+	c #DCDCDA",
"=+	c #E7E7E6",
"-+	c #D7D7D6",
";+	c #F7F7F6",
">+	c #F3F3F3",
",+	c #D2D2D1",
"'+	c #696969",
")+	c #4D4D4D",
"!+	c #7C7C7B",
"~+	c #8E8E8C",
"{+	c #181818",
"]+	c #1A1A1A",
"^+	c #A7A7A6",
"/+	c #D6D6D5",
"(+	c #E8E8E8",
"_+	c #C5C5C4",
":+	c #BCBCBC",
"<+	c #BFBFBE",
"[+	c #CACAC9",
"}+	c #C3C3C1",
"|+	c #515150",
"1+	c #1F1F1F",
"2+	c #131313",
"3+	c #7F7F7E",
"4+	c #C7C7C6",
"5+	c #E6D0D0",
"6+	c #CC8A8A",
"7+	c #CC8B8B",
"8+	c #D29C9B",
"9+	c #ECE6E5",
"0+	c #D6AAAA",
"a+	c #C78685",
"b+	c #C68888",
"c+	c #D2ACAB",
"d+	c #E4DDDC",
"e+	c #DCC6C5",
"f+	c #C58483",
"g+	c #BC7C7B",
"h+	c #8F5A5A",
"i+	c #171717",
"j+	c #181817",
"k+	c #959594",
"l+	c #353535",
"m+	c #DFBEBE",
"n+	c #BD6363",
"o+	c #E1C7C6",
"p+	c #C67B7B",
"q+	c #D09897",
"r+	c #C98887",
"s+	c #DCBEBD",
"t+	c #BE6C6C",
"u+	c #CC9393",
"v+	c #D8B8B6",
"w+	c #B95F5F",
"x+	c #DAC1C0",
"y+	c #D3BBB9",
"z+	c #A2A2A1",
"A+	c #40403F",
"B+	c #1E1E1E",
"C+	c #DEBDBD",
"D+	c #BE6666",
"E+	c #EAE1E0",
"F+	c #C88585",
"G+	c #CC9090",
"H+	c #C88787",
"I+	c #CE9897",
"J+	c #ECECEA",
"K+	c #D4A9A8",
"L+	c #D8B7B6",
"M+	c #B75757",
"N+	c #C4807F",
"O+	c #C37F7E",
"P+	c #D6D5D4",
"Q+	c #9D9D9C",
"R+	c #383838",
"S+	c #202020",
"T+	c #151515",
"U+	c #DDBCBC",
"V+	c #B95959",
"W+	c #C47A7A",
"X+	c #C88282",
"Y+	c #E4D5D4",
"Z+	c #C88786",
"`+	c #CE9796",
" @	c #D3A8A8",
".@	c #BD6C6B",
"+@	c #D7B6B5",
"@@	c #B96060",
"#@	c #DDCCCA",
"$@	c #DCCBC9",
"%@	c #E3E3E2",
"&@	c #DBDBD9",
"*@	c #A4A4A3",
"=@	c #767675",
"-@	c #777776",
";@	c #2A2A2A",
">@	c #DDBCBB",
",@	c #BD6564",
"'@	c #E8E0DF",
")@	c #EAE6E5",
"!@	c #C88685",
"~@	c #C78786",
"{@	c #D9BCBA",
"]@	c #CA9190",
"^@	c #D6B6B4",
"/@	c #BA6362",
"(@	c #E5E5E4",
"_@	c #E5E5E3",
":@	c #E4E4E2",
"<@	c #E2E2E0",
"[@	c #D8D8D6",
"}@	c #C9C9C8",
"|@	c #E2CCCB",
"1@	c #CD9392",
"2@	c #D2A7A6",
"3@	c #C68584",
"4@	c #C78888",
"5@	c #D3ACAB",
"6@	c #E3DDDB",
"7@	c #DBC5C4",
"8@	c #C88D8C",
"9@	c #E1E1DF",
"0@	c #E0E0DF",
"a@	c #E9E9E8",
"b@	c #E8E8E7",
"c@	c #E6E6E5",
"d@	c #E6E6E4",
"e@	c #E3E3E1",
"f@	c #8C8C8C",
"g@	c #DBDBDB",
"h@	c #DADADA",
"i@	c #D5D5D4",
"j@	c #D4D4D3",
"k@	c #D3D3D2",
"l@	c #D3D3D1",
"m@	c #B8B8B7",
"n@	c #323232",
"                                                                ",
"        . . . . . . . . . . . . . . . . .                       ",
"      . + + + + + + + + + @ @ @ @ @ @ @ @ # $ %                 ",
"      . + + + + + + + @ @ @ @ @ @ @ @ @ @ & * = -               ",
"      . + + + + + @ ; > , ' @ @ @ @ @ @ ) ! ~ ) { ]             ",
"      . + + + + @ @ ^ / ( _ : @ ) ) ) < = { [ } | 1 2           ",
"      . + + + @ @ @ 3 4 ) 5 6 7 8 9 # 0 0 a b c d e f g         ",
"      . + + + @ ) ) h i = j k l m n o p q ! r j s t u v         ",
"      . + + @ @ @ w x y u c z A B C D E F G H a I I J K         ",
"      . + + + + + L M N O o P # = Q R S T U p V W X Y Z         ",
"      . + + + + @ `  ...+.) @ @ @ @.#.$.%.&.Y p P *.% Z         ",
"      . + + + + =.= -.;.# @ @ @ ) ) >.,.'.).!.~.*.{.].Z         ",
"      . + + @ ) = ! ^./.(.= ) = = _.:.<.[.}.|.1.2.2.3.Z         ",
"      . + @ ) < # a 4.U 5.# # 9 9 6.7.8.{.9.0.a.b.c.3.Z         ",
"      . ) ) = # 9 d.e.f.g.h.i.! j.k.l.W m.n.o.J p.p.q.Z         ",
"      . < = # 9 & r.s.t.u.v.w.x.y.z.*.*.A.n.B.].C.C.a.Z         ",
"      . # # D.& ! a |.e.E.F.G.H.X *.{.* e I.J.K.L.M.J Z         ",
"      . 9 9 & ! { H N.O.9.P.L.{.*.{.N.Q.R.S.T.K.U.V.J Z         ",
"      . & q W.{ a a *.F X.Y.Z.`. +.+++@+#+$+%+&+*+=+-+Z         ",
"      . ! W.;+H r.d.>+y ,+b '+}.)+D !+~+n.4.{+]+^+3./+Z         ",
"      . { ;+a d.V >+r X 2.(+/+_+:+<+[+/+}+|+e.1+2+3+4+4.        ",
"      . H a d.I 5+6+7+8+9+0+a+b+c+d+e+f+g+h+Y.++i+j+k+l+        ",
"      . d.d.V W m+n+o+p+q+r+r+s+t+u+v+w+x+y+z+A+e.1+1+B+        ",
"      . I V W X C+D+E+F+G+H+I+J+K+t+L+M+N+O+P+Q+R+2+S+T+        ",
"      . W r P *.U+V+W+X+Y+Z+`+U. @.@+@@@#@$@%@&@*@=@-@;@        ",
"      . X X *.{.>@,@'@)@J+!@~@{@.@]@^@/@(@_@:@<@[@}@P.K         ",
"      . *.{.2.2.|@1@C.J+U.2@3@4@5@6@7@8@:@%@m.<@9@0@,+Z         ",
"      . {.{.b.c.p.C.L.M.V.a@b@=+c@d@_@K.e@e@<@9@0@0@,+Z         ",
"      f@].g@3.h@N.a.a.J | -+/+/+i@i@j@j@k@l@,+,+,+,+m@n@        ",
"        Z Z Z Z Z Z Z Z Z Z Z Z Z Z Z Z Z Z Z Z Z Z n@          ",
"                                                                ",
"                                                                "};
