/* XPM */
static char *grun[] = {
/* columns rows colors chars-per-pixel */
"32 32 23 1",
"  c black",
". c #191919",
"X c gray20",
"o c #00007f",
"O c #007f00",
"+ c #007f7f",
"@ c #7f0000",
"# c #7f007f",
"$ c #7f7f00",
"% c #4c4c4c",
"& c #666667",
"* c gray50",
"= c blue",
"- c green",
"; c cyan",
": c red",
"> c magenta",
", c yellow",
"< c gray60",
"1 c #b2b2b2",
"2 c gray80",
"3 c gray90",
"4 c white",
/* pixels */
"X%O&&$&OX%O*-*&O&X%$$$@$&:$:**::",
"%%&+&+..O%&O%--%O%X%&@*:#$:*$:#<",
"O&%&X .XOXO+&$+O%O%*$*:*$:$#*:<:",
"+%OX.XXOO*221-O&OX$1*&**#*<::<#<",
"+&X.XX.O142,$+$+%O<3*&###*:<<:1#",
"%O..O.X131&++&+O%X11*&***#<##<:<",
"O..XXO+41+&+&+*X+%31+*+<#<<*:*>*",
"X.O.XO13*++*-*+&X<3<&&<=#<#*<*>*",
"..OX+*31-+*+&+*++<1==#=*<<1<***#",
".OXXO23*+*+*+XXX%X+*<<1<><=<<><1",
"XO.O+31***<+....o.o*<<=1<;#<;<<=",
"O&O+-2<<++*+Xo%+#++1=<<1<<11<<11",
"XOX+13<-<<++o&%#=131=21;1<<<<<=1",
"O&X-11<;<;<*.&o+<3211111;<<<<<;1",
"%-X*-1<1<<;&.o%&131<=21<11<;121<",
"O*%O11+11<1%o%X=132=<;1<1;<1;=<;",
"O*&O-<**111X%#%=21<=<<<;1<1;<1;<",
"O-<O<<<++Xo.+%o<21<2<1<<;<1==11=",
"*$*<*+*<&X%##oo242<<=2<1<=1<1==1",
"-<O&1<***&&&=<143=1=<1;1<<1;;<1=",
"1-<%&1<<<=111124<=&<=<*<<****<*=",
",<&.%1111<<112>=X.....o.o oX#==<",
",<X.&&<<**<<<=<ooXo=+o*&&%%o=*<+",
"$<O%*X*<%#2=%&=<*o&<<#o<<o%&21=+",
"<<%X*%<22<><o#=>#.<<<&o**<o*3*+o",
"$<%X&@132***o<<<Xo>=<%%<<*.*3*%&",
"<$X@%@331#%#%<>#o&**#o$1<&o<2+%o",
"$&.%X*31<X%%#1<##*><*%*<<oX31%%%",
"&%.#@131*@#%#2><#<>*%%<<*.&<*%XO",
"#..X%32<*.&@<:<#&<<<.&<*$X%*%XXX",
"&@X%<3<>#X*@><1<#:1*$<3<%X&1&XXX",
"#%@#131:<#:<>1>22111<22&&$12OXO."
};
