/* XPM */
static char *lostirc[] = {
/* columns rows colors chars-per-pixel */
"32 32 222 2",
"   c #000000",
".  c #0B0002",
"X  c #110204",
"o  c #190407",
"O  c #1E0609",
"+  c #1D090B",
"@  c #191111",
"#  c #240005",
"$  c #250A0C",
"%  c #2F050B",
"&  c #2E080C",
"*  c #261517",
"=  c #251B1B",
"-  c #2E1418",
";  c #330006",
":  c #35040B",
">  c #3E0009",
",  c #310F12",
"<  c #3B0A11",
"1  c #311416",
"2  c #292122",
"3  c #2F3030",
"4  c #3E393A",
"5  c #45000A",
"6  c #4D000B",
"7  c #440C13",
"8  c #4B0C14",
"9  c #411316",
"0  c #4B1016",
"q  c #4A161B",
"w  c #4B191C",
"e  c #5A0E18",
"r  c #521119",
"t  c #511A1F",
"y  c #5D131B",
"u  c #58191F",
"i  c #551D23",
"p  c #403637",
"a  c #5D2027",
"s  c #650311",
"d  c #620A16",
"f  c #620D18",
"g  c #6F0414",
"h  c #63121D",
"j  c #69121C",
"k  c #7C0313",
"l  c #790D1C",
"z  c #631D23",
"x  c #691922",
"c  c #731E27",
"v  c #6A2027",
"b  c #69262B",
"n  c #6C282E",
"m  c #642D31",
"M  c #7F2730",
"N  c #7A2C35",
"B  c #75363E",
"V  c #534141",
"C  c #574A4A",
"Z  c #584F50",
"A  c #635C5D",
"S  c #6B5B5D",
"D  c #7A4D52",
"F  c #725354",
"G  c #7E565A",
"H  c #766B6C",
"J  c #757473",
"K  c #810215",
"L  c #880316",
"P  c #8C081A",
"I  c #94071C",
"U  c #970E1F",
"Y  c #9B071D",
"T  c #99081D",
"R  c #831D29",
"E  c #8B1424",
"W  c #8F1A2A",
"Q  c #930F22",
"!  c #9F0F24",
"~  c #911120",
"^  c #921B28",
"/  c #9B1224",
"(  c #9B192A",
")  c #85222D",
"_  c #8D2430",
"`  c #8A2F37",
"'  c #813238",
"]  c #8F323A",
"[  c #912C35",
"{  c #9D2D39",
"}  c #A20316",
"|  c #AF061A",
" . c #B8051B",
".. c #AC0A21",
"X. c #A61A2A",
"o. c #AF1A2E",
"O. c #A21F32",
"+. c #AD1F32",
"@. c #B31A2C",
"#. c #B21C32",
"$. c #B91A31",
"%. c #A22333",
"&. c #A22838",
"*. c #AE2D3E",
"=. c #B52536",
"-. c #9D3741",
";. c #A33541",
":. c #A53843",
">. c #B33242",
",. c #846466",
"<. c #836869",
"1. c #876F71",
"2. c #8C7C7C",
"3. c #A96367",
"4. c #C10B25",
"5. c #CD132A",
"6. c #C41D33",
"7. c #CB1D36",
"8. c #CF1F39",
"9. c #DA0D27",
"0. c #DC0D2B",
"q. c #D3182F",
"w. c #DC122D",
"e. c #D11B35",
"r. c #DE1531",
"t. c #DD1A33",
"y. c #C32439",
"u. c #C12D3E",
"i. c #CA2034",
"p. c #D32138",
"a. c #D7283D",
"s. c #DC213B",
"d. c #D92A3F",
"f. c #E3152D",
"g. c #E21631",
"h. c #E21B35",
"j. c #E11D39",
"k. c #F01C37",
"l. c #F11E39",
"z. c #E3233C",
"x. c #E5283F",
"c. c #E82038",
"v. c #F1223C",
"b. c #CF2C40",
"n. c #CE3447",
"m. c #C83C4B",
"M. c #D52A40",
"N. c #DD2C45",
"B. c #D53648",
"V. c #D53C4F",
"C. c #DB3A4E",
"Z. c #E32640",
"A. c #E52C44",
"S. c #EB2540",
"D. c #EB2C42",
"F. c #E2344D",
"G. c #E33750",
"H. c #E33A52",
"J. c #EC3E54",
"K. c #F32843",
"L. c #FA2643",
"P. c #F92844",
"I. c #FD2D4A",
"U. c #F6354D",
"Y. c #FC324E",
"T. c #F43951",
"R. c #FD3450",
"E. c #FD3A55",
"W. c #FD3E59",
"Q. c #C14652",
"!. c #C64A57",
"~. c #CF4051",
"^. c #CF4D5B",
"/. c #D54253",
"(. c #DE5563",
"). c #E3455C",
"_. c #E34A5E",
"`. c #ED4157",
"'. c #ED465A",
"]. c #E84D5D",
"[. c #F1455A",
"{. c #F3495E",
"}. c #FB4554",
"|. c #FD425B",
" X c #FB4957",
".X c #FB4B5B",
"XX c #E54E64",
"oX c #EE4F63",
"OX c #E55165",
"+X c #EC5564",
"@X c #F14E61",
"#X c #FF4760",
"$X c #FE4D64",
"%X c #F55061",
"&X c #FD5465",
"*X c #FE546A",
"=X c #FD596C",
"-X c #FE5C71",
";X c #A68A8B",
":X c #A88F8F",
">X c #A29292",
",X c #A3999A",
"<X c #AA9C9B",
"1X c #BD8285",
"2X c #B79899",
"3X c #A3A5A5",
"4X c #A9A2A3",
"5X c #B5A6A6",
"6X c #B8B4B4",
"7X c #C2B0B0",
"8X c #D3BEBD",
"9X c #C5C4C4",
"0X c #D0C5C5",
"qX c #D2CECE",
"wX c #D9C9CA",
"eX c #DEDDDD",
"rX c #ECECEC",
"tX c #F5EAEA",
"yX c #F7F3F3",
"uX c #FAF6F6",
"iX c #FEFEFE",
"pX c None",
/* pixels */
"pXpXpXpXpXpXpXpXpXpXpXpXpXpXpXpXpXpXpXpXpXpXpXpXpXpXpXpXpXpXpXpX",
"pXpXpXpXpXpXpXpXpXpXpXpXpXpXpXpXpXpXpXpXpXpXpXpXpXpXpXpXpXpXpXpX",
"pXpXpXpXpXpXpXpXpXpXpXpX                  pXpXpXpXpXpXpXpXpXpXpX",
"pXpXpXpXpXpXpXpXpX          . . X X .           pXpXpXpXpXpXpXpX",
"pXpXpXpXpXpXpXpX      . : s ~ #.y.$.! l 7 o         pXpXpXpXpXpX",
"pXpXpXpXpXpX      . 5 I 7.G.).OXXXA.h.h.t.o.f o       pXpXpXpXpX",
"pXpXpXpXpX      # k 7.H.OXXX).F.z.j.j.j.z.S.N.+.7         pXpXpX",
"pXpXpXpXpX    ; | N.XXXXA.z.t.w.g.j.j.j.z.Z.Z.A.b.x         pXpX",
"pXpXpXpX    # ..F.XXH.r.9.9.w.w.w.f.t.z.z.z.z.x.A.M.r         pX",
"pXpXpX    . L N.XXF.w. .} | 9.f.f.h.h.c.c.c.z.x.D.K.y.&         ",
"pXpXpX    6 e.XXA. .k B S D ~ w.v.v.v.v.z.@.f E M.U.T.%..       ",
"pXpXpX  X ! G.N.Q < A 9XrXeX,.j t.v.v.y.j G ,X1.c b.W.J.0       ",
"pXpX    > 8.G.0.P - J Z 2 p 2.u s.I.X.1 2XwX0XqX:Xw B.$X{       ",
"pXpX    g F.M.0.r...8 * @ o y p.I.Y.d.c F V = 3 C ) '.*X~.$     ",
"pXpX  . / G.r.0.r.r.5.Q f / S.I.Y.R.E.T.%.q o & _ @X*X=X@X0     ",
"pXpX  X $.A.w.r.r.g.r.g.l.L.I.Y.R.E.E.}.|.G.;.V.$X*X=X=X=Xi     ",
"pXpX  X 6.Z.r.r.t.h.g.h.v.P.I.Y.E.E.|.|.#X#X$X*X*X*X=X-X-Xi     ",
"pXpX  X +.Z.r.g.t.e.q.t.l.I.Y.E.E.|.|..X$X$X$X*X*X=X-X-X*Xi     ",
"pXpX  . E G.j.j.6.e a ) ^ ( %.%.%.&.>.n.C.[.$X=X=X-X-X*X].9     ",
"pXpX    d F.z.j.s.E p 4X6X3X3X3X3X3X;X1X3.' m.=X-X-X=X$XQ.o     ",
"pXpX    : y.j.j.z.s.y H uXiXiXiXiXiXiXuX>Xn ].=X-X=X.X&X`       ",
"pXpXpX  . E z.z.Z.S.i.r 2.uXiXiXiXiXiX5Xm /.-X-X=X.X.XOX1       ",
"pXpXpX    : 6.Z.Z.A.x.i.h 2.tXiXiXuX<Xm /.=X-X=X X X=X]         ",
"pXpXpXpX    j x.A.A.x.D.s.c F 7X8X<.n /.-X-X-X.X X&X!.$         ",
"pXpXpXpX    X W A.D.A.D.T.T.u.N N >.+X=X-X=X.X X&X(.w           ",
"pXpXpXpXpX    o R N.D.D.T.|.#X$X*X&X=X&X.X X.X=X^.t             ",
"pXpXpXpXpXpX    . q =.A.T.|.$X$X.X.X X}..X&X+X-.$               ",
"pXpXpXpXpXpX        $ j u.`.$X&X}.}..X%X(.*.w .                 ",
"pXpXpXpXpXpXpX          X 7 ) { :.;.[ z + .                   pX",
"pXpXpXpXpXpXpX                                              pXpX",
"pXpXpXpXpXpXpXpXpX                                        pXpXpX",
"pXpXpXpXpXpXpXpXpXpX                                    pXpXpXpX"
};
