/* XPM */
static char * mixer_xpm[] = {
"48 48 506 2",
"  	c None",
". 	c #000000",
"+ 	c #010101",
"@ 	c #010202",
"# 	c #171B1F",
"$ 	c #2E363E",
"% 	c #4B5865",
"& 	c #495561",
"* 	c #3A444E",
"= 	c #23292F",
"- 	c #020303",
"; 	c #22282E",
"> 	c #505F6C",
", 	c #475360",
"' 	c #2E373E",
") 	c #333C44",
"! 	c #3C4751",
"~ 	c #6E8193",
"{ 	c #91ABC3",
"] 	c #778B9F",
"^ 	c #303840",
"/ 	c #000101",
"( 	c #0F1114",
"_ 	c #495662",
": 	c #262E34",
"< 	c #0E1115",
"[ 	c #28323D",
"} 	c #425263",
"| 	c #3E4B5C",
"1 	c #313D49",
"2 	c #0E1216",
"3 	c #293039",
"4 	c #778B9E",
"5 	c #9AB5CE",
"6 	c #4F5D6A",
"7 	c #050506",
"8 	c #000001",
"9 	c #1E2328",
"0 	c #353E48",
"a 	c #101317",
"b 	c #455568",
"c 	c #6D87A3",
"d 	c #69819C",
"e 	c #667E98",
"f 	c #374452",
"g 	c #171C20",
"h 	c #73879A",
"i 	c #9FB9D2",
"j 	c #5E6E7E",
"k 	c #020203",
"l 	c #252D32",
"m 	c #2F3941",
"n 	c #1B2127",
"o 	c #6D86A2",
"p 	c #7590AE",
"q 	c #6E88A4",
"r 	c #3D4D5D",
"s 	c #191F23",
"t 	c #93A7BA",
"u 	c #9DB7D0",
"v 	c #38424C",
"w 	c #1E2429",
"x 	c #2A3139",
"y 	c #212932",
"z 	c #718BA9",
"A 	c #6E87A3",
"B 	c #262F38",
"C 	c #3E4854",
"D 	c #B5C8DB",
"E 	c #90A9C1",
"F 	c #171B1E",
"G 	c #181C20",
"H 	c #424D59",
"I 	c #171D22",
"J 	c #748EAC",
"K 	c #6C85A1",
"L 	c #60778F",
"M 	c #0F1216",
"N 	c #8F9FAE",
"O 	c #ABC2D8",
"P 	c #53616E",
"Q 	c #060708",
"R 	c #546271",
"S 	c #647C95",
"T 	c #738DAB",
"U 	c #2C3642",
"V 	c #414C57",
"W 	c #BED0E1",
"X 	c #8EA7BF",
"Y 	c #0D1012",
"Z 	c #030506",
"` 	c #020406",
" .	c #3D4751",
"..	c #21272E",
"+.	c #435364",
"@.	c #53677C",
"#.	c #1C2127",
"$.	c #A8BBCC",
"%.	c #ACC3D9",
"&.	c #3A454E",
"*.	c #141D24",
"=.	c #040709",
"-.	c #1C2126",
";.	c #3D4852",
">.	c #1E252C",
",.	c #69829D",
"'.	c #0D1014",
").	c #899BAC",
"!.	c #BECFE1",
"~.	c #687A8C",
"{.	c #18222A",
"].	c #141C23",
"^.	c #030505",
"/.	c #47535F",
"(.	c #6A829D",
"_.	c #181C23",
":.	c #6B7C8B",
"<.	c #CBD9E7",
"[.	c #8BA3BA",
"}.	c #060709",
"|.	c #0B1014",
"1.	c #435E76",
"2.	c #080B0E",
"3.	c #21262C",
"4.	c #262C33",
"5.	c #48586A",
"6.	c #728DAA",
"7.	c #222A33",
"8.	c #546270",
"9.	c #C8D7E5",
"0.	c #A8BFD4",
"a.	c #1B1F24",
"b.	c #020404",
"c.	c #405A70",
"d.	c #3D556A",
"e.	c #050608",
"f.	c #4E5C69",
"g.	c #0E1215",
"h.	c #2E3945",
"i.	c #434F5A",
"j.	c #B5C9DD",
"k.	c #2F373F",
"l.	c #364C5F",
"m.	c #4B6983",
"n.	c #2D3F4E",
"o.	c #050709",
"p.	c #1D2227",
"q.	c #3F4A55",
"r.	c #6B84A0",
"s.	c #3B4858",
"t.	c #353E47",
"u.	c #BCCEE0",
"v.	c #3B454E",
"w.	c #2F4354",
"x.	c #1A262F",
"y.	c #050708",
"z.	c #45515C",
"A.	c #1C2128",
"B.	c #5C7289",
"C.	c #748FAD",
"D.	c #677F9A",
"E.	c #465869",
"F.	c #293037",
"G.	c #B2C6D9",
"H.	c #C3D3E3",
"I.	c #46535E",
"J.	c #293A49",
"K.	c #48657E",
"L.	c #0C1114",
"M.	c #020202",
"N.	c #040405",
"O.	c #556573",
"P.	c #12161B",
"Q.	c #3A4758",
"R.	c #1A2530",
"S.	c #1A2632",
"T.	c #293441",
"U.	c #5B7088",
"V.	c #52657A",
"W.	c #AEC0D2",
"X.	c #C3D4E3",
"Y.	c #536270",
"Z.	c #24323E",
"`.	c #415B71",
" +	c #1F252A",
".+	c #2F3940",
"++	c #3D4B5C",
"@+	c #26323D",
"#+	c #3A4957",
"$+	c #7B8DA1",
"%+	c #314E6C",
"&+	c #243A51",
"*+	c #202A35",
"=+	c #657C97",
"-+	c #53667B",
";+	c #AEC1D3",
">+	c #C1D2E2",
",+	c #566573",
"'+	c #23313D",
")+	c #34495B",
"!+	c #121619",
"~+	c #6A829E",
"{+	c #374554",
"]+	c #364758",
"^+	c #AAB6C3",
"/+	c #47617C",
"(+	c #172531",
"_+	c #4E6075",
":+	c #445465",
"<+	c #2B343C",
"[+	c #B6C9DC",
"}+	c #4D5967",
"|+	c #273745",
"1+	c #222F3A",
"2+	c #060809",
"3+	c #1C232A",
"4+	c #586D84",
"5+	c #16222E",
"6+	c #909FB0",
"7+	c #7D8FA2",
"8+	c #253C53",
"9+	c #343F4D",
"0+	c #323E4C",
"a+	c #3E4953",
"b+	c #B8CCDE",
"c+	c #434E59",
"d+	c #2C3E4D",
"e+	c #4A6881",
"f+	c #11181D",
"g+	c #040406",
"h+	c #0C0E10",
"i+	c #3F4A54",
"j+	c #313D4A",
"k+	c #2C3744",
"l+	c #50647A",
"m+	c #B4BFC9",
"n+	c #4A637D",
"o+	c #2C4661",
"p+	c #242F3B",
"q+	c #556371",
"r+	c #B9CCDF",
"s+	c #39434D",
"t+	c #314556",
"u+	c #446077",
"v+	c #323A42",
"w+	c #455567",
"x+	c #657D97",
"y+	c #1A2633",
"z+	c #9EACBA",
"A+	c #AEB9C5",
"B+	c #304C69",
"C+	c #1C2731",
"D+	c #13171C",
"E+	c #6D8092",
"F+	c #C5D5E4",
"G+	c #B7CADE",
"H+	c #2C343B",
"I+	c #394F63",
"J+	c #23333F",
"K+	c #030405",
"L+	c #333B44",
"M+	c #252B34",
"N+	c #576B81",
"O+	c #243443",
"P+	c #A8B4C1",
"Q+	c #2A435D",
"R+	c #28313E",
"S+	c #0F1115",
"T+	c #8195AA",
"U+	c #CDDAE8",
"V+	c #ADC1D6",
"W+	c #040608",
"X+	c #425D74",
"Y+	c #444F5A",
"Z+	c #191E24",
"`+	c #68809A",
" @	c #425162",
".@	c #3F5163",
"+@	c #A2AFBD",
"@@	c #23364C",
"#@	c #3A4757",
"$@	c #617891",
"%@	c #13181B",
"&@	c #96ABBF",
"*@	c #93A9BF",
"=@	c #07090A",
"-@	c #0B1015",
";@	c #496780",
">@	c #121A21",
",@	c #475460",
"'@	c #111519",
")@	c #758FAD",
"!@	c #2E3B49",
"~@	c #586D81",
"{@	c #9EABB9",
"]@	c #182836",
"^@	c #4C5E72",
"/@	c #506378",
"(@	c #1F262C",
"_@	c #AABDD1",
":@	c #C7D6E5",
"<@	c #718598",
"[@	c #161F27",
"}@	c #273744",
"|@	c #475560",
"1@	c #12171B",
"2@	c #2D3946",
"3@	c #6C7D90",
"4@	c #A5B1BF",
"5@	c #19242F",
"6@	c #617790",
"7@	c #29333E",
"8@	c #3E4B56",
"9@	c #BCCFE0",
"0@	c #BACDDF",
"a@	c #4C5966",
"b@	c #23323E",
"c@	c #2B3C4B",
"d@	c #020405",
"e@	c #404C57",
"f@	c #202730",
"g@	c #3C4959",
"h@	c #55687A",
"i@	c #AFBAC6",
"j@	c #23374D",
"k@	c #343F4C",
"l@	c #667D97",
"m@	c #0D0F13",
"n@	c #788C9F",
"o@	c #CAD8E6",
"p@	c #ABC1D6",
"q@	c #395064",
"r@	c #22303C",
"s@	c #45505B",
"t@	c #212931",
"u@	c #4D5F73",
"v@	c #263545",
"w@	c #B2BDC8",
"x@	c #35526F",
"y@	c #2F4B68",
"z@	c #17202B",
"A@	c #5A6F86",
"B@	c #242C33",
"C@	c #A6BBCF",
"D@	c #CCDAE7",
"E@	c #899FB4",
"F@	c #040506",
"G@	c #11171D",
"H@	c #151B20",
"I@	c #6A839E",
"J@	c #1A2531",
"K@	c #708499",
"L@	c #AAB6C2",
"M@	c #304D6A",
"N@	c #465769",
"O@	c #1A2026",
"P@	c #556372",
"Q@	c #BFD1E2",
"R@	c #505D6B",
"S@	c #1E2A35",
"T@	c #46627B",
"U@	c #47535E",
"V@	c #111418",
"W@	c #475669",
"X@	c #16212E",
"Y@	c #42566A",
"Z@	c #22364A",
"`@	c #16202A",
" #	c #404F60",
".#	c #677E99",
"+#	c #5E738C",
"@#	c #8AA0B5",
"##	c #21272D",
"$#	c #384E62",
"%#	c #263643",
"&#	c #050507",
"*#	c #404A55",
"=#	c #101417",
"-#	c #5B7087",
";#	c #364351",
">#	c #3B4958",
",#	c #54677D",
"'#	c #34404E",
")#	c #323C44",
"!#	c #B2C6DA",
"~#	c #C4D4E4",
"{#	c #72879A",
"]#	c #0C1116",
"^#	c #47647D",
"/#	c #415B72",
"(#	c #333C45",
"_#	c #171B21",
":#	c #6F89A6",
"<#	c #ACC2D8",
"[#	c #2B333A",
"}#	c #2A3B4A",
"|#	c #1F252B",
"1#	c #5D738B",
"2#	c #303D48",
"3#	c #293138",
"4#	c #ACC0D2",
"5#	c #C6D6E5",
"6#	c #798EA2",
"7#	c #0A0E13",
"8#	c #304353",
"9#	c #090A0C",
"0#	c #242B32",
"a#	c #4E6074",
"b#	c #52667B",
"c#	c #111619",
"d#	c #8194A8",
"e#	c #ADC2D6",
"f#	c #445F76",
"g#	c #1A252D",
"h#	c #374049",
"i#	c #252E38",
"j#	c #657C96",
"k#	c #556471",
"l#	c #5F707F",
"m#	c #010102",
"n#	c #0A0F13",
"o#	c #456179",
"p#	c #1E2B35",
"q#	c #040607",
"r#	c #030305",
"s#	c #708AA7",
"t#	c #6D86A3",
"u#	c #A1B7CD",
"v#	c #C9D8E6",
"w#	c #90A6BC",
"x#	c #101316",
"y#	c #010203",
"z#	c #324758",
"A#	c #435D75",
"B#	c #1E2A34",
"C#	c #090A0B",
"D#	c #262D35",
"E#	c #3F4D5E",
"F#	c #718CA9",
"G#	c #4D5E72",
"H#	c #151A20",
"I#	c #C8D7E6",
"J#	c #A8BED4",
"K#	c #1B2630",
"L#	c #4A6882",
"M#	c #1D2933",
"N#	c #030607",
"O#	c #111419",
"P#	c #516479",
"Q#	c #657585",
"R#	c #B9CBDD",
"S#	c #446078",
"T#	c #425C73",
"U#	c #1C2832",
"V#	c #0A0C0E",
"W#	c #353C46",
"X#	c #718BA8",
"Y#	c #47586B",
"Z#	c #101418",
"`#	c #5D6D7C",
" $	c #BDCEDE",
".$	c #BDCFE0",
"+$	c #515F6C",
"@$	c #06090B",
"#$	c #334859",
"$$	c #1C2730",
"%$	c #040507",
"&$	c #343D46",
"*$	c #1A2027",
"=$	c #5F758D",
"-$	c #232C35",
";$	c #181C21",
">$	c #6D7E8F",
",$	c #B5C8DA",
"'$	c #030507",
")$	c #131A20",
"!$	c #303941",
"~$	c #3A464F",
"{$	c #2A343E",
"]$	c #4B5C6F",
"^$	c #506277",
"/$	c #425163",
"($	c #222932",
"_$	c #0F1318",
":$	c #404B56",
"<$	c #96A9BC",
"[$	c #A9BDD0",
"}$	c #010103",
"|$	c #6B7E90",
"1$	c #44505B",
"2$	c #2E373D",
"3$	c #566574",
"4$	c #7E93A8",
"5$	c #A2BBD2",
"6$	c #ABC0D3",
"7$	c #657684",
"8$	c #191D22",
"9$	c #080A0B",
"0$	c #768A9E",
"a$	c #869DB4",
"b$	c #8FA7BF",
"c$	c #7A8FA3",
"d$	c #53616F",
"e$	c #06080A",
"f$	c #0F1214",
"g$	c #0D0F11",
"                                                                                                ",
"                                        . . . . .                                               ",
"                                  . . + . . . . . . .                                           ",
"                              . . . @ # $ % & * = - . . .                                       ",
"                            . . @ ; > , ' ) ! ~ { ] ^ + / .                                     ",
"                          . . ( _ : < [ } | 1 2 3 4 5 6 7 8 .                                   ",
"                        . . 9 0 a b c d d d d e f g h i j k + .                                 ",
"                      . . l m n o p p q d d d d d r s t u v . /                                 ",
"                    . . w x y z p p p p A d d d d d B C D E F . 8                               ",
"                  . . G H I J p p p p p p K d d d d L M N O P . @ .                             ",
"                  / Q R a S p p p p p p p T d d d d d U V W X Y Z `                             ",
"                . .  ...+.p p p p p p p p p A d d d d @.#.$.%.&.. *.=.                          ",
"              . . -.;.>.p p p p p p p p p p J ,.d d d d '.).!.~.. {.].^.                        ",
"              . @ /.M (.p p p p p p p p p p p q d d d d _.:.<.[.}.|.1.2..                       ",
"            . . 3.4.5.p p p p p p p p p p p p 6.d d d d 7.8.9.0.a.b.c.d.e.                      ",
"            . . f.g.z p p p p p p p p p p p p p ,.d d d h.i.W j.k.. l.m.n.o.                    ",
"          . . p.q.U p p p p p p p p p p p p p p r.d d d s.t.j.u.v.. w.m.m.x.y.                  ",
"          . . z.A.B.p p p p p p p p p p p C.o D.(.d d d E.F.G.H.I.. J.m.m.K.L.M.                ",
"          . N.O.P.p p p p p p p p p p p A Q.R.S.T.U.d d V.; W.X.Y.. Z.m.m.m.`.y..               ",
"        . .  +.+++p p p p p p p p p p K @+#+$+%+&+*+=+d -+..;+>+,+. '+m.m.m.m.)+y.              ",
"        . . q.!+~+p p p p p p p p p J {+]+^+/+%+%+(+_+d :+<+[+W }+. |+m.m.m.m.m.1+2+            ",
"        . . _ 3+p p p p p p p p p p 4+5+6+7+%+%+%+8+9+d 0+a+b+u.c+. d+m.m.m.m.m.e+f+g+          ",
"        . h+i+j+p p p p p p p p p p k+l+m+n+%+%+%+o+p+d 7.q+u.r+s+. t+m.m.m.m.m.m.u+}.          ",
"        8 9 v+w+p p p p p p p p p x+y+z+A+%+%+%+%+B+C+d D+E+F+G+H+. I+m.m.m.m.m.m.m.J+K+        ",
"      . . L+M+N+p p p p p p p p p @.O+m+P+%+%+%+%+Q+R+d S+T+U+V+G W+1.m.m.m.m.m.m.m.X+W+        ",
"      . . Y+Z+`+p p p p p p p p p  @.@m++@%+%+%+%+@@#@$@%@&@U+*@=@-@;@m.m.m.m.m.m.m.m.>@.       ",
"      . . ,@'@)@p p p p p p p p p !@~@m+{@%+%+%+%+]@^@/@(@_@:@<@. [@m.m.m.m.m.m.m.m.m.}@M.      ",
"      . . |@1@p p p p p p p p p p 2@3@m+4@%+%+%+%+5@6@7@8@9@0@a@. b@m.m.m.m.m.m.m.m.m.c@d@      ",
"      . . e@f@p p p p p p p p p p g@h@m+i@%+%+%+j@k@l@m@n@o@p@3.+ q@m.m.m.m.m.m.m.m.m.r@M.      ",
"      . . s@t@p p p p p p p p p p u@v@w@m+x@%+y@z@A@w+B@C@D@E@F@|.K.m.m.m.m.m.m.m.m.m.G@.       ",
"      . . _ H@p p p p p p p p p p I@J@K@L@%+M@5+N@d O@P@Q@>+R@. S@m.m.m.m.m.m.m.m.m.T@Z         ",
"      . . U@V@p p p p p p p p p p p W@X@Y@Z@`@ #.#+#'@@#D@0.##+ $#m.m.m.m.m.m.m.m.m.%#&#        ",
"      . . *#=#C.p p p p p p p p p p p -#;#>#,#d d '#)#!#~#{#k ]#^#m.m.m.m.m.m.m.m./#y.          ",
"      . . (#_#(.p p p p p p p p p p p p :#d d d .#g.E+9.<#[#. }#m.m.m.m.m.m.m.m.`.2.M.          ",
"        . -.|#1#p p p p p p p p p p p C.I@d d d 2#3#4#5#6#g+7#T@m.m.m.m.m.m.m.8#e.M.            ",
"        . 9#0#a#p p p p p p p p p p p :#d d d b#c#d#<.e#$ . |+m.m.m.m.m.m.f#g#o.                ",
"        . . h#i#p p p p p p p p p p J I@d d j#V@k#9@>+l#m#n#o#m.m.m.m.1.p#q#r#                  ",
"        . . 3#a s#p p p p p p p p p t#d d d 7@m u#v#w#x#y#z#m.m.m.A#B#q#r#                      ",
"          . C#D#E#p p p p p p p p F#d d d G#H#E@I#J#^ . K#L#m.X+M#N#r#                          ",
"          . . t.O#I@p p p p p p J I@d d P#2 Q#~#R#c+. n#S#T#U#q#b.                              ",
"            8 V#W#3+X#p p p p C.r.d d Y#Z#`# $.$+$m#@$#$$$%$b.                                  ",
"            . . w &$*$d p p p K d =$-$;$>$.$,$6 K+'$)$q#b.                                      ",
"              . . !$~$!+{$]$^$/$($_$:$<$5#[$&$/ y#- }$                                          ",
"                . . ; |$1$2$F.!$3$4$5$6$7$8$. . 8                                               ",
"                  . . 9$&$0$a$b$E c$d$-.. . . .                                                 ",
"                    . . . . e$f$g$. . . . .                                                     ",
"                        . . . . . . . .                                                         ",
"                                                                                                "};
