/* XPM */
static char *firefox[] = {
/* columns rows colors chars-per-pixel */
"48 48 257 2",
"   c #000000",
".  c #0A0300",
"X  c #070605",
"o  c #010717",
"O  c #120000",
"+  c #170702",
"@  c #1C1400",
"#  c #030F2C",
"$  c #031131",
"%  c #280500",
"&  c #281B00",
"*  c #370300",
"=  c #301D00",
"-  c #372700",
";  c #392630",
":  c #1F1D36",
">  c #0A1B4D",
",  c #08215E",
"<  c #152152",
"1  c #072264",
"2  c #0B2A78",
"3  c #172C66",
"4  c #183478",
"5  c #1A306A",
"6  c #271A46",
"7  c #3B1C40",
"8  c #2E2F51",
"9  c #373A62",
"0  c #273970",
"q  c #2D4177",
"w  c #4A0900",
"e  c #570B00",
"r  c #551808",
"t  c #4A3500",
"y  c #543400",
"u  c #660400",
"i  c #6A1900",
"p  c #791100",
"a  c #6F2D09",
"s  c #703131",
"d  c #5F1A24",
"f  c #493449",
"g  c #765700",
"h  c #6D4E00",
"j  c #79492B",
"k  c #5A421C",
"l  c #455173",
"z  c #685464",
"x  c #0B2B83",
"c  c #092E91",
"v  c #0B3295",
"b  c #163586",
"n  c #10338E",
"m  c #223A8B",
"M  c #0B34A0",
"N  c #254186",
"B  c #27459C",
"V  c #3E56A2",
"C  c #536090",
"Z  c #526CB4",
"A  c #6E7692",
"S  c #6F7BAE",
"D  c #7B85A7",
"F  c #798CC4",
"G  c #881301",
"H  c #972802",
"J  c #9A3400",
"K  c #8B2E07",
"L  c #9C3B27",
"P  c #B30B00",
"I  c #BC0000",
"U  c #B80802",
"Y  c #BB1400",
"T  c #B71604",
"R  c #AE1108",
"E  c #A93600",
"W  c #B72901",
"Q  c #B33B00",
"!  c #BB3D00",
"~  c #B83500",
"^  c #B03416",
"/  c #BF3738",
"(  c #9A4702",
")  c #905312",
"_  c #955630",
"`  c #926900",
"'  c #926B00",
"]  c #B84500",
"[  c #B75700",
"{  c #AD530A",
"}  c #AD5828",
"|  c #A67502",
" . c #B76501",
".. c #B87901",
"X. c #A96D01",
"o. c #AE6E3A",
"O. c #855A65",
"+. c #8F6D70",
"@. c #A96D58",
"#. c #AD736A",
"$. c #97604E",
"%. c #C00400",
"&. c #C10B00",
"*. c #CA0A00",
"=. c #C31300",
"-. c #C61A00",
";. c #C91D00",
":. c #CE1400",
">. c #D21A00",
",. c #CB2300",
"<. c #CC2B00",
"1. c #C22900",
"2. c #C43301",
"3. c #CD3300",
"4. c #CC3A00",
"5. c #C33B05",
"6. c #D22701",
"7. c #D53800",
"8. c #C43116",
"9. c #CA2F2C",
"0. c #E33300",
"q. c #C44100",
"w. c #CB4300",
"e. c #C84A04",
"r. c #C85704",
"t. c #D44400",
"y. c #D44B01",
"u. c #DC4A00",
"i. c #DB4805",
"p. c #DB5200",
"a. c #DB5A00",
"s. c #D45406",
"d. c #D85516",
"f. c #C84C15",
"g. c #C55727",
"h. c #D14D24",
"j. c #C56200",
"k. c #DB6804",
"l. c #D57904",
"z. c #D27210",
"x. c #DB6528",
"c. c #DB6933",
"v. c #C76C33",
"b. c #E34B00",
"n. c #E94B01",
"m. c #E34403",
"M. c #E35202",
"N. c #E2520B",
"B. c #EA5301",
"V. c #E75A05",
"C. c #E65B16",
"Z. c #F65F00",
"A. c #E35A26",
"S. c #E16B00",
"D. c #E96701",
"F. c #E7611B",
"G. c #E97800",
"H. c #F37900",
"J. c #F36511",
"K. c #E76828",
"L. c #E87539",
"P. c #F1732F",
"I. c #CB7D4B",
"U. c #E97C45",
"Y. c #C57C63",
"T. c #877688",
"R. c #BB8809",
"E. c #BC814F",
"W. c #B48E76",
"Q. c #9F866F",
"!. c #C78809",
"~. c #D48201",
"^. c #D19009",
"/. c #D6A500",
"(. c #DDA318",
"). c #E38400",
"_. c #E98802",
"`. c #E99600",
"'. c #F28301",
"]. c #F39B00",
"[. c #F59601",
"{. c #EE9813",
"}. c #EC9633",
"|. c #EDA700",
" X c #EEB405",
".X c #F2A200",
"XX c #F3AA00",
"oX c #F6A608",
"OX c #F3B400",
"+X c #F3BC00",
"@X c #F5BD06",
"#X c #F1B317",
"$X c #F1B531",
"%X c #C79D7A",
"&X c #EE9053",
"*X c #E1A556",
"=X c #F5C300",
"-X c #F9CD00",
";X c #F5C901",
":X c #FBD200",
">X c #F8DA00",
",X c #F0C30E",
"<X c #F8D22E",
"1X c #F3D352",
"2X c #F9DB78",
"3X c #F9D066",
"4X c #F7E153",
"5X c #FBE56F",
"6X c #8D818B",
"7X c #939BB5",
"8X c #8D92A7",
"9X c #9BA1B7",
"0X c #B09889",
"qX c #B6A38A",
"wX c #BAB7BA",
"eX c #B1A8B3",
"rX c #99A4C6",
"tX c #A7ADC6",
"yX c #ABB3C9",
"uX c #B4B8C8",
"iX c #B4BCD6",
"pX c #ACB4D4",
"aX c #8194C9",
"sX c #BCC2DA",
"dX c #BCC2D3",
"fX c #BFC3CA",
"gX c #C99C88",
"hX c #C9B6AF",
"jX c #DEA78C",
"kX c #F8D28C",
"lX c #F8F38A",
"zX c #C0C5DC",
"xX c #C6CADA",
"cX c #CCC3C3",
"vX c #C5CAE2",
"bX c #C9CEE4",
"nX c #C2C8E2",
"mX c #CDD1E5",
"MX c #CBD3E9",
"NX c #D1D6E8",
"BX c #D5D9E9",
"VX c #DADCEB",
"CX c #D4D8E4",
"ZX c #D7DEF0",
"AX c #DEE1EE",
"SX c #DFE1E5",
"DX c #DDE2F0",
"FX c #E1E4EE",
"GX c #E3E4E8",
"HX c #E2E5F1",
"JX c #E6E8F3",
"KX c #E9ECF4",
"LX c #EEF0F6",
"PX c #F2F4F8",
"IX c #FAFAFC",
"UX c #F2F3F7",
"YX c None",
/* pixels */
"YXYXYXYXYXYXYXYXYXYXYXYXYXYXYXYXYXYXYXYXYXYXYXYXYXYXYXYXYXYXYXYXYXYXYXYXYXYXYXYXYXYXYXYXYXYXYXYX",
"YXYXYXYXYXYXYXYXYXYXYXYXYXYXYXYXYXYXYXYXYXYXYXYXYXYXYXYXYXYXYXYXYXYXYXYXYXYXYXYXYXYXYXYXYXYXYXYX",
"YXYXYXYXYXYXYXYXYXYXYXYXYXYXYXYXYXYX> 2 2 1 , , 1 , 1 2 > # YXYXYXYXYXYXYXYXYXYXYXYXYXYXYXYXYXYX",
"YXYXYXYXYXYXYXYXYXYXYXYXYXYXYX1 n c c x n b m m m m b x 2 x 1 $ o YXYXYXYXYXYXYXYXYXYXYXYXYXYXYX",
"YXYXYXYXYX      YXYXYXYXYXx v c n V F rXpXNXBXVXBXBXvXtXS 9 8 8 : + O     YXYXYXYXYXYXYXYXYXYXYX",
"YXYXYXYX  & g . YXYXYX1 v v B F vXKXPXIXIXIXIXIXIXIXIXIXgX} 8.7.e.e.E i * .   YXYXYXYXYXYXYXYXYX",
"YXYXYXYX  ` ^.&   YXx v B aXSXPXPXPXHXSXSXKXLXLXLXUXPXPXGXhXgXY.} S.OX].s.G %     YXYXYXYXYXYXYX",
"YXYXYX  t !.r.y o c v Z MXPXUXLXVXwX0XE.%XCXGXKXLXLXLXLXUXLXJXcXQ.L k.-X>X|.5.w     YXYXYXYXYXYX",
"YXYXYX  ' { -. .: n Z DXHXGXSXwXW.v.k.z.hXGXJXKXLXJXKXKXKXLXCX@.^ y.H.].<X<X;Xr.e O +   YXYXYXYX",
"YXYXYX@ R.R U w.j C wXqX0XqX0Xo.k.K.F.%XCXBXAXKXLXJXKXKXJXJXZXhXY.g.l.|.@X2X4X:X] p G .   YXYXYX",
"YXYX  - ..P P P s.z.~.z.F.z.k.p.V.k.o.wXdXdXSXDXHXHXHXHXHXHXHXDXNXuX#.} ~.#XkX5X@XE T w   YXYXYX",
"YXYX  h [ P P 6.N.F.&X&X&XU.d.b.b.V.Q.yXuXyXdXAXHXHXHXHXHXAXDXDXDXDXNXhX@.r. X2X2X^.-.G O   YXYX",
"YXYX  g [ P 0.B.C.K.x.c.c.x.u.b.u.r.@.9XpXyXbXAXHXAXGXAXAXAXVXNXBXVXVXNXiX#.f.#X2X1Xr.=.w   YXYX",
"YXYX  h [ 3.B.b.b.m.b.b.i.u.n.b.t.Q } Q.D 7XMXAXxXdXBXAXAXVXxXdXNXBXNXNXmXdXO.f.$X3X}.1.G O   YX",
"YXYX. ' S.n.b.b.b.b.b.b.b.b.n.b.t.Q r. .o._ @.wXyX9XiXdXtXtXeXvXVXNXNXmXmXbXtXL '.$X1X_.q.*   YX",
"YX  g {.K.C.N.b.b.b.b.n.b.b.b.b.i.q.4.e.t.) ) gXAXJXDXsXeXsXBXBXBXNXmXmXmXuXz L V.{.$X#Xl.e   YX",
"  = (.U.A.C.F.N.b.b.b.n.b.n.b.b.b.t.t.C.&X*XE.hXFXFXAXAXAXAXVXBXNXmXmXbXvXiX_ U m.].@XoX`.p +   ",
"  g }.c.i.P.A.n.n.b.b.b.b.b.b.b.M.V.&XkX*XE.hXFXJXFXFXAXAXVXBXNXNXbXbXbXzXiXO.a.H.[.-XoX].E *   ",
"X | }.d.F.c.N.F.F.N.b.b.b.b.b.B.D.D.*X&XE.cXDXJXJXFXFXAXAXVXVXNXNXnXnXvXzXiXO.k.=X[.:XOX].[ u   ",
"@ R.F.C.K.d.B.L.x.u.b.b.b.B.V.Z.D.G.G.z.fXJXKXJXJXJXJXFXAXVXBXNXNXbXtXsXzXiXO.D.:X].:X@X[.[ u . ",
"@ R.G.K.d.b.K.U.d.b.m.n.B.Z.D.D.H._.`.l.hXKXLXLXKXJXKXHXAXVXBXBXNXbXpX7XiX8Xz D.>X.X:X;X]. .u . ",
"  = R.L.i.b.P.c.u.b.n.M.a.r.[ [ k._.[.).gXJXPXPXKXKXKXHXAXVXBXNXbXbXzX8XT.s d J.-XOX:X;X.Xl.u . ",
"YX@ ^.c.d.n.L.s.b.b.u.] J J E ] ) j ) j.o.8X8Xz uXLXJXHXFXVXBXNXbXbXsXiXT.^ H H.=X+X:X;XXX/.e . ",
"YX& ^.g.C.m.C.b.b.b.Q E E E Q r.8 q q q 9 q q 4 A UXLXJXFXVXBXmXbXvXiXyXA R >.'.OX+X=X=X+X/.e   ",
"YX& ..h.A.u.N.n.b.t.Q Q Q Q 5.a.f 4 N N N N N 4 C SXKXJXHXVXNXmXvXsXiX8X; 5.M.[.XX+X+X+X:X!.w   ",
"YX@ X.h.K.b.C.s.b.t.! ! ! ! w.b.l.f 5 4 4 4 4 3 8 W.0XwXNXBXmXvXzXsX7X9 6 i.XX_..XOXOX=X>X..w   ",
"YX@ | h.K.b.C.C.b.u.q.q.q.q.w.b.M.r.j 8 3 f j } d.F.x.I.#.zXmXvXzXiXl > 6 i.@X_.]..X|.;X>XX.*   ",
"YX+ X.h.x.m.n.K.N.b.w.w.w.t.t.u.b.n.V.r.r.a.M.b.n.C.U.*Xc.eXbXvXzX9X0 > 7 N.+X~._..X X;X;XK +   ",
"YX  ` f.9.m.n.N.F.n.u.t.t.y.u.u.y.b.b.b.b.b.b.b.b.m.A.U.v.eXbXuXA q 1 > d Z.+X)._.$X,X:X/.i .   ",
"YXX g f.^ m.b.b.N.d.b.u.b.n.N.N.Q ! t.u.u.u.b.u.u.i.v.#.eXnXzXA A q f d R H..Xl.}.2X@X;X!.w X YX",
"YX  t j.T 0.B.b.b.b.b.n.C.C.F.F.d.Q E ! 5.w.y.r.! d 8XMXbXnXpXT.l 6 ^ G 7.H.`.{.kX1XOX X( *   YX",
"YXYX& ..R 6.C.b.b.b.b.b.n.C.K.K.K.g.e.e.e.] ( a 6 1 C mXvXiXA C 6 ^ 7.<.V.G._.1XlX#X.X^.i O   YX",
"YXYX  ` 2.9.A.N.m.b.n.b.b.n.C.L.L.U.P.{ ; : 3 4 x b N tXtXA < 6 ^ n.7.m.D.S.$X5X1X`.].[ *   YXYX",
"YXYX  y r.9.9.h.7.b.b.b.b.b.b.d.c.U.&X&X_ f 4 0 b b b 0 3 > f ^ n.u.p.M.D.{.1X4X(.).l.a +   YXYX",
"YXYXYX+ X.^ 9./ 8.i.n.b.m.n.b.b.b.i.x.L.&Xx._ f 9 0 0 9 f } i.n.u.u.y.D.`.,X<X$Xl.G.[ w   YXYXYX",
"YXYXYX  y r.^ 9.R ;.m.C.b.b.b.b.b.b.u.u.u.d.b.u.y.f.f.e.b.n.b.t.t.b.D.[. X X#X!.S.j.i O   YXYXYX",
"YXYXYXYXX ' 2.R R I -.A.C.b.b.b.b.b.b.b.n.b.b.b.b.b.b.n.u.7.7.7.M.G.`.`.].|.~.a.a.H %   YXYXYXYX",
"YXYXYXYX  = ..Y U I I 8.c.N.u.u.b.b.b.b.b.b.b.b.b.b.u.t.4.3.t.V.k.G.)._.`.~.a.a.E w     YXYXYXYX",
"YXYXYXYXYX  t  .U I %.I T ^ 7.<.2.4.4.<.2.2.3.2.2.<.W 1.<.7.u.a.k.k.G.~.l.r.p.] w X   YXYXYXYXYX",
"YXYXYXYXYXYX  t  .=.I %.%.I Y W T P P Y Y U U Y Y -.;.,.<.3.t.y.p.k.k.j.w.y.Q e X   YXYXYXYXYXYX",
"YXYXYXYXYXYXYX  y [ -.I I I I I I I I I I &.*.=.=.=.;.;.,.<.3.t.p.r.e.w.u.E w     YXYXYXYXYXYXYX",
"YXYXYXYXYXYXYXYXX - [ 3.U I I I I I I I I %.U &.=.-.-.;.,.<.<.3.4.7.7.4.H *     YXYXYXYXYXYXYXYX",
"YXYXYXYXYXYXYXYXYX  @ ) e.,.I I I I I I I I %.*.&.=.-.-.;.,.<.<.3.3.W i O     YXYXYXYXYXYXYXYXYX",
"YXYXYXYXYXYXYXYXYXYX    - ( w.6.*.I I I I I %.&.*.=.=.-.;.6.<.<.~ p %     YXYXYXYXYXYXYXYXYXYXYX",
"YXYXYXYXYXYXYXYXYXYXYXYX  X = a ] 4.<.:.*.%.*.*.*.:.>.6.3.~ H i %       YXYXYXYXYXYXYXYXYXYXYXYX",
"YXYXYXYXYXYXYXYXYXYXYXYXYXYX    . = y a J E ~ E E H K i w %         YXYXYXYXYXYXYXYXYXYXYXYXYXYX",
"YXYXYXYXYXYXYXYXYXYXYXYXYXYXYXYX          X + . .             YXYXYXYXYXYXYXYXYXYXYXYXYXYXYXYXYX",
"YXYXYXYXYXYXYXYXYXYXYXYXYXYXYXYXYXYXYXYXYX          YXYXYXYXYXYXYXYXYXYXYXYXYXYXYXYXYXYXYXYXYXYX"
};
