/* XPM */
static char *mplayer[] = {
/* columns rows colors chars-per-pixel */
"32 32 257 2",
"   c #110611",
".  c #071535",
"X  c #0E1B38",
"o  c #111C32",
"O  c #1C2636",
"+  c #0D2653",
"@  c #09285F",
"#  c #132843",
"$  c #172A59",
"%  c #15225B",
"&  c #0C2A61",
"*  c #0C2E6B",
"=  c #0C2F70",
"-  c #0E306B",
";  c #0D3174",
":  c #0D357C",
">  c #102E60",
",  c #122B72",
"<  c #173767",
"1  c #13326A",
"2  c #1A3B76",
"3  c #183B7C",
"4  c #13397D",
"5  c #2E3A7F",
"6  c #25457C",
"7  c #29477B",
"8  c #2D4B7E",
"9  c #324169",
"0  c #430C16",
"q  c #4E1C2D",
"w  c #790508",
"e  c #740406",
"r  c #640607",
"t  c #6A1826",
"y  c #47307B",
"u  c #582D64",
"i  c #56336F",
"p  c #6D2A5A",
"a  c #6D3048",
"s  c #792358",
"d  c #6C2D65",
"f  c #7E317C",
"g  c #7A5770",
"h  c #0E3781",
"j  c #0F3985",
"k  c #0F3B8A",
"l  c #0F3D92",
"z  c #123B84",
"x  c #103C8E",
"c  c #1D3E88",
"v  c #103E92",
"b  c #0D4096",
"n  c #1C4184",
"m  c #17428D",
"M  c #114096",
"N  c #11429C",
"B  c #1E4191",
"V  c #1E4A95",
"C  c #0F4BAE",
"Z  c #0F4DB9",
"A  c #0F4AB3",
"S  c #1245A3",
"D  c #1548A4",
"F  c #1349AC",
"G  c #184BA3",
"H  c #144DB4",
"J  c #144FB9",
"K  c #1D51AF",
"L  c #1551BD",
"P  c #1850B6",
"I  c #244684",
"U  c #274B86",
"Y  c #2A4A84",
"T  c #2C4F8C",
"R  c #264E94",
"E  c #294F92",
"W  c #29539D",
"Q  c #314F81",
"!  c #364D94",
"~  c #335184",
"^  c #3F5983",
"/  c #3A5889",
"(  c #375488",
")  c #375E9F",
"_  c #385991",
"`  c #2B56A2",
"'  c #2B58A9",
"]  c #2453BA",
"[  c #2259BB",
"{  c #0F54C8",
"}  c #0E54D3",
"|  c #164CC1",
" . c #184DC2",
".. c #1653C4",
"X. c #1656CA",
"o. c #1758CE",
"O. c #1A56C4",
"+. c #1B5BCD",
"@. c #1759D1",
"#. c #1854DE",
"$. c #185BD4",
"%. c #195EDC",
"&. c #0F5DE9",
"*. c #1961E3",
"=. c #1A64EB",
"-. c #1F69EF",
";. c #1669FB",
":. c #1B66F2",
">. c #1B69F5",
",. c #1C6BFB",
"<. c #215ECB",
"1. c #205BC3",
"2. c #205FD0",
"3. c #2A55D8",
"4. c #2D67CC",
"5. c #2060D5",
"6. c #2866D6",
"7. c #2365DD",
"8. c #376BC2",
"9. c #336DD4",
"0. c #3E72CB",
"q. c #3772DD",
"w. c #3C73D3",
"e. c #3B75DF",
"r. c #2067E9",
"t. c #206BEF",
"y. c #296CE6",
"u. c #2968ED",
"i. c #2165E1",
"p. c #206AF2",
"a. c #226FFC",
"s. c #2E72EE",
"d. c #2371FF",
"f. c #2C76FF",
"g. c #3572E3",
"h. c #3072E9",
"j. c #3A79EA",
"k. c #337BFF",
"l. c #473181",
"z. c #4C3485",
"x. c #603F8A",
"c. c #633695",
"v. c #7A3280",
"b. c #44468D",
"n. c #474394",
"m. c #405A84",
"M. c #435E8A",
"N. c #47549A",
"B. c #405D90",
"V. c #4E46B0",
"C. c #424BBB",
"Z. c #534BB3",
"A. c #47618C",
"S. c #4F688E",
"D. c #4F6B97",
"F. c #456393",
"G. c #536E9A",
"H. c #5C7CAC",
"J. c #5176B1",
"K. c #547EBF",
"L. c #604AAA",
"P. c #4776C2",
"I. c #4177CF",
"U. c #4075D2",
"Y. c #517EC4",
"T. c #427EEB",
"R. c #5A82BF",
"E. c #6C87AF",
"W. c #6184B9",
"Q. c #708DB8",
"!. c #7A93B6",
"~. c #4C80D4",
"^. c #5583CB",
"/. c #5B8AD6",
"(. c #5888D5",
"). c #4480EC",
"_. c #4C84EA",
"`. c #6086C1",
"'. c #6C8FC4",
"]. c #668BC3",
"[. c #618FD9",
"{. c #6E93CA",
"}. c #6791D1",
"|. c #6593DA",
" X c #6996DC",
".X c #6C99DD",
"XX c #7495C7",
"oX c #7A9AC9",
"OX c #739EDF",
"+X c #7B9FD5",
"@X c #76A0E0",
"#X c #7BA4E1",
"$X c #9F0508",
"%X c #980507",
"&X c #9D0A17",
"*X c #941D34",
"=X c #942023",
"-X c #A00F18",
";X c #AE142D",
":X c #AF1A3B",
">X c #A91D36",
",X c #B41027",
"<X c #A8223A",
"1X c #A3233E",
"2X c #851F4D",
"3X c #9D1C47",
"4X c #882354",
"5X c #982542",
"6X c #912B5E",
"7X c #9D2157",
"8X c #902F6E",
"9X c #9C2B61",
"0X c #A61E50",
"qX c #B41941",
"wX c #AF204B",
"eX c #AF2550",
"rX c #B93245",
"tX c #CD0504",
"yX c #DC0505",
"uX c #D60B16",
"iX c #D60D1B",
"pX c #D90B17",
"aX c #C91222",
"sX c #D51622",
"dX c #C72638",
"fX c #E20706",
"gX c #E7090D",
"hX c #EC0606",
"jX c #EC0709",
"kX c #EA080C",
"lX c #E40B12",
"zX c #F10606",
"xX c #F11011",
"cX c #845E96",
"vX c #829ABA",
"bX c #80A2D4",
"nX c #91B0DB",
"mX c #9EBADE",
"MX c #83AAE4",
"NX c #88AEE5",
"BX c #8BB1E6",
"VX c #91B5E9",
"CX c #97B9E7",
"ZX c #96B9EA",
"AX c #9ABCEB",
"SX c #A2BEE1",
"DX c #9FC0ED",
"FX c #A1C2ED",
"GX c #A8C7EF",
"HX c #A8C7F0",
"JX c #ACCAF1",
"KX c #B1CDF2",
"LX c #B7D2F4",
"PX c #B8D3F4",
"IX c #BFD9F7",
"UX c #C0D9F7",
"YX c None",
/* pixels */
"zXzXzXzXzXzXYXYXYXkX7X8X#.&.j.g.g.e.}  .6X3XkXYXYXYXYXYXYXYXYXYX",
"zXzXzXzXjXYXYXgXwXL.=.>.:.:.=.=.*.%.$.$.o. .x.:XkXYXYXYXYXYXYXYX",
"zXzXzXzXjXYX0XV.u.;.,.>.>.:.:.=.=.*.%.%.@.o.X.] z.iXYXYXYXYXYXYX",
"zXjXzXzXjXf :.>.>.>.,.,.>.,.>.>.:.=.*.%.$.o.X...L n.4XYXYXYXYXYX",
"zXjXYXjXf :.,.,.,.,.,.,.,.>.>.>.>.=.=.%.%.$.o...L L H s YXYXYXYX",
"YXYXYXf >.,.,.>.O.%.a.,.,.,.,.,.>.>.=.*.%.$.o.X...H H D 2XYXYXYX",
"YXYXeXp.,.,.,.:.7 ~ ' 6.d.,.,.,.>.>.=.=.*.%.@.X...J H F b.sXYXYX",
"YXiXZ.,.,.,.a.s._ W.H.F.` 5.,.,.,.>.>.=.*.%.@.o...L H F G i kXYX",
"YXc.>.,.,.,.f.T._ {.MX+XE.A.` $.:.>.>.=.*.%.$.o...L J F N B ;XYX",
"qX3.>.,.,.a.k._.M.XXBXVXCXnX!.G.W o.=.=.=.%.$.o.....J F N b u YX",
"9X:.>.,.,.,.k._.m.XXVXAXFXGXJXSXvXS.W O.%.%.$.o...L J F N v B >X",
"C.p.>.>.,.a.f.T.m.oXCXAXGXKXPXLXKXmX!.D.R J X.o.X.L H F N l m 5X",
"p.:.>.>.,.,.d.h.^ oXZXFXJXPXUXUXPXJXFXnXQ.M.I D L L J F N v j , ",
"T.=.>.>.,.,.,.r.~ oXZXFXJXPXUXUXPXJXFXAXBX+XH./ n N F F N M h T ",
"y.=.:.>.,.,.,.*.Q oXCXAXHXKXPXPXLXJXFXZXBXMXOX}.J.~ 2 z M l : ( ",
"i.*.=.>.>.>.,.*.Q XXVXZXFXHXJXJXGXFXAXVXBX#XOX.X|.^.) 3 k k : I ",
"7.*.=.:.:.>.,.*.8 {.BXVXAXAXFXGXAXAXCXBXMX@XOX|.^.8.P N v z ; Y ",
"q.%.*.*.=.:.>.*.8 '.MXBXVXZXCXZXZXVXBXMX#XOX/.0.[ H S N x h = ( ",
"9.$.%.*.*.=.:.%.8 ].#XMXNXBXBXBXBXBXMX#X[.I.1.J H F S v x : = * ",
" .@.%.%.*.*.*.$.7 ^.OX#X#XMXMXMXMX#X Xw.<...L H F D v v h ; * % ",
"6X+.@.$.%.%.%.o.7 R..X.XOXOX#XOX/.w.5.....L J H F N b k : = 1 *X",
"3X| o.@.$.$.%.X.7 K.}. X.X X(.w.5.o.X.L ..J H F N M k 4 ; - $ &X",
"YXz.{ X.o.o.@.O.8 ^././.I.w.+.o...O...L H H F D N x h : - > a YX",
"YX:X] L ....X.L U P.w.4.+.o.X.....L L J H F N N v j : ; & 5 -XYX",
"YXYXcXL L ....J V [ O.........L J J H F F N N l j : ; * & q fXYX",
"YXYXiXl.J J J J J L L L L L J J H H F F N M k j : ; * @ . $XYXYX",
"YXYXYXpXl.A H H J J H H H H H F F D N N M k h : ; * @ . w zXYXYX",
"YXYXYXYXuXy C F F F F H F F D S S N M k k j : = - & X e zXYXYXYX",
"YXYXYXYXYXuXd N.S N N N S N N v l k k h : ; - * + o =XzXYXYXYXYX",
"YXYXYXYXYXYXYXdXb.! b N l k x x j h : ; ; - < #   e hXYXYXYXYXYX",
"YXYXYXYXYXYXYXYXlXaXp 5 m E m 3 : 3 6 - + X 0 r tXzXYXYXYXYXYXYX",
"YXYXYXYXYXYXYXYXYXYXYX,X1XrX<Xg # o O t %X%XyXYXYXYXYXYXYXYXYXYX"
};
