/* XPM */
static char * multimedia_32x32_xpm[] = {
"48 48 290 2",
"  	c None",
". 	c #12100A",
"+ 	c #1E1B10",
"@ 	c #574E2F",
"# 	c #211D11",
"$ 	c #000000",
"% 	c #322E1B",
"& 	c #C4B069",
"* 	c #DFC978",
"= 	c #19160D",
"- 	c #020202",
"; 	c #040402",
"> 	c #1D1B10",
", 	c #8D7F4B",
"' 	c #EDD57F",
") 	c #EED680",
"! 	c #010101",
"~ 	c #393939",
"{ 	c #353535",
"] 	c #26241D",
"^ 	c #514A2E",
"/ 	c #DDC777",
"( 	c #050505",
"_ 	c #373737",
": 	c #626262",
"< 	c #5C5C5C",
"[ 	c #5D5D5D",
"} 	c #6D6D6D",
"| 	c #616161",
"1 	c #6A6A6A",
"2 	c #575757",
"3 	c #6B6B6B",
"4 	c #5B5B5B",
"5 	c #43423F",
"6 	c #322F21",
"7 	c #B8A563",
"8 	c #080808",
"9 	c #5A5A5A",
"0 	c #636363",
"a 	c #FFFFFF",
"b 	c #7F7F7F",
"c 	c #808080",
"d 	c #595959",
"e 	c #666666",
"f 	c #B5B5B5",
"g 	c #AAAAAA",
"h 	c #696969",
"i 	c #7D7D7D",
"j 	c #D4D4D4",
"k 	c #4B483F",
"l 	c #7F7347",
"m 	c #EBD37E",
"n 	c #181818",
"o 	c #797979",
"p 	c #838383",
"q 	c #606060",
"r 	c #ACACAC",
"s 	c #777777",
"t 	c #76746E",
"u 	c #58513A",
"v 	c #D7C173",
"w 	c #EDD67F",
"x 	c #E2CC79",
"y 	c #4D4C4A",
"z 	c #312E21",
"A 	c #AF9E60",
"B 	c #EDD580",
"C 	c #ECD47E",
"D 	c #121009",
"E 	c #171717",
"F 	c #6F6F6F",
"G 	c #707070",
"H 	c #646464",
"I 	c #2E2C23",
"J 	c #716740",
"K 	c #E8D17D",
"L 	c #EDD680",
"M 	c #DEC877",
"N 	c #19150D",
"O 	c #5E5E5E",
"P 	c #4A4A4A",
"Q 	c #484848",
"R 	c #302F29",
"S 	c #3D3824",
"T 	c #CFBA6F",
"U 	c #D0BC70",
"V 	c #90824E",
"W 	c #464646",
"X 	c #474747",
"Y 	c #0C0C0C",
"Z 	c #0F0F0F",
"` 	c #121212",
" .	c #141414",
"..	c #131313",
"+.	c #060606",
"@.	c #070707",
"#.	c #0A0A0A",
"$.	c #0D0D0D",
"%.	c #100F0E",
"&.	c #201D12",
"*.	c #9D8E54",
"=.	c #ECD47F",
"-.	c #837646",
";.	c #13110A",
">.	c #978751",
",.	c #EED57F",
"'.	c #101010",
").	c #111111",
"!.	c #211F15",
"~.	c #635936",
"{.	c #E4CD7A",
"].	c #BFAB66",
"^.	c #292516",
"/.	c #0B0A06",
"(.	c #6F643B",
"_.	c #1D1B15",
":.	c #332E1C",
"<.	c #C6B26A",
"[.	c #E1CA79",
"}.	c #554C2D",
"|.	c #15130B",
"1.	c #75693E",
"2.	c #252214",
"3.	c #94854F",
"4.	c #1D1A0F",
"5.	c #030202",
"6.	c #766B3F",
"7.	c #2C2818",
"8.	c #CBB66D",
"9.	c #322D1B",
"0.	c #0E0C08",
"a.	c #090909",
"b.	c #E7CF7C",
"c.	c #635935",
"d.	c #17150C",
"e.	c #040404",
"f.	c #A59459",
"g.	c #201D11",
"h.	c #050503",
"i.	c #D4BF72",
"j.	c #3C3620",
"k.	c #110F09",
"l.	c #796E41",
"m.	c #585030",
"n.	c #EAD27D",
"o.	c #75693F",
"p.	c #18160D",
"q.	c #28261A",
"r.	c #2B2618",
"s.	c #302C1B",
"t.	c #272317",
"u.	c #1F1C13",
"v.	c #B4A260",
"w.	c #EDD57E",
"x.	c #5F5633",
"y.	c #423C23",
"z.	c #070704",
"A.	c #262318",
"B.	c #625835",
"C.	c #DCC676",
"D.	c #AF9D5E",
"E.	c #91824D",
"F.	c #DAC374",
"G.	c #010100",
"H.	c #574F2E",
"I.	c #413B23",
"J.	c #030303",
"K.	c #232117",
"L.	c #B2A05F",
"M.	c #E9D27D",
"N.	c #D9C374",
"O.	c #4E472A",
"P.	c #312C1A",
"Q.	c #2D2B25",
"R.	c #756A3F",
"S.	c #DBC575",
"T.	c #18150D",
"U.	c #242216",
"V.	c #EAD37E",
"W.	c #E2CB79",
"X.	c #312D1B",
"Y.	c #E8D17C",
"Z.	c #0C0A06",
"`.	c #4B442A",
" +	c #EED67F",
".+	c #DAC475",
"++	c #2E2A1A",
"@+	c #A69659",
"#+	c #080805",
"$+	c #232116",
"%+	c #E6CE7B",
"&+	c #5C5231",
"*+	c #1A160D",
"=+	c #5A5231",
"-+	c #CDB96E",
";+	c #16140C",
">+	c #2A2516",
",+	c #242117",
"'+	c #91824E",
")+	c #D8C274",
"!+	c #282315",
"~+	c #37301D",
"{+	c #1E1C14",
"]+	c #BEAB66",
"^+	c #8B7C4A",
"/+	c #1A170E",
"(+	c #040201",
"_+	c #19160E",
":+	c #0C0C0A",
"<+	c #544B2D",
"[+	c #110F0A",
"}+	c #1F1C11",
"|+	c #1E1B12",
"1+	c #50472A",
"2+	c #95854F",
"3+	c #C3AF69",
"4+	c #998A52",
"5+	c #544C2D",
"6+	c #0B0B0B",
"7+	c #272417",
"8+	c #C5B16A",
"9+	c #1A180E",
"0+	c #D3BE71",
"a+	c #534B2C",
"b+	c #676667",
"c+	c #454342",
"d+	c #887B4B",
"e+	c #4D4529",
"f+	c #494949",
"g+	c #717071",
"h+	c #747374",
"i+	c #5F5E5F",
"j+	c #38362E",
"k+	c #D1BC70",
"l+	c #4A4428",
"m+	c #535353",
"n+	c #747474",
"o+	c #5E5D5E",
"p+	c #6E6D6E",
"q+	c #616061",
"r+	c #605F60",
"s+	c #5F5F5F",
"t+	c #5C5B5C",
"u+	c #EFEFEF",
"v+	c #908F90",
"w+	c #302D22",
"x+	c #403822",
"y+	c #A5A5A5",
"z+	c #8C8C8C",
"A+	c #737373",
"B+	c #8F8F8F",
"C+	c #DFDFDF",
"D+	c #595859",
"E+	c #E7E7E7",
"F+	c #939293",
"G+	c #6E6E6E",
"H+	c #929292",
"I+	c #302D24",
"J+	c #B9B9B9",
"K+	c #E8E8E8",
"L+	c #F7F7F7",
"M+	c #3D3B34",
"N+	c #C1AE68",
"O+	c #D0BB70",
"P+	c #17140C",
"Q+	c #B4B4B4",
"R+	c #898989",
"S+	c #737273",
"T+	c #D8D8D8",
"U+	c #E0E0E0",
"V+	c #5D5C5D",
"W+	c #565556",
"X+	c #5B5334",
"Y+	c #665C37",
"Z+	c #525252",
"`+	c #636263",
" @	c #686768",
".@	c #1A1811",
"+@	c #A9985B",
"@@	c #B7A563",
"#@	c #15130C",
"$@	c #16130B",
"%@	c #73673D",
"&@	c #7E7144",
"*@	c #16130C",
"=@	c #0B0A05",
"-@	c #685E38",
";@	c #3F3822",
">@	c #211E12",
",@	c #0C0B07",
"                                                                                                ",
"                                                                                                ",
"                                                                        .                       ",
"                                                                    + @ # $                     ",
"                                                                  % & * = $                     ",
"- - - - - - - - - - - - - - - - - - - - - - - - - - - - - - ; > , ' ) * = $ ! - - - - - - - - - ",
"~ ~ ~ ~ ~ ~ ~ ~ ~ ~ ~ ~ ~ ~ ~ ~ ~ ~ ~ ~ ~ ~ ~ ~ ~ ~ ~ ~ { ] ^ / ) ) ) * = ( _ ~ ~ ~ ~ ~ ~ ~ ~ ~ ",
": < < < [ } < < < < | 1 2 < < 2 3 : < < < [ } 4 < < < 5 6 7 ) ) ) ) ) * = 8 9 } [ < < < : 1 2 < ",
"0 a a a b } c a a a d e f a a g h 0 a a a c } i a j k l m ) ) ) ) ) ) * = n o } p a a a q e r a ",
"0 a a a b } c a a a d e f a a g h 0 a a a c } s t u v ) ) ) ) ) ) ' w x = n o } p a a a q e r a ",
"0 a a a b } c a a a d e f a a g h 0 a a a c y z A ) ) ) ) ) ) ) ) B ) C D E o } p a a a q e r a ",
": F F F 0 } | G G G q h H G G : 3 : G G | I J K ) ) ) ) ) ) ) ) ) L ) M N ( O } : G G G : h 0 F ",
"P P P P P P P P P P P P P P P P P P Q R S T ) ) ) ) ) ) ) ) ) ) U V ) m = $ W X X X X X X X X X ",
"Y Z `  . . ...` Z +.- ( @.#.Y $.Z %.&.*.) ) ) ) ) ) ) ) ) ) =.-.;.>.,.K = $ +.#.$.'.).`  . ...).",
"                    $           !.~.{.) ) ) ) ) ) ) ) ) ) ].^./.$ (.) * = $                     ",
"                    $       _.:.<.) ) ) ) ) ) ) ) ) ) [.}.|.$ $ - 1.) * = $                     ",
"                    $       2.) ) ) ) ) ) ) ) ) ) ) 3.4.5.$ -     6.) * = $                     ",
"                    $       7.) ) ) ) ) ) ) ) ) 8.9.0.$ ! a.      6.) * = $                     ",
"                    $       7.) ) ) ) ) ) ) b.c.d.$ $ e.          6.) * = $                     ",
"                    $       7.) ) ) ) ) ) f.g.h.$ - n             6.) * = $                     ",
"                    $       7.) ) ) ) i.j.k.$ ! a.                l.,.* = $                     ",
"                    $       m.w w n.o.p.$ $ e.          q.r.s.t.u.v.) w.= $                     ",
"                    $       x.) ) y.z.$ - ).        A.B.C.) ) m D.E.) F.G.$                     ",
"                    $       H.) ) I.$ J.          K.L.) ) ) ) ) ) M.) N.$ $                     ",
"                    $       O.) ) P.$ E         Q.R.) ) ) ) ) ) ) ,.) S.$ $                     ",
"                    $       % w w T.$ E         U.V.) ) ) ) ) ) ) ,.) W.$ $                     ",
"                    $       X.) ) T.$ E         X.) ) ) ) ) ) ) ) ,.) Y.Z.$                     ",
"                    $       X.) ) T.$ E         `.) ) ) ) ) ) ) )  +w .+p.$                     ",
"                    $       X.) ) T.$ E         ++) ) ) ) ) ) ) ) ) ) @+#+$                     ",
"                    $       X.) ) T.$ E         $+%+) ) ) ) ) ) ) ) ) &+$ $                     ",
"                    $       X.) ) *+$ n           =+) ) ) ) ) ) ) ) -+;+$ $                     ",
"                    $       X.) ) >+$             ,+'+) ) ) ) ) ) )+!+$ $ $                     ",
"                    $       I.,.,.~+$               {+j.]+M.) )+^+/+$ $ $                       ",
"                    (+_+:+  c.) ) <+$                 ..[+/+}+;+h.$ $ $                         ",
"                |+1+2+3+4+5+}.) ) <+$                     6+J.- - e.                            ",
"              7+8+) ) ) ) ) i.) ) <+$                                                           ",
"+.8 a.#.#.a.9+0+) ) ) ) ) )  +) ) a+$ @.#.6+6+6+6+6+#.a.a.a.@.+.+.e.e.- $ $ J.e.+.8 8 a.a.a.a.8 ",
"b+b+b+b+b+c+d+) ) ) ) ) ) )  +) ) e+$ f+b+b+b+b+b+b+b+b+b+b+b+b+b+b+b+b+b+b+b+b+b+b+b+b+b+b+b+b+",
"q g+h+h+i+j+k+) ) ) ) ) ) )  +) ) l+$ m+n+o+p+q+n+n+n+q+p+[ n+n+} r+| F n+n+s+p+r+n+n+n+q+p+O h+",
"t+u+a a v+w+) ) ) ) ) ) ) ) '  + +x+$ y+a z+p+A+a a a g+p+B+a a C+D+t+E+a a F+p+G+a a a g+p+H+a ",
"t+u+a a v+I+V.) ) ) ) ) ) ) ) ) ) + - J+a z+p+A+a a a g+p+B+a a C+D+t+E+a a F+p+G+a a a g+p+H+a ",
"t+K+L+L+z+M+N+) ) ) ) ) ) ) ) ) O+P+a.Q+L+R+p+S+L+L+L+G p+z+L+L+T+D+t+U+L+L+B+p+p+L+L+L+G p+B+L+",
"b+4 4 4 V+W+X+) ) ) ) ) ) ) ) ) Y+h.8 Z+t+t+p+`+t+t+t+`+p+t+t+t+t+ @ @t+t+t+t+p+`+t+t+t+`+p+t+4 ",
"n n n n n n .@+@) ) ) ) ) ) ) @@#@$ - n n n n n n n n n n n n n n n n n n n n n n n n n n n n n ",
"              $@%@m ) ) ) ' &@*@$ $ $                                                           ",
"                =@}+j.-@;@>@,@$ $ $                                                             ",
"                    $ $ $ $ $ $                                                                 ",
"                                                                                                "};
