/* XPM */
static char * office_32x32_xpm[] = {
"48 48 143 2",
"  	c None",
". 	c #000000",
"+ 	c #393939",
"@ 	c #4E4E4E",
"# 	c #7C7C7C",
"$ 	c #C9C9C9",
"% 	c #0B0B0B",
"& 	c #010101",
"* 	c #5D5B56",
"= 	c #98948C",
"- 	c #9D9990",
"; 	c #9B978E",
"> 	c #66645E",
", 	c #1D1C1A",
"' 	c #0F0F0F",
") 	c #191919",
"! 	c #11110F",
"~ 	c #625F59",
"{ 	c #938F86",
"] 	c #9B968E",
"^ 	c #65625D",
"/ 	c #070706",
"( 	c #353431",
"_ 	c #BAB5AB",
": 	c #B4AFA5",
"< 	c #2B2B2A",
"[ 	c #9C9C9C",
"} 	c #9A9A9A",
"| 	c #454544",
"1 	c #96928A",
"2 	c #494743",
"3 	c #575450",
"4 	c #474746",
"5 	c #FEFEFE",
"6 	c #717070",
"7 	c #686660",
"8 	c #464645",
"9 	c #F8F8F8",
"0 	c #F7F7F7",
"a 	c #F6F6F6",
"b 	c #F5F5F5",
"c 	c #F4F4F4",
"d 	c #F3F3F3",
"e 	c #F2F2F2",
"f 	c #6C6B6B",
"g 	c #3B3B3A",
"h 	c #C7C7C7",
"i 	c #C6C6C6",
"j 	c #C5C5C5",
"k 	c #C4C4C4",
"l 	c #C3C3C3",
"m 	c #C2C2C2",
"n 	c #C1C1C1",
"o 	c #595858",
"p 	c #2A2929",
"q 	c #7E7E7E",
"r 	c #7D7D7D",
"s 	c #7B7B7B",
"t 	c #7A7A7A",
"u 	c #797979",
"v 	c #3A3A3A",
"w 	c #B7B2A8",
"x 	c #4C4A47",
"y 	c #494744",
"z 	c #4B4946",
"A 	c #A6A198",
"B 	c #7A7770",
"C 	c #464441",
"D 	c #22211F",
"E 	c #161614",
"F 	c #0C0C0B",
"G 	c #A7A299",
"H 	c #353330",
"I 	c #B5B0A6",
"J 	c #201F1E",
"K 	c #464646",
"L 	c #828282",
"M 	c #A6A6A6",
"N 	c #A7A7A7",
"O 	c #868686",
"P 	c #4C4C4C",
"Q 	c #595752",
"R 	c #040404",
"S 	c #B0B0B0",
"T 	c #FFFFFF",
"U 	c #C0C0C0",
"V 	c #0B0B0A",
"W 	c #939393",
"X 	c #A29E95",
"Y 	c #D7D7D7",
"Z 	c #F0F0F0",
"` 	c #87847C",
" .	c #050505",
"..	c #1C1C1C",
"+.	c #85817A",
"@.	c #070707",
"#.	c #B2B2B2",
"$.	c #808080",
"%.	c #818181",
"&.	c #838383",
"*.	c #848484",
"=.	c #858585",
"-.	c #878787",
";.	c #BCBCBC",
">.	c #1F1F1F",
",.	c #E3E3E3",
"'.	c #E1E1E1",
").	c #E7E7E7",
"!.	c #CFCFCF",
"~.	c #CECECE",
"{.	c #CDCDCD",
"].	c #CCCCCC",
"^.	c #CBCBCB",
"/.	c #CACACA",
"(.	c #C8C8C8",
"_.	c #DFDFDF",
":.	c #ADADAD",
"<.	c #787878",
"[.	c #7F7F7F",
"}.	c #A8A8A8",
"|.	c #959595",
"1.	c #474747",
"2.	c #4E4C48",
"3.	c #111110",
"4.	c #AEA9A0",
"5.	c #989898",
"6.	c #505050",
"7.	c #969696",
"8.	c #060606",
"9.	c #3A3835",
"0.	c #292826",
"a.	c #FCFCFC",
"b.	c #020202",
"c.	c #101010",
"d.	c #BFBFBF",
"e.	c #D9D9D9",
"f.	c #FDFDFD",
"g.	c #4B4B4B",
"h.	c #E5E5E5",
"i.	c #595959",
"j.	c #3E3E3E",
"k.	c #3F3F3F",
"l.	c #202020",
"                                    . . . .                                                     ",
"        . . . . . . . . . . . . . . . + @ . . . . . . . . . . . . . . .                         ",
"      . . . . . . . . . . . . . . . . # $ % . . . . . . . . . . . . . . . .                     ",
"    . & * = - - - - - ; > > > > > , . ' ) . ! ~ > > > > { - - - - - ] ^ / .                     ",
"    . ( _ _ _ _ _ _ _ : < [ [ [ [ } } } } } } [ [ [ [ | 1 _ _ _ _ _ _ _ 2 . .                   ",
"    . 3 _ _ _ _ _ _ _ : 4 5 5 5 5 5 5 5 5 5 5 5 5 5 5 6 1 _ _ _ _ _ _ _ 7 . .                   ",
"    . 3 _ _ _ _ _ _ _ : 8 9 0 0 a a a b b c c d d e e f 1 _ _ _ _ _ _ _ 7 . .                   ",
"    . 3 _ _ _ _ _ _ _ : g h i i j j k k l l l m m n n o 1 _ _ _ _ _ _ _ 7 . .                   ",
"    . 3 _ _ _ _ _ _ _ : p q q q r r # # # s s t t u u v 1 _ _ _ _ _ _ _ 7 . .                   ",
"    . 3 _ _ _ _ _ _ _ w x y y y y y y y y y y y y y y z A _ _ _ _ _ _ _ 7 . .                   ",
"    . 3 _ _ _ _ _ _ _ _ _ _ _ _ _ _ _ _ _ _ _ _ _ _ _ _ _ _ _ _ _ _ _ _ 7 . .                   ",
"    . 3 _ _ _ _ _ _ _ _ _ _ _ _ _ _ _ _ _ _ _ _ _ _ _ _ _ _ _ _ _ _ _ _ 7 . .                   ",
"    . 3 _ _ _ _ _ _ _ _ _ _ _ B C D E E E E E E E E E E E E E E E E E E F . . . . .             ",
"    . 3 _ _ _ _ _ _ _ _ _ G H . . . . . . . . . . . . . . . . . . . . . . . . . . . . .         ",
"    . 3 _ _ _ _ _ _ _ _ I J . . K L M N N N N N N N N N N N N N N N N N N N N N O P & . .       ",
"    . 3 _ _ _ _ _ _ _ _ Q . R S T T T T T T T T T T T T T T T T T T T T T T T T T T U % . .     ",
"    . 3 _ _ _ _ _ _ _ _ V . s T T T T T T T T T T T T T T T T T T T T T T T T T T T T W . .     ",
"    . 3 _ _ _ _ _ _ _ X . . Y T T T T T T T T T T T T T T T T T T T T T T T T T T T T Z & .     ",
"    . 3 _ _ _ _ _ _ _ ` .  .5 T T T T T T T T T T T T T T T T T T T T T T T T T T T T T ... .   ",
"    . 3 _ _ _ _ _ _ _ +.. @.T T T #.$.$.%.%.%.L L L &.&.&.*.*.*.=.=.=.O O -.-.-.;.T T T >.. .   ",
"    . 3 _ _ _ _ _ _ _ +.. @.T T T ,.h h i i i j j j k k k l l l m m m n n n U U '.T T T >.. .   ",
"    . 3 _ _ _ _ _ _ _ +.. @.T T T T T T T T T T T T T T T T T T T T T T T T T T T T T T >.. .   ",
"    . 3 _ _ _ _ _ _ _ +.. @.T T T T T T T T T T T T T T T T T T T T T T T T T T T T T T >.. .   ",
"    . 3 _ _ _ _ _ _ _ +.. @.T T T T T T T T T T T T T T T T T T T T T T T T T T T T T T >.. .   ",
"    . 3 _ _ _ _ _ _ _ +.. @.T T T T T T T T T T T T T T T T T T T T T T T T T T T T T T >.. .   ",
"    . 3 _ _ _ _ _ _ _ +.. @.T T T ).!.!.~.~.{.{.{.].].^.^./././.$ $ (.(._.T T T T T T T >.. .   ",
"    . 3 _ _ _ _ _ _ _ +.. @.T T T :.<.<.u u t t t s s # # r r r q q [.[.}.T T T T T T T >.. .   ",
"    . 3 _ _ _ _ _ _ _ +.. @.T T T T T T T T T T T T T T T T T T T T T T T T T T T T T T >.. .   ",
"    . 3 _ _ _ _ _ _ _ +.. @.T T T T T T T T T T T T T T T T T T T T T T T T T T T T T T >.. .   ",
"    . 3 _ _ _ _ _ _ _ +.. @.T T T T T T T T T T T T T T T T T T T T T T T T T T T T T T >.. .   ",
"    . 3 _ _ _ _ _ _ _ +.. @.T T T T T T T T T T T T T T T T T T T T T T T T T T T T T T >.. .   ",
"    . 3 _ _ _ _ _ _ _ +.. @.T T T T T T T T T T T T T T T T T T T T T T T T T T T T T T >.. .   ",
"    . 3 _ _ _ _ _ _ _ +.. @.T T T |.1.1.1.1.1.1.1.1.1.1.1.1.1.1.1.1.1.1.-.T T T T T T T >.. .   ",
"    . 3 _ _ _ _ _ _ _ +.. @.T T T T T T T T T T T T T T T T T T T T T T T T T T T T T T >.. .   ",
"    . 3 _ _ _ _ _ _ _ +.. @.T T T T T T T T T T T T T T T T T T T T T T T T T T T T T T >.. .   ",
"    . 3 _ _ _ _ _ _ _ +.. @.T T T T T T T T T T T T T T T T T T T T T T T T T T T T T T >.. .   ",
"    . 3 _ _ _ _ _ _ _ +.. @.T T T T T T T T T T T T T T T T T T T T T T T T T T T T T T >.. .   ",
"    . 2._ _ _ _ _ _ _ +.. @.T T T T T T T T T T T T T T T T T T T T T T T T T T T T T T >.. .   ",
"    . 3.4._ _ _ _ _ _ +.. @.T T T 5.6.6.6.6.6.6.6.6.6.6.6.6.6.6.6.6.6.6.7.T T T T T T T >.. .   ",
"    . . 8.( 9.9.9.9.9.0.. @.T T T a.0 0 0 0 0 0 0 0 0 0 0 0 0 0 0 0 0 0 a.T T T T T T T >.. .   ",
"      . . . . . . . . . . b.c T T T T T T T T T T T T T T T T T T T T T T T T T T T T T c.. .   ",
"          . . . . . . . . . d.T T T T T T T T T T T T T T T T T T T T T T T T T T T T e.. .     ",
"                        . . v f.T T T T T T T T T T T T T T T T T T T T T T T T T T T @ . .     ",
"                          . . g._.T T T T T T T T T T T T T T T T T T T T T T T T h.i.. . .     ",
"                          . . . . ..j.k.k.k.k.k.k.k.k.k.k.k.k.k.k.k.k.k.k.k.k.k.l.. . . .       ",
"                              . . . . . . . . . . . . . . . . . . . . . . . . . . . . .         ",
"                                  . . . . . . . . . . . . . . . . . . . . . . . . .             ",
"                                                                                                "};
