/* XPM */
static char * parted_xpm[] = {
"48 48 118 2",
"  	c None",
". 	c #000000",
"+ 	c #030303",
"@ 	c #080808",
"# 	c #4F4F4F",
"$ 	c #4D4D4D",
"% 	c #1A1A1A",
"& 	c #F5F5F5",
"* 	c #EDEDED",
"= 	c #181818",
"- 	c #E4E5E5",
"; 	c #CECFCF",
"> 	c #8E8E8E",
", 	c #DBDCDC",
"' 	c #DDDEDE",
") 	c #161717",
"! 	c #D3D4D5",
"~ 	c #9E9E9F",
"{ 	c #060606",
"] 	c #373738",
"^ 	c #363636",
"/ 	c #BFC0C0",
"( 	c #CCCDCE",
"_ 	c #161616",
": 	c #D0D1D2",
"< 	c #9B9C9D",
"[ 	c #171717",
"} 	c #B8B8B8",
"| 	c #B2B2B2",
"1 	c #BCBDBE",
"2 	c #C9CACB",
"3 	c #CFD0D1",
"4 	c #9B9B9C",
"5 	c #141414",
"6 	c #909090",
"7 	c #8B8B8B",
"8 	c #BBBCBD",
"9 	c #C9C9CA",
"0 	c #CECFD0",
"a 	c #9A9B9B",
"b 	c #131313",
"c 	c #7F7F7F",
"d 	c #7B7B7B",
"e 	c #BABBBC",
"f 	c #C8C9C9",
"g 	c #CDCECF",
"h 	c #999A9B",
"i 	c #111111",
"j 	c #6E6E6E",
"k 	c #6B6B6B",
"l 	c #B9BABB",
"m 	c #C7C8C9",
"n 	c #98999A",
"o 	c #0E0E0E",
"p 	c #575757",
"q 	c #555555",
"r 	c #B8B9BA",
"s 	c #C6C7C8",
"t 	c #CBCCCD",
"u 	c #989899",
"v 	c #B7B8B9",
"w 	c #C5C6C7",
"x 	c #CACBCC",
"y 	c #BDBEBF",
"z 	c #C4C5C6",
"A 	c #C3C4C5",
"B 	c #151616",
"C 	c #C8C9CA",
"D 	c #898A8A",
"E 	c #525353",
"F 	c #6C6D6D",
"G 	c #C2C3C4",
"H 	c #151516",
"I 	c #C7C8CA",
"J 	c #464647",
"K 	c #AFAFAF",
"L 	c #C1C1C1",
"M 	c #303030",
"N 	c #C1C2C4",
"O 	c #C6C7C9",
"P 	c #434343",
"Q 	c #B6B6B6",
"R 	c #C9C9C9",
"S 	c #C0C1C3",
"T 	c #151515",
"U 	c #C5C6C8",
"V 	c #3D3E3E",
"W 	c #868686",
"X 	c #949494",
"Y 	c #2A2A2A",
"Z 	c #BFC0C2",
"` 	c #C4C5C7",
" .	c #3C3C3D",
"..	c #767676",
"+.	c #828282",
"@.	c #272727",
"#.	c #BEBFC1",
"$.	c #C3C4C6",
"%.	c #3A3A3B",
"&.	c #656565",
"*.	c #707070",
"=.	c #252525",
"-.	c #BDBEC0",
";.	c #C2C3C5",
">.	c #383838",
",.	c #3B3B3B",
"'.	c #414141",
").	c #1C1C1C",
"!.	c #BCBDBF",
"~.	c #969698",
"{.	c #686869",
"].	c #7F8081",
"^.	c #BBBCBE",
"/.	c #BABBBD",
"(.	c #0A0A0A",
"_.	c #5F6061",
":.	c #5C5D5E",
"<.	c #010101",
"                                                                                                ",
"                                                                                                ",
"                                                                                                ",
"                                                                                                ",
"                                                                                                ",
"                                                                                                ",
"                                                                                                ",
"                                                                                                ",
"                                                                                                ",
"                                                                                                ",
"                                                                                                ",
"                                                                                                ",
"  . + + + + + + + + + + + + + + + + + + + + + + + + + + + + + + + + + + + + + + + + + + + +     ",
"  . @ # # # # # # # # # # # # # # # # # # # # # # # # # # # # # # # # # # # # # # # # # $ . .   ",
"  . % & & & & & & & & & & & & & & & & & & & & & & & & & & & & & & & & & & & & & & & & & * . .   ",
"  . = - ; > > > > > > > > > > > > > > > > > > > > > > > > > > > > > > > > > > > > > > , ' . .   ",
"  . ) ! ~ { ] ] ] ] ] ] ] ] ] ] ] ] ] ] ] ] ] ] ] ] ] ] ] ] ] ] ] ] ] ] ] ] ] ] ] ^ . / ( . .   ",
"  . _ : < [ } } } } } } } } } } } } } } } } } } } } } } } } } } } } } } } } } } } | . 1 2 . .   ",
"  . _ 3 4 5 6 6 6 6 6 6 6 6 6 6 6 6 6 6 6 6 6 6 6 6 6 6 6 6 6 6 6 6 6 6 6 6 6 6 6 7 . 8 9 . .   ",
"  . _ 0 a b c c c c c c c c c c c c c c c c c c c c c c c c c c c c c c c c c c c d . e f . .   ",
"  . _ g h i j j j j j j j j j j j j j j j j j j j j j j j j j j j j j j j j j j j k . l m . .   ",
"  . _ ( n o p p p p p p p p p p p p p p p p p p p p p p p p p p p p p p p p p p p q . r s . .   ",
"  . _ t u . . . . . . . . . . . . . . . . . . . . . . . . . . . . . . . . . . . . . . v w . .   ",
"  . _ x s y y y y y y y y y y y y y y y y y y y y y y y y y y y y y y y y y y y y y y 2 z . .   ",
"  . _ 2 2 2 2 2 2 2 2 2 2 2 2 2 2 2 2 2 2 2 2 2 2 2 2 2 2 2 2 2 2 2 2 2 2 2 2 2 2 2 2 2 A . .   ",
"  . B C C C C C C C C C C C C C C C C C C C C C C C C C C C C C C C C C D E E E E E F C G . .   ",
"  . H I I I I I I I I I I I I I I I I I I I I I I I I I I I I I I I I I J K L L L L M I N . .   ",
"  . H O O O O O O O O O O O O O O O O O O O O O O O O O O O O O O O O O P Q R R R R M O S . .   ",
"  . T U U U U U U U U U U U U U U U U U U U U U U U U U U U U U U U U U V W X X X X Y U Z . .   ",
"  . T ` ` ` ` ` ` ` ` ` ` ` ` ` ` ` ` ` ` ` ` ` ` ` ` ` ` ` ` ` ` ` ` `  ...+.+.+.+.@.` #.. .   ",
"  . T $.$.$.$.$.$.$.$.$.$.$.$.$.$.$.$.$.$.$.$.$.$.$.$.$.$.$.$.$.$.$.$.$.%.&.*.*.*.*.=.$.-.. .   ",
"  . T ;.;.;.;.;.;.;.;.;.;.;.;.;.;.;.;.;.;.;.;.;.;.;.;.;.;.;.;.;.;.;.;.;.>.,.'.'.'.'.).;.!.. .   ",
"  . T N N N N N N N N N N N N N N N N N N N N N N N N N N N N N N N N N ~.{.{.{.{.{.].N ^.. .   ",
"  . T S S S S S S S S S S S S S S S S S S S S S S S S S S S S S S S S S S S S S S S S S /.. .   ",
"  . (._._._._._._._._._._._._._._._._._._._._._._._._._._._._._._._._._._._._._._._._._.:.. .   ",
"  . . . . . . . . . . . . . . . . . . . . . . . . . . . . . . . . . . . . . . . . . . . . <..   ",
"                                                                                                ",
"                                                                                                ",
"                                                                                                ",
"                                                                                                ",
"                                                                                                ",
"                                                                                                ",
"                                                                                                ",
"                                                                                                ",
"                                                                                                ",
"                                                                                                ",
"                                                                                                ",
"                                                                                                "};
