/* XPM */
static char *xfce-unknown[] = {
/* columns rows colors chars-per-pixel */
"48 48 103 2",
"   c #000000",
".  c #070608",
"X  c #080709",
"o  c #0A0A0B",
"O  c #0F0E12",
"+  c #121213",
"@  c #151418",
"#  c #18171A",
"$  c #1A1A1D",
"%  c #1C1A21",
"&  c #201D26",
"*  c #232224",
"=  c #25232B",
"-  c #2A2A2A",
";  c #282631",
":  c #2D2C31",
">  c #2E2B38",
",  c #302E34",
"<  c #333333",
"1  c #34323C",
"2  c #3B3A3C",
"3  c #363241",
"4  c #3A3645",
"5  c #3D3949",
"6  c #413F47",
"7  c #413D4E",
"8  c #433E50",
"9  c #434244",
"0  c #434049",
"q  c #48464E",
"w  c gray30",
"e  c #494457",
"r  c #4A4559",
"t  c #4F4D54",
"y  c #4D485D",
"u  c #514E58",
"i  c #535353",
"p  c #56535E",
"a  c #5B5B5B",
"s  c #524C62",
"d  c #565168",
"f  c #59536B",
"g  c #5E5A66",
"h  c #605D69",
"j  c #625B75",
"k  c #646464",
"l  c #666668",
"z  c #6B6B6C",
"x  c #67607C",
"c  c #68617D",
"v  c #6E6D70",
"b  c #716F77",
"n  c #726F7C",
"m  c #707072",
"M  c #767479",
"N  c #797979",
"B  c #6C6582",
"V  c #6F6885",
"C  c #706886",
"Z  c #746D8C",
"A  c #777382",
"S  c #7A7684",
"D  c #7C7B81",
"F  c #7E7A89",
"G  c #7B7393",
"H  c #7E7698",
"J  c #827E8E",
"K  c #82799B",
"L  c #867DA1",
"P  c #887FA3",
"I  c #838383",
"U  c #85838C",
"Y  c #898989",
"T  c #8C8994",
"R  c #8F8C98",
"E  c #928E9B",
"W  c #949494",
"Q  c #93909C",
"!  c #9B9B9B",
"~  c #9794A1",
"^  c #9995A5",
"/  c #9C97AA",
"(  c #9E9AAA",
")  c #A19DAD",
"_  c #A29CB0",
"`  c #A4A4A4",
"'  c gray67",
"]  c #A6A1B5",
"[  c #A8A3B5",
"{  c #ABA6B8",
"}  c #ADA8BC",
"|  c #B7B7B7",
" . c gray",
".. c #B3ADC2",
"X. c #B6B0C6",
"o. c #C5C5C5",
"O. c #CACACA",
"+. c #D5D5D5",
"@. c gray86",
"#. c #EBEBEB",
"$. c #F3F3F3",
"%. c #FEFEFE",
"&. c None",
/* pixels */
"&.&.&.&.&.&.&.&.&.&.&.&.&.&.&.&.&.&.&.&.&.&.&.    &.&.&.&.&.&.&.&.&.&.&.&.&.&.&.&.&.&.&.&.&.&.&.",
"&.&.&.&.&.&.&.&.&.&.&.&.&.&.&.&.&.&.&.&.&.&.&.    &.&.&.&.&.&.&.&.&.&.&.&.&.&.&.&.&.&.&.&.&.&.&.",
"&.&.&.&.&.&.&.&.&.&.&.&.&.&.&.&.&.&.&.&.&.&.        &.&.&.&.&.&.&.&.&.&.&.&.&.&.&.&.&.&.&.&.&.&.",
"&.&.&.&.&.&.&.&.&.&.&.&.&.&.&.&.&.&.&.&.&.&.        &.&.&.&.&.&.&.&.&.&.&.&.&.&.&.&.&.&.&.&.&.&.",
"&.&.&.&.&.&.&.&.&.&.      &.&.&.&.&.&.&.&.    o ;     &.&.&.&.&.&.&.&.&.    &.&.&.&.&.&.&.&.&.&.",
"&.&.&.&.&.&.&.&.&.&.        &.&.&.&.&.&.&.    e B     &.&.&.&.&.&.&.        &.&.&.&.&.&.&.&.&.&.",
"&.&.&.&.&.&.&.&.&.&.&.          &.&.&.&.    . K P =     &.&.&.&.            &.&.&.&.&.&.&.&.&.&.",
"&.&.&.&.&.&.&.&.&.&.&.    <         &.&.    7 P L j     &.&.        $ +     &.&.&.&.&.&.&.&.&.&.",
"&.&.&.&.&.&.&.&.&.&.&.    o.` *           . G P P P $           + N %.o   &.&.&.&.&.&.&.&.&.&.&.",
"&.&.&.&.&.&.&.&.&.&.&.    I %.%.I +       3 P P P P f       . a $.%.#.    &.&.&.&.&.&.&.&.&.&.&.",
"&.&.&.&.&.&.&.&.&.&.&.    a %.%.%.$.k .   @ j P P Z ;     9 @.%.%.%.`     &.&.&.&.&.&.&.&.&.&.&.",
"&.&.&.&.&.&.&.&.&.&.&.    < %.%.%.%.o.k 6 .   = 3     1 a ! %.%.%.%.z     &.&.&.&.&.&.&.&.&.&.&.",
"&.&.&.&.&.&.&.&.&.&.&.&.  $ %.%.%.%.I k [ ] q     > ~ ..z z $.%.%.%.9     &.&.&.&.&.&.&.&.&.&.&.",
"&.&.&.&.&.&.&.&.&.&.&.&.  X %.%.%.+.k N X.X.X.^ J X...X.R l ` %.%.%.-     &.&.&.&.&.&.&.&.&.&.&.",
"&.&.&.&.&.&.&.&.&.&.&.&.    O.O.' N k _ X.X.X.X.X.X.X.X...z z `  .#.+   &.&.&.&.&.&.&.&.&.&.&.&.",
"&.&.&.&.&.&.&.              w l k l M X.X.X.X.X.X.X.X.X...Y l l l k               &.&.&.&.&.&.&.",
"&.&.                    .   t R ^ ] ..X.X.X.X.X.X.X.X.X.X.X.{ ( R M   .                     &.&.",
"&.&.        @ ; 7 s j H Z   u X.X.X.X.X.X.X.X.X.X.X.X.X.X.X.X.X.X.F   d K B d 8 > $ .       &.&.",
"&.&.&.      y L P P P P P X < X.X.X.X.X.X.X.X.X.X.X.X.X.X.X.X.X.X.h   B L P P P P c       &.&.&.",
"&.&.&.&.      s P P P P P % @ X.X.X.X.X.X.X.X.X.X.X.X.X.X.X.X.X.X.6   K P P P P B .     &.&.&.&.",
"&.&.&.&.&.      s P P P f   # X.X.X.X.X.X.X.X.X.X.X.X.X.X.X.X.X.X.6   5 P P P B .     &.&.&.&.&.",
"&.&.&.&.&.&.      d P f   + ( X.X.X.X.X.X.X.X.X.X.X.X.X.X.X.X.X.X...,   5 P C o     &.&.&.&.&.&.",
"&.&.&.&.&.&.&.      7 . O ( X.X.X.X.X.X.X.X.X.X.X.X.X.X.X.X.X.X.X.X...-   3 o     &.&.&.&.&.&.&.",
"&.&.&.&.&.&.&.&.      o ^ X.X.X.X.X.X.X.X.X.X.X.X.X.X.X.X.X.X.X.X.X.X.} =       &.&.&.&.&.&.&.&.",
"&.&.&.&.&.&.&.&.    . i / X.X.X.X.X.X.X.X.X.X.X.X.X.X.X.X.X.X.X.X.X.X.} l +     &.&.&.&.&.&.&.&.",
"&.&.&.&.&.&.&.      Y z k ( X.X.X.X.X.X.X.X.X.X.X.X.X.X.X.X.X.X.X.X.} z k ! #     &.&.&.&.&.&.&.",
"&.&.&.&.&.&.    X ! %.O.z k ) X.X.X.X.X.X.X.X.X.X.X.X.X.X.X.X.X.X.} z l ` %.+.+     &.&.&.&.&.&.",
"&.&.&.&.&.      Y %.%.%.O.k z X.X.X.X.X.X.X.X.X.X.X.X.X.X.X.X.X.X.D l ! %.%.%.O.+     &.&.&.&.&.",
"&.&.&.&.      Y %.%.%.%.%.m v X.X.X.X.X.X.X.X.X.X.X.X.X.X.X.X.X.X.U l #.%.%.%.%.O.o     &.&.&.&.",
"&.&.&.      m %.%.%.%.%.%.l D X.X.X.X.X.X.X.X.X.X.X.X.X.X.X.X.X.X.E k  .%.%.%.%.%.| o     &.&.&.",
"&.&.          . $ < i N ! k T X.X.X.X.X.X.X.X.X.X.X.X.X.X.X.X.X.X.) l Y Y a 2 * o           &.&.",
"&.&.                        # 2 p n / X.X.X.X.X.X.X.X.X.X.[ S g 6 *                         &.&.",
"&.&.&.&.&.&.&.&.&.          O .     # ..X.X.X.X.X.X.X.X...0       O .         &.&.&.&.&.&.&.&.&.",
"&.&.&.&.&.&.&.&.&.&.&.&.    K L C 5   A X.X.X.X.X.X.X.X.( . & C L P %   &.&.&.&.&.&.&.&.&.&.&.&.",
"&.&.&.&.&.&.&.&.&.&.&.&.  O L L P H . * X.X.X.^ R X.X.X.t   j P P P 3     &.&.&.&.&.&.&.&.&.&.&.",
"&.&.&.&.&.&.&.&.&.&.&.&.  = P P P P 5   J ) M l l z Q { . % P P P P e     &.&.&.&.&.&.&.&.&.&.&.",
"&.&.&.&.&.&.&.&.&.&.&.    5 L P P P Z   $ l l Y ! z k 2   f P P P P j     &.&.&.&.&.&.&.&.&.&.&.",
"&.&.&.&.&.&.&.&.&.&.&.    s P P L H 5     a @.%.%.#.Y .   = V P P P Z     &.&.&.&.&.&.&.&.&.&.&.",
"&.&.&.&.&.&.&.&.&.&.&.    j P K e .       - %.%.%.%.i         1 Z P P .   &.&.&.&.&.&.&.&.&.&.&.",
"&.&.&.&.&.&.&.&.&.&.&.    H f O       &.    ' %.%.$.o           . 8 K %   &.&.&.&.&.&.&.&.&.&.&.",
"&.&.&.&.&.&.&.&.&.&.&.    %         &.&.    < %.%.l     &.&.&.      o +     &.&.&.&.&.&.&.&.&.&.",
"&.&.&.&.&.&.&.&.&.&.&.          &.&.&.&.&.    o.%.+     &.&.&.&.            &.&.&.&.&.&.&.&.&.&.",
"&.&.&.&.&.&.&.&.&.&.        &.&.&.&.&.&.&.    2 M     &.&.&.&.&.&.&.        &.&.&.&.&.&.&.&.&.&.",
"&.&.&.&.&.&.&.&.&.&.    &.&.&.&.&.&.&.&.&.&.    +     &.&.&.&.&.&.&.&.&.    &.&.&.&.&.&.&.&.&.&.",
"&.&.&.&.&.&.&.&.&.&.&.&.&.&.&.&.&.&.&.&.&.&.        &.&.&.&.&.&.&.&.&.&.&.&.&.&.&.&.&.&.&.&.&.&.",
"&.&.&.&.&.&.&.&.&.&.&.&.&.&.&.&.&.&.&.&.&.&.        &.&.&.&.&.&.&.&.&.&.&.&.&.&.&.&.&.&.&.&.&.&.",
"&.&.&.&.&.&.&.&.&.&.&.&.&.&.&.&.&.&.&.&.&.&.&.    &.&.&.&.&.&.&.&.&.&.&.&.&.&.&.&.&.&.&.&.&.&.&.",
"&.&.&.&.&.&.&.&.&.&.&.&.&.&.&.&.&.&.&.&.&.&.&.    &.&.&.&.&.&.&.&.&.&.&.&.&.&.&.&.&.&.&.&.&.&.&."
};
