/* XPM */
static char * system_32x32_xpm[] = {
"48 48 317 2",
"  	c None",
". 	c #000000",
"+ 	c #2F2F2F",
"@ 	c #BABAB8",
"# 	c #959594",
"$ 	c #BBBBBA",
"% 	c #222222",
"& 	c #373736",
"* 	c #919191",
"= 	c #767676",
"- 	c #979797",
"; 	c #717171",
"> 	c #989897",
", 	c #292929",
"' 	c #A7A7A7",
") 	c #5E5E5E",
"! 	c #666666",
"~ 	c #656565",
"{ 	c #636363",
"] 	c #606060",
"^ 	c #575757",
"/ 	c #ABABAA",
"( 	c #DEDDDD",
"_ 	c #FAFAFA",
": 	c #FCFCFC",
"< 	c #F6F6F6",
"[ 	c #EAE9EA",
"} 	c #E7E6E7",
"| 	c #DDDDDB",
"1 	c #F8F8F8",
"2 	c #F5F4F5",
"3 	c #ECEBEC",
"4 	c #F7F6F7",
"5 	c #F7F7F7",
"6 	c #F2F1F2",
"7 	c #ECECEC",
"8 	c #F4F4F4",
"9 	c #F0EFF0",
"0 	c #EBEAEB",
"a 	c #F1F1F1",
"b 	c #F2F2F2",
"c 	c #F1F0F1",
"d 	c #EDECED",
"e 	c #E9E8E9",
"f 	c #EEEEEE",
"g 	c #EFEEEF",
"h 	c #EAEAEA",
"i 	c #E8E7E8",
"j 	c #868586",
"k 	c #262425",
"l 	c #7A7878",
"m 	c #707070",
"n 	c #2D2B2B",
"o 	c #918F8F",
"p 	c #8C8C8C",
"q 	c #444342",
"r 	c #53504D",
"s 	c #979596",
"t 	c #908F90",
"u 	c #CACACA",
"v 	c #3F3C3A",
"w 	c #696665",
"x 	c #9E9D9D",
"y 	c #A8A7A8",
"z 	c #E4E4E4",
"A 	c #3F3E3D",
"B 	c #5C5957",
"C 	c #7C7C7B",
"D 	c #C3C2C3",
"E 	c #8A8A8A",
"F 	c #6A6A6A",
"G 	c #2A2828",
"H 	c #D2D1D2",
"I 	c #E2E1E2",
"J 	c #9D9C9D",
"K 	c #373535",
"L 	c #6D6D6D",
"M 	c #DEDDDE",
"N 	c #5B5B5B",
"O 	c #C0BFC0",
"P 	c #A09FA0",
"Q 	c #808080",
"R 	c #BAB9BA",
"S 	c #575657",
"T 	c #B8B8B8",
"U 	c #A1A1A1",
"V 	c #595959",
"W 	c #D2D2D2",
"X 	c #DDDDDC",
"Y 	c #E3E2E3",
"Z 	c #646364",
"` 	c #8D8D8D",
" .	c #DBDBDA",
"..	c #181818",
"+.	c #747473",
"@.	c #111111",
"#.	c #0A0A0A",
"$.	c #545454",
"%.	c #535353",
"&.	c #484848",
"*.	c #0B0B0B",
"=.	c #0F0F0F",
"-.	c #EAEAE9",
";.	c #BABAB9",
">.	c #929291",
",.	c #A4A4A4",
"'.	c #A0A09F",
").	c #BDBDBD",
"!.	c #8C8C8B",
"~.	c #C1C1C0",
"{.	c #90908F",
"].	c #919190",
"^.	c #B5B5B4",
"/.	c #AAAAA9",
"(.	c #969696",
"_.	c #C0C0BF",
":.	c #8B8B8A",
"<.	c #BDBDBC",
"[.	c #9F9F9F",
"}.	c #E0E1DF",
"|.	c #92B392",
"1.	c #C5C8C7",
"2.	c #B2B7B6",
"3.	c #B4BAB9",
"4.	c #D1D3D2",
"5.	c #373737",
"6.	c #282828",
"7.	c #EFEFEF",
"8.	c #9B9B9B",
"9.	c #A6A6A7",
"0.	c #898989",
"a.	c #888888",
"b.	c #9E9E9E",
"c.	c #808081",
"d.	c #8C8C8D",
"e.	c #999999",
"f.	c #9C9C9D",
"g.	c #7E7E7E",
"h.	c #929293",
"i.	c #818181",
"j.	c #A1A1A2",
"k.	c #949494",
"l.	c #888889",
"m.	c #7D7D7D",
"n.	c #959595",
"o.	c #6BA06B",
"p.	c #0CDA0C",
"q.	c #BBC8BB",
"r.	c #5D7575",
"s.	c #496969",
"t.	c #DCDDDD",
"u.	c #456A6A",
"v.	c #637A7A",
"w.	c #5C5C5C",
"x.	c #4A4A4A",
"y.	c #C7C7C7",
"z.	c #B2B2B2",
"A.	c #B0B0B0",
"B.	c #CBCBCB",
"C.	c #9D9D9D",
"D.	c #CFCFCF",
"E.	c #A0A0A0",
"F.	c #C1C1C1",
"G.	c #A5A5A5",
"H.	c #CDCDCD",
"I.	c #9A9A9A",
"J.	c #ADADAD",
"K.	c #A6C3A6",
"L.	c #D6D8D8",
"M.	c #C2C8C8",
"N.	c #BCC2C2",
"O.	c #DADCDC",
"P.	c #858585",
"Q.	c #040404",
"R.	c #737373",
"S.	c #A2A2A2",
"T.	c #A8A8A8",
"U.	c #C0C0C0",
"V.	c #BCBCBC",
"W.	c #A3A3A3",
"X.	c #D7D7D7",
"Y.	c #DADADA",
"Z.	c #AEAEAE",
"`.	c #CFCFD0",
" +	c #C5C5C5",
".+	c #B1B1B1",
"++	c #DBDBDB",
"@+	c #B7B7B7",
"#+	c #F9F9F9",
"$+	c #BBBBBB",
"%+	c #D6D6D6",
"&+	c #ABABAB",
"*+	c #BABABA",
"=+	c #121212",
"-+	c #C4C4C4",
";+	c #969697",
">+	c #7D7D7E",
",+	c #818182",
"'+	c #959596",
")+	c #949495",
"!+	c #828282",
"~+	c #989898",
"{+	c #A6A6A6",
"]+	c #C3C3C3",
"^+	c #141414",
"/+	c #D4D4D4",
"(+	c #8B8B8B",
"_+	c #B3B3B3",
":+	c #B9B9B9",
"<+	c #939393",
"[+	c #BBBBBC",
"}+	c #909090",
"|+	c #EFEFEE",
"1+	c #101010",
"2+	c #CACAC9",
"3+	c #BFBFBE",
"4+	c #777776",
"5+	c #828281",
"6+	c #797978",
"7+	c #9B9B9A",
"8+	c #6F6F70",
"9+	c #79797A",
"0+	c #6F6F6E",
"a+	c #868686",
"b+	c #6E6E6E",
"c+	c #999998",
"d+	c #6C6C6C",
"e+	c #646464",
"f+	c #6F6F6F",
"g+	c #7B7B7B",
"h+	c #E1E1E0",
"i+	c #747474",
"j+	c #979796",
"k+	c #636362",
"l+	c #686869",
"m+	c #939392",
"n+	c #747475",
"o+	c #696969",
"p+	c #7A7A7B",
"q+	c #69696A",
"r+	c #787878",
"s+	c #676767",
"t+	c #5E5E5F",
"u+	c #7A7A7A",
"v+	c #626262",
"w+	c #686868",
"x+	c #7F7F7F",
"y+	c #1A1A1A",
"z+	c #0E0E0E",
"A+	c #DFDFDE",
"B+	c #838382",
"C+	c #878787",
"D+	c #8F8F8E",
"E+	c #ACACAB",
"F+	c #7E7E7D",
"G+	c #848484",
"H+	c #858584",
"I+	c #A2A2A1",
"J+	c #D2D2D1",
"K+	c #7A7A79",
"L+	c #AEAEAD",
"M+	c #343434",
"N+	c #252525",
"O+	c #DADAD9",
"P+	c #AFAFAF",
"Q+	c #888887",
"R+	c #8A8A8B",
"S+	c #C5C5C4",
"T+	c #D3D3D2",
"U+	c #8D8D8C",
"V+	c #9C9C9C",
"W+	c #414141",
"X+	c #D5D5D4",
"Y+	c #C2C2C1",
"Z+	c #797979",
"`+	c #A5A5A4",
" @	c #848483",
".@	c #818180",
"+@	c #91918F",
"@@	c #767675",
"#@	c #7D7D7C",
"$@	c #949493",
"%@	c #D5D5D3",
"&@	c #ACACAA",
"*@	c #A4A4A2",
"=@	c #BEBEBD",
"-@	c #C0C0BE",
";@	c #B1B1AF",
">@	c #D4D4D3",
",@	c #030303",
"'@	c #5F5F5E",
")@	c #D0D0CE",
"!@	c #A7A7A6",
"~@	c #89898A",
"{@	c #757575",
"]@	c #CFCFCE",
"^@	c #727272",
"/@	c #838383",
"(@	c #777777",
"_@	c #0D0D0D",
":@	c #080808",
"<@	c #B1B1B0",
"[@	c #777778",
"}@	c #898988",
"|@	c #CACAC8",
"1@	c #7C7C7C",
"2@	c #989896",
"3@	c #6E6E6D",
"4@	c #969695",
"5@	c #7F7F7E",
"6@	c #999997",
"7@	c #717170",
"8@	c #757574",
"9@	c #9B9B99",
"0@	c #A2A2A0",
"a@	c #A6A6A4",
"b@	c #0F0F0E",
"                                                                                                ",
"            . . . . . . . . . . . . . . . . . . . . . . . . . . . . . . . . . . .               ",
"            . + @ # # # # # # # # # # # # # # # # # # # # # # # # # # # # # # $ % .             ",
"            . & * = - - - - - - - - - - - - - - - - - - - - - - - - - - - - ; > , .             ",
"            . & ' ) ! ! ! ! ! ! ! ! ! ! ! ! ! ! ! ! ! ! ! ! ! ! ! ! ! ~ { ] ^ / , .             ",
"            . & ( _ : : : : : : : : : : : : : : : : : : : : : : : : < [ } } } | , .             ",
"            . & ( 1 _ _ _ _ _ _ _ _ _ _ _ _ _ _ _ _ _ _ _ _ _ _ 2 3 } } } } } | , .             ",
"            . & ( 4 1 1 1 1 1 1 1 1 1 1 1 1 1 1 1 1 1 1 5 6 7 } } } } } } } } | , .             ",
"            . & ( 2 < < < < < < < < < < < < < < < 8 9 0 } } } } } } } } } } } | , .             ",
"            . & ( a b b b b b b b b b b b b c d e } } } } } } } } } } } } } } | , .             ",
"            . & ( f g g g g g g g g g d h i } } } } } } } } } } } } } } } } } | , .             ",
"            . & ( i i i i i i i i } } } } } } } } } } } j } } } } } } } } } } | , .             ",
"            . & ( } } } } } } } } } } } } } } } } } } } k l } } } } } } } } } | , .             ",
"            . & ( } } } } } } } } } } } } } } } } } } } m n o } } } } } } } } | , .             ",
"            . & ( } } } } } } } } } } } } } } } } } } } p q r s } } } } } } } | , .             ",
"            . & ( } } } } } } } } } } } } } } } } } } } t u v w x } } } } } } | , .             ",
"            . & ( } } } } } } } } } } } } } } } } } } } y z A B C } } } } } } | , .             ",
"            . & ( } } } } } } } } } } } } } } } } } } } D E F G H } } } } } } | , .             ",
"            . & ( } } } } } } } } } } } } } } } } } } } I J p K L } } } } } } | , .             ",
"            . & ( } } } } } } } } } } } } } } } } } } } } } M N O } } } } } } | , .             ",
"            . & ( } } } } } } } } } } } } } } } } } } } } } } } } } } } } } } | , .             ",
"            . & ( } } } } } } } } } } } } } } } } } } } } } } } } } } } } } } | , .             ",
"            . & ( } } } } } } } } } } } } } } } } } } } } } } } } } } } } } } | , .             ",
"            . & ( } } } P Q Q Q Q Q Q Q Q Q Q Q Q Q Q Q Q Q Q Q Q Q Q R } } } | , .             ",
"            . & ( } } } S T T T T T T T T T T T T T T T T T T T T T U Q } } } | , .             ",
"            . & ( } } } V W W W W W W W W W W W W W W W W W W W W W T Q } } } | , .             ",
"            . & X Y Y Y Z ) ) ) ) ) ) ) ) ) ) ) ) ) ) ) ) ) ) ) ) ) S ` Y Y Y  ., .             ",
"            . ..+.+.+.+.+.+.+.+.+.+.+.+.+.+.+.+.+.+.+.+.+.+.+.+.+.+.+.+.+.+.+.+.@..             ",
"              . . . . . . . . . . . . . . . . . . . . . . . . . . . . . . . . . . .             ",
"                                            . .                                                 ",
"                                              .                                                 ",
"          #.$.$.$.$.$.$.$.$.$.$.$.$.$.$.$.%.%.&.%.%.%.%.%.%.%.%.%.%.%.%.%.%.%.%.%.%.*.          ",
"          =.-.-.;.>.,.'.>.).` !.~.{.].^.>./.-.-.(.{._.!.:.<.>.[.-.}.|.-.1.2.-.3.4.-.5.          ",
"          6.7.7.8.9.0.a.9.b.c.d.e.f.g.h.9.h.7.7.i.j.k.l.m.n.9.E 7.o.p.q.r.s.t.u.v.7.w..         ",
"          x.8 8 y.[.z.A.[.B.C.8.D.C.E.F.[.T 8 8 G.[.H.I.e.u [.J.8 f K.8 L.M.8 N.O.8 P.Q.        ",
"          R.h S.T.W S.U.V.W.X.' W.Y.W.Z.`.W. +_ .+W.++W.,.X.S.@+#+$+S.%+' S.%+&+*+#+T.=+        ",
"        *.n.-+;+>+(.9.* 0.9.U ,+d.- f.P.'+9.)+8 !+j.~+l.g.- 9.p 8 0.{+U i.p a.U P.8 ]+^+        ",
"        ^+A./+* (+_+(.,.b.(.$+p ` :+<+* .+(.' 7.<+k.[+(+a.T (.f.7.b.(.$ !.` Z.` }+|+X 1+        ",
"        =+2+3+4+~ {.c.5+6+c.7+! 8+(.9+0+p c.a+-.b+m.c+d+e+k.c.9+-.6+Q 7+! f+0.g+m -.-.#.        ",
"        #.h+$ ; ] p g+m.i+g+j+k+l+m+n+o+l.p+i.z q+r+n.s+t+}+p+R.z i+u+(.v+w+a+x+; z z y+        ",
"        z+A+ +B+m.,.C+(.D+C+E+F+x+/.G+H+I+C+c+A+A+A+J+m.K+ .A+A+A+D+C+E+F+x+L+G+Q A+A+M+        ",
"        N+O+P+;+9+E 9.a.i.9.m+g.d.Q+f.Q 0.9.R+O+O+O+S+l.g+T+O+O+O+i.{+m+F+p U+V+u+O+O+%..       ",
"        W+X+Y+R.Z+`+R. @.@R.+@@@R.].R.#@E.R.$@%@&@*@=@+.+.-@*@;@%@E R./.@@R.L+R.g+>@>@R.,@      ",
"        '@)@!@~@b+!+;+;+;+;+;+;+;+;+;+{@c.;+i.]@^@h.!+g+8+/@;+9+]@(@(.(+; x+a+` f+]@]@!._@      ",
"      :@C 2+<@[@m * >+>+>+>+>+>+>+>+>+= {.>+}@|@4+1@2@R.3@4@>+5@|@5@m.6@7@8@9@K+^@|@|@0@1+      ",
"      1+6+a@a@a@a@a@a@a@a@a@a@a@a@a@a@a@a@a@a@a@a@a@a@a@a@a@a@a@a@a@a@a@a@a@a@a@a@a@a@> *.      ",
"      *.=.=.=.=.=.=.=.=.=.=.=.=.=.=.=.=.=.=.=.=.=.=.=.=.b@b@b@b@b@b@b@b@b@b@b@b@b@b@b@b@*.      ",
"                                                                                                "};
