/* XPM */
static char *gnome-desktop-config[] = {
/* columns rows colors chars-per-pixel */
"48 48 133 2",
"   c black",
".  c #0C0C0B",
"X  c #0C0C0C",
"o  c gray6",
"O  c gray11",
"+  c gray12",
"@  c gray13",
"#  c #222222",
"$  c #252525",
"%  c #272525",
"&  c gray15",
"*  c #2A2827",
"=  c #2A2929",
"-  c #2C2A29",
";  c #2E2C2B",
":  c #2D2D2D",
">  c #2F2F2F",
",  c #302D2B",
"<  c #323130",
"1  c #323232",
"2  c #373736",
"3  c #393939",
"4  c #3C3A38",
"5  c #3C3B39",
"6  c #3E3D3C",
"7  c #403E3E",
"8  c #414140",
"9  c #434242",
"0  c #454443",
"q  c gray27",
"w  c gray29",
"e  c #4B4B4B",
"r  c #55504E",
"t  c #515150",
"y  c #585857",
"u  c #585858",
"i  c #595958",
"p  c #5A5A5A",
"a  c #5B5B5B",
"s  c #5C5C5B",
"d  c #5E5C59",
"f  c #5D5D5D",
"g  c #5E5E5D",
"h  c gray37",
"j  c #5F5F5E",
"k  c #5F5F5F",
"l  c #605C59",
"z  c #605F5F",
"x  c #60605F",
"c  c #646463",
"v  c #676766",
"b  c #676767",
"n  c #6C6866",
"m  c #6A6A6A",
"M  c #6B6B6A",
"N  c #6C6C6C",
"B  c #727170",
"V  c #737372",
"C  c #747473",
"Z  c #7A7A79",
"A  c #7C7C7B",
"S  c #818180",
"D  c #878684",
"F  c #8A8A89",
"G  c #8C8C8A",
"H  c #8E8D8B",
"J  c #909090",
"K  c #919190",
"L  c #929290",
"P  c #929291",
"I  c #939391",
"U  c #969694",
"Y  c #969695",
"T  c #979796",
"R  c #9F9F9E",
"E  c #A3A3A1",
"W  c #A4A4A4",
"Q  c #A9A9A7",
"!  c #ACACAA",
"~  c #AEAEAC",
"^  c #B1B1AF",
"/  c #B3B3B1",
"(  c #B4B4B2",
")  c #B4B4B3",
"_  c #B5B5B3",
"`  c #B6B6B4",
"'  c #B6B6B5",
"]  c #B7B7B5",
"[  c #B8B8B6",
"{  c #B9B9B7",
"}  c #BBBBB9",
"|  c #BCBCBA",
" . c #BDBDBB",
".. c gray",
"X. c #C0C0BE",
"o. c #C0C0BF",
"O. c #C1C1BF",
"+. c #C1C1C0",
"@. c #C5C5C3",
"#. c #C5C5C4",
"$. c #C7C7C4",
"%. c #C7C7C5",
"&. c #C9C9C8",
"*. c #CACAC8",
"=. c #CACAC9",
"-. c #CACACA",
";. c #CDCDCB",
":. c #CECECC",
">. c #CFCFCD",
",. c #CFCFCE",
"<. c #D2D2CF",
"1. c #D2D2D0",
"2. c #D2D2D2",
"3. c #D4D4D3",
"4. c #D5D5D4",
"5. c #D5D5D5",
"6. c #D6D6D4",
"7. c #D6D6D5",
"8. c #D7D7D4",
"9. c #D8D8D6",
"0. c #DBDBDA",
"q. c #DCDCDB",
"w. c #DEDEDD",
"e. c #E2E2E2",
"r. c gray89",
"t. c #E6E6E5",
"y. c #EAEAE9",
"u. c #EBEBEA",
"i. c #EFEFEF",
"p. c #F0F0EF",
"a. c #F4F4F4",
"s. c gray100",
"d. c None",
/* pixels */
"d.d.d.d.d.d.d.d.d.d.d.d.d.d.d.d.d.d.d.d.d.d.d.d.d.d.d.d.d.d.d.d.d.d.d.d.d.d.d.d.d.d.d.d.d.d.d.d.",
"d.d.d.d.d.d.d.d.d.d.d.d.d.d.d.d.d.d.d.d.d.d.d.d.d.d.d.d.d.d.d.d.d.d.d.d.d.d.d.d.d.d.d.d.d.d.d.d.",
"d.d.d.d.d.d.d.d.d.d.d.d.d.d.d.d.d.d.d.d.d.d.d.d.d.d.d.d.d.d.d.d.d.d.d.d.d.d.d.d.d.d.d.d.d.d.d.d.",
"d.d.d.d.d.d.d.d.d.d.d.d.d.d.d.d.d.d.d.d.d.d.d.d.d.d.d.d.d.d.d.d.d.d.d.d.d.d.d.d.d.d.d.d.d.d.d.d.",
"d.                                                                                            d.",
"d.                                                                                              ",
"d.  X e e e e e e e e e e e e e e e e e e e e e e e e e e e e e e e e e e e e e e e e e e O     ",
"d.  2 >.C V V V V V V V V V V C V V V V V V V V V V V V V V V V V V V V V V V V V V V C  .v     ",
"d.  2 +.1 J J J J J J J J J J J J J J J J J J J J J J J J J J J J J J J J J J J J J K w T v     ",
"d.  2 +.+ k k k h h h h h h h h h h k k h h h h h h k k k k h h h h h h h h h h h i y < U v     ",
"d.  2 1.~ -.%.%.-.-.-.-.-.-.-.%.-.-.-.-.%.-.%.>.%.>.%.-.-.-.-.-.*.*.*.;.*.-.*./ U J L L $.v     ",
"d.  2 6.6.a.a.a.a.a.a.a.a.a.a.a.a.a.a.a.a.a.a.a.a.a.a.a.a.a.a.a.a.a.a.a.a.t.+.' ) ) ) ) <.v     ",
"d.  2 6.1.p.a.i.i.a.i.i.i.i.p.p.a.i.i.i.p.p.p.p.p.p.p.p.i.i.a.i.p.p.p.r.*.` ^ ` ) ^ ` ) <.v     ",
"d.  2 6.>.u.u.u.u.u.u.u.u.u.u.u.u.u.u.u.u.u.u.u.u.u.u.u.u.u.u.u.q.;.[ ^ ) ^ ` ` ) ) ` ^ <.v     ",
"d.  2 6.>.t.t.t.t.t.t.t.t.t.t.t.t.t.t.t.t.t.t.t.t.t.t.t.r.3.+.' ^ ` ` ^ ^ ` ` ^ ^ ` ) ^ <.v     ",
"d.  2 6.%.w.w.w.w.w.w.w.w.w.w.w.w.w.w.w.w.w.w.w.w.0.>.X.) ) ) ) ` ^ ` ` ^ ` ^ ` ` ^ ` ` <.v     ",
"d.  2 8.$.8.8.8.6.6.6.8.3.8.8.8.6.6.6.6.8.8.<.$. .) ` ^ ` ` ^ ` ` ^ ` ` ^ ` ` ^ ` ` ^ ` <.v     ",
"d.  2 8.X.:.:.:.>.>.;.:.:.:.:.:.>.;.>.%.O.` ) ) ^ ) ` ^ ^ ` ` ^ ^ ` ` ^ ^ ` ^ ` ` ^ ^ ` <.v     ",
"d.  2 3.[ }  .} } } } }  .} } } { ' ' / ` ` ` ` ) ^ ` ` ) ) ` ^ ^ ` ` ^ ` ` ^ ` ^ ` ` ^ <.v     ",
"d.  2 8.) ] ` ` ] ] [ ` [ ) ` ` ) / ' / ^ ` ^ ^ ) ) ` ^ ^ d x ` ` ^ ` ` ^ ` ` ^ ` ^ ` ` <.v     ",
"d.  2 6.` ` ^ ` ) ) ) ^ ^ ` ^ ^ ) ) ^ ` ) ^ ^ ` ` ^ ^ ` ` A . Z ) ) ^ ^ ` ^ ` ` ` ^ ` ` <.v     ",
"d.  2 6.^ ` ` ^ ) ) ) ) ` ` ` ` ) ) ) ) ` ` ` ` ^ ` ` ^ ) I # * S ^ ` ` ` ` ^ ^ ^ ` ^ ` <.v     ",
"d.  2 6.` ^ ^ ` ) ` ) ^ ` ^ ^ ` ) ) ) ) ^ ` ` ^ ` ` ` ` ) Q N - 5 D ` ^ ^ ` ^ ` ` ` ^ ^ <.v     ",
"d.  2 6.` ^ ` ` ^ ^ ) ` ^ ` ` ^ ) ^ ) ^ ` ^ ^ ` ` ^ ^ ) ) ^ M 4 r 6 H ` ` ^ ` ` ` ^ ` ` <.v     ",
"d.  2 6.) ) ) ) ` ` ^ ` ` ^ ` ` ` ` ^ ` ` ^ ` ` ^ ` ` ^ ` ` v 8.: n 0 H ) ) ` ^ ^ ) ^ ) <.v     ",
"d.  2 6.) ) ) ^ ^ ` ` ^ ^ ` ^ ` ^ ^ ` ` ` ` ^ ^ ^ ` ^ ` ` ^ c s.< d d 6 ` ^ ^ ` ) ) ) ) <.v     ",
"d.  2 6.^ ) ) ) ` ^ ^ ` ` ` ^ ^ ` ^ ` ^ ^ ` ^ ` ` ` ^ ` ^ ) x s. ., 9 ) ) ` ^ ` ) ) ) ) <.v     ",
"d.  2 6.` ) ) ^ ` ^ ` ` ` ^ ` ` ` ` ^ ` ` ^ ` ` ^ ` ` ^ ) ) M v 9 * 5 ^ ^ ` ` ^ ` ^ ) ) <.v     ",
"d.  2 3.` ^ ` ` ^ ` ` ^ ` ^ ^ ` ^ ` ` ^ ^ ` ` ^ ` ^ ^ ` ) ` E H L s % B ^ ` ` ^ ` ^ ` ` <.v     ",
"d.  2 8.^ ` ` ^ ` ^ ^ ` ^ ` ` ^ ` ^ ^ ` ` ^ ^ ` ^ ` ` ^ ) ^ ` ^ ` r : R ` ` ^ ` ^ ` ` ^ <.v     ",
"d.  2 8.` ^ ^ ` ` ` ` ` ` ` ` ` ` ` ` ` ` ` ` ` ` ` ` ` ` ` ) ^ ` ^ ^ ^ ^ ` ^ ` ` ^ ^ ` <.v     ",
"d.  2 8.` ` ^ ` ^ ` ^ ^ ` ^ ^ ` ^ ^ ` ^ ^ ` ^ ^ ` ^ ^ ` ^ ^ ) ` ^ ` ^ ` ^ ` ` ^ ` ` ^ ` <.v     ",
"d.  2 6.` ^ ` ` ^ ` ^ ` ) ` ^ ` ) ) ) ) ) ) ) ^ ` ` ` ^ / / ) ) ) ) ^ ) ) ^ ` ` ) ^ ^ ` <.v     ",
"d.  2 6.^ ` ` ^ ^ ` ) ` ^ ` ` ^ ) ) ) ^ ) ^ ) ) ) ^ ^ ` ' / ) ) ) ) ) ) ) ) ) ^ ` ` ` ` <.v     ",
"d.  2 6.^ ` ) ` ` ^ ) ^ ` ^ ` ^ ) ) / ' ) ^ ) ^ ` ^ ` ` / ) ) ) ` ^ ^ ` ) ) ) / ^ ` ` ^ <.v     ",
"d.  2 6.) ` ^ ^ I * < > > > < < > > > > < < < > < > > > > > > > > > > < > > $ T ` ^ ^ ` <.v     ",
"d.  2 6.) ) ) ) G k 1.1.<.3.3.1.1.2.2.2.2.2.1.1.<.<.1.2.2.2.2.2.<.<.3.2.2.2.y L ` ` ) ) <.v     ",
"d.  2 6.) ) ) ^ G k 2.1.<.<.2.2.1.1.2.2.2.2.2.1.<.<.3.<.2.2.1.1.3.<.<.<.2.2.y L ^ ^ ) ) <.v     ",
"d.  2 6.) ) ) ) G e W W W W W W W W W W W W W W W W W W W W W W W W W W W W q J ` ^ ) ) <.v     ",
"d.  2 8.*.*.*.*./ h h h h h h h h h h h h h h h k h h h h h h h k h h h h h h ' *.;.*.*.8.v     ",
"d.  X i i i i i u u i i i i i i i i i i i i i i i i i i i i i i i i i i i i i i i i i i i #     ",
"d.                                                                                              ",
"d.                                                                                            d.",
"d.d.d.d.d.d.d.d.d.d.d.d.d.d.d.d.d.d.d.d.d.d.d.d.d.d.d.d.d.d.d.d.d.d.d.d.d.d.d.d.d.d.d.d.d.d.d.d.",
"d.d.d.d.d.d.d.d.d.d.d.d.d.d.d.d.d.d.d.d.d.d.d.d.d.d.d.d.d.d.d.d.d.d.d.d.d.d.d.d.d.d.d.d.d.d.d.d.",
"d.d.d.d.d.d.d.d.d.d.d.d.d.d.d.d.d.d.d.d.d.d.d.d.d.d.d.d.d.d.d.d.d.d.d.d.d.d.d.d.d.d.d.d.d.d.d.d.",
"d.d.d.d.d.d.d.d.d.d.d.d.d.d.d.d.d.d.d.d.d.d.d.d.d.d.d.d.d.d.d.d.d.d.d.d.d.d.d.d.d.d.d.d.d.d.d.d.",
"d.d.d.d.d.d.d.d.d.d.d.d.d.d.d.d.d.d.d.d.d.d.d.d.d.d.d.d.d.d.d.d.d.d.d.d.d.d.d.d.d.d.d.d.d.d.d.d."
};
