/* XPM */
static char *xchat_16x16[] = {
/* columns rows colors chars-per-pixel */
"48 48 178 2",
"   c #000000",
".  c #0A0502",
"X  c #0B0902",
"o  c #130A03",
"O  c #1B0C03",
"+  c #151004",
"@  c #1A1403",
"#  c #1D1902",
"$  c #101010",
"%  c #1B1B1B",
"&  c #210E05",
"*  c #251105",
"=  c #221E04",
"-  c #291304",
";  c #292405",
":  c #2F2A05",
">  c gray15",
",  c #481E02",
"<  c #551605",
"1  c #551E05",
"2  c #5A1F00",
"3  c #473404",
"4  c #473C04",
"5  c #4C3B04",
"6  c #542701",
"7  c #5C2100",
"8  c #5A2C00",
"9  c #5E3613",
"0  c #5E3813",
"q  c #602103",
"w  c #662D00",
"e  c #6C2C00",
"r  c #663000",
"t  c #6D3100",
"y  c #712B00",
"u  c #743F05",
"i  c #703913",
"p  c #4C4204",
"a  c #555555",
"s  c #626262",
"d  c #991B04",
"f  c #972808",
"g  c #992304",
"h  c #9A2B04",
"j  c #963600",
"k  c #973708",
"l  c #963F00",
"z  c #9B3202",
"x  c #9C3D00",
"c  c #A21E07",
"v  c #A22907",
"b  c #A22E09",
"n  c #AA2408",
"m  c #AA2E08",
"M  c #A23D09",
"N  c #AD3307",
"B  c #B22806",
"V  c #BA2C05",
"C  c #B23206",
"Z  c #B73804",
"A  c #BA3505",
"S  c #BE3F06",
"D  c #814806",
"F  c #865408",
"G  c #84590A",
"H  c #8A5008",
"J  c #924900",
"K  c #935708",
"L  c #9D5E06",
"P  c #945B13",
"I  c #8F6209",
"U  c #936008",
"Y  c #9B6A05",
"T  c #AD4207",
"R  c #B74704",
"E  c #BE4E06",
"W  c #A56606",
"Q  c #AE6E08",
"!  c #A47406",
"~  c #AD7C08",
"^  c #B77608",
"/  c #BF7E06",
"(  c #C13206",
")  c #C13B06",
"_  c #CB3B06",
"`  c #FF2500",
"'  c #FF2C00",
"]  c #FF3300",
"[  c #FF3B00",
"{  c #C74C03",
"}  c #CB4306",
"|  c #C55C05",
" . c #CB5B04",
".. c #D64304",
"X. c #D64904",
"o. c #DC4C04",
"O. c #DA5A05",
"+. c #E25305",
"@. c #E65A05",
"#. c #EF5300",
"$. c #EA5E00",
"%. c #FF4300",
"&. c #FF4B00",
"*. c #F35600",
"=. c #F35C00",
"-. c #FF5300",
";. c #FF5B00",
":. c #E16105",
">. c #E96400",
",. c #E86B00",
"<. c #EA7300",
"1. c #E97C00",
"2. c #F36200",
"3. c #FF6300",
"4. c #FE6C00",
"5. c #F37D00",
"6. c #FF7300",
"7. c #FD7900",
"8. c #AD8108",
"9. c #B68607",
"0. c #B78408",
"q. c #B68B07",
"w. c #BE8E05",
"e. c #BE9604",
"r. c #C78504",
"t. c #CD8D06",
"y. c #C79704",
"u. c #C79806",
"i. c #D39506",
"p. c #D99C05",
"a. c #C7A106",
"s. c #CEA106",
"d. c #CFAC07",
"f. c #D5AA05",
"g. c #D7B705",
"h. c #DBB304",
"j. c #E98000",
"k. c #EB8D01",
"l. c #F48200",
"z. c #F38C00",
"x. c #FF8700",
"c. c #FF8C00",
"v. c #F49200",
"b. c #FF9300",
"n. c #FF9B00",
"m. c #E3BC04",
"M. c #FFA300",
"N. c #FFAB00",
"B. c #FEB300",
"V. c #FEBB00",
"C. c #DEC103",
"Z. c #E6C504",
"A. c #E3CA04",
"S. c #E8C304",
"D. c #E6D104",
"F. c #E8D304",
"G. c #FEC300",
"H. c #FECB00",
"J. c #FED200",
"K. c #FEDA00",
"L. c #FDE200",
"P. c #FFE800",
"I. c #A9A9A9",
"U. c #D9C5A8",
"Y. c #E6CEB5",
"T. c #C4C3C3",
"R. c gray81",
"E. c #D3C6C0",
"W. c #D3C8C0",
"Q. c #D4D4D4",
"!. c #DDDDDD",
"~. c #EFD2C1",
"^. c #F1D2C0",
"/. c #E3E3E3",
"(. c gray93",
"). c #F3F3F3",
"_. c #FCFCFC",
"`. c None",
/* pixels */
"`.`.`.`.`.`.`.`.`.`.`.`.`.`.`.`.`.`.`.`.`.`.`.`.`.`.`.`.`.`.`.`.`.`.`.`.`.`.`.`.`.`.`.`.`.`.`.`.",
"`.`.`.`.`.`.`.`.`.      `.`.`.`.`.`.`.`.`.`.`.`.`.`.`.`.`.`.`.`.`.`.`.`.      `.`.`.`.`.`.`.`.`.",
"`.`.`.`.`.`.`.`.          `.`.`.`.`.`.`.`.`.`.`.`.`.`.`.`.`.`.`.`.`.`.          `.`.`.`.`.`.`.`.",
"`.`.`.`.`.`.`.      X       `.`.`.`.`.`.`.`.`.`.`.`.`.`.`.`.`.`.`.`.      X       `.`.`.`.`.`.`.",
"`.`.`.`.`.`.      p D.:       `.`.`.`.`.`.`.`.`.`.`.`.`.`.`.`.`.`.      ; Z.p       `.`.`.`.`.`.",
"`.`.`.`.`.      p L.P.F.;       `.`.`.`.`.`.`.`.`.`.`.`.`.`.`.`.      ; Z.J.J.p       `.`.`.`.`.",
"`.`.`.`.      p L.P.L.P.A.=       `.`.`.`.`.`.`.`.`.`.`.`.`.`.      = m.J.J.J.H.5       `.`.`.`.",
"`.`.`.      p K.L.K.L.L.K.C.#       `.`.`.`.`.`.`.`.`.`.`.`.      # h.H.H.H.H.H.G.4       `.`.`.",
"`.`.      p K.K.K.K.K.K.K.K.g.@       `.`.`.`.`.`.`.`.`.`.      @ f.H.H.G.H.G.G.G.G.4       `.`.",
"`.      p J.K.J.K.K.J.J.J.J.J.d.+       `.`.`.`.`.`.`.`.      o s.G.G.G.G.G.G.G.G.V.V.4       `.",
"`.    4 H.J.J.J.J.J.J.J.J.H.H.H.a.X       `.`.`.`.`.`.      X u.G.G.G.V.V.V.V.V.V.V.V.B.3     `.",
"`.    # h.J.J.J.J.H.H.H.H.H.H.H.H.e..       `.`.`.`.      . w.G.V.V.V.V.V.V.V.V.V.B.B.p.@     `.",
"`.      @ f.H.H.H.G.H.G.H.G.G.G.G.G.q..       `.`.      . q.V.V.B.V.B.B.B.B.B.B.B.B.i.$       `.",
"`.`.      + u.H.G.G.G.G.G.G.G.G.V.G.V.~ X             . ~ B.B.B.B.B.B.B.N.B.B.N.N.t.O       `.`.",
"`.`.`.      o y.G.V.G.V.V.V.V.V.V.V.V.V.!             ! N.B.N.B.N.B.N.N.N.N.N.N.r.o       `.`.`.",
"`.`.`.`.      X w.V.V.B.B.V.B.B.B.B.B.B.B.Y         Y N.N.N.N.N.N.M.N.N.N.M.M./ X       `.`.`.`.",
"`.`.`.`.`.      X 0.B.B.B.B.B.B.N.B.N.N.N.N.I     I N.N.M.M.N.M.N.M.M.N.n.M.^ X       `.`.`.`.`.",
"`.`.`.`.`.`.      . ~ B.N.N.N.N.N.N.N.N.N.M.N.G G M.M.M.M.M.M.M.n.n.n.n.n.Q X       `.`.`.`.`.`.",
"`.`.`.`.`.`.`.        Q N.N.N.M.M.M.M.M.M.M.M.M.M.M.n.M.M.n.b.n.n.n.n.n.W .       `.`.`.`.`.`.`.",
"`.`.`.`.`.`.`.`.        Y M.M.M.M.M.M.M.M.n.n.M.n.n.n.b.b.n.n.b.b.b.b.L         `.`.`.`.`.`.`.`.",
"`.`.`.`.`.`.`.`.`.        U M.n.n.n.M.n.b.n.b.b.b.b.b.b.b.b.b.b.b.b.K         `.`.`.`.`.`.`.`.`.",
"`.`.`.`.`.`.`.`.`.`.        F k.v.b.b.b.b.b.b.b.b.b.b.b.b.b.c.c.c.H         `.`.`.`.. . `.`.`.`.",
"`.`.`.`.`.`.`.`.`.`.`.      I.!.U.z.b.b.b.b.b.b.b.c.c.x.c.x.x.x.D         `.`.`.`.. Q.Q.. `.`.`.",
"`.`.  . .   $ . . . .       /././.P j.j.j.j.1.1.l.x.x.l.1.1.1.u       . .   `.`.  a (./.>   `.`.",
"`.  !.(.(.(.(.(.(.(.(.!.  . (.(.(.(.(.(.(.(.(.(.Y.5.5.Y.(.(.(.(.(.(.(.(.(.!.    !.(.(.).(.!.  `.",
"`.. ).).(.).).(.).).(.T.    ).).).(.).).).(.).).).J <.).).).).).).).).).).).    /.).).).).R.  `.",
"`.  _.).).%                 ).).).0 8 8 8 9 )._.).t <.)._.).9 6 o     % _._.$   s _.).).%     `.",
"`.  _._._.    `.`.`.`.      _._._.r 7.7.7.,.)._._.t ,._.)._.w 4.,.*     _.).Q.    _._._.    `.`.",
"`.  _._._.  `.`.`.`.      @ _._._.t 6.6.6.,._._._.e ,._._._.w 4.6.:.*   _._._.    _._._.  `.`.`.",
"`.  _._._.%             O | _._._.w 6.6.4.>._._._.e >._._._.i $.$.=.O.O _._._.    _._._.%   `.`.",
"`.  _._._._._._._._._.T. .>._._._.e 4.4.4.>._._._.e $._._._._._._.^.=.{ _._._.    _._._._.(.  `.",
"`.  )._._._._._._._._.E.J 2.^._.W.y 4.3.3.=.^._.T.e =.^._._._._._.W.z *.^._.T.    )._._._.R.  `.",
"`.`.              . , 7 J 3.$.y 7 x 3.3.3.@.-     O @.*.y 7 2 7 2 7 z -.#.2 .             .   `.",
"`.`.`.`.`.      . E 3.3.;.3.3.3.;.;.3.;.+.*         - o.-.-.-.-.-.-.-.-.-.&.S .       `.`.`.`.`.",
"`.`.`.`.      . R ;.;.;.;.;.;.;.;.;.;.o.&             & o.&.-.&.&.&.&.&.&.&.&.Z .       `.`.`.`.",
"`.`.`.      . T ;.;.;.;.;.;.-.-.-.-.X.O       `.`.      O ..&.&.&.&.&.&.&.%.%.%.N         `.`.`.",
"`.`.        M ;.-.-.-.-.-.-.-.-.-.} O       `.`.`.`.      o _ %.%.%.%.%.%.%.%.%.%.b         `.`.",
"`.`.      k -.-.-.-.-.&.&.&.&.&._ o       `.`.`.`.`.`.      o _ %.%.%.[ [ [ [ [ [ [ f       `.`.",
"`.`.    1 &.-.&.&.&.&.&.&.&.&.) X       `.`.`.`.`.`.`.`.      X ( [ ] [ [ [ ] ] ] ] ] <     `.`.",
"`.`.      z &.%.%.&.&.%.%.%.A .       `.`.`.`.`.`.`.`.`.`.      . V ] ] ] ] ] ] ' ] g       `.`.",
"`.`.        h %.%.%.%.%.[ N .       `.`.`.`.`.`.`.`.`.`.`.`.      . B ] ' ' ' ' ' d         `.`.",
"`.`.`.        h %.[ [ [ m .       `.`.`.`.`.`.`.`.`.`.`.`.`.`.      . n ' ' ' ` d         `.`.`.",
"`.`.`.`.        g [ [ v .       `.`.`.`.`.`.`.`.`.`.`.`.`.`.`.`.      . c ` ` d         `.`.`.`.",
"`.`.`.`.`.        g g         `.`.`.`.`.`.`.`.`.`.`.`.`.`.`.`.`.`.        d d         `.`.`.`.`.",
"`.`.`.`.`.`.                `.`.`.`.`.`.`.`.`.`.`.`.`.`.`.`.`.`.`.`.                `.`.`.`.`.`.",
"`.`.`.`.`.`.`.            `.`.`.`.`.`.`.`.`.`.`.`.`.`.`.`.`.`.`.`.`.`.            `.`.`.`.`.`.`.",
"`.`.`.`.`.`.`.`.        `.`.`.`.`.`.`.`.`.`.`.`.`.`.`.`.`.`.`.`.`.`.`.`.        `.`.`.`.`.`.`.`.",
"`.`.`.`.`.`.`.`.`.`.`.`.`.`.`.`.`.`.`.`.`.`.`.`.`.`.`.`.`.`.`.`.`.`.`.`.`.`.`.`.`.`.`.`.`.`.`.`."
};
