/* XPM */
static char * xfmedia_xpm[] = {
"48 48 151 2",
"  	c None",
". 	c #020202",
"+ 	c #393939",
"@ 	c #626262",
"# 	c #5C5C5C",
"$ 	c #5D5D5D",
"% 	c #6D6D6D",
"& 	c #616161",
"* 	c #6A6A6A",
"= 	c #575757",
"- 	c #6B6B6B",
"; 	c #5B5B5B",
"> 	c #636363",
", 	c #FFFFFF",
"' 	c #7F7F7F",
") 	c #808080",
"! 	c #595959",
"~ 	c #666666",
"{ 	c #B5B5B5",
"] 	c #AAAAAA",
"^ 	c #696969",
"/ 	c #7D7D7D",
"( 	c #838383",
"_ 	c #606060",
": 	c #ACACAC",
"< 	c #6F6F6F",
"[ 	c #707070",
"} 	c #646464",
"| 	c #4A4A4A",
"1 	c #494949",
"2 	c #474747",
"3 	c #0C0C0C",
"4 	c #0F0F0F",
"5 	c #121212",
"6 	c #141414",
"7 	c #131313",
"8 	c #060606",
"9 	c #050505",
"0 	c #070707",
"a 	c #0A0A0A",
"b 	c #0D0D0D",
"c 	c #111111",
"d 	c #151515",
"e 	c #101010",
"f 	c #0E0E0E",
"g 	c #090909",
"h 	c #040404",
"i 	c #000000",
"j 	c #272727",
"k 	c #161616",
"l 	c #454545",
"m 	c #242424",
"n 	c #2E2E2E",
"o 	c #202020",
"p 	c #333333",
"q 	c #2F2F2F",
"r 	c #BEBEBE",
"s 	c #888888",
"t 	c #222222",
"u 	c #232323",
"v 	c #191919",
"w 	c #464646",
"x 	c #D9D9D9",
"y 	c #484848",
"z 	c #3D3D3D",
"A 	c #171717",
"B 	c #1B1B1B",
"C 	c #303030",
"D 	c #1E1E1E",
"E 	c #262626",
"F 	c #181818",
"G 	c #686868",
"H 	c #404040",
"I 	c #0B0B0B",
"J 	c #363636",
"K 	c #1D1D1D",
"L 	c #3C3C3C",
"M 	c #1A1A1A",
"N 	c #1F1F1F",
"O 	c #313131",
"P 	c #080808",
"Q 	c #444444",
"R 	c #030303",
"S 	c #434343",
"T 	c #1C1C1C",
"U 	c #010101",
"V 	c #515151",
"W 	c #282828",
"X 	c #545454",
"Y 	c #2A2A2A",
"Z 	c #676767",
"` 	c #AEAEAE",
" .	c #656565",
"..	c #AFAFAF",
"+.	c #323232",
"@.	c #3E3E3E",
"#.	c #3F3F3F",
"$.	c #3B3B3B",
"%.	c #3A3A3A",
"&.	c #383838",
"*.	c #212121",
"=.	c #DADADA",
"-.	c #A6A6A6",
";.	c #4E4E4E",
">.	c #5A5A5A",
",.	c #737373",
"'.	c #9D9D9D",
").	c #A4A4A4",
"!.	c #A3A3A3",
"~.	c #A2A2A2",
"{.	c #A5A5A5",
"].	c #B2B2B2",
"^.	c #8A8A8A",
"/.	c #818181",
"(.	c #CBCBCB",
"_.	c #B4B4B4",
":.	c #828282",
"<.	c #676667",
"[.	c #717071",
"}.	c #747374",
"|.	c #5F5E5F",
"1.	c #6E6D6E",
"2.	c #5E5E5E",
"3.	c #747474",
"4.	c #605F60",
"5.	c #626162",
"6.	c #5E5D5E",
"7.	c #616061",
"8.	c #5F5F5F",
"9.	c #5C5B5C",
"0.	c #EFEFEF",
"a.	c #908F90",
"b.	c #6E6E6E",
"c.	c #969696",
"d.	c #DFDFDF",
"e.	c #595859",
"f.	c #E7E7E7",
"g.	c #8C8C8C",
"h.	c #8F8F8F",
"i.	c #939293",
"j.	c #929292",
"k.	c #E8E8E8",
"l.	c #F7F7F7",
"m.	c #6D6C6D",
"n.	c #D8D8D8",
"o.	c #E0E0E0",
"p.	c #898989",
"q.	c #737273",
"r.	c #5D5C5D",
"s.	c #636263",
"t.	c #686768",
"                                                                                                ",
"                                                                                                ",
"                                                                                                ",
"                                                                                                ",
"                                                                                                ",
". . . . . . . . . . . . . . . . . . . . . . . . . . . . . . . . . . . . . . . . . . . . . . . . ",
"+ + + + + + + + + + + + + + + + + + + + + + + + + + + + + + + + + + + + + + + + + + + + + + + + ",
"@ # # # $ % # # # # & * = # # = - @ # # # $ % ; # # # @ * = # # = - & # # # $ % $ # # # @ * = # ",
"> , , , ' % ) , , , ! ~ { , , ] ^ > , , , ) % / , , , # ~ { , , ] ^ # , , , / % ( , , , _ ~ : , ",
"> , , , ' % ) , , , ! ~ { , , ] ^ > , , , ) % / , , , # ~ { , , ] ^ # , , , / % ( , , , _ ~ : , ",
"> , , , ' % ) , , , ! ~ { , , ] ^ > , , , ) % / , , , # ~ { , , ] ^ # , , , / % ( , , , _ ~ : , ",
"@ < < < > % & [ [ [ _ ^ } [ [ @ - @ [ [ [ > % _ [ [ [ & ^ } [ [ @ - _ [ [ [ @ % @ [ [ [ @ ^ > < ",
"| | | | | | | | | | | | | | | | | | | | | | | | | | | | | | | | | | | | 1 2 2 2 2 2 2 2 2 2 2 2 ",
"3 4 5 6 6 6 7 5 4 8 . 9 0 a 3 b 4 c c 5 6 6 6 6 6 6 d 7 5 c e f b a g h . . 8 a b e c 5 6 6 7 c ",
"                    i                                                                           ",
"                    i                                                                           ",
"                    i                                   j k                                     ",
"            l m     i                             n o   p k q                                   ",
"            r s t . i                             u v j w 5 u           8 .                     ",
"                x y b h                           z A B C 5 D E         F C                     ",
"                  G H u I 6                       J A k d 5 e d 3 3 I A C J                     ",
"                    K ~ L e A M F M D E           N A k d k O ^ 3 a 0 h b P                     ",
"                    i   * Q b 4 5 6 d d k A v B B F A k d o 2 E 3 a 0 i i R                     ",
"                    i     S b 4 5 6 d d k A F v v F A k d 7 D T 3 a 0 i i A                     ",
"                    i     c b 4 5 6 d d k A F v v F A k d 5 e T o 3 0 U k V                     ",
"                    i   B 4 b 4 5 6 d d k A F v v F A k d 5 e 6 v M W X !                       ",
"                    i   D e b 4 5 6 d d k A F v v F A k d 5 e 4 Y Z `  .b                       ",
"                    i   F f b 4 5 6 d d k A F v v F A k d 5 e Y ..                              ",
"                    i   k f b 4 5 6 d d k A F v v F A k d 5 e +.                                ",
"                    i   e 3 b 4 5 6 d d k A F v v F A k d 5 e 4 K                               ",
"                    i P g a b 4 5 6 d d k A F v v F A k d B O B c                               ",
"                    i E @.v f m H #.$.%.&.J J J + %.J *.d A Z =.-.                              ",
"                    i ;.>.A C ,.'.-.).).!.!.~.{.: ].` ^.; m d                                   ",
"                    i   Y z /.                          (._.:.                                  ",
"                    i     )                                                                     ",
"                    i                                                                           ",
"8 P g a a a g P 8 . i . h 9 8 0 P g g a a I I I I I a g g g 0 8 8 h h . i i R h 8 P P g g g g P ",
"<.<.<.<.<.<.<.<.<.<.<.<.<.<.<.<.<.<.<.<.<.<.<.<.<.<.<.<.<.<.<.<.<.<.<.<.<.<.<.<.<.<.<.<.<.<.<.<.",
"_ [.}.}.|.1.2.3.3.3.4.1.|.3.3.% 5.|.< 3.3.6.1.7.3.3.3.7.1.$ 3.3.% 4.& < 3.3.8.1.4.3.3.3.7.1.2.}.",
"9.0., , a.1.b., , , - 1.c., , d.9.e.f., , g.1.,., , , [.1.h., , d.e.9.f., , i.1.b., , , [.1.j., ",
"9.0., , a.1.b., , , - 1.c., , d.9.e.f., , g.1.,., , , [.1.h., , d.e.9.f., , i.1.b., , , [.1.j., ",
"9.k.l.l.g.1.m.l.l.l.* 1.i.l.l.n.9.e.o.l.l.p.1.q.l.l.l.[ 1.g.l.l.n.e.9.o.l.l.h.1.1.l.l.l.[ 1.h.l.",
"<.; ; ; r.1.5.9.9.9.s.1.9.9.9.9.G <.9.9.9.9.1.s.9.9.9.s.1.9.9.9.9.t.t.9.9.9.9.1.s.9.9.9.s.1.9.; ",
"F F F F F F F F F F F F F F F F F F F F F F F F F F F F F F F F F F F F F F F F F F F F F F F F ",
"                                                                                                ",
"                                                                                                ",
"                                                                                                ",
"                                                                                                "};
