/* XPM */
static char * xfwm4_xpm[] = {
"32 32 276 2",
"  	c None",
". 	c #7A7C7F",
"+ 	c #272626",
"@ 	c #616161",
"# 	c #6A6A6A",
"$ 	c #6D6C6D",
"% 	c #6C6B6B",
"& 	c #6B6A6B",
"* 	c #6C6C6C",
"= 	c #6B6A6A",
"- 	c #696868",
"; 	c #403F40",
"> 	c #010101",
", 	c #D8DFE8",
"' 	c #484949",
") 	c #B6B5B5",
"! 	c #CCCACA",
"~ 	c #393838",
"{ 	c #CAD4DF",
"] 	c #474647",
"^ 	c #CAC8C8",
"/ 	c #636262",
"( 	c #BBC8D6",
"_ 	c #464646",
": 	c #C5C3C3",
"< 	c #A09E9E",
"[ 	c #9F9D9D",
"} 	c #9F9E9D",
"| 	c #ADABAB",
"1 	c #C9C8C8",
"2 	c #BEBCBC",
"3 	c #C4C2C2",
"4 	c #C6C4C4",
"5 	c #BBB9B9",
"6 	c #646363",
"7 	c #B6C4D3",
"8 	c #444546",
"9 	c #C6C6C7",
"0 	c #6D6E6E",
"a 	c #191818",
"b 	c #171717",
"c 	c #181817",
"d 	c #292929",
"e 	c #969595",
"f 	c #504F4F",
"g 	c #4D4C4D",
"h 	c #C4C3C3",
"i 	c #5F5E5E",
"j 	c #3C3B3B",
"k 	c #C7C5C5",
"l 	c #656464",
"m 	c #B2C1D1",
"n 	c #424345",
"o 	c #BDBCBC",
"p 	c #363636",
"q 	c #0B0B0B",
"r 	c #2D2C2C",
"s 	c #373636",
"t 	c #343333",
"u 	c #333333",
"v 	c #353434",
"w 	c #232323",
"x 	c #5A5959",
"y 	c #C8C6C6",
"z 	c #4F4E4E",
"A 	c #040404",
"B 	c #454343",
"C 	c #BAB8B8",
"D 	c #C2C0C0",
"E 	c #636261",
"F 	c #020202",
"G 	c #292828",
"H 	c #ADBDCE",
"I 	c #454545",
"J 	c #1F1F1E",
"K 	c #918F8F",
"L 	c #B9B8B8",
"M 	c #B9B7B7",
"N 	c #7E7C7C",
"O 	c #565554",
"P 	c #B0AFAF",
"Q 	c #303030",
"R 	c #070707",
"S 	c #555454",
"T 	c #787777",
"U 	c #0E0E0E",
"V 	c #1B1B1B",
"W 	c #7D7C7C",
"X 	c #BCBABA",
"Y 	c #A8B9CB",
"Z 	c #AABBCC",
"` 	c #959494",
" .	c #8C8B8B",
"..	c #565555",
"+.	c #B8B7B7",
"@.	c #242424",
"#.	c #61605F",
"$.	c #807F7F",
"%.	c #151515",
"&.	c #8A8786",
"*.	c #B8B6B6",
"=.	c #A6B7CA",
"-.	c #979595",
";.	c #1C1C1C",
">.	c #0C0C0C",
",.	c #111111",
"'.	c #686767",
").	c #B4B2B2",
"!.	c #9EB1C6",
"~.	c #979696",
"{.	c #575655",
"].	c #777676",
"^.	c #474646",
"/.	c #ABAAAA",
"(.	c #9CAFC4",
"_.	c #BDBBBB",
":.	c #353535",
"<.	c #545454",
"[.	c #ACAAAA",
"}.	c #313131",
"|.	c #020203",
"1.	c #161616",
"2.	c #949393",
"3.	c #99ACC2",
"4.	c #9AADC3",
"5.	c #414245",
"6.	c #807F7E",
"7.	c #8F8E8E",
"8.	c #575656",
"9.	c #B7B5B5",
"0.	c #292826",
"a.	c #030303",
"b.	c #585756",
"c.	c #676768",
"d.	c #101010",
"e.	c #A6A4A4",
"f.	c #96AAC1",
"g.	c #92A7BF",
"h.	c #72706F",
"i.	c #121212",
"j.	c #807E7E",
"k.	c #C5C4C4",
"l.	c #4C4B4B",
"m.	c #3B3B3B",
"n.	c #C0BEBE",
"o.	c #5B5A5A",
"p.	c #050505",
"q.	c #ADACAC",
"r.	c #8EA4BC",
"s.	c #363535",
"t.	c #0D0D0D",
"u.	c #3A3736",
"v.	c #424141",
"w.	c #555353",
"x.	c #535252",
"y.	c #3A3A3A",
"z.	c #403E3E",
"A.	c #989696",
"B.	c #616060",
"C.	c #2B2B2A",
"D.	c #C3C1C1",
"E.	c #656364",
"F.	c #8CA2BB",
"G.	c #5C5C5C",
"H.	c #6E6D6D",
"I.	c #2B2B2B",
"J.	c #939190",
"K.	c #BFBDBD",
"L.	c #424242",
"M.	c #879EB9",
"N.	c #889FB9",
"O.	c #404245",
"P.	c #8A8887",
"Q.	c #403F3E",
"R.	c #1A1A19",
"S.	c #1D1D1D",
"T.	c #807E7D",
"U.	c #939292",
"V.	c #AFADAD",
"W.	c #A6A5A5",
"X.	c #8199B5",
"Y.	c #829AB5",
"Z.	c #C6C5C5",
"`.	c #A8A7A7",
" +	c #181717",
".+	c #454241",
"++	c #33302F",
"@+	c #5B5A59",
"#+	c #7F98B3",
"$+	c #717070",
"%+	c #B3B3B3",
"&+	c #797878",
"*+	c #302D2C",
"=+	c #5A5654",
"-+	c #3D3B39",
";+	c #5A5857",
">+	c #4E4D4D",
",+	c #6C829B",
"'+	c #37393B",
")+	c #B2B0B0",
"!+	c #6D6C6C",
"~+	c #9E9E9E",
"{+	c #CCCCCC",
"]+	c #2D2C2B",
"^+	c #585451",
"/+	c #65605D",
"(+	c #3E3C3A",
"_+	c #4D4C4C",
":+	c #AEADAD",
"<+	c #878585",
"[+	c #100F0F",
"}+	c #585858",
"|+	c #555555",
"1+	c #434343",
"2+	c #828181",
"3+	c #FEFEFE",
"4+	c #818080",
"5+	c #2C2A2A",
"6+	c #5B5754",
"7+	c #63605E",
"8+	c #474544",
"9+	c #575757",
"0+	c #59595A",
"a+	c #2C2C2D",
"b+	c #C7C6C6",
"c+	c #E9E9E9",
"d+	c #1B1A19",
"e+	c #55514E",
"f+	c #757270",
"g+	c #383736",
"h+	c #717171",
"i+	c #7E7F80",
"j+	c #DBDADA",
"k+	c #868585",
"l+	c #312F2E",
"m+	c #585552",
"n+	c #3B3939",
"o+	c #7F7F7F",
"p+	c #E7E7E7",
"q+	c #CDCDCD",
"r+	c #413F3D",
"s+	c #5D5C5C",
"t+	c #FBFBFB",
"u+	c #7C7D7F",
"v+	c #FAFAFA",
"w+	c #535353",
"x+	c #A1A1A1",
"y+	c #666566",
"z+	c #4B4B4B",
"A+	c #676767",
"B+	c #292827",
"C+	c #D9D9D9",
"D+	c #828282",
"E+	c #757474",
"F+	c #C2C1C2",
"G+	c #8B8A8A",
"H+	c #888787",
"I+	c #222121",
"J+	c #413F3E",
"K+	c #7C7B7B",
"L+	c #E1E0E0",
"M+	c #2F2E2E",
"N+	c #D4D3D3",
"O+	c #FCFCFC",
"P+	c #919090",
"Q+	c #3B3A3B",
"R+	c #212020",
"S+	c #AFAFAF",
"T+	c #F3F2F2",
"U+	c #7C7C7D",
"V+	c #F9F9F9",
"W+	c #C2C2C2",
"X+	c #F6F6F6",
"Y+	c #7D7D7D",
"Z+	c #7C7E80",
"`+	c #7F7E7E",
"                                                                ",
". . + @ # # $ % & & * * = * & & & & * * = & $ % & & * & - ; >   ",
", , ' ) ! ! ! ! ! ! ! ! ! ! ! ! ! ! ! ! ! ! ! ! ! ! ! ! ! ! ~   ",
"{ { ] ) ! ! ! ! ! ! ! ! ! ! ! ! ! ! ! ! ! ! ! ! ! ! ! ! ! ^ /   ",
"( ( _ ) ! : < [ [ [ [ [ } } | 1 ! ! 2 3 ! ! ! ! ! ! 4 5 ! ! 6   ",
"7 7 8 ) 9 0 a b b b b b c c d e ! ! f g h ! ! ! ! ! i j k ! l   ",
"m m n ) o p q r s t u u v w > x y ! z A B C ! ! D E F G | ! 6   ",
"H H I ) o p J K L 5 M 5 C N > O 3 ! P Q R S ! ! T U V W X ! l   ",
"Y Z n ) o p J ` ! ! ! ! !  .> ..3 ! ! +.@.> #.$.> %.&.*.! ! 6   ",
"=.=.I ) o p J ` ! ! ! ! !  .> O 3 ! ! ! -.;.>.U ,.'.).^ ! ! 6   ",
"!.!.n ) o p J ~.! ! ! ! !  .> {.3 ! ! ! ! ].> > ^./.! ! ! ! l   ",
"(.(.n ) _.:.J ~.! ! ! ! !  .> <.3 ! ! ! [.}.|.|.1.2.^ ! ! ! l   ",
"3.4.5.) o p J 6.7.4 ! ! !  .> 8.3 ! ! 9.0.a.b.c.R d.e.! ! ! l   ",
"f.g.n ) _.:.J h.i.j.! ! !  .> <.k.! X l.|.m.[ n.o.p.}.q.! ! l   ",
"r.r.n ) _.s.t.u.> > v.w.x.y.> {.3 ! z > z.A.h ! 3 B.> C.D.! E.  ",
"F.F.n ) 4 G.> > > > > > > > U H.3 ! t I.J._.! ! ! K.L.i.< ! l   ",
"M.N.O.) ! ^ ` P.Q.j R.S.Q.T.U.V.! ! : P D ! ! ! ! ! k W./.! E.  ",
"X.Y.O.) ! ! ^ Z.#.`. +.+++@+Z.^ ! ! ! ! ! ! ! ! ! ! ! ! ! ! l   ",
"#+#+n ) ! ! ! ! $+%+&+*+=+-+;+X ! ! ! ! ! ! ! ! ! ! ! ! ! ! >+  ",
",+,+'+< )+)+)+)+!+~+{+]+^+/+(+_+:+)+)+)+)+)+)+)+)+)+)+)+V.<+[+  ",
"}+|+|+|+}+}+|+|+1+2+3+4+5+6+7+8+[+m.}+}+|+}+|+|+9+0+|+|+9+9+a+  ",
"3+3+3+3+3+3+3+3+b+].3+c+d+e+f+T.g+h+3+3+3+3+3+3+3+3+3+3+3+3+i+  ",
"3+3+3+3+3+3+3+3+j+/ 3+3+k+l+m+n+o+p+3+3+3+3+3+3+3+3+3+3+3+3+W   ",
"3+3+3+3+3+3+3+3+c+S 3+3+q+}.r+s+t+3+3+3+3+3+3+3+3+3+3+3+3+3+u+  ",
"3+3+3+3+3+3+3+3+v+w+x+y+z+A+]+B+C+3+3+3+3+3+3+3+3+3+3+3+3+3+W   ",
"3+3+3+3+3+3+3+3+3+D+E+F+G+H+I+J+$+v+3+3+3+3+3+3+3+3+3+3+3+3+K+  ",
"3+3+3+3+3+3+3+3+3+3+3+3+L+O 4+M+j N+3+3+3+3+3+3+3+3+3+3+3+3+i+  ",
"3+3+3+3+3+3+3+3+3+3+3+3+O+P+Q+R+S+T+3+3+3+3+3+3+3+3+3+3+3+3+U+  ",
"3+3+3+3+3+3+3+3+3+3+3+3+3+V+W+X+3+3+3+3+3+3+3+3+3+3+3+3+3+3+Y+  ",
"3+3+3+3+3+3+3+3+3+3+3+3+3+3+3+3+3+3+3+3+3+3+3+3+3+3+3+3+3+3+Z+  ",
"3+3+3+3+3+3+3+3+3+3+3+3+3+3+3+3+3+3+3+3+3+3+3+3+3+3+3+3+3+3+K+  ",
"3+3+3+3+3+3+3+3+3+3+3+3+3+3+3+3+3+3+3+3+3+3+3+3+3+3+3+3+3+3+`+  "};
