/* XPM */
static char *xfce-terminal[] = {
/* columns rows colors chars-per-pixel */
"48 48 52 1",
"  c black",
". c #020202",
"X c #060606",
"o c #0B0B0B",
"O c gray6",
"+ c gray8",
"@ c #181818",
"# c #1D1D1D",
"$ c gray13",
"% c gray15",
"& c #2A2A2A",
"* c #2F2F2F",
"= c gray20",
"- c gray22",
"; c #393939",
": c #3C3C3C",
"> c gray25",
", c #414141",
"< c gray27",
"1 c gray29",
"2 c #4E4E4E",
"3 c #505050",
"4 c #535353",
"5 c gray34",
"6 c gray36",
"7 c #5D5D5D",
"8 c #606060",
"9 c #656565",
"0 c DimGray",
"q c gray43",
"w c gray44",
"e c #727272",
"r c #777777",
"t c #7B7B7B",
"y c #909090",
"u c gray57",
"i c #9A9A9A",
"p c #9B9B9B",
"a c gray61",
"s c #9D9D9D",
"d c gray62",
"f c #9F9F9F",
"g c #A0A0A0",
"h c #A2A2A2",
"j c #D0D0D0",
"k c LightGray",
"l c gray91",
"z c gray92",
"x c #ECECEC",
"c c #F6F6F6",
"v c gray100",
"b c None",
/* pixels */
"bbbbbbbbbbbbbbbbbbbbbbbbbbbbbbbbbbbbbbbbbbbbbbbb",
"bbbbbbbbbbbbbbbbbbbbbbbbbbbbbbbbbbbbbbbbbbbbbbbb",
"bbbbbbbbbbbbbbbbbbbbbbbbbbbbbbbbbbbbbbbbbbbbbbbb",
"bbbbbbbbbbbbbbbbbbbbbbbbbbbbbbbbbbbbbbbbbbbbbbbb",
"                                              bb",
"                                               b",
"  6qwwwwwwwwwwwwwwwwwwwwwwwwwwwwwwwwwwqwwwww3  b",
"  zzkkkkkkkkkkkkkkkkkkkkkkkkkkkkkkkkkkkkkkkzk   ",
"  zgkkkkkkkkkkkkkkkkkkkkkkkkkkkkkkkkkkkkkkkgk   ",
"  zduuuuuuuuuuuuuuuuuuuuuuuuuuuuuuuuuuuuuuudj   ",
"  ldrrrrrrrrrrrrrrrrrrrrrrrrrrrrrrrrrrrrtrrdj   ",
"  ldqqqqqqqqqqqqqqqqqqqqqqqqqqqqqqqqqqqqqqqik   ",
"  ld999999999999999999999999999999999999999dj   ",
"  ld667767776777666677766777766677767777666dk   ",
"  zd334434443444443444443444443444443434433dj   ",
"  li111111111111111111111111111111111111211ik   ",
"  ld,,,,,,,,,,,,,,,,,,,,,,,,,,,,,,,,,,,,,,,dj   ",
"  li------------;;-;-------------;---------ik   ",
"  li**=*******=********=*******************ij   ",
"  zi%%%%%%%%%%%%%%%%%%%%%%%%%%%%%%%&%%%%%%%ik   ",
"  zi#######################################ik   ",
"  zi+++++++++++++++++++++++++++++++++++++++dk   ",
"  lioooooooooooooooooooooooooooooooooooooooij   ",
"  li X  X    X     X  X  X  X     X  X    Xij   ",
"  li XXXXXXXXXXXXXXXXXXoXXXXXXXXXXXXXXXXXXXik   ",
"  zi+o+o+oo++oo+o+o+o+ooo+o+o++o+oo++o+oo+oij   ",
"  zi@@@@@@@@+@@@@@@@@@@@@@@@@@+@@@@@+@@@@@@dj   ",
"  li$$$$$$$$$$$$$$$$$$$$$$$$$$$$$$$$$$$$$$#ik   ",
"  zi&&&&&&&&&&&&&&&&&&&&&&&&&&&&&&&&&&&&&&&dj   ",
"  ld========================-==============ik   ",
"  li::::::::::::::::::::::::::;::::::::::::dj   ",
"  ld<<<<<<<<<<<<<<<<<<<<<<<<<<<<<<<<<<<<<<<ik   ",
"  zi222222222222222322222222322222222222222dk   ",
"  ld644664644664644446464664446464646446444ij   ",
"  ld977979777979977999777979797997979779997dk   ",
"  ld000000000009000090000009000090000000000dj   ",
"  ldwwwwwrwwwwwrwrwwwrwwwwrwwwrwwwrwwrwwrwwdj   ",
"  zdtttttttttttttttttttttttttttttttttttttttdj   ",
"  zduuuuuuuuuuuyuuuuuuuuuuuuuuuuuuuuyuuuuyydk   ",
"  lczzzzzzzzzzzzzzzzzzzzzzzzzzzzzzzzzzzzzzzcj   ",
"  ,33333333333333333333333333333333333333333;   ",
"                                                ",
"b                                               ",
"bb                                              ",
"bbbbbbbbbbbbbbbbbbbbbbbbbbbbbbbbbbbbbbbbbbbbbbbb",
"bbbbbbbbbbbbbbbbbbbbbbbbbbbbbbbbbbbbbbbbbbbbbbbb",
"bbbbbbbbbbbbbbbbbbbbbbbbbbbbbbbbbbbbbbbbbbbbbbbb",
"bbbbbbbbbbbbbbbbbbbbbbbbbbbbbbbbbbbbbbbbbbbbbbbb"
};
