<?xml version="1.0" encoding="UTF-8" standalone="no"?>
<!-- Created with Inkscape (http://www.inkscape.org/) -->
<svg
   xmlns:dc="http://purl.org/dc/elements/1.1/"
   xmlns:cc="http://web.resource.org/cc/"
   xmlns:rdf="http://www.w3.org/1999/02/22-rdf-syntax-ns#"
   xmlns:svg="http://www.w3.org/2000/svg"
   xmlns="http://www.w3.org/2000/svg"
   xmlns:xlink="http://www.w3.org/1999/xlink"
   xmlns:sodipodi="http://inkscape.sourceforge.net/DTD/sodipodi-0.dtd"
   xmlns:inkscape="http://www.inkscape.org/namespaces/inkscape"
   width="454.00000pt"
   height="90.000000pt"
   id="svg1786"
   sodipodi:version="0.32"
   inkscape:version="0.42"
   sodipodi:docbase="/home/nomed/Desktop/dss/dss-artwork/trunk/svg"
   sodipodi:docname="banner.svg">
  <defs
     id="defs1788">
    <linearGradient
       inkscape:collect="always"
       id="linearGradient8087">
      <stop
         style="stop-color:#ffffff;stop-opacity:1;"
         offset="0"
         id="stop8089" />
      <stop
         style="stop-color:#ffffff;stop-opacity:0;"
         offset="1"
         id="stop8091" />
    </linearGradient>
    <linearGradient
       inkscape:collect="always"
       xlink:href="#linearGradient8087"
       id="linearGradient8093"
       x1="272.99662"
       y1="289.00000"
       x2="429.00304"
       y2="289.00000"
       gradientUnits="userSpaceOnUse"
       gradientTransform="matrix(1.611307,0.000000,0.000000,0.997362,-260.1522,-194.7308)" />
    <linearGradient
       inkscape:collect="always"
       id="linearGradient4203">
      <stop
         style="stop-color:#7c95b8;stop-opacity:1;"
         offset="0"
         id="stop4205" />
      <stop
         style="stop-color:#7c95b8;stop-opacity:0;"
         offset="1"
         id="stop4207" />
    </linearGradient>
    <radialGradient
       inkscape:collect="always"
       xlink:href="#linearGradient4203"
       id="radialGradient4209"
       cx="187.29684"
       cy="252.44757"
       fx="187.29684"
       fy="252.44757"
       r="409.21972"
       gradientTransform="matrix(1.239480,0.000000,0.000000,1.051473,-141.3210,-238.6562)"
       gradientUnits="userSpaceOnUse" />
  </defs>
  <sodipodi:namedview
     id="base"
     pagecolor="#ffffff"
     bordercolor="#666666"
     borderopacity="1.0"
     inkscape:pageopacity="0.0"
     inkscape:pageshadow="2"
     inkscape:zoom="1.4000000"
     inkscape:cx="356.10672"
     inkscape:cy="45.047777"
     inkscape:document-units="px"
     inkscape:current-layer="layer2"
     inkscape:window-width="822"
     inkscape:window-height="548"
     inkscape:window-x="20"
     inkscape:window-y="50" />
  <metadata
     id="metadata1791">
    <rdf:RDF>
      <cc:Work
         rdf:about="">
        <dc:format>image/svg+xml</dc:format>
        <dc:type
           rdf:resource="http://purl.org/dc/dcmitype/StillImage" />
      </cc:Work>
    </rdf:RDF>
  </metadata>
  <g
     inkscape:groupmode="layer"
     id="layer3"
     inkscape:label="backù"
     style="display:none">
    <rect
       style="opacity:1.0000000;display:inline"
       id="rect3565"
       width="639.28571"
       height="200.00000"
       x="-116.78571"
       y="-48.214287" />
  </g>
  <g
     inkscape:groupmode="layer"
     id="layer2"
     inkscape:label="back"
     style="display:inline">
    <rect
       style="opacity:1.0000000;color:#000000;fill:#204a87;fill-opacity:1.0000000;fill-rule:nonzero;stroke:none;stroke-width:2.0000000;stroke-linecap:butt;stroke-linejoin:miter;marker:none;marker-start:none;marker-mid:none;marker-end:none;stroke-miterlimit:4.0000000;stroke-dasharray:none;stroke-dashoffset:0.0000000;stroke-opacity:1.0000000;visibility:visible;display:inline;overflow:visible"
       id="rect2671"
       width="800.00000"
       height="600.00000"
       x="-96.467102"
       y="-223.21419" />
    <path
       id="path4201"
       d="M -219.89002,-352.99789 L -219.89002,506.56931 L 297.01430,506.56931 C 476.24413,406.20066 597.54943,214.53112 597.54943,-5.3656258 C 597.54945,-135.52743 555.02209,-255.72023 483.16432,-352.99789 L -219.89002,-352.99789 z "
       style="opacity:1.0000000;color:#000000;fill:url(#radialGradient4209);fill-opacity:1.0000000;fill-rule:nonzero;stroke:#ffffff;stroke-width:0.99999976;stroke-linecap:butt;stroke-linejoin:miter;marker:none;marker-start:none;marker-mid:none;marker-end:none;stroke-miterlimit:4.0000000;stroke-dasharray:0.99999978 5.9999987 ;stroke-dashoffset:0.0000000;stroke-opacity:0.44705883;visibility:visible;display:inline;overflow:visible" />
    <path
       style="opacity:1.0000000;color:#000000;fill:#7c95b8;fill-opacity:0.12173910;fill-rule:nonzero;stroke:#ffffff;stroke-width:1.0000000;stroke-linecap:butt;stroke-linejoin:miter;marker:none;marker-start:none;marker-mid:none;marker-end:none;stroke-miterlimit:4.0000000;stroke-dasharray:1.0000000 6.0000000 ;stroke-dashoffset:0.0000000;stroke-opacity:0.44782606;visibility:visible;display:inline;overflow:visible"
       d="M 2.8453800,-223.21419 C -34.886920,-210.35121 -68.746610,-189.13822 -96.467120,-161.68294 L -96.467120,208.56706 C -49.369260,255.21508 15.401190,284.06706 86.876630,284.06706 C 230.73289,284.06706 347.47038,167.29832 347.47038,23.442064 C 347.47038,-91.002026 273.55374,-188.21502 170.90788,-223.21419 L 2.8453800,-223.21419 z "
       id="path3462" />
    <path
       style="opacity:1.0000000;color:#000000;fill:#7c95b8;fill-opacity:0.12173910;fill-rule:nonzero;stroke:#ffffff;stroke-width:0.99999988;stroke-linecap:butt;stroke-linejoin:miter;marker:none;marker-start:none;marker-mid:none;marker-end:none;stroke-miterlimit:4.0000000;stroke-dasharray:0.99999990 5.9999994 ;stroke-dashoffset:0.0000000;stroke-opacity:0.44705883;visibility:visible;display:inline;overflow:visible"
       d="M -100.46362,-227.20673 L -100.46362,381.77822 L 262.87384,381.77822 C 388.85637,310.66918 474.12314,174.87542 474.12314,19.083284 C 474.12315,-73.133566 444.23023,-158.28759 393.72065,-227.20673 L -100.46362,-227.20673 z "
       id="path3470" />
    <path
       style="font-size:12.000000px;font-style:normal;font-variant:normal;font-weight:bold;font-stretch:normal;text-align:start;line-height:125.00000%;writing-mode:lr-tb;text-anchor:start;fill:#ffffff;fill-opacity:1.0000000;stroke:none;stroke-width:1.0000000px;stroke-linecap:butt;stroke-linejoin:miter;stroke-opacity:1.0000000;font-family:Segoe UI"
       d="M 182.95110,80.884407 L 182.95110,37.164890 L 198.43890,37.164890 C 213.96732,37.164938 221.73152,44.268588 221.73157,58.475872 C 221.73152,65.284847 219.60755,70.721830 215.35960,74.786872 C 211.13197,78.851912 205.49170,80.884407 198.43890,80.884407 L 182.95110,80.884407 M 192.79867,45.183185 L 192.79867,72.896583 L 197.67672,72.896583 C 201.94495,72.896635 205.28845,71.616115 207.70717,69.055125 C 210.14615,66.494187 211.36570,63.008425 211.36570,58.597835 C 211.36570,54.431180 210.15635,51.158825 207.73767,48.780745 C 205.33930,46.382405 201.96530,45.183223 197.61575,45.183185 L 192.79867,45.183185 M 227.28037,79.207555 L 227.28037,69.451457 C 230.77627,72.418975 234.62792,73.902682 238.83522,73.902682 C 240.84742,73.902682 242.41247,73.496205 243.53037,72.683197 C 244.64825,71.849845 245.20717,70.772615 245.20717,69.451457 C 245.20717,68.313297 244.73967,67.246215 243.80475,66.250260 C 242.86977,65.234012 240.63400,63.892562 237.09745,62.225855 C 230.43077,59.075495 227.09742,54.807195 227.09742,49.420990 C 227.09742,45.498263 228.54055,42.358022 231.42667,40.000258 C 234.33322,37.622250 238.20517,36.433230 243.04257,36.433183 C 247.31080,36.433230 250.84740,36.992173 253.65232,38.110013 L 253.65232,47.225868 C 250.72545,45.193383 247.37180,44.177125 243.59132,44.177090 C 241.70107,44.177125 240.20717,44.583625 239.10965,45.396603 C 238.01208,46.209640 237.46330,47.276713 237.46330,48.597820 C 237.46330,49.898665 237.89010,51.006385 238.74375,51.920990 C 239.61775,52.835650 241.44700,53.953537 244.23157,55.274675 C 248.54050,57.327515 251.50795,59.370208 253.13402,61.402703 C 254.76000,63.435247 255.57300,65.833582 255.57305,68.597810 C 255.57300,72.622215 254.11977,75.803120 251.21330,78.140525 C 248.32710,80.477930 244.11975,81.646580 238.59135,81.646580 C 234.05880,81.646580 230.28847,80.833572 227.28037,79.207555 M 260.81695,79.207555 L 260.81695,69.451457 C 264.31285,72.418975 268.16450,73.902682 272.37180,73.902682 C 274.38400,73.902682 275.94905,73.496205 277.06695,72.683197 C 278.18483,71.849845 278.74375,70.772615 278.74375,69.451457 C 278.74375,68.313297 278.27630,67.246215 277.34133,66.250260 C 276.40635,65.234012 274.17057,63.892562 270.63403,62.225855 C 263.96735,59.075495 260.63400,54.807195 260.63400,49.420990 C 260.63400,45.498263 262.07712,42.358022 264.96330,40.000258 C 267.86980,37.622250 271.74175,36.433230 276.57915,36.433183 C 280.84742,36.433230 284.38397,36.992173 287.18890,38.110013 L 287.18890,47.225868 C 284.26207,45.193383 280.90837,44.177125 277.12795,44.177090 C 275.23765,44.177125 273.74375,44.583625 272.64622,45.396603 C 271.54865,46.209640 270.99987,47.276713 270.99987,48.597820 C 270.99987,49.898665 271.42668,51.006385 272.28037,51.920990 C 273.15432,52.835650 274.98357,53.953537 277.76815,55.274675 C 282.07707,57.327515 285.04457,59.370208 286.67060,61.402703 C 288.29662,63.435247 289.10962,65.833582 289.10962,68.597810 C 289.10962,72.622215 287.65635,75.803120 284.74987,78.140525 C 281.86367,80.477930 277.65637,81.646580 272.12792,81.646580 C 267.59538,81.646580 263.82505,80.833572 260.81695,79.207555 M 339.35353,80.884407 L 313.31692,80.884407 L 313.31692,37.164890 L 323.16450,37.164890 L 323.16450,72.896583 L 339.35353,72.896583 L 339.35353,80.884407 M 355.11575,80.884407 L 345.26818,80.884407 L 345.26818,37.164890 L 355.11575,37.164890 L 355.11575,80.884407 M 401.42672,37.164890 L 386.36575,80.884407 L 375.20722,80.884407 L 360.32915,37.164890 L 370.93890,37.164890 L 380.05477,67.591710 C 380.54252,69.238073 380.83725,70.691340 380.93892,71.951462 L 381.12182,71.951462 C 381.26407,70.589720 381.57912,69.095815 382.06697,67.469797 L 391.12185,37.164890 L 401.42672,37.164890 M 432.95110,80.884407 L 406.73160,80.884407 L 406.73160,37.164890 L 431.94500,37.164890 L 431.94500,45.183185 L 416.57917,45.183185 L 416.57917,54.908782 L 430.87792,54.908782 L 430.87792,62.896607 L 416.57917,62.896607 L 416.57917,72.896583 L 432.95110,72.896583 L 432.95110,80.884407"
       id="text4943" />
    <path
       style="fill:none;fill-opacity:0.75000000;fill-rule:evenodd;stroke:url(#linearGradient8093);stroke-width:5.0707917;stroke-linecap:butt;stroke-linejoin:miter;stroke-miterlimit:4.0000000;stroke-dasharray:5.0707916 5.0707916 ;stroke-dashoffset:0.0000000;stroke-opacity:1.0000000"
       d="M 182.95179,93.506810 L 427.88100,93.506810"
       id="path7359" />
    <g
       id="g2682"
       transform="translate(-86.52989,-185.1554)">
      <path
         sodipodi:type="arc"
         style="fill:#f5f5f5;fill-opacity:1.0000000;stroke:#babdb6;stroke-width:5.2480216;stroke-miterlimit:4.0000000;stroke-dasharray:none;stroke-opacity:1.0000000"
         id="path1671"
         sodipodi:cx="157.14285"
         sodipodi:cy="426.64789"
         sodipodi:rx="131.42857"
         sodipodi:ry="131.42857"
         d="M 288.57143 426.64789 A 131.42857 131.42857 0 1 1  25.714279,426.64789 A 131.42857 131.42857 0 1 1  288.57143 426.64789 z"
         transform="matrix(0.190548,0.000000,0.000000,0.190548,152.7065,167.4619)" />
      <path
         sodipodi:type="arc"
         style="fill:#204a87;fill-opacity:1.0000000;stroke:none;stroke-width:5.2873573;stroke-miterlimit:4.0000000;stroke-opacity:1.0000000"
         id="path1673"
         sodipodi:cx="157.14285"
         sodipodi:cy="426.64789"
         sodipodi:rx="131.42857"
         sodipodi:ry="131.42857"
         d="M 288.57143 426.64789 A 131.42857 131.42857 0 1 1  25.714279,426.64789 A 131.42857 131.42857 0 1 1  288.57143 426.64789 z"
         transform="matrix(0.170904,0.000000,0.000000,0.170904,155.7935,175.8430)" />
      <path
         sodipodi:type="arc"
         style="fill:#ffffff;fill-opacity:1.0000000;stroke:none;stroke-width:5.2873573;stroke-miterlimit:4.0000000;stroke-opacity:1.0000000"
         id="path1675"
         sodipodi:cx="350.00000"
         sodipodi:cy="479.50504"
         sodipodi:rx="41.428570"
         sodipodi:ry="41.428570"
         d="M 391.42857 479.50504 A 41.428570 41.428570 0 1 1  308.57143,479.50504 A 41.428570 41.428570 0 1 1  391.42857 479.50504 z"
         transform="matrix(0.208769,0.000000,0.000000,0.208769,113.6616,140.1641)" />
      <path
         sodipodi:type="arc"
         style="fill:#ffffff;fill-opacity:1.0000000;stroke:none;stroke-width:5.2873573;stroke-miterlimit:4.0000000;stroke-opacity:1.0000000"
         id="path1677"
         sodipodi:cx="417.85715"
         sodipodi:cy="574.14789"
         sodipodi:rx="30.000000"
         sodipodi:ry="31.071428"
         d="M 447.85715 574.14789 A 30.000000 31.071428 0 1 1  387.85715,574.14789 A 30.000000 31.071428 0 1 1  447.85715 574.14789 z"
         transform="matrix(0.180726,0.000000,0.000000,0.180726,111.8588,152.9657)" />
      <path
         sodipodi:type="arc"
         style="fill:#ffffff;fill-opacity:1.0000000;stroke:none;stroke-width:5.2873573;stroke-miterlimit:4.0000000;stroke-opacity:1.0000000"
         id="path1679"
         sodipodi:cx="417.85715"
         sodipodi:cy="574.14789"
         sodipodi:rx="30.000000"
         sodipodi:ry="31.071428"
         d="M 447.85715 574.14789 A 30.000000 31.071428 0 1 1  387.85715,574.14789 A 30.000000 31.071428 0 1 1  447.85715 574.14789 z"
         transform="matrix(9.681743e-2,0.000000,0.000000,9.681743e-2,137.3034,206.7962)" />
      <path
         sodipodi:type="arc"
         style="fill:#ffffff;fill-opacity:1.0000000;stroke:none;stroke-width:5.2873573;stroke-miterlimit:4.0000000;stroke-opacity:1.0000000"
         id="path1681"
         sodipodi:cx="417.85715"
         sodipodi:cy="574.14789"
         sodipodi:rx="30.000000"
         sodipodi:ry="31.071428"
         d="M 447.85715 574.14789 A 30.000000 31.071428 0 1 1  387.85715,574.14789 A 30.000000 31.071428 0 1 1  447.85715 574.14789 z"
         transform="matrix(8.850828e-2,0.000000,0.000000,8.850828e-2,140.8957,200.5943)" />
      <path
         sodipodi:type="arc"
         style="fill:#204a87;fill-opacity:1.0000000;stroke:#ffffff;stroke-width:11.298363;stroke-miterlimit:4.0000000;stroke-dasharray:none;stroke-opacity:1.0000000"
         id="path1685"
         sodipodi:cx="417.85715"
         sodipodi:cy="574.14789"
         sodipodi:rx="30.000000"
         sodipodi:ry="31.071428"
         d="M 447.85715 574.14789 A 30.000000 31.071428 0 1 1  387.85715,574.14789 A 30.000000 31.071428 0 1 1  447.85715 574.14789 z"
         transform="matrix(8.549257e-2,-2.290757e-2,2.290757e-2,8.549257e-2,162.2009,218.8084)" />
      <path
         sodipodi:type="arc"
         style="fill:#204a87;fill-opacity:1.0000000;stroke:#ffffff;stroke-width:11.298363;stroke-miterlimit:4.0000000;stroke-dasharray:none;stroke-opacity:1.0000000"
         id="path1687"
         sodipodi:cx="417.85715"
         sodipodi:cy="574.14789"
         sodipodi:rx="30.000000"
         sodipodi:ry="31.071428"
         d="M 447.85715 574.14789 A 30.000000 31.071428 0 1 1  387.85715,574.14789 A 30.000000 31.071428 0 1 1  447.85715 574.14789 z"
         transform="matrix(8.549257e-2,-2.290757e-2,2.290757e-2,8.549257e-2,112.6493,232.0857)" />
      <path
         sodipodi:type="arc"
         style="fill:#204a87;fill-opacity:1.0000000;stroke:#ffffff;stroke-width:11.298363;stroke-miterlimit:4.0000000;stroke-dasharray:none;stroke-opacity:1.0000000"
         id="path1689"
         sodipodi:cx="417.85715"
         sodipodi:cy="574.14789"
         sodipodi:rx="30.000000"
         sodipodi:ry="31.071428"
         d="M 447.85715 574.14789 A 30.000000 31.071428 0 1 1  387.85715,574.14789 A 30.000000 31.071428 0 1 1  447.85715 574.14789 z"
         transform="matrix(8.549257e-2,-2.290757e-2,2.290757e-2,8.549257e-2,125.0172,180.1985)" />
    </g>
  </g>
</svg>
