<?xml version="1.0" encoding="UTF-8" standalone="no"?>
<!-- Created with Inkscape (http://www.inkscape.org/) -->
<svg
   xmlns:dc="http://purl.org/dc/elements/1.1/"
   xmlns:cc="http://web.resource.org/cc/"
   xmlns:rdf="http://www.w3.org/1999/02/22-rdf-syntax-ns#"
   xmlns:svg="http://www.w3.org/2000/svg"
   xmlns="http://www.w3.org/2000/svg"
   xmlns:xlink="http://www.w3.org/1999/xlink"
   xmlns:sodipodi="http://inkscape.sourceforge.net/DTD/sodipodi-0.dtd"
   xmlns:inkscape="http://www.inkscape.org/namespaces/inkscape"
   width="800px"
   height="600px"
   id="svg1306"
   sodipodi:version="0.32"
   inkscape:version="0.42"
   sodipodi:docbase="/tmp"
   sodipodi:docname="dss-splash.svg"
   inkscape:export-filename="C:\GFX\SVG_Render\dss-splash-640-480.png"
   inkscape:export-xdpi="72.000000"
   inkscape:export-ydpi="72.000000">
  <defs
     id="defs1308">
    <linearGradient
       inkscape:collect="always"
       id="linearGradient8087">
      <stop
         style="stop-color:#ffffff;stop-opacity:1;"
         offset="0"
         id="stop8089" />
      <stop
         style="stop-color:#ffffff;stop-opacity:0;"
         offset="1"
         id="stop8091" />
    </linearGradient>
    <linearGradient
       id="linearGradient7167">
      <stop
         style="stop-color:#839bbc;stop-opacity:1;"
         offset="0"
         id="stop7169" />
      <stop
         style="stop-color:#839bbc;stop-opacity:0;"
         offset="1"
         id="stop7171" />
    </linearGradient>
    <linearGradient
       id="linearGradient6431">
      <stop
         style="stop-color:#6c88af;stop-opacity:1;"
         offset="0"
         id="stop6433" />
      <stop
         style="stop-color:#6c88af;stop-opacity:0.00000000;"
         offset="1.0000000"
         id="stop6435" />
    </linearGradient>
    <linearGradient
       inkscape:collect="always"
       id="linearGradient4203">
      <stop
         style="stop-color:#7c95b8;stop-opacity:1;"
         offset="0"
         id="stop4205" />
      <stop
         style="stop-color:#7c95b8;stop-opacity:0;"
         offset="1"
         id="stop4207" />
    </linearGradient>
    <radialGradient
       inkscape:collect="always"
       xlink:href="#linearGradient4203"
       id="radialGradient4209"
       cx="187.29684"
       cy="252.44757"
       fx="187.29684"
       fy="252.44757"
       r="409.21972"
       gradientTransform="matrix(1.239480,0.000000,0.000000,1.051473,-44.85388,-15.44197)"
       gradientUnits="userSpaceOnUse" />
    <linearGradient
       inkscape:collect="always"
       xlink:href="#linearGradient6431"
       id="linearGradient6437"
       x1="186.00000"
       y1="304.50000"
       x2="186.00000"
       y2="273.50000"
       gradientUnits="userSpaceOnUse" />
    <linearGradient
       inkscape:collect="always"
       xlink:href="#linearGradient7167"
       id="linearGradient7177"
       x1="191.00000"
       y1="341.00000"
       x2="191.00000"
       y2="234.00000"
       gradientUnits="userSpaceOnUse"
       gradientTransform="matrix(9.000000e-2,0.000000,0.000000,0.720589,150.0000,76.55882)" />
    <linearGradient
       inkscape:collect="always"
       xlink:href="#linearGradient8087"
       id="linearGradient8093"
       x1="272.99662"
       y1="289.00000"
       x2="429.00304"
       y2="289.00000"
       gradientUnits="userSpaceOnUse"
       gradientTransform="translate(355.0000,285.0000)" />
    <pattern
       patternUnits="userSpaceOnUse"
       width="105.02930"
       height="16.467280"
       patternTransform="translate(629.4498,536.7400)"
       id="pattern1441">
      <path
         style="font-size:25.000000px;font-style:normal;font-variant:normal;font-weight:bold;font-stretch:normal;text-align:start;line-height:125.00000%;writing-mode:lr-tb;text-anchor:start;color:#000000;fill:#ffffff;fill-opacity:1.0000000;fill-rule:nonzero;stroke:none;stroke-width:1.0000000px;stroke-linecap:butt;stroke-linejoin:miter;marker:none;marker-start:none;marker-mid:none;marker-end:none;stroke-miterlimit:4.0000000;stroke-dashoffset:0.0000000;stroke-opacity:1.0000000;visibility:visible;display:inline;overflow:visible;font-family:Tw Cen MT"
         d="M 639.54501,538.41232 L 637.39658,540.76828 C 636.26538,540.10098 635.45158,539.76732 634.95517,539.76730 C 634.57268,539.76732 634.24309,539.91380 633.96640,540.20676 C 633.68970,540.49160 633.55136,540.83340 633.55136,541.23215 C 633.55136,542.02155 634.26750,542.70514 635.69980,543.28293 C 636.74960,543.73053 637.54305,544.13743 638.08017,544.50363 C 638.61727,544.86171 639.06486,545.36220 639.42294,546.00510 C 639.78914,546.64801 639.97225,547.34381 639.97226,548.09250 C 639.97225,549.46783 639.41479,550.66412 638.29990,551.68137 C 637.19312,552.69862 635.88290,553.20724 634.36923,553.20724 C 632.70907,553.20724 631.06926,552.42600 629.44980,550.86349 L 631.72031,548.21457 C 632.73756,549.26438 633.68970,549.78928 634.57675,549.78928 C 634.99178,549.78928 635.39055,549.60617 635.77304,549.23996 C 636.15552,548.86561 636.34676,548.47499 636.34677,548.06808 C 636.34676,547.22987 635.46379,546.49338 633.69785,545.85861 C 632.68873,545.49241 631.97258,545.15061 631.54941,544.83322 C 631.12623,544.50771 630.76816,544.03977 630.47519,543.42941 C 630.19036,542.81093 630.04794,542.18024 630.04794,541.53732 C 630.04794,540.11318 630.51181,538.95758 631.43954,538.07053 C 632.36728,537.18350 633.57984,536.73998 635.07724,536.73996 C 636.85132,536.73998 638.34058,537.29743 639.54501,538.41232 M 641.36386,536.95969 L 652.14267,536.95969 L 652.14267,540.36545 L 648.46835,540.36545 L 648.46835,552.98752 L 645.01376,552.98752 L 645.01376,540.36545 L 641.36386,540.36545 L 641.36386,536.95969 M 658.22177,536.95969 L 660.89511,536.95969 L 667.43808,552.98752 L 663.97128,552.98752 L 662.66513,549.83810 L 656.52499,549.83810 L 655.26767,552.98752 L 651.81308,552.98752 L 658.22177,536.95969 M 659.56454,542.20871 L 657.69687,546.93283 L 661.49326,546.93283 L 659.56454,542.20871 M 669.83066,536.95969 L 675.10410,536.95969 C 676.70728,536.95970 677.97274,537.38288 678.90048,538.22922 C 679.83634,539.07559 680.30428,540.21898 680.30429,541.65939 C 680.30428,542.48134 680.08862,543.33584 679.65732,544.22287 C 679.23413,545.10992 678.44881,545.80572 677.30136,546.31027 L 681.78134,552.98752 L 677.82626,552.98752 L 673.67587,546.78635 L 673.28525,546.78635 L 673.28525,552.98752 L 669.83066,552.98752 L 669.83066,536.95969 M 673.30966,539.81613 L 673.30966,543.99094 L 674.05429,543.99094 C 675.85279,543.99095 676.75204,543.25446 676.75204,541.78146 C 676.75204,541.17926 676.51603,540.70319 676.04404,540.35324 C 675.58016,539.99518 674.93319,539.81614 674.10312,539.81613 L 673.30966,539.81613 M 683.11191,536.95969 L 693.89072,536.95969 L 693.89072,540.36545 L 690.21640,540.36545 L 690.21640,552.98752 L 686.76181,552.98752 L 686.76181,540.36545 L 683.11191,540.36545 L 683.11191,536.95969 M 696.00253,536.95969 L 699.44492,536.95969 L 699.44492,552.98752 L 696.00253,552.98752 L 696.00253,536.95969 M 713.26328,536.95969 L 716.64462,536.95969 L 716.64462,552.98752 L 713.29990,552.98752 L 705.93906,542.61154 L 705.93906,552.98752 L 702.49667,552.98752 L 702.49667,536.95969 L 705.89023,536.95969 L 713.26328,547.26242 L 713.26328,536.95969 M 733.47812,540.43869 L 731.18320,542.58713 C 730.70304,541.75706 730.10897,541.13857 729.40097,540.73166 C 728.69295,540.31663 727.95239,540.10911 727.17929,540.10910 C 725.92603,540.10911 724.83553,540.58519 723.90781,541.53732 C 722.98821,542.48948 722.52841,543.61253 722.52841,544.90646 C 722.52841,546.28180 722.98821,547.44960 723.90781,548.40988 C 724.83553,549.36203 725.95044,549.83811 727.25253,549.83810 C 727.96053,549.83811 728.64006,549.65907 729.29111,549.30099 C 729.95028,548.94293 730.47925,548.27154 730.87802,547.28683 L 727.08163,547.28683 L 727.08163,544.16183 L 734.47910,544.16183 L 734.47910,546.23703 C 734.47908,547.30312 734.11287,548.45058 733.38046,549.67941 C 732.64803,550.90012 731.68367,551.79530 730.48740,552.36496 C 729.29110,552.92648 728.08260,553.20724 726.86191,553.20724 C 724.64836,553.20724 722.78069,552.40565 721.25888,550.80246 C 719.73707,549.19927 718.97617,547.21767 718.97617,544.85764 C 718.97617,542.61969 719.75741,540.70726 721.31992,539.12033 C 722.89055,537.53343 724.77857,536.73998 726.98398,536.73996 C 729.79972,536.73998 731.96443,537.97288 733.47812,540.43869"
         id="path1443"
         transform="translate(-629.4498,-536.7400)" />
    </pattern>
  </defs>
  <sodipodi:namedview
     id="base"
     pagecolor="#ffffff"
     bordercolor="#666666"
     borderopacity="1.0"
     inkscape:pageopacity="0.0"
     inkscape:pageshadow="2"
     inkscape:zoom="1.0000000"
     inkscape:cx="402.78463"
     inkscape:cy="318.37500"
     inkscape:current-layer="layer1"
     inkscape:document-units="px"
     inkscape:showpageshadow="false"
     inkscape:window-width="1014"
     inkscape:window-height="722"
     inkscape:window-x="-4"
     inkscape:window-y="30" />
  <metadata
     id="metadata1311">
    <rdf:RDF>
      <cc:Work
         rdf:about="">
        <dc:format>image/svg+xml</dc:format>
        <dc:type
           rdf:resource="http://purl.org/dc/dcmitype/StillImage" />
      </cc:Work>
    </rdf:RDF>
  </metadata>
  <g
     id="layer1"
     inkscape:label="Layer 1"
     inkscape:groupmode="layer">
    <rect
       style="opacity:1.0000000;color:#000000;fill:#204a87;fill-opacity:1.0000000;fill-rule:nonzero;stroke:none;stroke-width:2.0000000;stroke-linecap:butt;stroke-linejoin:miter;marker:none;marker-start:none;marker-mid:none;marker-end:none;stroke-miterlimit:4.0000000;stroke-dasharray:none;stroke-dashoffset:0.00000000;stroke-opacity:1.0000000;visibility:visible;display:inline;overflow:visible"
       id="rect2671"
       width="800.00000"
       height="600.00000"
       x="0.00000000"
       y="7.8159701e-014" />
    <path
       id="path4201"
       d="M -123.42290,-129.78370 L -123.42290,729.78350 L 393.48142,729.78350 C 572.71125,629.41485 694.01655,437.74531 694.01655,217.84856 C 694.01657,87.686759 651.48921,-32.506040 579.63144,-129.78370 L -123.42290,-129.78370 z "
       style="opacity:1.0000000;color:#000000;fill:url(#radialGradient4209);fill-opacity:1.0;fill-rule:nonzero;stroke:#ffffff;stroke-width:0.99999976;stroke-linecap:butt;stroke-linejoin:miter;marker:none;marker-start:none;marker-mid:none;marker-end:none;stroke-miterlimit:4.0000000;stroke-dasharray:0.99999978 5.9999987;stroke-dashoffset:0.00000000;stroke-opacity:0.44705883;visibility:visible;display:inline;overflow:visible" />
    <path
       style="opacity:1.0000000;color:#000000;fill:#7c95b8;fill-opacity:0.12173910;fill-rule:nonzero;stroke:#ffffff;stroke-width:1.0000000;stroke-linecap:butt;stroke-linejoin:miter;marker:none;marker-start:none;marker-mid:none;marker-end:none;stroke-miterlimit:4.0000000;stroke-dasharray:1.0000000,6.0000000;stroke-dashoffset:0.00000000;stroke-opacity:0.44782609;visibility:visible;display:inline;overflow:visible"
       d="M 99.312500 0.00000000 C 61.580199 12.862973 27.720507 34.075962 0.00000000 61.531250 L 0.00000000 431.78125 C 47.097866 478.42927 111.86831 507.28125 183.34375 507.28125 C 327.20001 507.28125 443.93750 390.51251 443.93750 246.65625 C 443.93750 132.21216 370.02086 34.999170 267.37500 0.00000000 L 99.312500 0.00000000 z "
       id="path3462" />
    <path
       style="opacity:1.0000000;color:#000000;fill:#7c95b8;fill-opacity:0.12173910;fill-rule:nonzero;stroke:#ffffff;stroke-width:0.99999988;stroke-linecap:butt;stroke-linejoin:miter;marker:none;marker-start:none;marker-mid:none;marker-end:none;stroke-miterlimit:4.0000000;stroke-dasharray:0.99999990 5.9999994 ;stroke-dashoffset:0.00000000;stroke-opacity:0.44705883;visibility:visible;display:inline;overflow:visible"
       d="M -3.9965010,-3.9925398 L -3.9965010,604.99241 L 359.34096,604.99241 C 485.32349,533.88337 570.59026,398.08961 570.59026,242.29747 C 570.59027,150.08062 540.69735,64.926598 490.18777,-3.9925398 L -3.9965010,-3.9925398 z "
       id="path3470" />
    <rect
       style="fill:none;stroke:none"
       width="105.02930"
       height="16.467279"
       x="629.44983"
       y="536.73999"
       id="rect1445" />
    <path
       style="fill:none;fill-opacity:0.75000000;fill-rule:evenodd;stroke:url(#linearGradient8093);stroke-width:4.0000000;stroke-linecap:butt;stroke-linejoin:miter;stroke-miterlimit:4.0000000;stroke-dasharray:4.0000000 4.0000000 ;stroke-dashoffset:0.0000000;stroke-opacity:1.0000000"
       d="M 629.99662,574.00000 L 782.00304,574.00000"
       id="path7359" />
    <g
       id="g2682"
       transform="translate(532.3273,251.3446)">
      <path
         sodipodi:type="arc"
         style="fill:#f5f5f5;fill-opacity:1.0000000;stroke:#babdb6;stroke-width:5.2480216;stroke-miterlimit:4.0000000;stroke-dasharray:none;stroke-opacity:1.0000000"
         id="path1671"
         sodipodi:cx="157.14285"
         sodipodi:cy="426.64789"
         sodipodi:rx="131.42857"
         sodipodi:ry="131.42857"
         d="M 288.57143 426.64789 A 131.42857 131.42857 0 1 1  25.714279,426.64789 A 131.42857 131.42857 0 1 1  288.57143 426.64789 z"
         transform="matrix(0.190548,0.000000,0.000000,0.190548,152.7065,167.4619)" />
      <path
         sodipodi:type="arc"
         style="fill:#204a87;fill-opacity:1.0000000;stroke:none;stroke-width:5.2873573;stroke-miterlimit:4.0000000;stroke-opacity:1.0000000"
         id="path1673"
         sodipodi:cx="157.14285"
         sodipodi:cy="426.64789"
         sodipodi:rx="131.42857"
         sodipodi:ry="131.42857"
         d="M 288.57143 426.64789 A 131.42857 131.42857 0 1 1  25.714279,426.64789 A 131.42857 131.42857 0 1 1  288.57143 426.64789 z"
         transform="matrix(0.170904,0.000000,0.000000,0.170904,155.7935,175.8430)" />
      <path
         sodipodi:type="arc"
         style="fill:#ffffff;fill-opacity:1.0000000;stroke:none;stroke-width:5.2873573;stroke-miterlimit:4.0000000;stroke-opacity:1.0000000"
         id="path1675"
         sodipodi:cx="350.00000"
         sodipodi:cy="479.50504"
         sodipodi:rx="41.428570"
         sodipodi:ry="41.428570"
         d="M 391.42857 479.50504 A 41.428570 41.428570 0 1 1  308.57143,479.50504 A 41.428570 41.428570 0 1 1  391.42857 479.50504 z"
         transform="matrix(0.208769,0.000000,0.000000,0.208769,113.6616,140.1641)" />
      <path
         sodipodi:type="arc"
         style="fill:#ffffff;fill-opacity:1.0000000;stroke:none;stroke-width:5.2873573;stroke-miterlimit:4.0000000;stroke-opacity:1.0000000"
         id="path1677"
         sodipodi:cx="417.85715"
         sodipodi:cy="574.14789"
         sodipodi:rx="30.000000"
         sodipodi:ry="31.071428"
         d="M 447.85715 574.14789 A 30.000000 31.071428 0 1 1  387.85715,574.14789 A 30.000000 31.071428 0 1 1  447.85715 574.14789 z"
         transform="matrix(0.180726,0.000000,0.000000,0.180726,111.8588,152.9657)" />
      <path
         sodipodi:type="arc"
         style="fill:#ffffff;fill-opacity:1.0000000;stroke:none;stroke-width:5.2873573;stroke-miterlimit:4.0000000;stroke-opacity:1.0000000"
         id="path1679"
         sodipodi:cx="417.85715"
         sodipodi:cy="574.14789"
         sodipodi:rx="30.000000"
         sodipodi:ry="31.071428"
         d="M 447.85715 574.14789 A 30.000000 31.071428 0 1 1  387.85715,574.14789 A 30.000000 31.071428 0 1 1  447.85715 574.14789 z"
         transform="matrix(9.681743e-2,0.000000,0.000000,9.681743e-2,137.3034,206.7962)" />
      <path
         sodipodi:type="arc"
         style="fill:#ffffff;fill-opacity:1.0000000;stroke:none;stroke-width:5.2873573;stroke-miterlimit:4.0000000;stroke-opacity:1.0000000"
         id="path1681"
         sodipodi:cx="417.85715"
         sodipodi:cy="574.14789"
         sodipodi:rx="30.000000"
         sodipodi:ry="31.071428"
         d="M 447.85715 574.14789 A 30.000000 31.071428 0 1 1  387.85715,574.14789 A 30.000000 31.071428 0 1 1  447.85715 574.14789 z"
         transform="matrix(8.850828e-2,0.000000,0.000000,8.850828e-2,140.8957,200.5943)" />
      <path
         sodipodi:type="arc"
         style="fill:#204a87;fill-opacity:1.0000000;stroke:#ffffff;stroke-width:11.298363;stroke-miterlimit:4.0000000;stroke-dasharray:none;stroke-opacity:1.0000000"
         id="path1685"
         sodipodi:cx="417.85715"
         sodipodi:cy="574.14789"
         sodipodi:rx="30.000000"
         sodipodi:ry="31.071428"
         d="M 447.85715 574.14789 A 30.000000 31.071428 0 1 1  387.85715,574.14789 A 30.000000 31.071428 0 1 1  447.85715 574.14789 z"
         transform="matrix(8.549257e-2,-2.290757e-2,2.290757e-2,8.549257e-2,162.2009,218.8084)" />
      <path
         sodipodi:type="arc"
         style="fill:#204a87;fill-opacity:1.0000000;stroke:#ffffff;stroke-width:11.298363;stroke-miterlimit:4.0000000;stroke-dasharray:none;stroke-opacity:1.0000000"
         id="path1687"
         sodipodi:cx="417.85715"
         sodipodi:cy="574.14789"
         sodipodi:rx="30.000000"
         sodipodi:ry="31.071428"
         d="M 447.85715 574.14789 A 30.000000 31.071428 0 1 1  387.85715,574.14789 A 30.000000 31.071428 0 1 1  447.85715 574.14789 z"
         transform="matrix(8.549257e-2,-2.290757e-2,2.290757e-2,8.549257e-2,112.6493,232.0857)" />
      <path
         sodipodi:type="arc"
         style="fill:#204a87;fill-opacity:1.0000000;stroke:#ffffff;stroke-width:11.298363;stroke-miterlimit:4.0000000;stroke-dasharray:none;stroke-opacity:1.0000000"
         id="path1689"
         sodipodi:cx="417.85715"
         sodipodi:cy="574.14789"
         sodipodi:rx="30.000000"
         sodipodi:ry="31.071428"
         d="M 447.85715 574.14789 A 30.000000 31.071428 0 1 1  387.85715,574.14789 A 30.000000 31.071428 0 1 1  447.85715 574.14789 z"
         transform="matrix(8.549257e-2,-2.290757e-2,2.290757e-2,8.549257e-2,125.0172,180.1985)" />
    </g>
    <text
       xml:space="preserve"
       style="font-size:14.000000px;font-style:normal;font-variant:normal;font-weight:bold;font-stretch:normal;text-align:start;line-height:125.00000%;writing-mode:lr-tb;text-anchor:start;fill:#ffffff;fill-opacity:1.0000000;stroke:none;stroke-width:1.0000000px;stroke-linecap:butt;stroke-linejoin:miter;stroke-opacity:1.0000000;font-family:Bitstream Vera Sans"
       x="628"
       y="566"
       id="text1453"
       sodipodi:linespacing="125.00000%"
       transform="matrix(1.000000,0.000000,8.000000e-2,1.000000,0.000000,0.000000"><tspan
         sodipodi:role="line"
         id="tspan1455"
         x="628.00000"
         y="566.00000">http://dss.berlios.de</tspan></text>
  </g>
</svg>
